%TF.GenerationSoftware,KiCad,Pcbnew,9.0.4*%
%TF.CreationDate,2026-04-14T18:53:30-07:00*%
%TF.ProjectId,stm32_system_on_module,73746d33-325f-4737-9973-74656d5f6f6e,rev?*%
%TF.SameCoordinates,Original*%
%TF.FileFunction,Paste,Top*%
%TF.FilePolarity,Positive*%
%FSLAX46Y46*%
G04 Gerber Fmt 4.6, Leading zero omitted, Abs format (unit mm)*
G04 Created by KiCad (PCBNEW 9.0.4) date 2026-04-14 18:53:30*
%MOMM*%
%LPD*%
G01*
G04 APERTURE LIST*
G04 Aperture macros list*
%AMRoundRect*
0 Rectangle with rounded corners*
0 $1 Rounding radius*
0 $2 $3 $4 $5 $6 $7 $8 $9 X,Y pos of 4 corners*
0 Add a 4 corners polygon primitive as box body*
4,1,4,$2,$3,$4,$5,$6,$7,$8,$9,$2,$3,0*
0 Add four circle primitives for the rounded corners*
1,1,$1+$1,$2,$3*
1,1,$1+$1,$4,$5*
1,1,$1+$1,$6,$7*
1,1,$1+$1,$8,$9*
0 Add four rect primitives between the rounded corners*
20,1,$1+$1,$2,$3,$4,$5,0*
20,1,$1+$1,$4,$5,$6,$7,0*
20,1,$1+$1,$6,$7,$8,$9,0*
20,1,$1+$1,$8,$9,$2,$3,0*%
%AMRotRect*
0 Rectangle, with rotation*
0 The origin of the aperture is its center*
0 $1 length*
0 $2 width*
0 $3 Rotation angle, in degrees counterclockwise*
0 Add horizontal line*
21,1,$1,$2,0,0,$3*%
%AMFreePoly0*
4,1,153,1.155981,0.644903,1.160496,0.644000,1.166000,0.644000,1.166981,0.643903,1.176981,0.641903,1.177857,0.641642,1.192857,0.635642,1.193236,0.635472,1.197052,0.633564,1.201857,0.631642,1.203000,0.631000,1.206798,0.628151,1.211572,0.625287,1.212000,0.625000,1.216000,0.622000,1.216536,0.621536,1.220288,0.617784,1.224000,0.615000,1.225000,0.614000,1.227784,0.610288,
1.231536,0.606536,1.232000,0.606000,1.235000,0.602000,1.235287,0.601572,1.238151,0.596798,1.241000,0.593000,1.241642,0.591857,1.243564,0.587052,1.245472,0.583236,1.245642,0.582857,1.251642,0.567857,1.251903,0.566981,1.253903,0.556981,1.254000,0.556000,1.254000,0.550496,1.254903,0.545981,1.255000,0.545000,1.255000,-1.565000,1.254903,-1.565981,1.254000,-1.570496,
1.254000,-1.576000,1.253903,-1.576981,1.251903,-1.586981,1.251642,-1.587857,1.245642,-1.602857,1.245472,-1.603236,1.243564,-1.607052,1.241642,-1.611857,1.241000,-1.613000,1.238151,-1.616798,1.235287,-1.621572,1.235000,-1.622000,1.232000,-1.626000,1.231536,-1.626536,1.227784,-1.630288,1.225000,-1.634000,1.224000,-1.635000,1.220288,-1.637784,1.216536,-1.641536,1.216000,-1.642000,
1.212000,-1.645000,1.211572,-1.645287,1.206798,-1.648151,1.203000,-1.651000,1.201857,-1.651642,1.197052,-1.653564,1.193236,-1.655472,1.192857,-1.655642,1.177857,-1.661642,1.176981,-1.661903,1.166981,-1.663903,1.166000,-1.664000,1.160496,-1.664000,1.155981,-1.664903,1.155000,-1.665000,-0.155000,-1.665000,-0.155981,-1.664903,-0.160496,-1.664000,-0.166000,-1.664000,-0.166981,-1.663903,
-0.176981,-1.661903,-0.177857,-1.661642,-0.192857,-1.655642,-0.193236,-1.655472,-0.197052,-1.653564,-0.201857,-1.651642,-0.203000,-1.651000,-0.206798,-1.648151,-0.211572,-1.645287,-0.212000,-1.645000,-0.216000,-1.642000,-0.216536,-1.641536,-0.220288,-1.637784,-0.224000,-1.635000,-0.225000,-1.634000,-0.227784,-1.630288,-0.231536,-1.626536,-0.232000,-1.626000,-0.235000,-1.622000,-0.235287,-1.621572,
-0.238151,-1.616798,-0.241000,-1.613000,-0.241642,-1.611857,-0.243564,-1.607052,-0.245472,-1.603236,-0.245642,-1.602857,-0.251642,-1.587857,-0.251903,-1.586981,-0.253903,-1.576981,-0.254000,-1.576000,-0.254000,-1.570496,-0.254903,-1.565981,-0.255000,-1.565000,-0.255000,0.545000,-0.254903,0.545981,-0.254000,0.550496,-0.254000,0.556000,-0.253903,0.556981,-0.251903,0.566981,-0.251642,0.567857,
-0.245642,0.582857,-0.245472,0.583236,-0.243564,0.587052,-0.241642,0.591857,-0.241000,0.593000,-0.238151,0.596798,-0.235287,0.601572,-0.235000,0.602000,-0.232000,0.606000,-0.231536,0.606536,-0.227784,0.610288,-0.225000,0.614000,-0.224000,0.615000,-0.220288,0.617784,-0.216536,0.621536,-0.216000,0.622000,-0.212000,0.625000,-0.211572,0.625287,-0.206798,0.628151,-0.203000,0.631000,
-0.201857,0.631642,-0.197052,0.633564,-0.193236,0.635472,-0.192857,0.635642,-0.177857,0.641642,-0.176981,0.641903,-0.166981,0.643903,-0.166000,0.644000,-0.160496,0.644000,-0.155981,0.644903,-0.155000,0.645000,1.155000,0.645000,1.155981,0.644903,1.155981,0.644903,$1*%
G04 Aperture macros list end*
%ADD10C,0.010000*%
%ADD11R,0.660400X1.041400*%
%ADD12FreePoly0,270.000000*%
%ADD13RoundRect,0.055000X-0.245000X0.055000X-0.245000X-0.055000X0.245000X-0.055000X0.245000X0.055000X0*%
%ADD14R,2.510000X1.000000*%
%ADD15RoundRect,0.225000X-0.250000X0.225000X-0.250000X-0.225000X0.250000X-0.225000X0.250000X0.225000X0*%
%ADD16RoundRect,0.225000X-0.225000X-0.250000X0.225000X-0.250000X0.225000X0.250000X-0.225000X0.250000X0*%
%ADD17RoundRect,0.140000X-0.219203X-0.021213X-0.021213X-0.219203X0.219203X0.021213X0.021213X0.219203X0*%
%ADD18RoundRect,0.140000X-0.021213X0.219203X-0.219203X0.021213X0.021213X-0.219203X0.219203X-0.021213X0*%
%ADD19RotRect,0.800000X0.600000X315.000000*%
%ADD20RoundRect,0.135000X-0.226274X-0.035355X-0.035355X-0.226274X0.226274X0.035355X0.035355X0.226274X0*%
%ADD21RoundRect,0.135000X0.226274X0.035355X0.035355X0.226274X-0.226274X-0.035355X-0.035355X-0.226274X0*%
%ADD22RoundRect,0.140000X0.219203X0.021213X0.021213X0.219203X-0.219203X-0.021213X-0.021213X-0.219203X0*%
%ADD23RoundRect,0.140000X0.021213X-0.219203X0.219203X-0.021213X-0.021213X0.219203X-0.219203X0.021213X0*%
%ADD24RoundRect,0.135000X-0.035355X0.226274X-0.226274X0.035355X0.035355X-0.226274X0.226274X-0.035355X0*%
%ADD25RoundRect,0.140000X-0.140000X-0.170000X0.140000X-0.170000X0.140000X0.170000X-0.140000X0.170000X0*%
%ADD26RoundRect,0.140000X0.170000X-0.140000X0.170000X0.140000X-0.170000X0.140000X-0.170000X-0.140000X0*%
%ADD27RotRect,1.346200X0.355600X315.000000*%
%ADD28RotRect,1.346200X0.355600X225.000000*%
%ADD29RoundRect,0.135000X0.035355X-0.226274X0.226274X-0.035355X-0.035355X0.226274X-0.226274X0.035355X0*%
%ADD30RoundRect,0.140000X0.140000X0.170000X-0.140000X0.170000X-0.140000X-0.170000X0.140000X-0.170000X0*%
%ADD31RoundRect,0.218750X0.256250X-0.218750X0.256250X0.218750X-0.256250X0.218750X-0.256250X-0.218750X0*%
%ADD32R,0.508000X1.193800*%
%ADD33RoundRect,0.075000X0.802566X-0.484368X-0.484368X0.802566X-0.802566X0.484368X0.484368X-0.802566X0*%
%ADD34RoundRect,0.250000X0.650000X-1.000000X0.650000X1.000000X-0.650000X1.000000X-0.650000X-1.000000X0*%
%ADD35RoundRect,0.250000X0.325000X0.650000X-0.325000X0.650000X-0.325000X-0.650000X0.325000X-0.650000X0*%
%ADD36RoundRect,0.250000X-0.325000X-0.650000X0.325000X-0.650000X0.325000X0.650000X-0.325000X0.650000X0*%
%ADD37R,0.400000X1.350000*%
%ADD38R,2.100000X1.600000*%
%ADD39R,1.800000X1.900000*%
%ADD40R,1.900000X1.900000*%
%ADD41R,1.100000X2.000000*%
%ADD42R,0.800000X0.800000*%
%ADD43R,0.300000X0.300000*%
%ADD44R,0.300000X0.900000*%
%ADD45R,0.900000X0.300000*%
G04 APERTURE END LIST*
D10*
%TO.C,VR1*%
X114197900Y-80557700D02*
X114199900Y-80557700D01*
X114202900Y-80558700D01*
X114204900Y-80558700D01*
X114207900Y-80559700D01*
X114209900Y-80560700D01*
X114212900Y-80561700D01*
X114214900Y-80563700D01*
X114216900Y-80564700D01*
X114218900Y-80566700D01*
X114220900Y-80567700D01*
X114222900Y-80569700D01*
X114224900Y-80571700D01*
X114226900Y-80573700D01*
X114228900Y-80575700D01*
X114229900Y-80577700D01*
X114231900Y-80579700D01*
X114232900Y-80581700D01*
X114234900Y-80583700D01*
X114235900Y-80586700D01*
X114236900Y-80588700D01*
X114237900Y-80591700D01*
X114237900Y-80593700D01*
X114238900Y-80596700D01*
X114238900Y-80598700D01*
X114239900Y-80601700D01*
X114239900Y-80603700D01*
X114239900Y-80606700D01*
X114239900Y-80956700D01*
X114239900Y-80959700D01*
X114239900Y-80961700D01*
X114238900Y-80964700D01*
X114238900Y-80966700D01*
X114237900Y-80969700D01*
X114237900Y-80971700D01*
X114236900Y-80974700D01*
X114235900Y-80976700D01*
X114234900Y-80979700D01*
X114232900Y-80981700D01*
X114231900Y-80983700D01*
X114229900Y-80985700D01*
X114228900Y-80987700D01*
X114226900Y-80989700D01*
X114224900Y-80991700D01*
X114222900Y-80993700D01*
X114220900Y-80995700D01*
X114218900Y-80996700D01*
X114216900Y-80998700D01*
X114214900Y-80999700D01*
X114212900Y-81001700D01*
X114209900Y-81002700D01*
X114207900Y-81003700D01*
X114204900Y-81004700D01*
X114202900Y-81004700D01*
X114199900Y-81005700D01*
X114197900Y-81005700D01*
X114194900Y-81006700D01*
X114192900Y-81006700D01*
X114189900Y-81006700D01*
X114039900Y-81006700D01*
X114036900Y-81006700D01*
X114034900Y-81006700D01*
X114031900Y-81005700D01*
X114029900Y-81005700D01*
X114026900Y-81004700D01*
X114024900Y-81004700D01*
X114021900Y-81003700D01*
X114019900Y-81002700D01*
X114016900Y-81001700D01*
X114014900Y-80999700D01*
X114012900Y-80998700D01*
X114010900Y-80996700D01*
X114008900Y-80995700D01*
X114006900Y-80993700D01*
X114004900Y-80991700D01*
X114002900Y-80989700D01*
X114000900Y-80987700D01*
X113999900Y-80985700D01*
X113997900Y-80983700D01*
X113996900Y-80981700D01*
X113994900Y-80979700D01*
X113993900Y-80976700D01*
X113992900Y-80974700D01*
X113991900Y-80971700D01*
X113991900Y-80969700D01*
X113990900Y-80966700D01*
X113990900Y-80964700D01*
X113989900Y-80961700D01*
X113989900Y-80959700D01*
X113989900Y-80956700D01*
X113989900Y-80606700D01*
X113989900Y-80603700D01*
X113989900Y-80601700D01*
X113990900Y-80598700D01*
X113990900Y-80596700D01*
X113991900Y-80593700D01*
X113991900Y-80591700D01*
X113992900Y-80588700D01*
X113993900Y-80586700D01*
X113994900Y-80583700D01*
X113996900Y-80581700D01*
X113997900Y-80579700D01*
X113999900Y-80577700D01*
X114000900Y-80575700D01*
X114002900Y-80573700D01*
X114004900Y-80571700D01*
X114006900Y-80569700D01*
X114008900Y-80567700D01*
X114010900Y-80566700D01*
X114012900Y-80564700D01*
X114014900Y-80563700D01*
X114016900Y-80561700D01*
X114019900Y-80560700D01*
X114021900Y-80559700D01*
X114024900Y-80558700D01*
X114026900Y-80558700D01*
X114029900Y-80557700D01*
X114031900Y-80557700D01*
X114034900Y-80556700D01*
X114036900Y-80556700D01*
X114039900Y-80556700D01*
X114189900Y-80556700D01*
X114192900Y-80556700D01*
X114194900Y-80556700D01*
X114197900Y-80557700D01*
G36*
X114197900Y-80557700D02*
G01*
X114199900Y-80557700D01*
X114202900Y-80558700D01*
X114204900Y-80558700D01*
X114207900Y-80559700D01*
X114209900Y-80560700D01*
X114212900Y-80561700D01*
X114214900Y-80563700D01*
X114216900Y-80564700D01*
X114218900Y-80566700D01*
X114220900Y-80567700D01*
X114222900Y-80569700D01*
X114224900Y-80571700D01*
X114226900Y-80573700D01*
X114228900Y-80575700D01*
X114229900Y-80577700D01*
X114231900Y-80579700D01*
X114232900Y-80581700D01*
X114234900Y-80583700D01*
X114235900Y-80586700D01*
X114236900Y-80588700D01*
X114237900Y-80591700D01*
X114237900Y-80593700D01*
X114238900Y-80596700D01*
X114238900Y-80598700D01*
X114239900Y-80601700D01*
X114239900Y-80603700D01*
X114239900Y-80606700D01*
X114239900Y-80956700D01*
X114239900Y-80959700D01*
X114239900Y-80961700D01*
X114238900Y-80964700D01*
X114238900Y-80966700D01*
X114237900Y-80969700D01*
X114237900Y-80971700D01*
X114236900Y-80974700D01*
X114235900Y-80976700D01*
X114234900Y-80979700D01*
X114232900Y-80981700D01*
X114231900Y-80983700D01*
X114229900Y-80985700D01*
X114228900Y-80987700D01*
X114226900Y-80989700D01*
X114224900Y-80991700D01*
X114222900Y-80993700D01*
X114220900Y-80995700D01*
X114218900Y-80996700D01*
X114216900Y-80998700D01*
X114214900Y-80999700D01*
X114212900Y-81001700D01*
X114209900Y-81002700D01*
X114207900Y-81003700D01*
X114204900Y-81004700D01*
X114202900Y-81004700D01*
X114199900Y-81005700D01*
X114197900Y-81005700D01*
X114194900Y-81006700D01*
X114192900Y-81006700D01*
X114189900Y-81006700D01*
X114039900Y-81006700D01*
X114036900Y-81006700D01*
X114034900Y-81006700D01*
X114031900Y-81005700D01*
X114029900Y-81005700D01*
X114026900Y-81004700D01*
X114024900Y-81004700D01*
X114021900Y-81003700D01*
X114019900Y-81002700D01*
X114016900Y-81001700D01*
X114014900Y-80999700D01*
X114012900Y-80998700D01*
X114010900Y-80996700D01*
X114008900Y-80995700D01*
X114006900Y-80993700D01*
X114004900Y-80991700D01*
X114002900Y-80989700D01*
X114000900Y-80987700D01*
X113999900Y-80985700D01*
X113997900Y-80983700D01*
X113996900Y-80981700D01*
X113994900Y-80979700D01*
X113993900Y-80976700D01*
X113992900Y-80974700D01*
X113991900Y-80971700D01*
X113991900Y-80969700D01*
X113990900Y-80966700D01*
X113990900Y-80964700D01*
X113989900Y-80961700D01*
X113989900Y-80959700D01*
X113989900Y-80956700D01*
X113989900Y-80606700D01*
X113989900Y-80603700D01*
X113989900Y-80601700D01*
X113990900Y-80598700D01*
X113990900Y-80596700D01*
X113991900Y-80593700D01*
X113991900Y-80591700D01*
X113992900Y-80588700D01*
X113993900Y-80586700D01*
X113994900Y-80583700D01*
X113996900Y-80581700D01*
X113997900Y-80579700D01*
X113999900Y-80577700D01*
X114000900Y-80575700D01*
X114002900Y-80573700D01*
X114004900Y-80571700D01*
X114006900Y-80569700D01*
X114008900Y-80567700D01*
X114010900Y-80566700D01*
X114012900Y-80564700D01*
X114014900Y-80563700D01*
X114016900Y-80561700D01*
X114019900Y-80560700D01*
X114021900Y-80559700D01*
X114024900Y-80558700D01*
X114026900Y-80558700D01*
X114029900Y-80557700D01*
X114031900Y-80557700D01*
X114034900Y-80556700D01*
X114036900Y-80556700D01*
X114039900Y-80556700D01*
X114189900Y-80556700D01*
X114192900Y-80556700D01*
X114194900Y-80556700D01*
X114197900Y-80557700D01*
G37*
X114197900Y-83807700D02*
X114199900Y-83807700D01*
X114202900Y-83808700D01*
X114204900Y-83808700D01*
X114207900Y-83809700D01*
X114209900Y-83810700D01*
X114212900Y-83811700D01*
X114214900Y-83813700D01*
X114216900Y-83814700D01*
X114218900Y-83816700D01*
X114220900Y-83817700D01*
X114222900Y-83819700D01*
X114224900Y-83821700D01*
X114226900Y-83823700D01*
X114228900Y-83825700D01*
X114229900Y-83827700D01*
X114231900Y-83829700D01*
X114232900Y-83831700D01*
X114234900Y-83833700D01*
X114235900Y-83836700D01*
X114236900Y-83838700D01*
X114237900Y-83841700D01*
X114237900Y-83843700D01*
X114238900Y-83846700D01*
X114238900Y-83848700D01*
X114239900Y-83851700D01*
X114239900Y-83853700D01*
X114239900Y-83856700D01*
X114239900Y-84206700D01*
X114239900Y-84209700D01*
X114239900Y-84211700D01*
X114238900Y-84214700D01*
X114238900Y-84216700D01*
X114237900Y-84219700D01*
X114237900Y-84221700D01*
X114236900Y-84224700D01*
X114235900Y-84226700D01*
X114234900Y-84229700D01*
X114232900Y-84231700D01*
X114231900Y-84233700D01*
X114229900Y-84235700D01*
X114228900Y-84237700D01*
X114226900Y-84239700D01*
X114224900Y-84241700D01*
X114222900Y-84243700D01*
X114220900Y-84245700D01*
X114218900Y-84246700D01*
X114216900Y-84248700D01*
X114214900Y-84249700D01*
X114212900Y-84251700D01*
X114209900Y-84252700D01*
X114207900Y-84253700D01*
X114204900Y-84254700D01*
X114202900Y-84254700D01*
X114199900Y-84255700D01*
X114197900Y-84255700D01*
X114194900Y-84256700D01*
X114192900Y-84256700D01*
X114189900Y-84256700D01*
X114039900Y-84256700D01*
X114036900Y-84256700D01*
X114034900Y-84256700D01*
X114031900Y-84255700D01*
X114029900Y-84255700D01*
X114026900Y-84254700D01*
X114024900Y-84254700D01*
X114021900Y-84253700D01*
X114019900Y-84252700D01*
X114016900Y-84251700D01*
X114014900Y-84249700D01*
X114012900Y-84248700D01*
X114010900Y-84246700D01*
X114008900Y-84245700D01*
X114006900Y-84243700D01*
X114004900Y-84241700D01*
X114002900Y-84239700D01*
X114000900Y-84237700D01*
X113999900Y-84235700D01*
X113997900Y-84233700D01*
X113996900Y-84231700D01*
X113994900Y-84229700D01*
X113993900Y-84226700D01*
X113992900Y-84224700D01*
X113991900Y-84221700D01*
X113991900Y-84219700D01*
X113990900Y-84216700D01*
X113990900Y-84214700D01*
X113989900Y-84211700D01*
X113989900Y-84209700D01*
X113989900Y-84206700D01*
X113989900Y-83856700D01*
X113989900Y-83853700D01*
X113989900Y-83851700D01*
X113990900Y-83848700D01*
X113990900Y-83846700D01*
X113991900Y-83843700D01*
X113991900Y-83841700D01*
X113992900Y-83838700D01*
X113993900Y-83836700D01*
X113994900Y-83833700D01*
X113996900Y-83831700D01*
X113997900Y-83829700D01*
X113999900Y-83827700D01*
X114000900Y-83825700D01*
X114002900Y-83823700D01*
X114004900Y-83821700D01*
X114006900Y-83819700D01*
X114008900Y-83817700D01*
X114010900Y-83816700D01*
X114012900Y-83814700D01*
X114014900Y-83813700D01*
X114016900Y-83811700D01*
X114019900Y-83810700D01*
X114021900Y-83809700D01*
X114024900Y-83808700D01*
X114026900Y-83808700D01*
X114029900Y-83807700D01*
X114031900Y-83807700D01*
X114034900Y-83806700D01*
X114036900Y-83806700D01*
X114039900Y-83806700D01*
X114189900Y-83806700D01*
X114192900Y-83806700D01*
X114194900Y-83806700D01*
X114197900Y-83807700D01*
G36*
X114197900Y-83807700D02*
G01*
X114199900Y-83807700D01*
X114202900Y-83808700D01*
X114204900Y-83808700D01*
X114207900Y-83809700D01*
X114209900Y-83810700D01*
X114212900Y-83811700D01*
X114214900Y-83813700D01*
X114216900Y-83814700D01*
X114218900Y-83816700D01*
X114220900Y-83817700D01*
X114222900Y-83819700D01*
X114224900Y-83821700D01*
X114226900Y-83823700D01*
X114228900Y-83825700D01*
X114229900Y-83827700D01*
X114231900Y-83829700D01*
X114232900Y-83831700D01*
X114234900Y-83833700D01*
X114235900Y-83836700D01*
X114236900Y-83838700D01*
X114237900Y-83841700D01*
X114237900Y-83843700D01*
X114238900Y-83846700D01*
X114238900Y-83848700D01*
X114239900Y-83851700D01*
X114239900Y-83853700D01*
X114239900Y-83856700D01*
X114239900Y-84206700D01*
X114239900Y-84209700D01*
X114239900Y-84211700D01*
X114238900Y-84214700D01*
X114238900Y-84216700D01*
X114237900Y-84219700D01*
X114237900Y-84221700D01*
X114236900Y-84224700D01*
X114235900Y-84226700D01*
X114234900Y-84229700D01*
X114232900Y-84231700D01*
X114231900Y-84233700D01*
X114229900Y-84235700D01*
X114228900Y-84237700D01*
X114226900Y-84239700D01*
X114224900Y-84241700D01*
X114222900Y-84243700D01*
X114220900Y-84245700D01*
X114218900Y-84246700D01*
X114216900Y-84248700D01*
X114214900Y-84249700D01*
X114212900Y-84251700D01*
X114209900Y-84252700D01*
X114207900Y-84253700D01*
X114204900Y-84254700D01*
X114202900Y-84254700D01*
X114199900Y-84255700D01*
X114197900Y-84255700D01*
X114194900Y-84256700D01*
X114192900Y-84256700D01*
X114189900Y-84256700D01*
X114039900Y-84256700D01*
X114036900Y-84256700D01*
X114034900Y-84256700D01*
X114031900Y-84255700D01*
X114029900Y-84255700D01*
X114026900Y-84254700D01*
X114024900Y-84254700D01*
X114021900Y-84253700D01*
X114019900Y-84252700D01*
X114016900Y-84251700D01*
X114014900Y-84249700D01*
X114012900Y-84248700D01*
X114010900Y-84246700D01*
X114008900Y-84245700D01*
X114006900Y-84243700D01*
X114004900Y-84241700D01*
X114002900Y-84239700D01*
X114000900Y-84237700D01*
X113999900Y-84235700D01*
X113997900Y-84233700D01*
X113996900Y-84231700D01*
X113994900Y-84229700D01*
X113993900Y-84226700D01*
X113992900Y-84224700D01*
X113991900Y-84221700D01*
X113991900Y-84219700D01*
X113990900Y-84216700D01*
X113990900Y-84214700D01*
X113989900Y-84211700D01*
X113989900Y-84209700D01*
X113989900Y-84206700D01*
X113989900Y-83856700D01*
X113989900Y-83853700D01*
X113989900Y-83851700D01*
X113990900Y-83848700D01*
X113990900Y-83846700D01*
X113991900Y-83843700D01*
X113991900Y-83841700D01*
X113992900Y-83838700D01*
X113993900Y-83836700D01*
X113994900Y-83833700D01*
X113996900Y-83831700D01*
X113997900Y-83829700D01*
X113999900Y-83827700D01*
X114000900Y-83825700D01*
X114002900Y-83823700D01*
X114004900Y-83821700D01*
X114006900Y-83819700D01*
X114008900Y-83817700D01*
X114010900Y-83816700D01*
X114012900Y-83814700D01*
X114014900Y-83813700D01*
X114016900Y-83811700D01*
X114019900Y-83810700D01*
X114021900Y-83809700D01*
X114024900Y-83808700D01*
X114026900Y-83808700D01*
X114029900Y-83807700D01*
X114031900Y-83807700D01*
X114034900Y-83806700D01*
X114036900Y-83806700D01*
X114039900Y-83806700D01*
X114189900Y-83806700D01*
X114192900Y-83806700D01*
X114194900Y-83806700D01*
X114197900Y-83807700D01*
G37*
X114697900Y-83807700D02*
X114699900Y-83807700D01*
X114702900Y-83808700D01*
X114704900Y-83808700D01*
X114707900Y-83809700D01*
X114709900Y-83810700D01*
X114712900Y-83811700D01*
X114714900Y-83813700D01*
X114716900Y-83814700D01*
X114718900Y-83816700D01*
X114720900Y-83817700D01*
X114722900Y-83819700D01*
X114724900Y-83821700D01*
X114726900Y-83823700D01*
X114728900Y-83825700D01*
X114729900Y-83827700D01*
X114731900Y-83829700D01*
X114732900Y-83831700D01*
X114734900Y-83833700D01*
X114735900Y-83836700D01*
X114736900Y-83838700D01*
X114737900Y-83841700D01*
X114737900Y-83843700D01*
X114738900Y-83846700D01*
X114738900Y-83848700D01*
X114739900Y-83851700D01*
X114739900Y-83853700D01*
X114739900Y-83856700D01*
X114739900Y-84206700D01*
X114739900Y-84209700D01*
X114739900Y-84211700D01*
X114738900Y-84214700D01*
X114738900Y-84216700D01*
X114737900Y-84219700D01*
X114737900Y-84221700D01*
X114736900Y-84224700D01*
X114735900Y-84226700D01*
X114734900Y-84229700D01*
X114732900Y-84231700D01*
X114731900Y-84233700D01*
X114729900Y-84235700D01*
X114728900Y-84237700D01*
X114726900Y-84239700D01*
X114724900Y-84241700D01*
X114722900Y-84243700D01*
X114720900Y-84245700D01*
X114718900Y-84246700D01*
X114716900Y-84248700D01*
X114714900Y-84249700D01*
X114712900Y-84251700D01*
X114709900Y-84252700D01*
X114707900Y-84253700D01*
X114704900Y-84254700D01*
X114702900Y-84254700D01*
X114699900Y-84255700D01*
X114697900Y-84255700D01*
X114694900Y-84256700D01*
X114692900Y-84256700D01*
X114689900Y-84256700D01*
X114539900Y-84256700D01*
X114536900Y-84256700D01*
X114534900Y-84256700D01*
X114531900Y-84255700D01*
X114529900Y-84255700D01*
X114526900Y-84254700D01*
X114524900Y-84254700D01*
X114521900Y-84253700D01*
X114519900Y-84252700D01*
X114516900Y-84251700D01*
X114514900Y-84249700D01*
X114512900Y-84248700D01*
X114510900Y-84246700D01*
X114508900Y-84245700D01*
X114506900Y-84243700D01*
X114504900Y-84241700D01*
X114502900Y-84239700D01*
X114500900Y-84237700D01*
X114499900Y-84235700D01*
X114497900Y-84233700D01*
X114496900Y-84231700D01*
X114494900Y-84229700D01*
X114493900Y-84226700D01*
X114492900Y-84224700D01*
X114491900Y-84221700D01*
X114491900Y-84219700D01*
X114490900Y-84216700D01*
X114490900Y-84214700D01*
X114489900Y-84211700D01*
X114489900Y-84209700D01*
X114489900Y-84206700D01*
X114489900Y-83856700D01*
X114489900Y-83853700D01*
X114489900Y-83851700D01*
X114490900Y-83848700D01*
X114490900Y-83846700D01*
X114491900Y-83843700D01*
X114491900Y-83841700D01*
X114492900Y-83838700D01*
X114493900Y-83836700D01*
X114494900Y-83833700D01*
X114496900Y-83831700D01*
X114497900Y-83829700D01*
X114499900Y-83827700D01*
X114500900Y-83825700D01*
X114502900Y-83823700D01*
X114504900Y-83821700D01*
X114506900Y-83819700D01*
X114508900Y-83817700D01*
X114510900Y-83816700D01*
X114512900Y-83814700D01*
X114514900Y-83813700D01*
X114516900Y-83811700D01*
X114519900Y-83810700D01*
X114521900Y-83809700D01*
X114524900Y-83808700D01*
X114526900Y-83808700D01*
X114529900Y-83807700D01*
X114531900Y-83807700D01*
X114534900Y-83806700D01*
X114536900Y-83806700D01*
X114539900Y-83806700D01*
X114689900Y-83806700D01*
X114692900Y-83806700D01*
X114694900Y-83806700D01*
X114697900Y-83807700D01*
G36*
X114697900Y-83807700D02*
G01*
X114699900Y-83807700D01*
X114702900Y-83808700D01*
X114704900Y-83808700D01*
X114707900Y-83809700D01*
X114709900Y-83810700D01*
X114712900Y-83811700D01*
X114714900Y-83813700D01*
X114716900Y-83814700D01*
X114718900Y-83816700D01*
X114720900Y-83817700D01*
X114722900Y-83819700D01*
X114724900Y-83821700D01*
X114726900Y-83823700D01*
X114728900Y-83825700D01*
X114729900Y-83827700D01*
X114731900Y-83829700D01*
X114732900Y-83831700D01*
X114734900Y-83833700D01*
X114735900Y-83836700D01*
X114736900Y-83838700D01*
X114737900Y-83841700D01*
X114737900Y-83843700D01*
X114738900Y-83846700D01*
X114738900Y-83848700D01*
X114739900Y-83851700D01*
X114739900Y-83853700D01*
X114739900Y-83856700D01*
X114739900Y-84206700D01*
X114739900Y-84209700D01*
X114739900Y-84211700D01*
X114738900Y-84214700D01*
X114738900Y-84216700D01*
X114737900Y-84219700D01*
X114737900Y-84221700D01*
X114736900Y-84224700D01*
X114735900Y-84226700D01*
X114734900Y-84229700D01*
X114732900Y-84231700D01*
X114731900Y-84233700D01*
X114729900Y-84235700D01*
X114728900Y-84237700D01*
X114726900Y-84239700D01*
X114724900Y-84241700D01*
X114722900Y-84243700D01*
X114720900Y-84245700D01*
X114718900Y-84246700D01*
X114716900Y-84248700D01*
X114714900Y-84249700D01*
X114712900Y-84251700D01*
X114709900Y-84252700D01*
X114707900Y-84253700D01*
X114704900Y-84254700D01*
X114702900Y-84254700D01*
X114699900Y-84255700D01*
X114697900Y-84255700D01*
X114694900Y-84256700D01*
X114692900Y-84256700D01*
X114689900Y-84256700D01*
X114539900Y-84256700D01*
X114536900Y-84256700D01*
X114534900Y-84256700D01*
X114531900Y-84255700D01*
X114529900Y-84255700D01*
X114526900Y-84254700D01*
X114524900Y-84254700D01*
X114521900Y-84253700D01*
X114519900Y-84252700D01*
X114516900Y-84251700D01*
X114514900Y-84249700D01*
X114512900Y-84248700D01*
X114510900Y-84246700D01*
X114508900Y-84245700D01*
X114506900Y-84243700D01*
X114504900Y-84241700D01*
X114502900Y-84239700D01*
X114500900Y-84237700D01*
X114499900Y-84235700D01*
X114497900Y-84233700D01*
X114496900Y-84231700D01*
X114494900Y-84229700D01*
X114493900Y-84226700D01*
X114492900Y-84224700D01*
X114491900Y-84221700D01*
X114491900Y-84219700D01*
X114490900Y-84216700D01*
X114490900Y-84214700D01*
X114489900Y-84211700D01*
X114489900Y-84209700D01*
X114489900Y-84206700D01*
X114489900Y-83856700D01*
X114489900Y-83853700D01*
X114489900Y-83851700D01*
X114490900Y-83848700D01*
X114490900Y-83846700D01*
X114491900Y-83843700D01*
X114491900Y-83841700D01*
X114492900Y-83838700D01*
X114493900Y-83836700D01*
X114494900Y-83833700D01*
X114496900Y-83831700D01*
X114497900Y-83829700D01*
X114499900Y-83827700D01*
X114500900Y-83825700D01*
X114502900Y-83823700D01*
X114504900Y-83821700D01*
X114506900Y-83819700D01*
X114508900Y-83817700D01*
X114510900Y-83816700D01*
X114512900Y-83814700D01*
X114514900Y-83813700D01*
X114516900Y-83811700D01*
X114519900Y-83810700D01*
X114521900Y-83809700D01*
X114524900Y-83808700D01*
X114526900Y-83808700D01*
X114529900Y-83807700D01*
X114531900Y-83807700D01*
X114534900Y-83806700D01*
X114536900Y-83806700D01*
X114539900Y-83806700D01*
X114689900Y-83806700D01*
X114692900Y-83806700D01*
X114694900Y-83806700D01*
X114697900Y-83807700D01*
G37*
X114697900Y-80557700D02*
X114699900Y-80557700D01*
X114702900Y-80558700D01*
X114704900Y-80558700D01*
X114707900Y-80559700D01*
X114709900Y-80560700D01*
X114712900Y-80561700D01*
X114714900Y-80563700D01*
X114716900Y-80564700D01*
X114718900Y-80566700D01*
X114720900Y-80567700D01*
X114722900Y-80569700D01*
X114724900Y-80571700D01*
X114726900Y-80573700D01*
X114728900Y-80575700D01*
X114729900Y-80577700D01*
X114731900Y-80579700D01*
X114732900Y-80581700D01*
X114734900Y-80583700D01*
X114735900Y-80586700D01*
X114736900Y-80588700D01*
X114737900Y-80591700D01*
X114737900Y-80593700D01*
X114738900Y-80596700D01*
X114738900Y-80598700D01*
X114739900Y-80601700D01*
X114739900Y-80603700D01*
X114739900Y-80606700D01*
X114739900Y-80956700D01*
X114739900Y-80959700D01*
X114739900Y-80961700D01*
X114738900Y-80964700D01*
X114738900Y-80966700D01*
X114737900Y-80969700D01*
X114737900Y-80971700D01*
X114736900Y-80974700D01*
X114735900Y-80976700D01*
X114734900Y-80979700D01*
X114732900Y-80981700D01*
X114731900Y-80983700D01*
X114729900Y-80985700D01*
X114728900Y-80987700D01*
X114726900Y-80989700D01*
X114724900Y-80991700D01*
X114722900Y-80993700D01*
X114720900Y-80995700D01*
X114718900Y-80996700D01*
X114716900Y-80998700D01*
X114714900Y-80999700D01*
X114712900Y-81001700D01*
X114709900Y-81002700D01*
X114707900Y-81003700D01*
X114704900Y-81004700D01*
X114702900Y-81004700D01*
X114699900Y-81005700D01*
X114697900Y-81005700D01*
X114694900Y-81006700D01*
X114692900Y-81006700D01*
X114689900Y-81006700D01*
X114539900Y-81006700D01*
X114536900Y-81006700D01*
X114534900Y-81006700D01*
X114531900Y-81005700D01*
X114529900Y-81005700D01*
X114526900Y-81004700D01*
X114524900Y-81004700D01*
X114521900Y-81003700D01*
X114519900Y-81002700D01*
X114516900Y-81001700D01*
X114514900Y-80999700D01*
X114512900Y-80998700D01*
X114510900Y-80996700D01*
X114508900Y-80995700D01*
X114506900Y-80993700D01*
X114504900Y-80991700D01*
X114502900Y-80989700D01*
X114500900Y-80987700D01*
X114499900Y-80985700D01*
X114497900Y-80983700D01*
X114496900Y-80981700D01*
X114494900Y-80979700D01*
X114493900Y-80976700D01*
X114492900Y-80974700D01*
X114491900Y-80971700D01*
X114491900Y-80969700D01*
X114490900Y-80966700D01*
X114490900Y-80964700D01*
X114489900Y-80961700D01*
X114489900Y-80959700D01*
X114489900Y-80956700D01*
X114489900Y-80606700D01*
X114489900Y-80603700D01*
X114489900Y-80601700D01*
X114490900Y-80598700D01*
X114490900Y-80596700D01*
X114491900Y-80593700D01*
X114491900Y-80591700D01*
X114492900Y-80588700D01*
X114493900Y-80586700D01*
X114494900Y-80583700D01*
X114496900Y-80581700D01*
X114497900Y-80579700D01*
X114499900Y-80577700D01*
X114500900Y-80575700D01*
X114502900Y-80573700D01*
X114504900Y-80571700D01*
X114506900Y-80569700D01*
X114508900Y-80567700D01*
X114510900Y-80566700D01*
X114512900Y-80564700D01*
X114514900Y-80563700D01*
X114516900Y-80561700D01*
X114519900Y-80560700D01*
X114521900Y-80559700D01*
X114524900Y-80558700D01*
X114526900Y-80558700D01*
X114529900Y-80557700D01*
X114531900Y-80557700D01*
X114534900Y-80556700D01*
X114536900Y-80556700D01*
X114539900Y-80556700D01*
X114689900Y-80556700D01*
X114692900Y-80556700D01*
X114694900Y-80556700D01*
X114697900Y-80557700D01*
G36*
X114697900Y-80557700D02*
G01*
X114699900Y-80557700D01*
X114702900Y-80558700D01*
X114704900Y-80558700D01*
X114707900Y-80559700D01*
X114709900Y-80560700D01*
X114712900Y-80561700D01*
X114714900Y-80563700D01*
X114716900Y-80564700D01*
X114718900Y-80566700D01*
X114720900Y-80567700D01*
X114722900Y-80569700D01*
X114724900Y-80571700D01*
X114726900Y-80573700D01*
X114728900Y-80575700D01*
X114729900Y-80577700D01*
X114731900Y-80579700D01*
X114732900Y-80581700D01*
X114734900Y-80583700D01*
X114735900Y-80586700D01*
X114736900Y-80588700D01*
X114737900Y-80591700D01*
X114737900Y-80593700D01*
X114738900Y-80596700D01*
X114738900Y-80598700D01*
X114739900Y-80601700D01*
X114739900Y-80603700D01*
X114739900Y-80606700D01*
X114739900Y-80956700D01*
X114739900Y-80959700D01*
X114739900Y-80961700D01*
X114738900Y-80964700D01*
X114738900Y-80966700D01*
X114737900Y-80969700D01*
X114737900Y-80971700D01*
X114736900Y-80974700D01*
X114735900Y-80976700D01*
X114734900Y-80979700D01*
X114732900Y-80981700D01*
X114731900Y-80983700D01*
X114729900Y-80985700D01*
X114728900Y-80987700D01*
X114726900Y-80989700D01*
X114724900Y-80991700D01*
X114722900Y-80993700D01*
X114720900Y-80995700D01*
X114718900Y-80996700D01*
X114716900Y-80998700D01*
X114714900Y-80999700D01*
X114712900Y-81001700D01*
X114709900Y-81002700D01*
X114707900Y-81003700D01*
X114704900Y-81004700D01*
X114702900Y-81004700D01*
X114699900Y-81005700D01*
X114697900Y-81005700D01*
X114694900Y-81006700D01*
X114692900Y-81006700D01*
X114689900Y-81006700D01*
X114539900Y-81006700D01*
X114536900Y-81006700D01*
X114534900Y-81006700D01*
X114531900Y-81005700D01*
X114529900Y-81005700D01*
X114526900Y-81004700D01*
X114524900Y-81004700D01*
X114521900Y-81003700D01*
X114519900Y-81002700D01*
X114516900Y-81001700D01*
X114514900Y-80999700D01*
X114512900Y-80998700D01*
X114510900Y-80996700D01*
X114508900Y-80995700D01*
X114506900Y-80993700D01*
X114504900Y-80991700D01*
X114502900Y-80989700D01*
X114500900Y-80987700D01*
X114499900Y-80985700D01*
X114497900Y-80983700D01*
X114496900Y-80981700D01*
X114494900Y-80979700D01*
X114493900Y-80976700D01*
X114492900Y-80974700D01*
X114491900Y-80971700D01*
X114491900Y-80969700D01*
X114490900Y-80966700D01*
X114490900Y-80964700D01*
X114489900Y-80961700D01*
X114489900Y-80959700D01*
X114489900Y-80956700D01*
X114489900Y-80606700D01*
X114489900Y-80603700D01*
X114489900Y-80601700D01*
X114490900Y-80598700D01*
X114490900Y-80596700D01*
X114491900Y-80593700D01*
X114491900Y-80591700D01*
X114492900Y-80588700D01*
X114493900Y-80586700D01*
X114494900Y-80583700D01*
X114496900Y-80581700D01*
X114497900Y-80579700D01*
X114499900Y-80577700D01*
X114500900Y-80575700D01*
X114502900Y-80573700D01*
X114504900Y-80571700D01*
X114506900Y-80569700D01*
X114508900Y-80567700D01*
X114510900Y-80566700D01*
X114512900Y-80564700D01*
X114514900Y-80563700D01*
X114516900Y-80561700D01*
X114519900Y-80560700D01*
X114521900Y-80559700D01*
X114524900Y-80558700D01*
X114526900Y-80558700D01*
X114529900Y-80557700D01*
X114531900Y-80557700D01*
X114534900Y-80556700D01*
X114536900Y-80556700D01*
X114539900Y-80556700D01*
X114689900Y-80556700D01*
X114692900Y-80556700D01*
X114694900Y-80556700D01*
X114697900Y-80557700D01*
G37*
X114912900Y-81207700D02*
X114914900Y-81207700D01*
X114917900Y-81208700D01*
X114919900Y-81208700D01*
X114922900Y-81209700D01*
X114924900Y-81210700D01*
X114927900Y-81211700D01*
X114929900Y-81213700D01*
X114931900Y-81214700D01*
X114933900Y-81216700D01*
X114935900Y-81217700D01*
X114937900Y-81219700D01*
X114939900Y-81221700D01*
X114941900Y-81223700D01*
X114943900Y-81225700D01*
X114944900Y-81227700D01*
X114946900Y-81229700D01*
X114947900Y-81231700D01*
X114949900Y-81233700D01*
X114950900Y-81236700D01*
X114951900Y-81238700D01*
X114952900Y-81241700D01*
X114952900Y-81243700D01*
X114953900Y-81246700D01*
X114953900Y-81248700D01*
X114954900Y-81251700D01*
X114954900Y-81253700D01*
X114954900Y-81256700D01*
X114954900Y-81456700D01*
X114954900Y-81459700D01*
X114954900Y-81461700D01*
X114953900Y-81464700D01*
X114953900Y-81466700D01*
X114952900Y-81469700D01*
X114952900Y-81471700D01*
X114951900Y-81474700D01*
X114950900Y-81476700D01*
X114949900Y-81479700D01*
X114947900Y-81481700D01*
X114946900Y-81483700D01*
X114944900Y-81485700D01*
X114943900Y-81487700D01*
X114941900Y-81489700D01*
X114939900Y-81491700D01*
X114937900Y-81493700D01*
X114935900Y-81495700D01*
X114933900Y-81496700D01*
X114931900Y-81498700D01*
X114929900Y-81499700D01*
X114927900Y-81501700D01*
X114924900Y-81502700D01*
X114922900Y-81503700D01*
X114919900Y-81504700D01*
X114917900Y-81504700D01*
X114914900Y-81505700D01*
X114912900Y-81505700D01*
X114909900Y-81506700D01*
X114907900Y-81506700D01*
X114904900Y-81506700D01*
X114710900Y-81506700D01*
X114708900Y-81506700D01*
X114707900Y-81506700D01*
X114706900Y-81506700D01*
X114704900Y-81506700D01*
X114703900Y-81506700D01*
X114702900Y-81507700D01*
X114701900Y-81507700D01*
X114699900Y-81507700D01*
X114698900Y-81507700D01*
X114697900Y-81508700D01*
X114696900Y-81508700D01*
X114694900Y-81508700D01*
X114693900Y-81509700D01*
X114692900Y-81509700D01*
X114691900Y-81510700D01*
X114689900Y-81510700D01*
X114688900Y-81511700D01*
X114687900Y-81511700D01*
X114686900Y-81512700D01*
X114685900Y-81513700D01*
X114684900Y-81513700D01*
X114682900Y-81514700D01*
X114681900Y-81515700D01*
X114680900Y-81516700D01*
X114679900Y-81516700D01*
X114678900Y-81517700D01*
X114677900Y-81518700D01*
X114676900Y-81519700D01*
X114675900Y-81520700D01*
X114674900Y-81521700D01*
X114314900Y-81881700D01*
X114313900Y-81882700D01*
X114312900Y-81883700D01*
X114311900Y-81884700D01*
X114310900Y-81885700D01*
X114309900Y-81886700D01*
X114309900Y-81887700D01*
X114308900Y-81888700D01*
X114307900Y-81889700D01*
X114306900Y-81891700D01*
X114306900Y-81892700D01*
X114305900Y-81893700D01*
X114304900Y-81894700D01*
X114304900Y-81895700D01*
X114303900Y-81896700D01*
X114303900Y-81898700D01*
X114302900Y-81899700D01*
X114302900Y-81900700D01*
X114301900Y-81901700D01*
X114301900Y-81903700D01*
X114301900Y-81904700D01*
X114300900Y-81905700D01*
X114300900Y-81906700D01*
X114300900Y-81908700D01*
X114300900Y-81909700D01*
X114299900Y-81910700D01*
X114299900Y-81911700D01*
X114299900Y-81913700D01*
X114299900Y-81914700D01*
X114299900Y-81915700D01*
X114299900Y-81917700D01*
X114299900Y-82041700D01*
X114299900Y-82044700D01*
X114299900Y-82046700D01*
X114298900Y-82049700D01*
X114298900Y-82051700D01*
X114297900Y-82054700D01*
X114297900Y-82056700D01*
X114296900Y-82059700D01*
X114295900Y-82061700D01*
X114294900Y-82064700D01*
X114292900Y-82066700D01*
X114291900Y-82068700D01*
X114289900Y-82070700D01*
X114288900Y-82072700D01*
X114286900Y-82074700D01*
X114284900Y-82076700D01*
X114282900Y-82078700D01*
X114280900Y-82080700D01*
X114278900Y-82081700D01*
X114276900Y-82083700D01*
X114274900Y-82084700D01*
X114272900Y-82086700D01*
X114269900Y-82087700D01*
X114267900Y-82088700D01*
X114264900Y-82089700D01*
X114262900Y-82089700D01*
X114259900Y-82090700D01*
X114257900Y-82090700D01*
X114254900Y-82091700D01*
X114252900Y-82091700D01*
X114249900Y-82091700D01*
X113949900Y-82091700D01*
X113946900Y-82091700D01*
X113944900Y-82091700D01*
X113941900Y-82090700D01*
X113939900Y-82090700D01*
X113936900Y-82089700D01*
X113934900Y-82089700D01*
X113931900Y-82088700D01*
X113929900Y-82087700D01*
X113926900Y-82086700D01*
X113924900Y-82084700D01*
X113922900Y-82083700D01*
X113920900Y-82081700D01*
X113918900Y-82080700D01*
X113916900Y-82078700D01*
X113914900Y-82076700D01*
X113912900Y-82074700D01*
X113910900Y-82072700D01*
X113909900Y-82070700D01*
X113907900Y-82068700D01*
X113906900Y-82066700D01*
X113904900Y-82064700D01*
X113903900Y-82061700D01*
X113902900Y-82059700D01*
X113901900Y-82056700D01*
X113901900Y-82054700D01*
X113900900Y-82051700D01*
X113900900Y-82049700D01*
X113899900Y-82046700D01*
X113899900Y-82044700D01*
X113899900Y-82041700D01*
X113899900Y-81256700D01*
X113899900Y-81253700D01*
X113899900Y-81251700D01*
X113900900Y-81248700D01*
X113900900Y-81246700D01*
X113901900Y-81243700D01*
X113901900Y-81241700D01*
X113902900Y-81238700D01*
X113903900Y-81236700D01*
X113904900Y-81233700D01*
X113906900Y-81231700D01*
X113907900Y-81229700D01*
X113909900Y-81227700D01*
X113910900Y-81225700D01*
X113912900Y-81223700D01*
X113914900Y-81221700D01*
X113916900Y-81219700D01*
X113918900Y-81217700D01*
X113920900Y-81216700D01*
X113922900Y-81214700D01*
X113924900Y-81213700D01*
X113926900Y-81211700D01*
X113929900Y-81210700D01*
X113931900Y-81209700D01*
X113934900Y-81208700D01*
X113936900Y-81208700D01*
X113939900Y-81207700D01*
X113941900Y-81207700D01*
X113944900Y-81206700D01*
X113946900Y-81206700D01*
X113949900Y-81206700D01*
X114904900Y-81206700D01*
X114907900Y-81206700D01*
X114909900Y-81206700D01*
X114912900Y-81207700D01*
G36*
X114912900Y-81207700D02*
G01*
X114914900Y-81207700D01*
X114917900Y-81208700D01*
X114919900Y-81208700D01*
X114922900Y-81209700D01*
X114924900Y-81210700D01*
X114927900Y-81211700D01*
X114929900Y-81213700D01*
X114931900Y-81214700D01*
X114933900Y-81216700D01*
X114935900Y-81217700D01*
X114937900Y-81219700D01*
X114939900Y-81221700D01*
X114941900Y-81223700D01*
X114943900Y-81225700D01*
X114944900Y-81227700D01*
X114946900Y-81229700D01*
X114947900Y-81231700D01*
X114949900Y-81233700D01*
X114950900Y-81236700D01*
X114951900Y-81238700D01*
X114952900Y-81241700D01*
X114952900Y-81243700D01*
X114953900Y-81246700D01*
X114953900Y-81248700D01*
X114954900Y-81251700D01*
X114954900Y-81253700D01*
X114954900Y-81256700D01*
X114954900Y-81456700D01*
X114954900Y-81459700D01*
X114954900Y-81461700D01*
X114953900Y-81464700D01*
X114953900Y-81466700D01*
X114952900Y-81469700D01*
X114952900Y-81471700D01*
X114951900Y-81474700D01*
X114950900Y-81476700D01*
X114949900Y-81479700D01*
X114947900Y-81481700D01*
X114946900Y-81483700D01*
X114944900Y-81485700D01*
X114943900Y-81487700D01*
X114941900Y-81489700D01*
X114939900Y-81491700D01*
X114937900Y-81493700D01*
X114935900Y-81495700D01*
X114933900Y-81496700D01*
X114931900Y-81498700D01*
X114929900Y-81499700D01*
X114927900Y-81501700D01*
X114924900Y-81502700D01*
X114922900Y-81503700D01*
X114919900Y-81504700D01*
X114917900Y-81504700D01*
X114914900Y-81505700D01*
X114912900Y-81505700D01*
X114909900Y-81506700D01*
X114907900Y-81506700D01*
X114904900Y-81506700D01*
X114710900Y-81506700D01*
X114708900Y-81506700D01*
X114707900Y-81506700D01*
X114706900Y-81506700D01*
X114704900Y-81506700D01*
X114703900Y-81506700D01*
X114702900Y-81507700D01*
X114701900Y-81507700D01*
X114699900Y-81507700D01*
X114698900Y-81507700D01*
X114697900Y-81508700D01*
X114696900Y-81508700D01*
X114694900Y-81508700D01*
X114693900Y-81509700D01*
X114692900Y-81509700D01*
X114691900Y-81510700D01*
X114689900Y-81510700D01*
X114688900Y-81511700D01*
X114687900Y-81511700D01*
X114686900Y-81512700D01*
X114685900Y-81513700D01*
X114684900Y-81513700D01*
X114682900Y-81514700D01*
X114681900Y-81515700D01*
X114680900Y-81516700D01*
X114679900Y-81516700D01*
X114678900Y-81517700D01*
X114677900Y-81518700D01*
X114676900Y-81519700D01*
X114675900Y-81520700D01*
X114674900Y-81521700D01*
X114314900Y-81881700D01*
X114313900Y-81882700D01*
X114312900Y-81883700D01*
X114311900Y-81884700D01*
X114310900Y-81885700D01*
X114309900Y-81886700D01*
X114309900Y-81887700D01*
X114308900Y-81888700D01*
X114307900Y-81889700D01*
X114306900Y-81891700D01*
X114306900Y-81892700D01*
X114305900Y-81893700D01*
X114304900Y-81894700D01*
X114304900Y-81895700D01*
X114303900Y-81896700D01*
X114303900Y-81898700D01*
X114302900Y-81899700D01*
X114302900Y-81900700D01*
X114301900Y-81901700D01*
X114301900Y-81903700D01*
X114301900Y-81904700D01*
X114300900Y-81905700D01*
X114300900Y-81906700D01*
X114300900Y-81908700D01*
X114300900Y-81909700D01*
X114299900Y-81910700D01*
X114299900Y-81911700D01*
X114299900Y-81913700D01*
X114299900Y-81914700D01*
X114299900Y-81915700D01*
X114299900Y-81917700D01*
X114299900Y-82041700D01*
X114299900Y-82044700D01*
X114299900Y-82046700D01*
X114298900Y-82049700D01*
X114298900Y-82051700D01*
X114297900Y-82054700D01*
X114297900Y-82056700D01*
X114296900Y-82059700D01*
X114295900Y-82061700D01*
X114294900Y-82064700D01*
X114292900Y-82066700D01*
X114291900Y-82068700D01*
X114289900Y-82070700D01*
X114288900Y-82072700D01*
X114286900Y-82074700D01*
X114284900Y-82076700D01*
X114282900Y-82078700D01*
X114280900Y-82080700D01*
X114278900Y-82081700D01*
X114276900Y-82083700D01*
X114274900Y-82084700D01*
X114272900Y-82086700D01*
X114269900Y-82087700D01*
X114267900Y-82088700D01*
X114264900Y-82089700D01*
X114262900Y-82089700D01*
X114259900Y-82090700D01*
X114257900Y-82090700D01*
X114254900Y-82091700D01*
X114252900Y-82091700D01*
X114249900Y-82091700D01*
X113949900Y-82091700D01*
X113946900Y-82091700D01*
X113944900Y-82091700D01*
X113941900Y-82090700D01*
X113939900Y-82090700D01*
X113936900Y-82089700D01*
X113934900Y-82089700D01*
X113931900Y-82088700D01*
X113929900Y-82087700D01*
X113926900Y-82086700D01*
X113924900Y-82084700D01*
X113922900Y-82083700D01*
X113920900Y-82081700D01*
X113918900Y-82080700D01*
X113916900Y-82078700D01*
X113914900Y-82076700D01*
X113912900Y-82074700D01*
X113910900Y-82072700D01*
X113909900Y-82070700D01*
X113907900Y-82068700D01*
X113906900Y-82066700D01*
X113904900Y-82064700D01*
X113903900Y-82061700D01*
X113902900Y-82059700D01*
X113901900Y-82056700D01*
X113901900Y-82054700D01*
X113900900Y-82051700D01*
X113900900Y-82049700D01*
X113899900Y-82046700D01*
X113899900Y-82044700D01*
X113899900Y-82041700D01*
X113899900Y-81256700D01*
X113899900Y-81253700D01*
X113899900Y-81251700D01*
X113900900Y-81248700D01*
X113900900Y-81246700D01*
X113901900Y-81243700D01*
X113901900Y-81241700D01*
X113902900Y-81238700D01*
X113903900Y-81236700D01*
X113904900Y-81233700D01*
X113906900Y-81231700D01*
X113907900Y-81229700D01*
X113909900Y-81227700D01*
X113910900Y-81225700D01*
X113912900Y-81223700D01*
X113914900Y-81221700D01*
X113916900Y-81219700D01*
X113918900Y-81217700D01*
X113920900Y-81216700D01*
X113922900Y-81214700D01*
X113924900Y-81213700D01*
X113926900Y-81211700D01*
X113929900Y-81210700D01*
X113931900Y-81209700D01*
X113934900Y-81208700D01*
X113936900Y-81208700D01*
X113939900Y-81207700D01*
X113941900Y-81207700D01*
X113944900Y-81206700D01*
X113946900Y-81206700D01*
X113949900Y-81206700D01*
X114904900Y-81206700D01*
X114907900Y-81206700D01*
X114909900Y-81206700D01*
X114912900Y-81207700D01*
G37*
X114257900Y-82722700D02*
X114259900Y-82722700D01*
X114262900Y-82723700D01*
X114264900Y-82723700D01*
X114267900Y-82724700D01*
X114269900Y-82725700D01*
X114272900Y-82726700D01*
X114274900Y-82728700D01*
X114276900Y-82729700D01*
X114278900Y-82731700D01*
X114280900Y-82732700D01*
X114282900Y-82734700D01*
X114284900Y-82736700D01*
X114286900Y-82738700D01*
X114288900Y-82740700D01*
X114289900Y-82742700D01*
X114291900Y-82744700D01*
X114292900Y-82746700D01*
X114294900Y-82748700D01*
X114295900Y-82751700D01*
X114296900Y-82753700D01*
X114297900Y-82756700D01*
X114297900Y-82758700D01*
X114298900Y-82761700D01*
X114298900Y-82763700D01*
X114299900Y-82766700D01*
X114299900Y-82768700D01*
X114299900Y-82771700D01*
X114299900Y-82895700D01*
X114299900Y-82897700D01*
X114299900Y-82898700D01*
X114299900Y-82899700D01*
X114299900Y-82901700D01*
X114299900Y-82902700D01*
X114300900Y-82903700D01*
X114300900Y-82904700D01*
X114300900Y-82906700D01*
X114300900Y-82907700D01*
X114301900Y-82908700D01*
X114301900Y-82909700D01*
X114301900Y-82911700D01*
X114302900Y-82912700D01*
X114302900Y-82913700D01*
X114303900Y-82914700D01*
X114303900Y-82916700D01*
X114304900Y-82917700D01*
X114304900Y-82918700D01*
X114305900Y-82919700D01*
X114306900Y-82920700D01*
X114306900Y-82921700D01*
X114307900Y-82923700D01*
X114308900Y-82924700D01*
X114309900Y-82925700D01*
X114309900Y-82926700D01*
X114310900Y-82927700D01*
X114311900Y-82928700D01*
X114312900Y-82929700D01*
X114313900Y-82930700D01*
X114314900Y-82931700D01*
X114674900Y-83291700D01*
X114675900Y-83292700D01*
X114676900Y-83293700D01*
X114677900Y-83294700D01*
X114678900Y-83295700D01*
X114679900Y-83296700D01*
X114680900Y-83296700D01*
X114681900Y-83297700D01*
X114682900Y-83298700D01*
X114684900Y-83299700D01*
X114685900Y-83299700D01*
X114686900Y-83300700D01*
X114687900Y-83301700D01*
X114688900Y-83301700D01*
X114689900Y-83302700D01*
X114691900Y-83302700D01*
X114692900Y-83303700D01*
X114693900Y-83303700D01*
X114694900Y-83304700D01*
X114696900Y-83304700D01*
X114697900Y-83304700D01*
X114698900Y-83305700D01*
X114699900Y-83305700D01*
X114701900Y-83305700D01*
X114702900Y-83305700D01*
X114703900Y-83306700D01*
X114704900Y-83306700D01*
X114706900Y-83306700D01*
X114707900Y-83306700D01*
X114708900Y-83306700D01*
X114710900Y-83306700D01*
X114904900Y-83306700D01*
X114907900Y-83306700D01*
X114909900Y-83306700D01*
X114912900Y-83307700D01*
X114914900Y-83307700D01*
X114917900Y-83308700D01*
X114919900Y-83308700D01*
X114922900Y-83309700D01*
X114924900Y-83310700D01*
X114927900Y-83311700D01*
X114929900Y-83313700D01*
X114931900Y-83314700D01*
X114933900Y-83316700D01*
X114935900Y-83317700D01*
X114937900Y-83319700D01*
X114939900Y-83321700D01*
X114941900Y-83323700D01*
X114943900Y-83325700D01*
X114944900Y-83327700D01*
X114946900Y-83329700D01*
X114947900Y-83331700D01*
X114949900Y-83333700D01*
X114950900Y-83336700D01*
X114951900Y-83338700D01*
X114952900Y-83341700D01*
X114952900Y-83343700D01*
X114953900Y-83346700D01*
X114953900Y-83348700D01*
X114954900Y-83351700D01*
X114954900Y-83353700D01*
X114954900Y-83356700D01*
X114954900Y-83556700D01*
X114954900Y-83559700D01*
X114954900Y-83561700D01*
X114953900Y-83564700D01*
X114953900Y-83566700D01*
X114952900Y-83569700D01*
X114952900Y-83571700D01*
X114951900Y-83574700D01*
X114950900Y-83576700D01*
X114949900Y-83579700D01*
X114947900Y-83581700D01*
X114946900Y-83583700D01*
X114944900Y-83585700D01*
X114943900Y-83587700D01*
X114941900Y-83589700D01*
X114939900Y-83591700D01*
X114937900Y-83593700D01*
X114935900Y-83595700D01*
X114933900Y-83596700D01*
X114931900Y-83598700D01*
X114929900Y-83599700D01*
X114927900Y-83601700D01*
X114924900Y-83602700D01*
X114922900Y-83603700D01*
X114919900Y-83604700D01*
X114917900Y-83604700D01*
X114914900Y-83605700D01*
X114912900Y-83605700D01*
X114909900Y-83606700D01*
X114907900Y-83606700D01*
X114904900Y-83606700D01*
X113949900Y-83606700D01*
X113946900Y-83606700D01*
X113944900Y-83606700D01*
X113941900Y-83605700D01*
X113939900Y-83605700D01*
X113936900Y-83604700D01*
X113934900Y-83604700D01*
X113931900Y-83603700D01*
X113929900Y-83602700D01*
X113926900Y-83601700D01*
X113924900Y-83599700D01*
X113922900Y-83598700D01*
X113920900Y-83596700D01*
X113918900Y-83595700D01*
X113916900Y-83593700D01*
X113914900Y-83591700D01*
X113912900Y-83589700D01*
X113910900Y-83587700D01*
X113909900Y-83585700D01*
X113907900Y-83583700D01*
X113906900Y-83581700D01*
X113904900Y-83579700D01*
X113903900Y-83576700D01*
X113902900Y-83574700D01*
X113901900Y-83571700D01*
X113901900Y-83569700D01*
X113900900Y-83566700D01*
X113900900Y-83564700D01*
X113899900Y-83561700D01*
X113899900Y-83559700D01*
X113899900Y-83556700D01*
X113899900Y-82771700D01*
X113899900Y-82768700D01*
X113899900Y-82766700D01*
X113900900Y-82763700D01*
X113900900Y-82761700D01*
X113901900Y-82758700D01*
X113901900Y-82756700D01*
X113902900Y-82753700D01*
X113903900Y-82751700D01*
X113904900Y-82748700D01*
X113906900Y-82746700D01*
X113907900Y-82744700D01*
X113909900Y-82742700D01*
X113910900Y-82740700D01*
X113912900Y-82738700D01*
X113914900Y-82736700D01*
X113916900Y-82734700D01*
X113918900Y-82732700D01*
X113920900Y-82731700D01*
X113922900Y-82729700D01*
X113924900Y-82728700D01*
X113926900Y-82726700D01*
X113929900Y-82725700D01*
X113931900Y-82724700D01*
X113934900Y-82723700D01*
X113936900Y-82723700D01*
X113939900Y-82722700D01*
X113941900Y-82722700D01*
X113944900Y-82721700D01*
X113946900Y-82721700D01*
X113949900Y-82721700D01*
X114249900Y-82721700D01*
X114252900Y-82721700D01*
X114254900Y-82721700D01*
X114257900Y-82722700D01*
G36*
X114257900Y-82722700D02*
G01*
X114259900Y-82722700D01*
X114262900Y-82723700D01*
X114264900Y-82723700D01*
X114267900Y-82724700D01*
X114269900Y-82725700D01*
X114272900Y-82726700D01*
X114274900Y-82728700D01*
X114276900Y-82729700D01*
X114278900Y-82731700D01*
X114280900Y-82732700D01*
X114282900Y-82734700D01*
X114284900Y-82736700D01*
X114286900Y-82738700D01*
X114288900Y-82740700D01*
X114289900Y-82742700D01*
X114291900Y-82744700D01*
X114292900Y-82746700D01*
X114294900Y-82748700D01*
X114295900Y-82751700D01*
X114296900Y-82753700D01*
X114297900Y-82756700D01*
X114297900Y-82758700D01*
X114298900Y-82761700D01*
X114298900Y-82763700D01*
X114299900Y-82766700D01*
X114299900Y-82768700D01*
X114299900Y-82771700D01*
X114299900Y-82895700D01*
X114299900Y-82897700D01*
X114299900Y-82898700D01*
X114299900Y-82899700D01*
X114299900Y-82901700D01*
X114299900Y-82902700D01*
X114300900Y-82903700D01*
X114300900Y-82904700D01*
X114300900Y-82906700D01*
X114300900Y-82907700D01*
X114301900Y-82908700D01*
X114301900Y-82909700D01*
X114301900Y-82911700D01*
X114302900Y-82912700D01*
X114302900Y-82913700D01*
X114303900Y-82914700D01*
X114303900Y-82916700D01*
X114304900Y-82917700D01*
X114304900Y-82918700D01*
X114305900Y-82919700D01*
X114306900Y-82920700D01*
X114306900Y-82921700D01*
X114307900Y-82923700D01*
X114308900Y-82924700D01*
X114309900Y-82925700D01*
X114309900Y-82926700D01*
X114310900Y-82927700D01*
X114311900Y-82928700D01*
X114312900Y-82929700D01*
X114313900Y-82930700D01*
X114314900Y-82931700D01*
X114674900Y-83291700D01*
X114675900Y-83292700D01*
X114676900Y-83293700D01*
X114677900Y-83294700D01*
X114678900Y-83295700D01*
X114679900Y-83296700D01*
X114680900Y-83296700D01*
X114681900Y-83297700D01*
X114682900Y-83298700D01*
X114684900Y-83299700D01*
X114685900Y-83299700D01*
X114686900Y-83300700D01*
X114687900Y-83301700D01*
X114688900Y-83301700D01*
X114689900Y-83302700D01*
X114691900Y-83302700D01*
X114692900Y-83303700D01*
X114693900Y-83303700D01*
X114694900Y-83304700D01*
X114696900Y-83304700D01*
X114697900Y-83304700D01*
X114698900Y-83305700D01*
X114699900Y-83305700D01*
X114701900Y-83305700D01*
X114702900Y-83305700D01*
X114703900Y-83306700D01*
X114704900Y-83306700D01*
X114706900Y-83306700D01*
X114707900Y-83306700D01*
X114708900Y-83306700D01*
X114710900Y-83306700D01*
X114904900Y-83306700D01*
X114907900Y-83306700D01*
X114909900Y-83306700D01*
X114912900Y-83307700D01*
X114914900Y-83307700D01*
X114917900Y-83308700D01*
X114919900Y-83308700D01*
X114922900Y-83309700D01*
X114924900Y-83310700D01*
X114927900Y-83311700D01*
X114929900Y-83313700D01*
X114931900Y-83314700D01*
X114933900Y-83316700D01*
X114935900Y-83317700D01*
X114937900Y-83319700D01*
X114939900Y-83321700D01*
X114941900Y-83323700D01*
X114943900Y-83325700D01*
X114944900Y-83327700D01*
X114946900Y-83329700D01*
X114947900Y-83331700D01*
X114949900Y-83333700D01*
X114950900Y-83336700D01*
X114951900Y-83338700D01*
X114952900Y-83341700D01*
X114952900Y-83343700D01*
X114953900Y-83346700D01*
X114953900Y-83348700D01*
X114954900Y-83351700D01*
X114954900Y-83353700D01*
X114954900Y-83356700D01*
X114954900Y-83556700D01*
X114954900Y-83559700D01*
X114954900Y-83561700D01*
X114953900Y-83564700D01*
X114953900Y-83566700D01*
X114952900Y-83569700D01*
X114952900Y-83571700D01*
X114951900Y-83574700D01*
X114950900Y-83576700D01*
X114949900Y-83579700D01*
X114947900Y-83581700D01*
X114946900Y-83583700D01*
X114944900Y-83585700D01*
X114943900Y-83587700D01*
X114941900Y-83589700D01*
X114939900Y-83591700D01*
X114937900Y-83593700D01*
X114935900Y-83595700D01*
X114933900Y-83596700D01*
X114931900Y-83598700D01*
X114929900Y-83599700D01*
X114927900Y-83601700D01*
X114924900Y-83602700D01*
X114922900Y-83603700D01*
X114919900Y-83604700D01*
X114917900Y-83604700D01*
X114914900Y-83605700D01*
X114912900Y-83605700D01*
X114909900Y-83606700D01*
X114907900Y-83606700D01*
X114904900Y-83606700D01*
X113949900Y-83606700D01*
X113946900Y-83606700D01*
X113944900Y-83606700D01*
X113941900Y-83605700D01*
X113939900Y-83605700D01*
X113936900Y-83604700D01*
X113934900Y-83604700D01*
X113931900Y-83603700D01*
X113929900Y-83602700D01*
X113926900Y-83601700D01*
X113924900Y-83599700D01*
X113922900Y-83598700D01*
X113920900Y-83596700D01*
X113918900Y-83595700D01*
X113916900Y-83593700D01*
X113914900Y-83591700D01*
X113912900Y-83589700D01*
X113910900Y-83587700D01*
X113909900Y-83585700D01*
X113907900Y-83583700D01*
X113906900Y-83581700D01*
X113904900Y-83579700D01*
X113903900Y-83576700D01*
X113902900Y-83574700D01*
X113901900Y-83571700D01*
X113901900Y-83569700D01*
X113900900Y-83566700D01*
X113900900Y-83564700D01*
X113899900Y-83561700D01*
X113899900Y-83559700D01*
X113899900Y-83556700D01*
X113899900Y-82771700D01*
X113899900Y-82768700D01*
X113899900Y-82766700D01*
X113900900Y-82763700D01*
X113900900Y-82761700D01*
X113901900Y-82758700D01*
X113901900Y-82756700D01*
X113902900Y-82753700D01*
X113903900Y-82751700D01*
X113904900Y-82748700D01*
X113906900Y-82746700D01*
X113907900Y-82744700D01*
X113909900Y-82742700D01*
X113910900Y-82740700D01*
X113912900Y-82738700D01*
X113914900Y-82736700D01*
X113916900Y-82734700D01*
X113918900Y-82732700D01*
X113920900Y-82731700D01*
X113922900Y-82729700D01*
X113924900Y-82728700D01*
X113926900Y-82726700D01*
X113929900Y-82725700D01*
X113931900Y-82724700D01*
X113934900Y-82723700D01*
X113936900Y-82723700D01*
X113939900Y-82722700D01*
X113941900Y-82722700D01*
X113944900Y-82721700D01*
X113946900Y-82721700D01*
X113949900Y-82721700D01*
X114249900Y-82721700D01*
X114252900Y-82721700D01*
X114254900Y-82721700D01*
X114257900Y-82722700D01*
G37*
X111782900Y-80557700D02*
X111784900Y-80557700D01*
X111787900Y-80558700D01*
X111789900Y-80558700D01*
X111792900Y-80559700D01*
X111794900Y-80560700D01*
X111797900Y-80561700D01*
X111799900Y-80563700D01*
X111801900Y-80564700D01*
X111803900Y-80566700D01*
X111805900Y-80567700D01*
X111807900Y-80569700D01*
X111809900Y-80571700D01*
X111811900Y-80573700D01*
X111813900Y-80575700D01*
X111814900Y-80577700D01*
X111816900Y-80579700D01*
X111817900Y-80581700D01*
X111819900Y-80583700D01*
X111820900Y-80586700D01*
X111821900Y-80588700D01*
X111822900Y-80591700D01*
X111822900Y-80593700D01*
X111823900Y-80596700D01*
X111823900Y-80598700D01*
X111824900Y-80601700D01*
X111824900Y-80603700D01*
X111824900Y-80606700D01*
X111824900Y-81106700D01*
X111824900Y-81109700D01*
X111824900Y-81111700D01*
X111825900Y-81114700D01*
X111825900Y-81116700D01*
X111826900Y-81119700D01*
X111826900Y-81121700D01*
X111827900Y-81124700D01*
X111828900Y-81126700D01*
X111829900Y-81129700D01*
X111831900Y-81131700D01*
X111832900Y-81133700D01*
X111834900Y-81135700D01*
X111835900Y-81137700D01*
X111837900Y-81139700D01*
X111839900Y-81141700D01*
X111841900Y-81143700D01*
X111843900Y-81145700D01*
X111845900Y-81146700D01*
X111847900Y-81148700D01*
X111849900Y-81149700D01*
X111851900Y-81151700D01*
X111854900Y-81152700D01*
X111856900Y-81153700D01*
X111859900Y-81154700D01*
X111861900Y-81154700D01*
X111864900Y-81155700D01*
X111866900Y-81155700D01*
X111869900Y-81156700D01*
X111871900Y-81156700D01*
X111874900Y-81156700D01*
X112024900Y-81156700D01*
X112027900Y-81156700D01*
X112029900Y-81156700D01*
X112032900Y-81155700D01*
X112034900Y-81155700D01*
X112037900Y-81154700D01*
X112039900Y-81154700D01*
X112042900Y-81153700D01*
X112044900Y-81152700D01*
X112047900Y-81151700D01*
X112049900Y-81149700D01*
X112051900Y-81148700D01*
X112053900Y-81146700D01*
X112055900Y-81145700D01*
X112057900Y-81143700D01*
X112059900Y-81141700D01*
X112061900Y-81139700D01*
X112063900Y-81137700D01*
X112064900Y-81135700D01*
X112066900Y-81133700D01*
X112067900Y-81131700D01*
X112069900Y-81129700D01*
X112070900Y-81126700D01*
X112071900Y-81124700D01*
X112072900Y-81121700D01*
X112072900Y-81119700D01*
X112073900Y-81116700D01*
X112073900Y-81114700D01*
X112074900Y-81111700D01*
X112074900Y-81109700D01*
X112074900Y-81106700D01*
X112074900Y-80606700D01*
X112074900Y-80603700D01*
X112074900Y-80601700D01*
X112075900Y-80598700D01*
X112075900Y-80596700D01*
X112076900Y-80593700D01*
X112076900Y-80591700D01*
X112077900Y-80588700D01*
X112078900Y-80586700D01*
X112079900Y-80583700D01*
X112081900Y-80581700D01*
X112082900Y-80579700D01*
X112084900Y-80577700D01*
X112085900Y-80575700D01*
X112087900Y-80573700D01*
X112089900Y-80571700D01*
X112091900Y-80569700D01*
X112093900Y-80567700D01*
X112095900Y-80566700D01*
X112097900Y-80564700D01*
X112099900Y-80563700D01*
X112101900Y-80561700D01*
X112104900Y-80560700D01*
X112106900Y-80559700D01*
X112109900Y-80558700D01*
X112111900Y-80558700D01*
X112114900Y-80557700D01*
X112116900Y-80557700D01*
X112119900Y-80556700D01*
X112121900Y-80556700D01*
X112124900Y-80556700D01*
X112274900Y-80556700D01*
X112277900Y-80556700D01*
X112279900Y-80556700D01*
X112282900Y-80557700D01*
X112284900Y-80557700D01*
X112287900Y-80558700D01*
X112289900Y-80558700D01*
X112292900Y-80559700D01*
X112294900Y-80560700D01*
X112297900Y-80561700D01*
X112299900Y-80563700D01*
X112301900Y-80564700D01*
X112303900Y-80566700D01*
X112305900Y-80567700D01*
X112307900Y-80569700D01*
X112309900Y-80571700D01*
X112311900Y-80573700D01*
X112313900Y-80575700D01*
X112314900Y-80577700D01*
X112316900Y-80579700D01*
X112317900Y-80581700D01*
X112319900Y-80583700D01*
X112320900Y-80586700D01*
X112321900Y-80588700D01*
X112322900Y-80591700D01*
X112322900Y-80593700D01*
X112323900Y-80596700D01*
X112323900Y-80598700D01*
X112324900Y-80601700D01*
X112324900Y-80603700D01*
X112324900Y-80606700D01*
X112324900Y-81106700D01*
X112324900Y-81109700D01*
X112324900Y-81111700D01*
X112325900Y-81114700D01*
X112325900Y-81116700D01*
X112326900Y-81119700D01*
X112326900Y-81121700D01*
X112327900Y-81124700D01*
X112328900Y-81126700D01*
X112329900Y-81129700D01*
X112331900Y-81131700D01*
X112332900Y-81133700D01*
X112334900Y-81135700D01*
X112335900Y-81137700D01*
X112337900Y-81139700D01*
X112339900Y-81141700D01*
X112341900Y-81143700D01*
X112343900Y-81145700D01*
X112345900Y-81146700D01*
X112347900Y-81148700D01*
X112349900Y-81149700D01*
X112351900Y-81151700D01*
X112354900Y-81152700D01*
X112356900Y-81153700D01*
X112359900Y-81154700D01*
X112361900Y-81154700D01*
X112364900Y-81155700D01*
X112366900Y-81155700D01*
X112369900Y-81156700D01*
X112371900Y-81156700D01*
X112374900Y-81156700D01*
X112524900Y-81156700D01*
X112527900Y-81156700D01*
X112529900Y-81156700D01*
X112532900Y-81155700D01*
X112534900Y-81155700D01*
X112537900Y-81154700D01*
X112539900Y-81154700D01*
X112542900Y-81153700D01*
X112544900Y-81152700D01*
X112547900Y-81151700D01*
X112549900Y-81149700D01*
X112551900Y-81148700D01*
X112553900Y-81146700D01*
X112555900Y-81145700D01*
X112557900Y-81143700D01*
X112559900Y-81141700D01*
X112561900Y-81139700D01*
X112563900Y-81137700D01*
X112564900Y-81135700D01*
X112566900Y-81133700D01*
X112567900Y-81131700D01*
X112569900Y-81129700D01*
X112570900Y-81126700D01*
X112571900Y-81124700D01*
X112572900Y-81121700D01*
X112572900Y-81119700D01*
X112573900Y-81116700D01*
X112573900Y-81114700D01*
X112574900Y-81111700D01*
X112574900Y-81109700D01*
X112574900Y-81106700D01*
X112574900Y-80606700D01*
X112574900Y-80603700D01*
X112574900Y-80601700D01*
X112575900Y-80598700D01*
X112575900Y-80596700D01*
X112576900Y-80593700D01*
X112576900Y-80591700D01*
X112577900Y-80588700D01*
X112578900Y-80586700D01*
X112579900Y-80583700D01*
X112581900Y-80581700D01*
X112582900Y-80579700D01*
X112584900Y-80577700D01*
X112585900Y-80575700D01*
X112587900Y-80573700D01*
X112589900Y-80571700D01*
X112591900Y-80569700D01*
X112593900Y-80567700D01*
X112595900Y-80566700D01*
X112597900Y-80564700D01*
X112599900Y-80563700D01*
X112601900Y-80561700D01*
X112604900Y-80560700D01*
X112606900Y-80559700D01*
X112609900Y-80558700D01*
X112611900Y-80558700D01*
X112614900Y-80557700D01*
X112616900Y-80557700D01*
X112619900Y-80556700D01*
X112621900Y-80556700D01*
X112624900Y-80556700D01*
X112774900Y-80556700D01*
X112777900Y-80556700D01*
X112779900Y-80556700D01*
X112782900Y-80557700D01*
X112784900Y-80557700D01*
X112787900Y-80558700D01*
X112789900Y-80558700D01*
X112792900Y-80559700D01*
X112794900Y-80560700D01*
X112797900Y-80561700D01*
X112799900Y-80563700D01*
X112801900Y-80564700D01*
X112803900Y-80566700D01*
X112805900Y-80567700D01*
X112807900Y-80569700D01*
X112809900Y-80571700D01*
X112811900Y-80573700D01*
X112813900Y-80575700D01*
X112814900Y-80577700D01*
X112816900Y-80579700D01*
X112817900Y-80581700D01*
X112819900Y-80583700D01*
X112820900Y-80586700D01*
X112821900Y-80588700D01*
X112822900Y-80591700D01*
X112822900Y-80593700D01*
X112823900Y-80596700D01*
X112823900Y-80598700D01*
X112824900Y-80601700D01*
X112824900Y-80603700D01*
X112824900Y-80606700D01*
X112824900Y-81106700D01*
X112824900Y-81109700D01*
X112824900Y-81111700D01*
X112825900Y-81114700D01*
X112825900Y-81116700D01*
X112826900Y-81119700D01*
X112826900Y-81121700D01*
X112827900Y-81124700D01*
X112828900Y-81126700D01*
X112829900Y-81129700D01*
X112831900Y-81131700D01*
X112832900Y-81133700D01*
X112834900Y-81135700D01*
X112835900Y-81137700D01*
X112837900Y-81139700D01*
X112839900Y-81141700D01*
X112841900Y-81143700D01*
X112843900Y-81145700D01*
X112845900Y-81146700D01*
X112847900Y-81148700D01*
X112849900Y-81149700D01*
X112851900Y-81151700D01*
X112854900Y-81152700D01*
X112856900Y-81153700D01*
X112859900Y-81154700D01*
X112861900Y-81154700D01*
X112864900Y-81155700D01*
X112866900Y-81155700D01*
X112869900Y-81156700D01*
X112871900Y-81156700D01*
X112874900Y-81156700D01*
X113024900Y-81156700D01*
X113027900Y-81156700D01*
X113029900Y-81156700D01*
X113032900Y-81155700D01*
X113034900Y-81155700D01*
X113037900Y-81154700D01*
X113039900Y-81154700D01*
X113042900Y-81153700D01*
X113044900Y-81152700D01*
X113047900Y-81151700D01*
X113049900Y-81149700D01*
X113051900Y-81148700D01*
X113053900Y-81146700D01*
X113055900Y-81145700D01*
X113057900Y-81143700D01*
X113059900Y-81141700D01*
X113061900Y-81139700D01*
X113063900Y-81137700D01*
X113064900Y-81135700D01*
X113066900Y-81133700D01*
X113067900Y-81131700D01*
X113069900Y-81129700D01*
X113070900Y-81126700D01*
X113071900Y-81124700D01*
X113072900Y-81121700D01*
X113072900Y-81119700D01*
X113073900Y-81116700D01*
X113073900Y-81114700D01*
X113074900Y-81111700D01*
X113074900Y-81109700D01*
X113074900Y-81106700D01*
X113074900Y-80606700D01*
X113074900Y-80603700D01*
X113074900Y-80601700D01*
X113075900Y-80598700D01*
X113075900Y-80596700D01*
X113076900Y-80593700D01*
X113076900Y-80591700D01*
X113077900Y-80588700D01*
X113078900Y-80586700D01*
X113079900Y-80583700D01*
X113081900Y-80581700D01*
X113082900Y-80579700D01*
X113084900Y-80577700D01*
X113085900Y-80575700D01*
X113087900Y-80573700D01*
X113089900Y-80571700D01*
X113091900Y-80569700D01*
X113093900Y-80567700D01*
X113095900Y-80566700D01*
X113097900Y-80564700D01*
X113099900Y-80563700D01*
X113101900Y-80561700D01*
X113104900Y-80560700D01*
X113106900Y-80559700D01*
X113109900Y-80558700D01*
X113111900Y-80558700D01*
X113114900Y-80557700D01*
X113116900Y-80557700D01*
X113119900Y-80556700D01*
X113121900Y-80556700D01*
X113124900Y-80556700D01*
X113274900Y-80556700D01*
X113277900Y-80556700D01*
X113279900Y-80556700D01*
X113282900Y-80557700D01*
X113284900Y-80557700D01*
X113287900Y-80558700D01*
X113289900Y-80558700D01*
X113292900Y-80559700D01*
X113294900Y-80560700D01*
X113297900Y-80561700D01*
X113299900Y-80563700D01*
X113301900Y-80564700D01*
X113303900Y-80566700D01*
X113305900Y-80567700D01*
X113307900Y-80569700D01*
X113309900Y-80571700D01*
X113311900Y-80573700D01*
X113313900Y-80575700D01*
X113314900Y-80577700D01*
X113316900Y-80579700D01*
X113317900Y-80581700D01*
X113319900Y-80583700D01*
X113320900Y-80586700D01*
X113321900Y-80588700D01*
X113322900Y-80591700D01*
X113322900Y-80593700D01*
X113323900Y-80596700D01*
X113323900Y-80598700D01*
X113324900Y-80601700D01*
X113324900Y-80603700D01*
X113324900Y-80606700D01*
X113324900Y-80956700D01*
X113324900Y-80959700D01*
X113324900Y-80961700D01*
X113325900Y-80964700D01*
X113325900Y-80966700D01*
X113326900Y-80969700D01*
X113326900Y-80971700D01*
X113327900Y-80974700D01*
X113328900Y-80976700D01*
X113329900Y-80979700D01*
X113331900Y-80981700D01*
X113332900Y-80983700D01*
X113334900Y-80985700D01*
X113335900Y-80987700D01*
X113337900Y-80989700D01*
X113339900Y-80991700D01*
X113341900Y-80993700D01*
X113343900Y-80995700D01*
X113345900Y-80996700D01*
X113347900Y-80998700D01*
X113349900Y-80999700D01*
X113351900Y-81001700D01*
X113354900Y-81002700D01*
X113356900Y-81003700D01*
X113359900Y-81004700D01*
X113361900Y-81004700D01*
X113364900Y-81005700D01*
X113366900Y-81005700D01*
X113369900Y-81006700D01*
X113371900Y-81006700D01*
X113374900Y-81006700D01*
X113439900Y-81006700D01*
X113442900Y-81006700D01*
X113444900Y-81006700D01*
X113447900Y-81007700D01*
X113449900Y-81007700D01*
X113452900Y-81008700D01*
X113454900Y-81008700D01*
X113457900Y-81009700D01*
X113459900Y-81010700D01*
X113462900Y-81011700D01*
X113464900Y-81013700D01*
X113466900Y-81014700D01*
X113468900Y-81016700D01*
X113470900Y-81017700D01*
X113472900Y-81019700D01*
X113474900Y-81021700D01*
X113476900Y-81023700D01*
X113478900Y-81025700D01*
X113479900Y-81027700D01*
X113481900Y-81029700D01*
X113482900Y-81031700D01*
X113484900Y-81033700D01*
X113485900Y-81036700D01*
X113486900Y-81038700D01*
X113487900Y-81041700D01*
X113487900Y-81043700D01*
X113488900Y-81046700D01*
X113488900Y-81048700D01*
X113489900Y-81051700D01*
X113489900Y-81053700D01*
X113489900Y-81056700D01*
X113489900Y-81896700D01*
X113489900Y-81899700D01*
X113489900Y-81901700D01*
X113488900Y-81904700D01*
X113488900Y-81906700D01*
X113487900Y-81909700D01*
X113487900Y-81911700D01*
X113486900Y-81914700D01*
X113485900Y-81916700D01*
X113484900Y-81919700D01*
X113482900Y-81921700D01*
X113481900Y-81923700D01*
X113479900Y-81925700D01*
X113478900Y-81927700D01*
X113476900Y-81929700D01*
X113474900Y-81931700D01*
X113472900Y-81933700D01*
X113470900Y-81935700D01*
X113468900Y-81936700D01*
X113466900Y-81938700D01*
X113464900Y-81939700D01*
X113462900Y-81941700D01*
X113459900Y-81942700D01*
X113457900Y-81943700D01*
X113454900Y-81944700D01*
X113452900Y-81944700D01*
X113449900Y-81945700D01*
X113447900Y-81945700D01*
X113444900Y-81946700D01*
X113442900Y-81946700D01*
X113439900Y-81946700D01*
X113099900Y-81946700D01*
X113096900Y-81946700D01*
X113094900Y-81946700D01*
X113091900Y-81945700D01*
X113089900Y-81945700D01*
X113086900Y-81944700D01*
X113084900Y-81944700D01*
X113081900Y-81943700D01*
X113079900Y-81942700D01*
X113076900Y-81941700D01*
X113074900Y-81939700D01*
X113072900Y-81938700D01*
X113070900Y-81936700D01*
X113068900Y-81935700D01*
X113066900Y-81933700D01*
X113064900Y-81931700D01*
X113062900Y-81929700D01*
X113060900Y-81927700D01*
X113059900Y-81925700D01*
X113057900Y-81923700D01*
X113056900Y-81921700D01*
X113054900Y-81919700D01*
X113053900Y-81916700D01*
X113052900Y-81914700D01*
X113051900Y-81911700D01*
X113051900Y-81909700D01*
X113050900Y-81906700D01*
X113050900Y-81904700D01*
X113049900Y-81901700D01*
X113049900Y-81899700D01*
X113049900Y-81896700D01*
X113049900Y-81526700D01*
X113049900Y-81523700D01*
X113049900Y-81521700D01*
X113048900Y-81518700D01*
X113048900Y-81516700D01*
X113047900Y-81513700D01*
X113047900Y-81511700D01*
X113046900Y-81508700D01*
X113045900Y-81506700D01*
X113044900Y-81503700D01*
X113042900Y-81501700D01*
X113041900Y-81499700D01*
X113039900Y-81497700D01*
X113038900Y-81495700D01*
X113036900Y-81493700D01*
X113034900Y-81491700D01*
X113032900Y-81489700D01*
X113030900Y-81487700D01*
X113028900Y-81486700D01*
X113026900Y-81484700D01*
X113024900Y-81483700D01*
X113022900Y-81481700D01*
X113019900Y-81480700D01*
X113017900Y-81479700D01*
X113014900Y-81478700D01*
X113012900Y-81478700D01*
X113009900Y-81477700D01*
X113007900Y-81477700D01*
X113004900Y-81476700D01*
X113002900Y-81476700D01*
X112999900Y-81476700D01*
X112899900Y-81476700D01*
X112896900Y-81476700D01*
X112894900Y-81476700D01*
X112891900Y-81477700D01*
X112889900Y-81477700D01*
X112886900Y-81478700D01*
X112884900Y-81478700D01*
X112881900Y-81479700D01*
X112879900Y-81480700D01*
X112876900Y-81481700D01*
X112874900Y-81483700D01*
X112872900Y-81484700D01*
X112870900Y-81486700D01*
X112868900Y-81487700D01*
X112866900Y-81489700D01*
X112864900Y-81491700D01*
X112862900Y-81493700D01*
X112860900Y-81495700D01*
X112859900Y-81497700D01*
X112857900Y-81499700D01*
X112856900Y-81501700D01*
X112854900Y-81503700D01*
X112853900Y-81506700D01*
X112852900Y-81508700D01*
X112851900Y-81511700D01*
X112851900Y-81513700D01*
X112850900Y-81516700D01*
X112850900Y-81518700D01*
X112849900Y-81521700D01*
X112849900Y-81523700D01*
X112849900Y-81526700D01*
X112849900Y-81896700D01*
X112849900Y-81899700D01*
X112849900Y-81901700D01*
X112848900Y-81904700D01*
X112848900Y-81906700D01*
X112847900Y-81909700D01*
X112847900Y-81911700D01*
X112846900Y-81914700D01*
X112845900Y-81916700D01*
X112844900Y-81919700D01*
X112842900Y-81921700D01*
X112841900Y-81923700D01*
X112839900Y-81925700D01*
X112838900Y-81927700D01*
X112836900Y-81929700D01*
X112834900Y-81931700D01*
X112832900Y-81933700D01*
X112830900Y-81935700D01*
X112828900Y-81936700D01*
X112826900Y-81938700D01*
X112824900Y-81939700D01*
X112822900Y-81941700D01*
X112819900Y-81942700D01*
X112817900Y-81943700D01*
X112814900Y-81944700D01*
X112812900Y-81944700D01*
X112809900Y-81945700D01*
X112807900Y-81945700D01*
X112804900Y-81946700D01*
X112802900Y-81946700D01*
X112799900Y-81946700D01*
X112599900Y-81946700D01*
X112596900Y-81946700D01*
X112594900Y-81946700D01*
X112591900Y-81945700D01*
X112589900Y-81945700D01*
X112586900Y-81944700D01*
X112584900Y-81944700D01*
X112581900Y-81943700D01*
X112579900Y-81942700D01*
X112576900Y-81941700D01*
X112574900Y-81939700D01*
X112572900Y-81938700D01*
X112570900Y-81936700D01*
X112568900Y-81935700D01*
X112566900Y-81933700D01*
X112564900Y-81931700D01*
X112562900Y-81929700D01*
X112560900Y-81927700D01*
X112559900Y-81925700D01*
X112557900Y-81923700D01*
X112556900Y-81921700D01*
X112554900Y-81919700D01*
X112553900Y-81916700D01*
X112552900Y-81914700D01*
X112551900Y-81911700D01*
X112551900Y-81909700D01*
X112550900Y-81906700D01*
X112550900Y-81904700D01*
X112549900Y-81901700D01*
X112549900Y-81899700D01*
X112549900Y-81896700D01*
X112549900Y-81526700D01*
X112549900Y-81523700D01*
X112549900Y-81521700D01*
X112548900Y-81518700D01*
X112548900Y-81516700D01*
X112547900Y-81513700D01*
X112547900Y-81511700D01*
X112546900Y-81508700D01*
X112545900Y-81506700D01*
X112544900Y-81503700D01*
X112542900Y-81501700D01*
X112541900Y-81499700D01*
X112539900Y-81497700D01*
X112538900Y-81495700D01*
X112536900Y-81493700D01*
X112534900Y-81491700D01*
X112532900Y-81489700D01*
X112530900Y-81487700D01*
X112528900Y-81486700D01*
X112526900Y-81484700D01*
X112524900Y-81483700D01*
X112522900Y-81481700D01*
X112519900Y-81480700D01*
X112517900Y-81479700D01*
X112514900Y-81478700D01*
X112512900Y-81478700D01*
X112509900Y-81477700D01*
X112507900Y-81477700D01*
X112504900Y-81476700D01*
X112502900Y-81476700D01*
X112499900Y-81476700D01*
X112399900Y-81476700D01*
X112396900Y-81476700D01*
X112394900Y-81476700D01*
X112391900Y-81477700D01*
X112389900Y-81477700D01*
X112386900Y-81478700D01*
X112384900Y-81478700D01*
X112381900Y-81479700D01*
X112379900Y-81480700D01*
X112376900Y-81481700D01*
X112374900Y-81483700D01*
X112372900Y-81484700D01*
X112370900Y-81486700D01*
X112368900Y-81487700D01*
X112366900Y-81489700D01*
X112364900Y-81491700D01*
X112362900Y-81493700D01*
X112360900Y-81495700D01*
X112359900Y-81497700D01*
X112357900Y-81499700D01*
X112356900Y-81501700D01*
X112354900Y-81503700D01*
X112353900Y-81506700D01*
X112352900Y-81508700D01*
X112351900Y-81511700D01*
X112351900Y-81513700D01*
X112350900Y-81516700D01*
X112350900Y-81518700D01*
X112349900Y-81521700D01*
X112349900Y-81523700D01*
X112349900Y-81526700D01*
X112349900Y-81896700D01*
X112349900Y-81899700D01*
X112349900Y-81901700D01*
X112348900Y-81904700D01*
X112348900Y-81906700D01*
X112347900Y-81909700D01*
X112347900Y-81911700D01*
X112346900Y-81914700D01*
X112345900Y-81916700D01*
X112344900Y-81919700D01*
X112342900Y-81921700D01*
X112341900Y-81923700D01*
X112339900Y-81925700D01*
X112338900Y-81927700D01*
X112336900Y-81929700D01*
X112334900Y-81931700D01*
X112332900Y-81933700D01*
X112330900Y-81935700D01*
X112328900Y-81936700D01*
X112326900Y-81938700D01*
X112324900Y-81939700D01*
X112322900Y-81941700D01*
X112319900Y-81942700D01*
X112317900Y-81943700D01*
X112314900Y-81944700D01*
X112312900Y-81944700D01*
X112309900Y-81945700D01*
X112307900Y-81945700D01*
X112304900Y-81946700D01*
X112302900Y-81946700D01*
X112299900Y-81946700D01*
X112099900Y-81946700D01*
X112096900Y-81946700D01*
X112094900Y-81946700D01*
X112091900Y-81945700D01*
X112089900Y-81945700D01*
X112086900Y-81944700D01*
X112084900Y-81944700D01*
X112081900Y-81943700D01*
X112079900Y-81942700D01*
X112076900Y-81941700D01*
X112074900Y-81939700D01*
X112072900Y-81938700D01*
X112070900Y-81936700D01*
X112068900Y-81935700D01*
X112066900Y-81933700D01*
X112064900Y-81931700D01*
X112062900Y-81929700D01*
X112060900Y-81927700D01*
X112059900Y-81925700D01*
X112057900Y-81923700D01*
X112056900Y-81921700D01*
X112054900Y-81919700D01*
X112053900Y-81916700D01*
X112052900Y-81914700D01*
X112051900Y-81911700D01*
X112051900Y-81909700D01*
X112050900Y-81906700D01*
X112050900Y-81904700D01*
X112049900Y-81901700D01*
X112049900Y-81899700D01*
X112049900Y-81896700D01*
X112049900Y-81526700D01*
X112049900Y-81523700D01*
X112049900Y-81521700D01*
X112048900Y-81518700D01*
X112048900Y-81516700D01*
X112047900Y-81513700D01*
X112047900Y-81511700D01*
X112046900Y-81508700D01*
X112045900Y-81506700D01*
X112044900Y-81503700D01*
X112042900Y-81501700D01*
X112041900Y-81499700D01*
X112039900Y-81497700D01*
X112038900Y-81495700D01*
X112036900Y-81493700D01*
X112034900Y-81491700D01*
X112032900Y-81489700D01*
X112030900Y-81487700D01*
X112028900Y-81486700D01*
X112026900Y-81484700D01*
X112024900Y-81483700D01*
X112022900Y-81481700D01*
X112019900Y-81480700D01*
X112017900Y-81479700D01*
X112014900Y-81478700D01*
X112012900Y-81478700D01*
X112009900Y-81477700D01*
X112007900Y-81477700D01*
X112004900Y-81476700D01*
X112002900Y-81476700D01*
X111999900Y-81476700D01*
X111899900Y-81476700D01*
X111896900Y-81476700D01*
X111894900Y-81476700D01*
X111891900Y-81477700D01*
X111889900Y-81477700D01*
X111886900Y-81478700D01*
X111884900Y-81478700D01*
X111881900Y-81479700D01*
X111879900Y-81480700D01*
X111876900Y-81481700D01*
X111874900Y-81483700D01*
X111872900Y-81484700D01*
X111870900Y-81486700D01*
X111868900Y-81487700D01*
X111866900Y-81489700D01*
X111864900Y-81491700D01*
X111862900Y-81493700D01*
X111860900Y-81495700D01*
X111859900Y-81497700D01*
X111857900Y-81499700D01*
X111856900Y-81501700D01*
X111854900Y-81503700D01*
X111853900Y-81506700D01*
X111852900Y-81508700D01*
X111851900Y-81511700D01*
X111851900Y-81513700D01*
X111850900Y-81516700D01*
X111850900Y-81518700D01*
X111849900Y-81521700D01*
X111849900Y-81523700D01*
X111849900Y-81526700D01*
X111849900Y-81896700D01*
X111849900Y-81899700D01*
X111849900Y-81901700D01*
X111848900Y-81904700D01*
X111848900Y-81906700D01*
X111847900Y-81909700D01*
X111847900Y-81911700D01*
X111846900Y-81914700D01*
X111845900Y-81916700D01*
X111844900Y-81919700D01*
X111842900Y-81921700D01*
X111841900Y-81923700D01*
X111839900Y-81925700D01*
X111838900Y-81927700D01*
X111836900Y-81929700D01*
X111834900Y-81931700D01*
X111832900Y-81933700D01*
X111830900Y-81935700D01*
X111828900Y-81936700D01*
X111826900Y-81938700D01*
X111824900Y-81939700D01*
X111822900Y-81941700D01*
X111819900Y-81942700D01*
X111817900Y-81943700D01*
X111814900Y-81944700D01*
X111812900Y-81944700D01*
X111809900Y-81945700D01*
X111807900Y-81945700D01*
X111804900Y-81946700D01*
X111802900Y-81946700D01*
X111799900Y-81946700D01*
X111459900Y-81946700D01*
X111456900Y-81946700D01*
X111454900Y-81946700D01*
X111451900Y-81945700D01*
X111449900Y-81945700D01*
X111446900Y-81944700D01*
X111444900Y-81944700D01*
X111441900Y-81943700D01*
X111439900Y-81942700D01*
X111436900Y-81941700D01*
X111434900Y-81939700D01*
X111432900Y-81938700D01*
X111430900Y-81936700D01*
X111428900Y-81935700D01*
X111426900Y-81933700D01*
X111424900Y-81931700D01*
X111422900Y-81929700D01*
X111420900Y-81927700D01*
X111419900Y-81925700D01*
X111417900Y-81923700D01*
X111416900Y-81921700D01*
X111414900Y-81919700D01*
X111413900Y-81916700D01*
X111412900Y-81914700D01*
X111411900Y-81911700D01*
X111411900Y-81909700D01*
X111410900Y-81906700D01*
X111410900Y-81904700D01*
X111409900Y-81901700D01*
X111409900Y-81899700D01*
X111409900Y-81896700D01*
X111409900Y-81056700D01*
X111409900Y-81053700D01*
X111409900Y-81051700D01*
X111410900Y-81048700D01*
X111410900Y-81046700D01*
X111411900Y-81043700D01*
X111411900Y-81041700D01*
X111412900Y-81038700D01*
X111413900Y-81036700D01*
X111414900Y-81033700D01*
X111416900Y-81031700D01*
X111417900Y-81029700D01*
X111419900Y-81027700D01*
X111420900Y-81025700D01*
X111422900Y-81023700D01*
X111424900Y-81021700D01*
X111426900Y-81019700D01*
X111428900Y-81017700D01*
X111430900Y-81016700D01*
X111432900Y-81014700D01*
X111434900Y-81013700D01*
X111436900Y-81011700D01*
X111439900Y-81010700D01*
X111441900Y-81009700D01*
X111444900Y-81008700D01*
X111446900Y-81008700D01*
X111449900Y-81007700D01*
X111451900Y-81007700D01*
X111454900Y-81006700D01*
X111456900Y-81006700D01*
X111459900Y-81006700D01*
X111524900Y-81006700D01*
X111527900Y-81006700D01*
X111529900Y-81006700D01*
X111532900Y-81005700D01*
X111534900Y-81005700D01*
X111537900Y-81004700D01*
X111539900Y-81004700D01*
X111542900Y-81003700D01*
X111544900Y-81002700D01*
X111547900Y-81001700D01*
X111549900Y-80999700D01*
X111551900Y-80998700D01*
X111553900Y-80996700D01*
X111555900Y-80995700D01*
X111557900Y-80993700D01*
X111559900Y-80991700D01*
X111561900Y-80989700D01*
X111563900Y-80987700D01*
X111564900Y-80985700D01*
X111566900Y-80983700D01*
X111567900Y-80981700D01*
X111569900Y-80979700D01*
X111570900Y-80976700D01*
X111571900Y-80974700D01*
X111572900Y-80971700D01*
X111572900Y-80969700D01*
X111573900Y-80966700D01*
X111573900Y-80964700D01*
X111574900Y-80961700D01*
X111574900Y-80959700D01*
X111574900Y-80956700D01*
X111574900Y-80606700D01*
X111574900Y-80603700D01*
X111574900Y-80601700D01*
X111575900Y-80598700D01*
X111575900Y-80596700D01*
X111576900Y-80593700D01*
X111576900Y-80591700D01*
X111577900Y-80588700D01*
X111578900Y-80586700D01*
X111579900Y-80583700D01*
X111581900Y-80581700D01*
X111582900Y-80579700D01*
X111584900Y-80577700D01*
X111585900Y-80575700D01*
X111587900Y-80573700D01*
X111589900Y-80571700D01*
X111591900Y-80569700D01*
X111593900Y-80567700D01*
X111595900Y-80566700D01*
X111597900Y-80564700D01*
X111599900Y-80563700D01*
X111601900Y-80561700D01*
X111604900Y-80560700D01*
X111606900Y-80559700D01*
X111609900Y-80558700D01*
X111611900Y-80558700D01*
X111614900Y-80557700D01*
X111616900Y-80557700D01*
X111619900Y-80556700D01*
X111621900Y-80556700D01*
X111624900Y-80556700D01*
X111774900Y-80556700D01*
X111777900Y-80556700D01*
X111779900Y-80556700D01*
X111782900Y-80557700D01*
G36*
X111782900Y-80557700D02*
G01*
X111784900Y-80557700D01*
X111787900Y-80558700D01*
X111789900Y-80558700D01*
X111792900Y-80559700D01*
X111794900Y-80560700D01*
X111797900Y-80561700D01*
X111799900Y-80563700D01*
X111801900Y-80564700D01*
X111803900Y-80566700D01*
X111805900Y-80567700D01*
X111807900Y-80569700D01*
X111809900Y-80571700D01*
X111811900Y-80573700D01*
X111813900Y-80575700D01*
X111814900Y-80577700D01*
X111816900Y-80579700D01*
X111817900Y-80581700D01*
X111819900Y-80583700D01*
X111820900Y-80586700D01*
X111821900Y-80588700D01*
X111822900Y-80591700D01*
X111822900Y-80593700D01*
X111823900Y-80596700D01*
X111823900Y-80598700D01*
X111824900Y-80601700D01*
X111824900Y-80603700D01*
X111824900Y-80606700D01*
X111824900Y-81106700D01*
X111824900Y-81109700D01*
X111824900Y-81111700D01*
X111825900Y-81114700D01*
X111825900Y-81116700D01*
X111826900Y-81119700D01*
X111826900Y-81121700D01*
X111827900Y-81124700D01*
X111828900Y-81126700D01*
X111829900Y-81129700D01*
X111831900Y-81131700D01*
X111832900Y-81133700D01*
X111834900Y-81135700D01*
X111835900Y-81137700D01*
X111837900Y-81139700D01*
X111839900Y-81141700D01*
X111841900Y-81143700D01*
X111843900Y-81145700D01*
X111845900Y-81146700D01*
X111847900Y-81148700D01*
X111849900Y-81149700D01*
X111851900Y-81151700D01*
X111854900Y-81152700D01*
X111856900Y-81153700D01*
X111859900Y-81154700D01*
X111861900Y-81154700D01*
X111864900Y-81155700D01*
X111866900Y-81155700D01*
X111869900Y-81156700D01*
X111871900Y-81156700D01*
X111874900Y-81156700D01*
X112024900Y-81156700D01*
X112027900Y-81156700D01*
X112029900Y-81156700D01*
X112032900Y-81155700D01*
X112034900Y-81155700D01*
X112037900Y-81154700D01*
X112039900Y-81154700D01*
X112042900Y-81153700D01*
X112044900Y-81152700D01*
X112047900Y-81151700D01*
X112049900Y-81149700D01*
X112051900Y-81148700D01*
X112053900Y-81146700D01*
X112055900Y-81145700D01*
X112057900Y-81143700D01*
X112059900Y-81141700D01*
X112061900Y-81139700D01*
X112063900Y-81137700D01*
X112064900Y-81135700D01*
X112066900Y-81133700D01*
X112067900Y-81131700D01*
X112069900Y-81129700D01*
X112070900Y-81126700D01*
X112071900Y-81124700D01*
X112072900Y-81121700D01*
X112072900Y-81119700D01*
X112073900Y-81116700D01*
X112073900Y-81114700D01*
X112074900Y-81111700D01*
X112074900Y-81109700D01*
X112074900Y-81106700D01*
X112074900Y-80606700D01*
X112074900Y-80603700D01*
X112074900Y-80601700D01*
X112075900Y-80598700D01*
X112075900Y-80596700D01*
X112076900Y-80593700D01*
X112076900Y-80591700D01*
X112077900Y-80588700D01*
X112078900Y-80586700D01*
X112079900Y-80583700D01*
X112081900Y-80581700D01*
X112082900Y-80579700D01*
X112084900Y-80577700D01*
X112085900Y-80575700D01*
X112087900Y-80573700D01*
X112089900Y-80571700D01*
X112091900Y-80569700D01*
X112093900Y-80567700D01*
X112095900Y-80566700D01*
X112097900Y-80564700D01*
X112099900Y-80563700D01*
X112101900Y-80561700D01*
X112104900Y-80560700D01*
X112106900Y-80559700D01*
X112109900Y-80558700D01*
X112111900Y-80558700D01*
X112114900Y-80557700D01*
X112116900Y-80557700D01*
X112119900Y-80556700D01*
X112121900Y-80556700D01*
X112124900Y-80556700D01*
X112274900Y-80556700D01*
X112277900Y-80556700D01*
X112279900Y-80556700D01*
X112282900Y-80557700D01*
X112284900Y-80557700D01*
X112287900Y-80558700D01*
X112289900Y-80558700D01*
X112292900Y-80559700D01*
X112294900Y-80560700D01*
X112297900Y-80561700D01*
X112299900Y-80563700D01*
X112301900Y-80564700D01*
X112303900Y-80566700D01*
X112305900Y-80567700D01*
X112307900Y-80569700D01*
X112309900Y-80571700D01*
X112311900Y-80573700D01*
X112313900Y-80575700D01*
X112314900Y-80577700D01*
X112316900Y-80579700D01*
X112317900Y-80581700D01*
X112319900Y-80583700D01*
X112320900Y-80586700D01*
X112321900Y-80588700D01*
X112322900Y-80591700D01*
X112322900Y-80593700D01*
X112323900Y-80596700D01*
X112323900Y-80598700D01*
X112324900Y-80601700D01*
X112324900Y-80603700D01*
X112324900Y-80606700D01*
X112324900Y-81106700D01*
X112324900Y-81109700D01*
X112324900Y-81111700D01*
X112325900Y-81114700D01*
X112325900Y-81116700D01*
X112326900Y-81119700D01*
X112326900Y-81121700D01*
X112327900Y-81124700D01*
X112328900Y-81126700D01*
X112329900Y-81129700D01*
X112331900Y-81131700D01*
X112332900Y-81133700D01*
X112334900Y-81135700D01*
X112335900Y-81137700D01*
X112337900Y-81139700D01*
X112339900Y-81141700D01*
X112341900Y-81143700D01*
X112343900Y-81145700D01*
X112345900Y-81146700D01*
X112347900Y-81148700D01*
X112349900Y-81149700D01*
X112351900Y-81151700D01*
X112354900Y-81152700D01*
X112356900Y-81153700D01*
X112359900Y-81154700D01*
X112361900Y-81154700D01*
X112364900Y-81155700D01*
X112366900Y-81155700D01*
X112369900Y-81156700D01*
X112371900Y-81156700D01*
X112374900Y-81156700D01*
X112524900Y-81156700D01*
X112527900Y-81156700D01*
X112529900Y-81156700D01*
X112532900Y-81155700D01*
X112534900Y-81155700D01*
X112537900Y-81154700D01*
X112539900Y-81154700D01*
X112542900Y-81153700D01*
X112544900Y-81152700D01*
X112547900Y-81151700D01*
X112549900Y-81149700D01*
X112551900Y-81148700D01*
X112553900Y-81146700D01*
X112555900Y-81145700D01*
X112557900Y-81143700D01*
X112559900Y-81141700D01*
X112561900Y-81139700D01*
X112563900Y-81137700D01*
X112564900Y-81135700D01*
X112566900Y-81133700D01*
X112567900Y-81131700D01*
X112569900Y-81129700D01*
X112570900Y-81126700D01*
X112571900Y-81124700D01*
X112572900Y-81121700D01*
X112572900Y-81119700D01*
X112573900Y-81116700D01*
X112573900Y-81114700D01*
X112574900Y-81111700D01*
X112574900Y-81109700D01*
X112574900Y-81106700D01*
X112574900Y-80606700D01*
X112574900Y-80603700D01*
X112574900Y-80601700D01*
X112575900Y-80598700D01*
X112575900Y-80596700D01*
X112576900Y-80593700D01*
X112576900Y-80591700D01*
X112577900Y-80588700D01*
X112578900Y-80586700D01*
X112579900Y-80583700D01*
X112581900Y-80581700D01*
X112582900Y-80579700D01*
X112584900Y-80577700D01*
X112585900Y-80575700D01*
X112587900Y-80573700D01*
X112589900Y-80571700D01*
X112591900Y-80569700D01*
X112593900Y-80567700D01*
X112595900Y-80566700D01*
X112597900Y-80564700D01*
X112599900Y-80563700D01*
X112601900Y-80561700D01*
X112604900Y-80560700D01*
X112606900Y-80559700D01*
X112609900Y-80558700D01*
X112611900Y-80558700D01*
X112614900Y-80557700D01*
X112616900Y-80557700D01*
X112619900Y-80556700D01*
X112621900Y-80556700D01*
X112624900Y-80556700D01*
X112774900Y-80556700D01*
X112777900Y-80556700D01*
X112779900Y-80556700D01*
X112782900Y-80557700D01*
X112784900Y-80557700D01*
X112787900Y-80558700D01*
X112789900Y-80558700D01*
X112792900Y-80559700D01*
X112794900Y-80560700D01*
X112797900Y-80561700D01*
X112799900Y-80563700D01*
X112801900Y-80564700D01*
X112803900Y-80566700D01*
X112805900Y-80567700D01*
X112807900Y-80569700D01*
X112809900Y-80571700D01*
X112811900Y-80573700D01*
X112813900Y-80575700D01*
X112814900Y-80577700D01*
X112816900Y-80579700D01*
X112817900Y-80581700D01*
X112819900Y-80583700D01*
X112820900Y-80586700D01*
X112821900Y-80588700D01*
X112822900Y-80591700D01*
X112822900Y-80593700D01*
X112823900Y-80596700D01*
X112823900Y-80598700D01*
X112824900Y-80601700D01*
X112824900Y-80603700D01*
X112824900Y-80606700D01*
X112824900Y-81106700D01*
X112824900Y-81109700D01*
X112824900Y-81111700D01*
X112825900Y-81114700D01*
X112825900Y-81116700D01*
X112826900Y-81119700D01*
X112826900Y-81121700D01*
X112827900Y-81124700D01*
X112828900Y-81126700D01*
X112829900Y-81129700D01*
X112831900Y-81131700D01*
X112832900Y-81133700D01*
X112834900Y-81135700D01*
X112835900Y-81137700D01*
X112837900Y-81139700D01*
X112839900Y-81141700D01*
X112841900Y-81143700D01*
X112843900Y-81145700D01*
X112845900Y-81146700D01*
X112847900Y-81148700D01*
X112849900Y-81149700D01*
X112851900Y-81151700D01*
X112854900Y-81152700D01*
X112856900Y-81153700D01*
X112859900Y-81154700D01*
X112861900Y-81154700D01*
X112864900Y-81155700D01*
X112866900Y-81155700D01*
X112869900Y-81156700D01*
X112871900Y-81156700D01*
X112874900Y-81156700D01*
X113024900Y-81156700D01*
X113027900Y-81156700D01*
X113029900Y-81156700D01*
X113032900Y-81155700D01*
X113034900Y-81155700D01*
X113037900Y-81154700D01*
X113039900Y-81154700D01*
X113042900Y-81153700D01*
X113044900Y-81152700D01*
X113047900Y-81151700D01*
X113049900Y-81149700D01*
X113051900Y-81148700D01*
X113053900Y-81146700D01*
X113055900Y-81145700D01*
X113057900Y-81143700D01*
X113059900Y-81141700D01*
X113061900Y-81139700D01*
X113063900Y-81137700D01*
X113064900Y-81135700D01*
X113066900Y-81133700D01*
X113067900Y-81131700D01*
X113069900Y-81129700D01*
X113070900Y-81126700D01*
X113071900Y-81124700D01*
X113072900Y-81121700D01*
X113072900Y-81119700D01*
X113073900Y-81116700D01*
X113073900Y-81114700D01*
X113074900Y-81111700D01*
X113074900Y-81109700D01*
X113074900Y-81106700D01*
X113074900Y-80606700D01*
X113074900Y-80603700D01*
X113074900Y-80601700D01*
X113075900Y-80598700D01*
X113075900Y-80596700D01*
X113076900Y-80593700D01*
X113076900Y-80591700D01*
X113077900Y-80588700D01*
X113078900Y-80586700D01*
X113079900Y-80583700D01*
X113081900Y-80581700D01*
X113082900Y-80579700D01*
X113084900Y-80577700D01*
X113085900Y-80575700D01*
X113087900Y-80573700D01*
X113089900Y-80571700D01*
X113091900Y-80569700D01*
X113093900Y-80567700D01*
X113095900Y-80566700D01*
X113097900Y-80564700D01*
X113099900Y-80563700D01*
X113101900Y-80561700D01*
X113104900Y-80560700D01*
X113106900Y-80559700D01*
X113109900Y-80558700D01*
X113111900Y-80558700D01*
X113114900Y-80557700D01*
X113116900Y-80557700D01*
X113119900Y-80556700D01*
X113121900Y-80556700D01*
X113124900Y-80556700D01*
X113274900Y-80556700D01*
X113277900Y-80556700D01*
X113279900Y-80556700D01*
X113282900Y-80557700D01*
X113284900Y-80557700D01*
X113287900Y-80558700D01*
X113289900Y-80558700D01*
X113292900Y-80559700D01*
X113294900Y-80560700D01*
X113297900Y-80561700D01*
X113299900Y-80563700D01*
X113301900Y-80564700D01*
X113303900Y-80566700D01*
X113305900Y-80567700D01*
X113307900Y-80569700D01*
X113309900Y-80571700D01*
X113311900Y-80573700D01*
X113313900Y-80575700D01*
X113314900Y-80577700D01*
X113316900Y-80579700D01*
X113317900Y-80581700D01*
X113319900Y-80583700D01*
X113320900Y-80586700D01*
X113321900Y-80588700D01*
X113322900Y-80591700D01*
X113322900Y-80593700D01*
X113323900Y-80596700D01*
X113323900Y-80598700D01*
X113324900Y-80601700D01*
X113324900Y-80603700D01*
X113324900Y-80606700D01*
X113324900Y-80956700D01*
X113324900Y-80959700D01*
X113324900Y-80961700D01*
X113325900Y-80964700D01*
X113325900Y-80966700D01*
X113326900Y-80969700D01*
X113326900Y-80971700D01*
X113327900Y-80974700D01*
X113328900Y-80976700D01*
X113329900Y-80979700D01*
X113331900Y-80981700D01*
X113332900Y-80983700D01*
X113334900Y-80985700D01*
X113335900Y-80987700D01*
X113337900Y-80989700D01*
X113339900Y-80991700D01*
X113341900Y-80993700D01*
X113343900Y-80995700D01*
X113345900Y-80996700D01*
X113347900Y-80998700D01*
X113349900Y-80999700D01*
X113351900Y-81001700D01*
X113354900Y-81002700D01*
X113356900Y-81003700D01*
X113359900Y-81004700D01*
X113361900Y-81004700D01*
X113364900Y-81005700D01*
X113366900Y-81005700D01*
X113369900Y-81006700D01*
X113371900Y-81006700D01*
X113374900Y-81006700D01*
X113439900Y-81006700D01*
X113442900Y-81006700D01*
X113444900Y-81006700D01*
X113447900Y-81007700D01*
X113449900Y-81007700D01*
X113452900Y-81008700D01*
X113454900Y-81008700D01*
X113457900Y-81009700D01*
X113459900Y-81010700D01*
X113462900Y-81011700D01*
X113464900Y-81013700D01*
X113466900Y-81014700D01*
X113468900Y-81016700D01*
X113470900Y-81017700D01*
X113472900Y-81019700D01*
X113474900Y-81021700D01*
X113476900Y-81023700D01*
X113478900Y-81025700D01*
X113479900Y-81027700D01*
X113481900Y-81029700D01*
X113482900Y-81031700D01*
X113484900Y-81033700D01*
X113485900Y-81036700D01*
X113486900Y-81038700D01*
X113487900Y-81041700D01*
X113487900Y-81043700D01*
X113488900Y-81046700D01*
X113488900Y-81048700D01*
X113489900Y-81051700D01*
X113489900Y-81053700D01*
X113489900Y-81056700D01*
X113489900Y-81896700D01*
X113489900Y-81899700D01*
X113489900Y-81901700D01*
X113488900Y-81904700D01*
X113488900Y-81906700D01*
X113487900Y-81909700D01*
X113487900Y-81911700D01*
X113486900Y-81914700D01*
X113485900Y-81916700D01*
X113484900Y-81919700D01*
X113482900Y-81921700D01*
X113481900Y-81923700D01*
X113479900Y-81925700D01*
X113478900Y-81927700D01*
X113476900Y-81929700D01*
X113474900Y-81931700D01*
X113472900Y-81933700D01*
X113470900Y-81935700D01*
X113468900Y-81936700D01*
X113466900Y-81938700D01*
X113464900Y-81939700D01*
X113462900Y-81941700D01*
X113459900Y-81942700D01*
X113457900Y-81943700D01*
X113454900Y-81944700D01*
X113452900Y-81944700D01*
X113449900Y-81945700D01*
X113447900Y-81945700D01*
X113444900Y-81946700D01*
X113442900Y-81946700D01*
X113439900Y-81946700D01*
X113099900Y-81946700D01*
X113096900Y-81946700D01*
X113094900Y-81946700D01*
X113091900Y-81945700D01*
X113089900Y-81945700D01*
X113086900Y-81944700D01*
X113084900Y-81944700D01*
X113081900Y-81943700D01*
X113079900Y-81942700D01*
X113076900Y-81941700D01*
X113074900Y-81939700D01*
X113072900Y-81938700D01*
X113070900Y-81936700D01*
X113068900Y-81935700D01*
X113066900Y-81933700D01*
X113064900Y-81931700D01*
X113062900Y-81929700D01*
X113060900Y-81927700D01*
X113059900Y-81925700D01*
X113057900Y-81923700D01*
X113056900Y-81921700D01*
X113054900Y-81919700D01*
X113053900Y-81916700D01*
X113052900Y-81914700D01*
X113051900Y-81911700D01*
X113051900Y-81909700D01*
X113050900Y-81906700D01*
X113050900Y-81904700D01*
X113049900Y-81901700D01*
X113049900Y-81899700D01*
X113049900Y-81896700D01*
X113049900Y-81526700D01*
X113049900Y-81523700D01*
X113049900Y-81521700D01*
X113048900Y-81518700D01*
X113048900Y-81516700D01*
X113047900Y-81513700D01*
X113047900Y-81511700D01*
X113046900Y-81508700D01*
X113045900Y-81506700D01*
X113044900Y-81503700D01*
X113042900Y-81501700D01*
X113041900Y-81499700D01*
X113039900Y-81497700D01*
X113038900Y-81495700D01*
X113036900Y-81493700D01*
X113034900Y-81491700D01*
X113032900Y-81489700D01*
X113030900Y-81487700D01*
X113028900Y-81486700D01*
X113026900Y-81484700D01*
X113024900Y-81483700D01*
X113022900Y-81481700D01*
X113019900Y-81480700D01*
X113017900Y-81479700D01*
X113014900Y-81478700D01*
X113012900Y-81478700D01*
X113009900Y-81477700D01*
X113007900Y-81477700D01*
X113004900Y-81476700D01*
X113002900Y-81476700D01*
X112999900Y-81476700D01*
X112899900Y-81476700D01*
X112896900Y-81476700D01*
X112894900Y-81476700D01*
X112891900Y-81477700D01*
X112889900Y-81477700D01*
X112886900Y-81478700D01*
X112884900Y-81478700D01*
X112881900Y-81479700D01*
X112879900Y-81480700D01*
X112876900Y-81481700D01*
X112874900Y-81483700D01*
X112872900Y-81484700D01*
X112870900Y-81486700D01*
X112868900Y-81487700D01*
X112866900Y-81489700D01*
X112864900Y-81491700D01*
X112862900Y-81493700D01*
X112860900Y-81495700D01*
X112859900Y-81497700D01*
X112857900Y-81499700D01*
X112856900Y-81501700D01*
X112854900Y-81503700D01*
X112853900Y-81506700D01*
X112852900Y-81508700D01*
X112851900Y-81511700D01*
X112851900Y-81513700D01*
X112850900Y-81516700D01*
X112850900Y-81518700D01*
X112849900Y-81521700D01*
X112849900Y-81523700D01*
X112849900Y-81526700D01*
X112849900Y-81896700D01*
X112849900Y-81899700D01*
X112849900Y-81901700D01*
X112848900Y-81904700D01*
X112848900Y-81906700D01*
X112847900Y-81909700D01*
X112847900Y-81911700D01*
X112846900Y-81914700D01*
X112845900Y-81916700D01*
X112844900Y-81919700D01*
X112842900Y-81921700D01*
X112841900Y-81923700D01*
X112839900Y-81925700D01*
X112838900Y-81927700D01*
X112836900Y-81929700D01*
X112834900Y-81931700D01*
X112832900Y-81933700D01*
X112830900Y-81935700D01*
X112828900Y-81936700D01*
X112826900Y-81938700D01*
X112824900Y-81939700D01*
X112822900Y-81941700D01*
X112819900Y-81942700D01*
X112817900Y-81943700D01*
X112814900Y-81944700D01*
X112812900Y-81944700D01*
X112809900Y-81945700D01*
X112807900Y-81945700D01*
X112804900Y-81946700D01*
X112802900Y-81946700D01*
X112799900Y-81946700D01*
X112599900Y-81946700D01*
X112596900Y-81946700D01*
X112594900Y-81946700D01*
X112591900Y-81945700D01*
X112589900Y-81945700D01*
X112586900Y-81944700D01*
X112584900Y-81944700D01*
X112581900Y-81943700D01*
X112579900Y-81942700D01*
X112576900Y-81941700D01*
X112574900Y-81939700D01*
X112572900Y-81938700D01*
X112570900Y-81936700D01*
X112568900Y-81935700D01*
X112566900Y-81933700D01*
X112564900Y-81931700D01*
X112562900Y-81929700D01*
X112560900Y-81927700D01*
X112559900Y-81925700D01*
X112557900Y-81923700D01*
X112556900Y-81921700D01*
X112554900Y-81919700D01*
X112553900Y-81916700D01*
X112552900Y-81914700D01*
X112551900Y-81911700D01*
X112551900Y-81909700D01*
X112550900Y-81906700D01*
X112550900Y-81904700D01*
X112549900Y-81901700D01*
X112549900Y-81899700D01*
X112549900Y-81896700D01*
X112549900Y-81526700D01*
X112549900Y-81523700D01*
X112549900Y-81521700D01*
X112548900Y-81518700D01*
X112548900Y-81516700D01*
X112547900Y-81513700D01*
X112547900Y-81511700D01*
X112546900Y-81508700D01*
X112545900Y-81506700D01*
X112544900Y-81503700D01*
X112542900Y-81501700D01*
X112541900Y-81499700D01*
X112539900Y-81497700D01*
X112538900Y-81495700D01*
X112536900Y-81493700D01*
X112534900Y-81491700D01*
X112532900Y-81489700D01*
X112530900Y-81487700D01*
X112528900Y-81486700D01*
X112526900Y-81484700D01*
X112524900Y-81483700D01*
X112522900Y-81481700D01*
X112519900Y-81480700D01*
X112517900Y-81479700D01*
X112514900Y-81478700D01*
X112512900Y-81478700D01*
X112509900Y-81477700D01*
X112507900Y-81477700D01*
X112504900Y-81476700D01*
X112502900Y-81476700D01*
X112499900Y-81476700D01*
X112399900Y-81476700D01*
X112396900Y-81476700D01*
X112394900Y-81476700D01*
X112391900Y-81477700D01*
X112389900Y-81477700D01*
X112386900Y-81478700D01*
X112384900Y-81478700D01*
X112381900Y-81479700D01*
X112379900Y-81480700D01*
X112376900Y-81481700D01*
X112374900Y-81483700D01*
X112372900Y-81484700D01*
X112370900Y-81486700D01*
X112368900Y-81487700D01*
X112366900Y-81489700D01*
X112364900Y-81491700D01*
X112362900Y-81493700D01*
X112360900Y-81495700D01*
X112359900Y-81497700D01*
X112357900Y-81499700D01*
X112356900Y-81501700D01*
X112354900Y-81503700D01*
X112353900Y-81506700D01*
X112352900Y-81508700D01*
X112351900Y-81511700D01*
X112351900Y-81513700D01*
X112350900Y-81516700D01*
X112350900Y-81518700D01*
X112349900Y-81521700D01*
X112349900Y-81523700D01*
X112349900Y-81526700D01*
X112349900Y-81896700D01*
X112349900Y-81899700D01*
X112349900Y-81901700D01*
X112348900Y-81904700D01*
X112348900Y-81906700D01*
X112347900Y-81909700D01*
X112347900Y-81911700D01*
X112346900Y-81914700D01*
X112345900Y-81916700D01*
X112344900Y-81919700D01*
X112342900Y-81921700D01*
X112341900Y-81923700D01*
X112339900Y-81925700D01*
X112338900Y-81927700D01*
X112336900Y-81929700D01*
X112334900Y-81931700D01*
X112332900Y-81933700D01*
X112330900Y-81935700D01*
X112328900Y-81936700D01*
X112326900Y-81938700D01*
X112324900Y-81939700D01*
X112322900Y-81941700D01*
X112319900Y-81942700D01*
X112317900Y-81943700D01*
X112314900Y-81944700D01*
X112312900Y-81944700D01*
X112309900Y-81945700D01*
X112307900Y-81945700D01*
X112304900Y-81946700D01*
X112302900Y-81946700D01*
X112299900Y-81946700D01*
X112099900Y-81946700D01*
X112096900Y-81946700D01*
X112094900Y-81946700D01*
X112091900Y-81945700D01*
X112089900Y-81945700D01*
X112086900Y-81944700D01*
X112084900Y-81944700D01*
X112081900Y-81943700D01*
X112079900Y-81942700D01*
X112076900Y-81941700D01*
X112074900Y-81939700D01*
X112072900Y-81938700D01*
X112070900Y-81936700D01*
X112068900Y-81935700D01*
X112066900Y-81933700D01*
X112064900Y-81931700D01*
X112062900Y-81929700D01*
X112060900Y-81927700D01*
X112059900Y-81925700D01*
X112057900Y-81923700D01*
X112056900Y-81921700D01*
X112054900Y-81919700D01*
X112053900Y-81916700D01*
X112052900Y-81914700D01*
X112051900Y-81911700D01*
X112051900Y-81909700D01*
X112050900Y-81906700D01*
X112050900Y-81904700D01*
X112049900Y-81901700D01*
X112049900Y-81899700D01*
X112049900Y-81896700D01*
X112049900Y-81526700D01*
X112049900Y-81523700D01*
X112049900Y-81521700D01*
X112048900Y-81518700D01*
X112048900Y-81516700D01*
X112047900Y-81513700D01*
X112047900Y-81511700D01*
X112046900Y-81508700D01*
X112045900Y-81506700D01*
X112044900Y-81503700D01*
X112042900Y-81501700D01*
X112041900Y-81499700D01*
X112039900Y-81497700D01*
X112038900Y-81495700D01*
X112036900Y-81493700D01*
X112034900Y-81491700D01*
X112032900Y-81489700D01*
X112030900Y-81487700D01*
X112028900Y-81486700D01*
X112026900Y-81484700D01*
X112024900Y-81483700D01*
X112022900Y-81481700D01*
X112019900Y-81480700D01*
X112017900Y-81479700D01*
X112014900Y-81478700D01*
X112012900Y-81478700D01*
X112009900Y-81477700D01*
X112007900Y-81477700D01*
X112004900Y-81476700D01*
X112002900Y-81476700D01*
X111999900Y-81476700D01*
X111899900Y-81476700D01*
X111896900Y-81476700D01*
X111894900Y-81476700D01*
X111891900Y-81477700D01*
X111889900Y-81477700D01*
X111886900Y-81478700D01*
X111884900Y-81478700D01*
X111881900Y-81479700D01*
X111879900Y-81480700D01*
X111876900Y-81481700D01*
X111874900Y-81483700D01*
X111872900Y-81484700D01*
X111870900Y-81486700D01*
X111868900Y-81487700D01*
X111866900Y-81489700D01*
X111864900Y-81491700D01*
X111862900Y-81493700D01*
X111860900Y-81495700D01*
X111859900Y-81497700D01*
X111857900Y-81499700D01*
X111856900Y-81501700D01*
X111854900Y-81503700D01*
X111853900Y-81506700D01*
X111852900Y-81508700D01*
X111851900Y-81511700D01*
X111851900Y-81513700D01*
X111850900Y-81516700D01*
X111850900Y-81518700D01*
X111849900Y-81521700D01*
X111849900Y-81523700D01*
X111849900Y-81526700D01*
X111849900Y-81896700D01*
X111849900Y-81899700D01*
X111849900Y-81901700D01*
X111848900Y-81904700D01*
X111848900Y-81906700D01*
X111847900Y-81909700D01*
X111847900Y-81911700D01*
X111846900Y-81914700D01*
X111845900Y-81916700D01*
X111844900Y-81919700D01*
X111842900Y-81921700D01*
X111841900Y-81923700D01*
X111839900Y-81925700D01*
X111838900Y-81927700D01*
X111836900Y-81929700D01*
X111834900Y-81931700D01*
X111832900Y-81933700D01*
X111830900Y-81935700D01*
X111828900Y-81936700D01*
X111826900Y-81938700D01*
X111824900Y-81939700D01*
X111822900Y-81941700D01*
X111819900Y-81942700D01*
X111817900Y-81943700D01*
X111814900Y-81944700D01*
X111812900Y-81944700D01*
X111809900Y-81945700D01*
X111807900Y-81945700D01*
X111804900Y-81946700D01*
X111802900Y-81946700D01*
X111799900Y-81946700D01*
X111459900Y-81946700D01*
X111456900Y-81946700D01*
X111454900Y-81946700D01*
X111451900Y-81945700D01*
X111449900Y-81945700D01*
X111446900Y-81944700D01*
X111444900Y-81944700D01*
X111441900Y-81943700D01*
X111439900Y-81942700D01*
X111436900Y-81941700D01*
X111434900Y-81939700D01*
X111432900Y-81938700D01*
X111430900Y-81936700D01*
X111428900Y-81935700D01*
X111426900Y-81933700D01*
X111424900Y-81931700D01*
X111422900Y-81929700D01*
X111420900Y-81927700D01*
X111419900Y-81925700D01*
X111417900Y-81923700D01*
X111416900Y-81921700D01*
X111414900Y-81919700D01*
X111413900Y-81916700D01*
X111412900Y-81914700D01*
X111411900Y-81911700D01*
X111411900Y-81909700D01*
X111410900Y-81906700D01*
X111410900Y-81904700D01*
X111409900Y-81901700D01*
X111409900Y-81899700D01*
X111409900Y-81896700D01*
X111409900Y-81056700D01*
X111409900Y-81053700D01*
X111409900Y-81051700D01*
X111410900Y-81048700D01*
X111410900Y-81046700D01*
X111411900Y-81043700D01*
X111411900Y-81041700D01*
X111412900Y-81038700D01*
X111413900Y-81036700D01*
X111414900Y-81033700D01*
X111416900Y-81031700D01*
X111417900Y-81029700D01*
X111419900Y-81027700D01*
X111420900Y-81025700D01*
X111422900Y-81023700D01*
X111424900Y-81021700D01*
X111426900Y-81019700D01*
X111428900Y-81017700D01*
X111430900Y-81016700D01*
X111432900Y-81014700D01*
X111434900Y-81013700D01*
X111436900Y-81011700D01*
X111439900Y-81010700D01*
X111441900Y-81009700D01*
X111444900Y-81008700D01*
X111446900Y-81008700D01*
X111449900Y-81007700D01*
X111451900Y-81007700D01*
X111454900Y-81006700D01*
X111456900Y-81006700D01*
X111459900Y-81006700D01*
X111524900Y-81006700D01*
X111527900Y-81006700D01*
X111529900Y-81006700D01*
X111532900Y-81005700D01*
X111534900Y-81005700D01*
X111537900Y-81004700D01*
X111539900Y-81004700D01*
X111542900Y-81003700D01*
X111544900Y-81002700D01*
X111547900Y-81001700D01*
X111549900Y-80999700D01*
X111551900Y-80998700D01*
X111553900Y-80996700D01*
X111555900Y-80995700D01*
X111557900Y-80993700D01*
X111559900Y-80991700D01*
X111561900Y-80989700D01*
X111563900Y-80987700D01*
X111564900Y-80985700D01*
X111566900Y-80983700D01*
X111567900Y-80981700D01*
X111569900Y-80979700D01*
X111570900Y-80976700D01*
X111571900Y-80974700D01*
X111572900Y-80971700D01*
X111572900Y-80969700D01*
X111573900Y-80966700D01*
X111573900Y-80964700D01*
X111574900Y-80961700D01*
X111574900Y-80959700D01*
X111574900Y-80956700D01*
X111574900Y-80606700D01*
X111574900Y-80603700D01*
X111574900Y-80601700D01*
X111575900Y-80598700D01*
X111575900Y-80596700D01*
X111576900Y-80593700D01*
X111576900Y-80591700D01*
X111577900Y-80588700D01*
X111578900Y-80586700D01*
X111579900Y-80583700D01*
X111581900Y-80581700D01*
X111582900Y-80579700D01*
X111584900Y-80577700D01*
X111585900Y-80575700D01*
X111587900Y-80573700D01*
X111589900Y-80571700D01*
X111591900Y-80569700D01*
X111593900Y-80567700D01*
X111595900Y-80566700D01*
X111597900Y-80564700D01*
X111599900Y-80563700D01*
X111601900Y-80561700D01*
X111604900Y-80560700D01*
X111606900Y-80559700D01*
X111609900Y-80558700D01*
X111611900Y-80558700D01*
X111614900Y-80557700D01*
X111616900Y-80557700D01*
X111619900Y-80556700D01*
X111621900Y-80556700D01*
X111624900Y-80556700D01*
X111774900Y-80556700D01*
X111777900Y-80556700D01*
X111779900Y-80556700D01*
X111782900Y-80557700D01*
G37*
X111807900Y-82867700D02*
X111809900Y-82867700D01*
X111812900Y-82868700D01*
X111814900Y-82868700D01*
X111817900Y-82869700D01*
X111819900Y-82870700D01*
X111822900Y-82871700D01*
X111824900Y-82873700D01*
X111826900Y-82874700D01*
X111828900Y-82876700D01*
X111830900Y-82877700D01*
X111832900Y-82879700D01*
X111834900Y-82881700D01*
X111836900Y-82883700D01*
X111838900Y-82885700D01*
X111839900Y-82887700D01*
X111841900Y-82889700D01*
X111842900Y-82891700D01*
X111844900Y-82893700D01*
X111845900Y-82896700D01*
X111846900Y-82898700D01*
X111847900Y-82901700D01*
X111847900Y-82903700D01*
X111848900Y-82906700D01*
X111848900Y-82908700D01*
X111849900Y-82911700D01*
X111849900Y-82913700D01*
X111849900Y-82916700D01*
X111849900Y-83286700D01*
X111849900Y-83289700D01*
X111849900Y-83291700D01*
X111850900Y-83294700D01*
X111850900Y-83296700D01*
X111851900Y-83299700D01*
X111851900Y-83301700D01*
X111852900Y-83304700D01*
X111853900Y-83306700D01*
X111854900Y-83309700D01*
X111856900Y-83311700D01*
X111857900Y-83313700D01*
X111859900Y-83315700D01*
X111860900Y-83317700D01*
X111862900Y-83319700D01*
X111864900Y-83321700D01*
X111866900Y-83323700D01*
X111868900Y-83325700D01*
X111870900Y-83326700D01*
X111872900Y-83328700D01*
X111874900Y-83329700D01*
X111876900Y-83331700D01*
X111879900Y-83332700D01*
X111881900Y-83333700D01*
X111884900Y-83334700D01*
X111886900Y-83334700D01*
X111889900Y-83335700D01*
X111891900Y-83335700D01*
X111894900Y-83336700D01*
X111896900Y-83336700D01*
X111899900Y-83336700D01*
X111999900Y-83336700D01*
X112002900Y-83336700D01*
X112004900Y-83336700D01*
X112007900Y-83335700D01*
X112009900Y-83335700D01*
X112012900Y-83334700D01*
X112014900Y-83334700D01*
X112017900Y-83333700D01*
X112019900Y-83332700D01*
X112022900Y-83331700D01*
X112024900Y-83329700D01*
X112026900Y-83328700D01*
X112028900Y-83326700D01*
X112030900Y-83325700D01*
X112032900Y-83323700D01*
X112034900Y-83321700D01*
X112036900Y-83319700D01*
X112038900Y-83317700D01*
X112039900Y-83315700D01*
X112041900Y-83313700D01*
X112042900Y-83311700D01*
X112044900Y-83309700D01*
X112045900Y-83306700D01*
X112046900Y-83304700D01*
X112047900Y-83301700D01*
X112047900Y-83299700D01*
X112048900Y-83296700D01*
X112048900Y-83294700D01*
X112049900Y-83291700D01*
X112049900Y-83289700D01*
X112049900Y-83286700D01*
X112049900Y-82916700D01*
X112049900Y-82913700D01*
X112049900Y-82911700D01*
X112050900Y-82908700D01*
X112050900Y-82906700D01*
X112051900Y-82903700D01*
X112051900Y-82901700D01*
X112052900Y-82898700D01*
X112053900Y-82896700D01*
X112054900Y-82893700D01*
X112056900Y-82891700D01*
X112057900Y-82889700D01*
X112059900Y-82887700D01*
X112060900Y-82885700D01*
X112062900Y-82883700D01*
X112064900Y-82881700D01*
X112066900Y-82879700D01*
X112068900Y-82877700D01*
X112070900Y-82876700D01*
X112072900Y-82874700D01*
X112074900Y-82873700D01*
X112076900Y-82871700D01*
X112079900Y-82870700D01*
X112081900Y-82869700D01*
X112084900Y-82868700D01*
X112086900Y-82868700D01*
X112089900Y-82867700D01*
X112091900Y-82867700D01*
X112094900Y-82866700D01*
X112096900Y-82866700D01*
X112099900Y-82866700D01*
X112299900Y-82866700D01*
X112302900Y-82866700D01*
X112304900Y-82866700D01*
X112307900Y-82867700D01*
X112309900Y-82867700D01*
X112312900Y-82868700D01*
X112314900Y-82868700D01*
X112317900Y-82869700D01*
X112319900Y-82870700D01*
X112322900Y-82871700D01*
X112324900Y-82873700D01*
X112326900Y-82874700D01*
X112328900Y-82876700D01*
X112330900Y-82877700D01*
X112332900Y-82879700D01*
X112334900Y-82881700D01*
X112336900Y-82883700D01*
X112338900Y-82885700D01*
X112339900Y-82887700D01*
X112341900Y-82889700D01*
X112342900Y-82891700D01*
X112344900Y-82893700D01*
X112345900Y-82896700D01*
X112346900Y-82898700D01*
X112347900Y-82901700D01*
X112347900Y-82903700D01*
X112348900Y-82906700D01*
X112348900Y-82908700D01*
X112349900Y-82911700D01*
X112349900Y-82913700D01*
X112349900Y-82916700D01*
X112349900Y-83286700D01*
X112349900Y-83289700D01*
X112349900Y-83291700D01*
X112350900Y-83294700D01*
X112350900Y-83296700D01*
X112351900Y-83299700D01*
X112351900Y-83301700D01*
X112352900Y-83304700D01*
X112353900Y-83306700D01*
X112354900Y-83309700D01*
X112356900Y-83311700D01*
X112357900Y-83313700D01*
X112359900Y-83315700D01*
X112360900Y-83317700D01*
X112362900Y-83319700D01*
X112364900Y-83321700D01*
X112366900Y-83323700D01*
X112368900Y-83325700D01*
X112370900Y-83326700D01*
X112372900Y-83328700D01*
X112374900Y-83329700D01*
X112376900Y-83331700D01*
X112379900Y-83332700D01*
X112381900Y-83333700D01*
X112384900Y-83334700D01*
X112386900Y-83334700D01*
X112389900Y-83335700D01*
X112391900Y-83335700D01*
X112394900Y-83336700D01*
X112396900Y-83336700D01*
X112399900Y-83336700D01*
X112499900Y-83336700D01*
X112502900Y-83336700D01*
X112504900Y-83336700D01*
X112507900Y-83335700D01*
X112509900Y-83335700D01*
X112512900Y-83334700D01*
X112514900Y-83334700D01*
X112517900Y-83333700D01*
X112519900Y-83332700D01*
X112522900Y-83331700D01*
X112524900Y-83329700D01*
X112526900Y-83328700D01*
X112528900Y-83326700D01*
X112530900Y-83325700D01*
X112532900Y-83323700D01*
X112534900Y-83321700D01*
X112536900Y-83319700D01*
X112538900Y-83317700D01*
X112539900Y-83315700D01*
X112541900Y-83313700D01*
X112542900Y-83311700D01*
X112544900Y-83309700D01*
X112545900Y-83306700D01*
X112546900Y-83304700D01*
X112547900Y-83301700D01*
X112547900Y-83299700D01*
X112548900Y-83296700D01*
X112548900Y-83294700D01*
X112549900Y-83291700D01*
X112549900Y-83289700D01*
X112549900Y-83286700D01*
X112549900Y-82916700D01*
X112549900Y-82913700D01*
X112549900Y-82911700D01*
X112550900Y-82908700D01*
X112550900Y-82906700D01*
X112551900Y-82903700D01*
X112551900Y-82901700D01*
X112552900Y-82898700D01*
X112553900Y-82896700D01*
X112554900Y-82893700D01*
X112556900Y-82891700D01*
X112557900Y-82889700D01*
X112559900Y-82887700D01*
X112560900Y-82885700D01*
X112562900Y-82883700D01*
X112564900Y-82881700D01*
X112566900Y-82879700D01*
X112568900Y-82877700D01*
X112570900Y-82876700D01*
X112572900Y-82874700D01*
X112574900Y-82873700D01*
X112576900Y-82871700D01*
X112579900Y-82870700D01*
X112581900Y-82869700D01*
X112584900Y-82868700D01*
X112586900Y-82868700D01*
X112589900Y-82867700D01*
X112591900Y-82867700D01*
X112594900Y-82866700D01*
X112596900Y-82866700D01*
X112599900Y-82866700D01*
X112799900Y-82866700D01*
X112802900Y-82866700D01*
X112804900Y-82866700D01*
X112807900Y-82867700D01*
X112809900Y-82867700D01*
X112812900Y-82868700D01*
X112814900Y-82868700D01*
X112817900Y-82869700D01*
X112819900Y-82870700D01*
X112822900Y-82871700D01*
X112824900Y-82873700D01*
X112826900Y-82874700D01*
X112828900Y-82876700D01*
X112830900Y-82877700D01*
X112832900Y-82879700D01*
X112834900Y-82881700D01*
X112836900Y-82883700D01*
X112838900Y-82885700D01*
X112839900Y-82887700D01*
X112841900Y-82889700D01*
X112842900Y-82891700D01*
X112844900Y-82893700D01*
X112845900Y-82896700D01*
X112846900Y-82898700D01*
X112847900Y-82901700D01*
X112847900Y-82903700D01*
X112848900Y-82906700D01*
X112848900Y-82908700D01*
X112849900Y-82911700D01*
X112849900Y-82913700D01*
X112849900Y-82916700D01*
X112849900Y-83286700D01*
X112849900Y-83289700D01*
X112849900Y-83291700D01*
X112850900Y-83294700D01*
X112850900Y-83296700D01*
X112851900Y-83299700D01*
X112851900Y-83301700D01*
X112852900Y-83304700D01*
X112853900Y-83306700D01*
X112854900Y-83309700D01*
X112856900Y-83311700D01*
X112857900Y-83313700D01*
X112859900Y-83315700D01*
X112860900Y-83317700D01*
X112862900Y-83319700D01*
X112864900Y-83321700D01*
X112866900Y-83323700D01*
X112868900Y-83325700D01*
X112870900Y-83326700D01*
X112872900Y-83328700D01*
X112874900Y-83329700D01*
X112876900Y-83331700D01*
X112879900Y-83332700D01*
X112881900Y-83333700D01*
X112884900Y-83334700D01*
X112886900Y-83334700D01*
X112889900Y-83335700D01*
X112891900Y-83335700D01*
X112894900Y-83336700D01*
X112896900Y-83336700D01*
X112899900Y-83336700D01*
X112999900Y-83336700D01*
X113002900Y-83336700D01*
X113004900Y-83336700D01*
X113007900Y-83335700D01*
X113009900Y-83335700D01*
X113012900Y-83334700D01*
X113014900Y-83334700D01*
X113017900Y-83333700D01*
X113019900Y-83332700D01*
X113022900Y-83331700D01*
X113024900Y-83329700D01*
X113026900Y-83328700D01*
X113028900Y-83326700D01*
X113030900Y-83325700D01*
X113032900Y-83323700D01*
X113034900Y-83321700D01*
X113036900Y-83319700D01*
X113038900Y-83317700D01*
X113039900Y-83315700D01*
X113041900Y-83313700D01*
X113042900Y-83311700D01*
X113044900Y-83309700D01*
X113045900Y-83306700D01*
X113046900Y-83304700D01*
X113047900Y-83301700D01*
X113047900Y-83299700D01*
X113048900Y-83296700D01*
X113048900Y-83294700D01*
X113049900Y-83291700D01*
X113049900Y-83289700D01*
X113049900Y-83286700D01*
X113049900Y-82916700D01*
X113049900Y-82913700D01*
X113049900Y-82911700D01*
X113050900Y-82908700D01*
X113050900Y-82906700D01*
X113051900Y-82903700D01*
X113051900Y-82901700D01*
X113052900Y-82898700D01*
X113053900Y-82896700D01*
X113054900Y-82893700D01*
X113056900Y-82891700D01*
X113057900Y-82889700D01*
X113059900Y-82887700D01*
X113060900Y-82885700D01*
X113062900Y-82883700D01*
X113064900Y-82881700D01*
X113066900Y-82879700D01*
X113068900Y-82877700D01*
X113070900Y-82876700D01*
X113072900Y-82874700D01*
X113074900Y-82873700D01*
X113076900Y-82871700D01*
X113079900Y-82870700D01*
X113081900Y-82869700D01*
X113084900Y-82868700D01*
X113086900Y-82868700D01*
X113089900Y-82867700D01*
X113091900Y-82867700D01*
X113094900Y-82866700D01*
X113096900Y-82866700D01*
X113099900Y-82866700D01*
X113439900Y-82866700D01*
X113442900Y-82866700D01*
X113444900Y-82866700D01*
X113447900Y-82867700D01*
X113449900Y-82867700D01*
X113452900Y-82868700D01*
X113454900Y-82868700D01*
X113457900Y-82869700D01*
X113459900Y-82870700D01*
X113462900Y-82871700D01*
X113464900Y-82873700D01*
X113466900Y-82874700D01*
X113468900Y-82876700D01*
X113470900Y-82877700D01*
X113472900Y-82879700D01*
X113474900Y-82881700D01*
X113476900Y-82883700D01*
X113478900Y-82885700D01*
X113479900Y-82887700D01*
X113481900Y-82889700D01*
X113482900Y-82891700D01*
X113484900Y-82893700D01*
X113485900Y-82896700D01*
X113486900Y-82898700D01*
X113487900Y-82901700D01*
X113487900Y-82903700D01*
X113488900Y-82906700D01*
X113488900Y-82908700D01*
X113489900Y-82911700D01*
X113489900Y-82913700D01*
X113489900Y-82916700D01*
X113489900Y-83756700D01*
X113489900Y-83759700D01*
X113489900Y-83761700D01*
X113488900Y-83764700D01*
X113488900Y-83766700D01*
X113487900Y-83769700D01*
X113487900Y-83771700D01*
X113486900Y-83774700D01*
X113485900Y-83776700D01*
X113484900Y-83779700D01*
X113482900Y-83781700D01*
X113481900Y-83783700D01*
X113479900Y-83785700D01*
X113478900Y-83787700D01*
X113476900Y-83789700D01*
X113474900Y-83791700D01*
X113472900Y-83793700D01*
X113470900Y-83795700D01*
X113468900Y-83796700D01*
X113466900Y-83798700D01*
X113464900Y-83799700D01*
X113462900Y-83801700D01*
X113459900Y-83802700D01*
X113457900Y-83803700D01*
X113454900Y-83804700D01*
X113452900Y-83804700D01*
X113449900Y-83805700D01*
X113447900Y-83805700D01*
X113444900Y-83806700D01*
X113442900Y-83806700D01*
X113439900Y-83806700D01*
X113374900Y-83806700D01*
X113371900Y-83806700D01*
X113369900Y-83806700D01*
X113366900Y-83807700D01*
X113364900Y-83807700D01*
X113361900Y-83808700D01*
X113359900Y-83808700D01*
X113356900Y-83809700D01*
X113354900Y-83810700D01*
X113351900Y-83811700D01*
X113349900Y-83813700D01*
X113347900Y-83814700D01*
X113345900Y-83816700D01*
X113343900Y-83817700D01*
X113341900Y-83819700D01*
X113339900Y-83821700D01*
X113337900Y-83823700D01*
X113335900Y-83825700D01*
X113334900Y-83827700D01*
X113332900Y-83829700D01*
X113331900Y-83831700D01*
X113329900Y-83833700D01*
X113328900Y-83836700D01*
X113327900Y-83838700D01*
X113326900Y-83841700D01*
X113326900Y-83843700D01*
X113325900Y-83846700D01*
X113325900Y-83848700D01*
X113324900Y-83851700D01*
X113324900Y-83853700D01*
X113324900Y-83856700D01*
X113324900Y-84206700D01*
X113324900Y-84209700D01*
X113324900Y-84211700D01*
X113323900Y-84214700D01*
X113323900Y-84216700D01*
X113322900Y-84219700D01*
X113322900Y-84221700D01*
X113321900Y-84224700D01*
X113320900Y-84226700D01*
X113319900Y-84229700D01*
X113317900Y-84231700D01*
X113316900Y-84233700D01*
X113314900Y-84235700D01*
X113313900Y-84237700D01*
X113311900Y-84239700D01*
X113309900Y-84241700D01*
X113307900Y-84243700D01*
X113305900Y-84245700D01*
X113303900Y-84246700D01*
X113301900Y-84248700D01*
X113299900Y-84249700D01*
X113297900Y-84251700D01*
X113294900Y-84252700D01*
X113292900Y-84253700D01*
X113289900Y-84254700D01*
X113287900Y-84254700D01*
X113284900Y-84255700D01*
X113282900Y-84255700D01*
X113279900Y-84256700D01*
X113277900Y-84256700D01*
X113274900Y-84256700D01*
X113124900Y-84256700D01*
X113121900Y-84256700D01*
X113119900Y-84256700D01*
X113116900Y-84255700D01*
X113114900Y-84255700D01*
X113111900Y-84254700D01*
X113109900Y-84254700D01*
X113106900Y-84253700D01*
X113104900Y-84252700D01*
X113101900Y-84251700D01*
X113099900Y-84249700D01*
X113097900Y-84248700D01*
X113095900Y-84246700D01*
X113093900Y-84245700D01*
X113091900Y-84243700D01*
X113089900Y-84241700D01*
X113087900Y-84239700D01*
X113085900Y-84237700D01*
X113084900Y-84235700D01*
X113082900Y-84233700D01*
X113081900Y-84231700D01*
X113079900Y-84229700D01*
X113078900Y-84226700D01*
X113077900Y-84224700D01*
X113076900Y-84221700D01*
X113076900Y-84219700D01*
X113075900Y-84216700D01*
X113075900Y-84214700D01*
X113074900Y-84211700D01*
X113074900Y-84209700D01*
X113074900Y-84206700D01*
X113074900Y-83706700D01*
X113074900Y-83703700D01*
X113074900Y-83701700D01*
X113073900Y-83698700D01*
X113073900Y-83696700D01*
X113072900Y-83693700D01*
X113072900Y-83691700D01*
X113071900Y-83688700D01*
X113070900Y-83686700D01*
X113069900Y-83683700D01*
X113067900Y-83681700D01*
X113066900Y-83679700D01*
X113064900Y-83677700D01*
X113063900Y-83675700D01*
X113061900Y-83673700D01*
X113059900Y-83671700D01*
X113057900Y-83669700D01*
X113055900Y-83667700D01*
X113053900Y-83666700D01*
X113051900Y-83664700D01*
X113049900Y-83663700D01*
X113047900Y-83661700D01*
X113044900Y-83660700D01*
X113042900Y-83659700D01*
X113039900Y-83658700D01*
X113037900Y-83658700D01*
X113034900Y-83657700D01*
X113032900Y-83657700D01*
X113029900Y-83656700D01*
X113027900Y-83656700D01*
X113024900Y-83656700D01*
X112874900Y-83656700D01*
X112871900Y-83656700D01*
X112869900Y-83656700D01*
X112866900Y-83657700D01*
X112864900Y-83657700D01*
X112861900Y-83658700D01*
X112859900Y-83658700D01*
X112856900Y-83659700D01*
X112854900Y-83660700D01*
X112851900Y-83661700D01*
X112849900Y-83663700D01*
X112847900Y-83664700D01*
X112845900Y-83666700D01*
X112843900Y-83667700D01*
X112841900Y-83669700D01*
X112839900Y-83671700D01*
X112837900Y-83673700D01*
X112835900Y-83675700D01*
X112834900Y-83677700D01*
X112832900Y-83679700D01*
X112831900Y-83681700D01*
X112829900Y-83683700D01*
X112828900Y-83686700D01*
X112827900Y-83688700D01*
X112826900Y-83691700D01*
X112826900Y-83693700D01*
X112825900Y-83696700D01*
X112825900Y-83698700D01*
X112824900Y-83701700D01*
X112824900Y-83703700D01*
X112824900Y-83706700D01*
X112824900Y-84206700D01*
X112824900Y-84209700D01*
X112824900Y-84211700D01*
X112823900Y-84214700D01*
X112823900Y-84216700D01*
X112822900Y-84219700D01*
X112822900Y-84221700D01*
X112821900Y-84224700D01*
X112820900Y-84226700D01*
X112819900Y-84229700D01*
X112817900Y-84231700D01*
X112816900Y-84233700D01*
X112814900Y-84235700D01*
X112813900Y-84237700D01*
X112811900Y-84239700D01*
X112809900Y-84241700D01*
X112807900Y-84243700D01*
X112805900Y-84245700D01*
X112803900Y-84246700D01*
X112801900Y-84248700D01*
X112799900Y-84249700D01*
X112797900Y-84251700D01*
X112794900Y-84252700D01*
X112792900Y-84253700D01*
X112789900Y-84254700D01*
X112787900Y-84254700D01*
X112784900Y-84255700D01*
X112782900Y-84255700D01*
X112779900Y-84256700D01*
X112777900Y-84256700D01*
X112774900Y-84256700D01*
X112624900Y-84256700D01*
X112621900Y-84256700D01*
X112619900Y-84256700D01*
X112616900Y-84255700D01*
X112614900Y-84255700D01*
X112611900Y-84254700D01*
X112609900Y-84254700D01*
X112606900Y-84253700D01*
X112604900Y-84252700D01*
X112601900Y-84251700D01*
X112599900Y-84249700D01*
X112597900Y-84248700D01*
X112595900Y-84246700D01*
X112593900Y-84245700D01*
X112591900Y-84243700D01*
X112589900Y-84241700D01*
X112587900Y-84239700D01*
X112585900Y-84237700D01*
X112584900Y-84235700D01*
X112582900Y-84233700D01*
X112581900Y-84231700D01*
X112579900Y-84229700D01*
X112578900Y-84226700D01*
X112577900Y-84224700D01*
X112576900Y-84221700D01*
X112576900Y-84219700D01*
X112575900Y-84216700D01*
X112575900Y-84214700D01*
X112574900Y-84211700D01*
X112574900Y-84209700D01*
X112574900Y-84206700D01*
X112574900Y-83706700D01*
X112574900Y-83703700D01*
X112574900Y-83701700D01*
X112573900Y-83698700D01*
X112573900Y-83696700D01*
X112572900Y-83693700D01*
X112572900Y-83691700D01*
X112571900Y-83688700D01*
X112570900Y-83686700D01*
X112569900Y-83683700D01*
X112567900Y-83681700D01*
X112566900Y-83679700D01*
X112564900Y-83677700D01*
X112563900Y-83675700D01*
X112561900Y-83673700D01*
X112559900Y-83671700D01*
X112557900Y-83669700D01*
X112555900Y-83667700D01*
X112553900Y-83666700D01*
X112551900Y-83664700D01*
X112549900Y-83663700D01*
X112547900Y-83661700D01*
X112544900Y-83660700D01*
X112542900Y-83659700D01*
X112539900Y-83658700D01*
X112537900Y-83658700D01*
X112534900Y-83657700D01*
X112532900Y-83657700D01*
X112529900Y-83656700D01*
X112527900Y-83656700D01*
X112524900Y-83656700D01*
X112374900Y-83656700D01*
X112371900Y-83656700D01*
X112369900Y-83656700D01*
X112366900Y-83657700D01*
X112364900Y-83657700D01*
X112361900Y-83658700D01*
X112359900Y-83658700D01*
X112356900Y-83659700D01*
X112354900Y-83660700D01*
X112351900Y-83661700D01*
X112349900Y-83663700D01*
X112347900Y-83664700D01*
X112345900Y-83666700D01*
X112343900Y-83667700D01*
X112341900Y-83669700D01*
X112339900Y-83671700D01*
X112337900Y-83673700D01*
X112335900Y-83675700D01*
X112334900Y-83677700D01*
X112332900Y-83679700D01*
X112331900Y-83681700D01*
X112329900Y-83683700D01*
X112328900Y-83686700D01*
X112327900Y-83688700D01*
X112326900Y-83691700D01*
X112326900Y-83693700D01*
X112325900Y-83696700D01*
X112325900Y-83698700D01*
X112324900Y-83701700D01*
X112324900Y-83703700D01*
X112324900Y-83706700D01*
X112324900Y-84206700D01*
X112324900Y-84209700D01*
X112324900Y-84211700D01*
X112323900Y-84214700D01*
X112323900Y-84216700D01*
X112322900Y-84219700D01*
X112322900Y-84221700D01*
X112321900Y-84224700D01*
X112320900Y-84226700D01*
X112319900Y-84229700D01*
X112317900Y-84231700D01*
X112316900Y-84233700D01*
X112314900Y-84235700D01*
X112313900Y-84237700D01*
X112311900Y-84239700D01*
X112309900Y-84241700D01*
X112307900Y-84243700D01*
X112305900Y-84245700D01*
X112303900Y-84246700D01*
X112301900Y-84248700D01*
X112299900Y-84249700D01*
X112297900Y-84251700D01*
X112294900Y-84252700D01*
X112292900Y-84253700D01*
X112289900Y-84254700D01*
X112287900Y-84254700D01*
X112284900Y-84255700D01*
X112282900Y-84255700D01*
X112279900Y-84256700D01*
X112277900Y-84256700D01*
X112274900Y-84256700D01*
X112124900Y-84256700D01*
X112121900Y-84256700D01*
X112119900Y-84256700D01*
X112116900Y-84255700D01*
X112114900Y-84255700D01*
X112111900Y-84254700D01*
X112109900Y-84254700D01*
X112106900Y-84253700D01*
X112104900Y-84252700D01*
X112101900Y-84251700D01*
X112099900Y-84249700D01*
X112097900Y-84248700D01*
X112095900Y-84246700D01*
X112093900Y-84245700D01*
X112091900Y-84243700D01*
X112089900Y-84241700D01*
X112087900Y-84239700D01*
X112085900Y-84237700D01*
X112084900Y-84235700D01*
X112082900Y-84233700D01*
X112081900Y-84231700D01*
X112079900Y-84229700D01*
X112078900Y-84226700D01*
X112077900Y-84224700D01*
X112076900Y-84221700D01*
X112076900Y-84219700D01*
X112075900Y-84216700D01*
X112075900Y-84214700D01*
X112074900Y-84211700D01*
X112074900Y-84209700D01*
X112074900Y-84206700D01*
X112074900Y-83706700D01*
X112074900Y-83703700D01*
X112074900Y-83701700D01*
X112073900Y-83698700D01*
X112073900Y-83696700D01*
X112072900Y-83693700D01*
X112072900Y-83691700D01*
X112071900Y-83688700D01*
X112070900Y-83686700D01*
X112069900Y-83683700D01*
X112067900Y-83681700D01*
X112066900Y-83679700D01*
X112064900Y-83677700D01*
X112063900Y-83675700D01*
X112061900Y-83673700D01*
X112059900Y-83671700D01*
X112057900Y-83669700D01*
X112055900Y-83667700D01*
X112053900Y-83666700D01*
X112051900Y-83664700D01*
X112049900Y-83663700D01*
X112047900Y-83661700D01*
X112044900Y-83660700D01*
X112042900Y-83659700D01*
X112039900Y-83658700D01*
X112037900Y-83658700D01*
X112034900Y-83657700D01*
X112032900Y-83657700D01*
X112029900Y-83656700D01*
X112027900Y-83656700D01*
X112024900Y-83656700D01*
X111874900Y-83656700D01*
X111871900Y-83656700D01*
X111869900Y-83656700D01*
X111866900Y-83657700D01*
X111864900Y-83657700D01*
X111861900Y-83658700D01*
X111859900Y-83658700D01*
X111856900Y-83659700D01*
X111854900Y-83660700D01*
X111851900Y-83661700D01*
X111849900Y-83663700D01*
X111847900Y-83664700D01*
X111845900Y-83666700D01*
X111843900Y-83667700D01*
X111841900Y-83669700D01*
X111839900Y-83671700D01*
X111837900Y-83673700D01*
X111835900Y-83675700D01*
X111834900Y-83677700D01*
X111832900Y-83679700D01*
X111831900Y-83681700D01*
X111829900Y-83683700D01*
X111828900Y-83686700D01*
X111827900Y-83688700D01*
X111826900Y-83691700D01*
X111826900Y-83693700D01*
X111825900Y-83696700D01*
X111825900Y-83698700D01*
X111824900Y-83701700D01*
X111824900Y-83703700D01*
X111824900Y-83706700D01*
X111824900Y-84206700D01*
X111824900Y-84209700D01*
X111824900Y-84211700D01*
X111823900Y-84214700D01*
X111823900Y-84216700D01*
X111822900Y-84219700D01*
X111822900Y-84221700D01*
X111821900Y-84224700D01*
X111820900Y-84226700D01*
X111819900Y-84229700D01*
X111817900Y-84231700D01*
X111816900Y-84233700D01*
X111814900Y-84235700D01*
X111813900Y-84237700D01*
X111811900Y-84239700D01*
X111809900Y-84241700D01*
X111807900Y-84243700D01*
X111805900Y-84245700D01*
X111803900Y-84246700D01*
X111801900Y-84248700D01*
X111799900Y-84249700D01*
X111797900Y-84251700D01*
X111794900Y-84252700D01*
X111792900Y-84253700D01*
X111789900Y-84254700D01*
X111787900Y-84254700D01*
X111784900Y-84255700D01*
X111782900Y-84255700D01*
X111779900Y-84256700D01*
X111777900Y-84256700D01*
X111774900Y-84256700D01*
X111624900Y-84256700D01*
X111621900Y-84256700D01*
X111619900Y-84256700D01*
X111616900Y-84255700D01*
X111614900Y-84255700D01*
X111611900Y-84254700D01*
X111609900Y-84254700D01*
X111606900Y-84253700D01*
X111604900Y-84252700D01*
X111601900Y-84251700D01*
X111599900Y-84249700D01*
X111597900Y-84248700D01*
X111595900Y-84246700D01*
X111593900Y-84245700D01*
X111591900Y-84243700D01*
X111589900Y-84241700D01*
X111587900Y-84239700D01*
X111585900Y-84237700D01*
X111584900Y-84235700D01*
X111582900Y-84233700D01*
X111581900Y-84231700D01*
X111579900Y-84229700D01*
X111578900Y-84226700D01*
X111577900Y-84224700D01*
X111576900Y-84221700D01*
X111576900Y-84219700D01*
X111575900Y-84216700D01*
X111575900Y-84214700D01*
X111574900Y-84211700D01*
X111574900Y-84209700D01*
X111574900Y-84206700D01*
X111574900Y-83856700D01*
X111574900Y-83853700D01*
X111574900Y-83851700D01*
X111573900Y-83848700D01*
X111573900Y-83846700D01*
X111572900Y-83843700D01*
X111572900Y-83841700D01*
X111571900Y-83838700D01*
X111570900Y-83836700D01*
X111569900Y-83833700D01*
X111567900Y-83831700D01*
X111566900Y-83829700D01*
X111564900Y-83827700D01*
X111563900Y-83825700D01*
X111561900Y-83823700D01*
X111559900Y-83821700D01*
X111557900Y-83819700D01*
X111555900Y-83817700D01*
X111553900Y-83816700D01*
X111551900Y-83814700D01*
X111549900Y-83813700D01*
X111547900Y-83811700D01*
X111544900Y-83810700D01*
X111542900Y-83809700D01*
X111539900Y-83808700D01*
X111537900Y-83808700D01*
X111534900Y-83807700D01*
X111532900Y-83807700D01*
X111529900Y-83806700D01*
X111527900Y-83806700D01*
X111524900Y-83806700D01*
X111459900Y-83806700D01*
X111456900Y-83806700D01*
X111454900Y-83806700D01*
X111451900Y-83805700D01*
X111449900Y-83805700D01*
X111446900Y-83804700D01*
X111444900Y-83804700D01*
X111441900Y-83803700D01*
X111439900Y-83802700D01*
X111436900Y-83801700D01*
X111434900Y-83799700D01*
X111432900Y-83798700D01*
X111430900Y-83796700D01*
X111428900Y-83795700D01*
X111426900Y-83793700D01*
X111424900Y-83791700D01*
X111422900Y-83789700D01*
X111420900Y-83787700D01*
X111419900Y-83785700D01*
X111417900Y-83783700D01*
X111416900Y-83781700D01*
X111414900Y-83779700D01*
X111413900Y-83776700D01*
X111412900Y-83774700D01*
X111411900Y-83771700D01*
X111411900Y-83769700D01*
X111410900Y-83766700D01*
X111410900Y-83764700D01*
X111409900Y-83761700D01*
X111409900Y-83759700D01*
X111409900Y-83756700D01*
X111409900Y-82916700D01*
X111409900Y-82913700D01*
X111409900Y-82911700D01*
X111410900Y-82908700D01*
X111410900Y-82906700D01*
X111411900Y-82903700D01*
X111411900Y-82901700D01*
X111412900Y-82898700D01*
X111413900Y-82896700D01*
X111414900Y-82893700D01*
X111416900Y-82891700D01*
X111417900Y-82889700D01*
X111419900Y-82887700D01*
X111420900Y-82885700D01*
X111422900Y-82883700D01*
X111424900Y-82881700D01*
X111426900Y-82879700D01*
X111428900Y-82877700D01*
X111430900Y-82876700D01*
X111432900Y-82874700D01*
X111434900Y-82873700D01*
X111436900Y-82871700D01*
X111439900Y-82870700D01*
X111441900Y-82869700D01*
X111444900Y-82868700D01*
X111446900Y-82868700D01*
X111449900Y-82867700D01*
X111451900Y-82867700D01*
X111454900Y-82866700D01*
X111456900Y-82866700D01*
X111459900Y-82866700D01*
X111799900Y-82866700D01*
X111802900Y-82866700D01*
X111804900Y-82866700D01*
X111807900Y-82867700D01*
G36*
X111807900Y-82867700D02*
G01*
X111809900Y-82867700D01*
X111812900Y-82868700D01*
X111814900Y-82868700D01*
X111817900Y-82869700D01*
X111819900Y-82870700D01*
X111822900Y-82871700D01*
X111824900Y-82873700D01*
X111826900Y-82874700D01*
X111828900Y-82876700D01*
X111830900Y-82877700D01*
X111832900Y-82879700D01*
X111834900Y-82881700D01*
X111836900Y-82883700D01*
X111838900Y-82885700D01*
X111839900Y-82887700D01*
X111841900Y-82889700D01*
X111842900Y-82891700D01*
X111844900Y-82893700D01*
X111845900Y-82896700D01*
X111846900Y-82898700D01*
X111847900Y-82901700D01*
X111847900Y-82903700D01*
X111848900Y-82906700D01*
X111848900Y-82908700D01*
X111849900Y-82911700D01*
X111849900Y-82913700D01*
X111849900Y-82916700D01*
X111849900Y-83286700D01*
X111849900Y-83289700D01*
X111849900Y-83291700D01*
X111850900Y-83294700D01*
X111850900Y-83296700D01*
X111851900Y-83299700D01*
X111851900Y-83301700D01*
X111852900Y-83304700D01*
X111853900Y-83306700D01*
X111854900Y-83309700D01*
X111856900Y-83311700D01*
X111857900Y-83313700D01*
X111859900Y-83315700D01*
X111860900Y-83317700D01*
X111862900Y-83319700D01*
X111864900Y-83321700D01*
X111866900Y-83323700D01*
X111868900Y-83325700D01*
X111870900Y-83326700D01*
X111872900Y-83328700D01*
X111874900Y-83329700D01*
X111876900Y-83331700D01*
X111879900Y-83332700D01*
X111881900Y-83333700D01*
X111884900Y-83334700D01*
X111886900Y-83334700D01*
X111889900Y-83335700D01*
X111891900Y-83335700D01*
X111894900Y-83336700D01*
X111896900Y-83336700D01*
X111899900Y-83336700D01*
X111999900Y-83336700D01*
X112002900Y-83336700D01*
X112004900Y-83336700D01*
X112007900Y-83335700D01*
X112009900Y-83335700D01*
X112012900Y-83334700D01*
X112014900Y-83334700D01*
X112017900Y-83333700D01*
X112019900Y-83332700D01*
X112022900Y-83331700D01*
X112024900Y-83329700D01*
X112026900Y-83328700D01*
X112028900Y-83326700D01*
X112030900Y-83325700D01*
X112032900Y-83323700D01*
X112034900Y-83321700D01*
X112036900Y-83319700D01*
X112038900Y-83317700D01*
X112039900Y-83315700D01*
X112041900Y-83313700D01*
X112042900Y-83311700D01*
X112044900Y-83309700D01*
X112045900Y-83306700D01*
X112046900Y-83304700D01*
X112047900Y-83301700D01*
X112047900Y-83299700D01*
X112048900Y-83296700D01*
X112048900Y-83294700D01*
X112049900Y-83291700D01*
X112049900Y-83289700D01*
X112049900Y-83286700D01*
X112049900Y-82916700D01*
X112049900Y-82913700D01*
X112049900Y-82911700D01*
X112050900Y-82908700D01*
X112050900Y-82906700D01*
X112051900Y-82903700D01*
X112051900Y-82901700D01*
X112052900Y-82898700D01*
X112053900Y-82896700D01*
X112054900Y-82893700D01*
X112056900Y-82891700D01*
X112057900Y-82889700D01*
X112059900Y-82887700D01*
X112060900Y-82885700D01*
X112062900Y-82883700D01*
X112064900Y-82881700D01*
X112066900Y-82879700D01*
X112068900Y-82877700D01*
X112070900Y-82876700D01*
X112072900Y-82874700D01*
X112074900Y-82873700D01*
X112076900Y-82871700D01*
X112079900Y-82870700D01*
X112081900Y-82869700D01*
X112084900Y-82868700D01*
X112086900Y-82868700D01*
X112089900Y-82867700D01*
X112091900Y-82867700D01*
X112094900Y-82866700D01*
X112096900Y-82866700D01*
X112099900Y-82866700D01*
X112299900Y-82866700D01*
X112302900Y-82866700D01*
X112304900Y-82866700D01*
X112307900Y-82867700D01*
X112309900Y-82867700D01*
X112312900Y-82868700D01*
X112314900Y-82868700D01*
X112317900Y-82869700D01*
X112319900Y-82870700D01*
X112322900Y-82871700D01*
X112324900Y-82873700D01*
X112326900Y-82874700D01*
X112328900Y-82876700D01*
X112330900Y-82877700D01*
X112332900Y-82879700D01*
X112334900Y-82881700D01*
X112336900Y-82883700D01*
X112338900Y-82885700D01*
X112339900Y-82887700D01*
X112341900Y-82889700D01*
X112342900Y-82891700D01*
X112344900Y-82893700D01*
X112345900Y-82896700D01*
X112346900Y-82898700D01*
X112347900Y-82901700D01*
X112347900Y-82903700D01*
X112348900Y-82906700D01*
X112348900Y-82908700D01*
X112349900Y-82911700D01*
X112349900Y-82913700D01*
X112349900Y-82916700D01*
X112349900Y-83286700D01*
X112349900Y-83289700D01*
X112349900Y-83291700D01*
X112350900Y-83294700D01*
X112350900Y-83296700D01*
X112351900Y-83299700D01*
X112351900Y-83301700D01*
X112352900Y-83304700D01*
X112353900Y-83306700D01*
X112354900Y-83309700D01*
X112356900Y-83311700D01*
X112357900Y-83313700D01*
X112359900Y-83315700D01*
X112360900Y-83317700D01*
X112362900Y-83319700D01*
X112364900Y-83321700D01*
X112366900Y-83323700D01*
X112368900Y-83325700D01*
X112370900Y-83326700D01*
X112372900Y-83328700D01*
X112374900Y-83329700D01*
X112376900Y-83331700D01*
X112379900Y-83332700D01*
X112381900Y-83333700D01*
X112384900Y-83334700D01*
X112386900Y-83334700D01*
X112389900Y-83335700D01*
X112391900Y-83335700D01*
X112394900Y-83336700D01*
X112396900Y-83336700D01*
X112399900Y-83336700D01*
X112499900Y-83336700D01*
X112502900Y-83336700D01*
X112504900Y-83336700D01*
X112507900Y-83335700D01*
X112509900Y-83335700D01*
X112512900Y-83334700D01*
X112514900Y-83334700D01*
X112517900Y-83333700D01*
X112519900Y-83332700D01*
X112522900Y-83331700D01*
X112524900Y-83329700D01*
X112526900Y-83328700D01*
X112528900Y-83326700D01*
X112530900Y-83325700D01*
X112532900Y-83323700D01*
X112534900Y-83321700D01*
X112536900Y-83319700D01*
X112538900Y-83317700D01*
X112539900Y-83315700D01*
X112541900Y-83313700D01*
X112542900Y-83311700D01*
X112544900Y-83309700D01*
X112545900Y-83306700D01*
X112546900Y-83304700D01*
X112547900Y-83301700D01*
X112547900Y-83299700D01*
X112548900Y-83296700D01*
X112548900Y-83294700D01*
X112549900Y-83291700D01*
X112549900Y-83289700D01*
X112549900Y-83286700D01*
X112549900Y-82916700D01*
X112549900Y-82913700D01*
X112549900Y-82911700D01*
X112550900Y-82908700D01*
X112550900Y-82906700D01*
X112551900Y-82903700D01*
X112551900Y-82901700D01*
X112552900Y-82898700D01*
X112553900Y-82896700D01*
X112554900Y-82893700D01*
X112556900Y-82891700D01*
X112557900Y-82889700D01*
X112559900Y-82887700D01*
X112560900Y-82885700D01*
X112562900Y-82883700D01*
X112564900Y-82881700D01*
X112566900Y-82879700D01*
X112568900Y-82877700D01*
X112570900Y-82876700D01*
X112572900Y-82874700D01*
X112574900Y-82873700D01*
X112576900Y-82871700D01*
X112579900Y-82870700D01*
X112581900Y-82869700D01*
X112584900Y-82868700D01*
X112586900Y-82868700D01*
X112589900Y-82867700D01*
X112591900Y-82867700D01*
X112594900Y-82866700D01*
X112596900Y-82866700D01*
X112599900Y-82866700D01*
X112799900Y-82866700D01*
X112802900Y-82866700D01*
X112804900Y-82866700D01*
X112807900Y-82867700D01*
X112809900Y-82867700D01*
X112812900Y-82868700D01*
X112814900Y-82868700D01*
X112817900Y-82869700D01*
X112819900Y-82870700D01*
X112822900Y-82871700D01*
X112824900Y-82873700D01*
X112826900Y-82874700D01*
X112828900Y-82876700D01*
X112830900Y-82877700D01*
X112832900Y-82879700D01*
X112834900Y-82881700D01*
X112836900Y-82883700D01*
X112838900Y-82885700D01*
X112839900Y-82887700D01*
X112841900Y-82889700D01*
X112842900Y-82891700D01*
X112844900Y-82893700D01*
X112845900Y-82896700D01*
X112846900Y-82898700D01*
X112847900Y-82901700D01*
X112847900Y-82903700D01*
X112848900Y-82906700D01*
X112848900Y-82908700D01*
X112849900Y-82911700D01*
X112849900Y-82913700D01*
X112849900Y-82916700D01*
X112849900Y-83286700D01*
X112849900Y-83289700D01*
X112849900Y-83291700D01*
X112850900Y-83294700D01*
X112850900Y-83296700D01*
X112851900Y-83299700D01*
X112851900Y-83301700D01*
X112852900Y-83304700D01*
X112853900Y-83306700D01*
X112854900Y-83309700D01*
X112856900Y-83311700D01*
X112857900Y-83313700D01*
X112859900Y-83315700D01*
X112860900Y-83317700D01*
X112862900Y-83319700D01*
X112864900Y-83321700D01*
X112866900Y-83323700D01*
X112868900Y-83325700D01*
X112870900Y-83326700D01*
X112872900Y-83328700D01*
X112874900Y-83329700D01*
X112876900Y-83331700D01*
X112879900Y-83332700D01*
X112881900Y-83333700D01*
X112884900Y-83334700D01*
X112886900Y-83334700D01*
X112889900Y-83335700D01*
X112891900Y-83335700D01*
X112894900Y-83336700D01*
X112896900Y-83336700D01*
X112899900Y-83336700D01*
X112999900Y-83336700D01*
X113002900Y-83336700D01*
X113004900Y-83336700D01*
X113007900Y-83335700D01*
X113009900Y-83335700D01*
X113012900Y-83334700D01*
X113014900Y-83334700D01*
X113017900Y-83333700D01*
X113019900Y-83332700D01*
X113022900Y-83331700D01*
X113024900Y-83329700D01*
X113026900Y-83328700D01*
X113028900Y-83326700D01*
X113030900Y-83325700D01*
X113032900Y-83323700D01*
X113034900Y-83321700D01*
X113036900Y-83319700D01*
X113038900Y-83317700D01*
X113039900Y-83315700D01*
X113041900Y-83313700D01*
X113042900Y-83311700D01*
X113044900Y-83309700D01*
X113045900Y-83306700D01*
X113046900Y-83304700D01*
X113047900Y-83301700D01*
X113047900Y-83299700D01*
X113048900Y-83296700D01*
X113048900Y-83294700D01*
X113049900Y-83291700D01*
X113049900Y-83289700D01*
X113049900Y-83286700D01*
X113049900Y-82916700D01*
X113049900Y-82913700D01*
X113049900Y-82911700D01*
X113050900Y-82908700D01*
X113050900Y-82906700D01*
X113051900Y-82903700D01*
X113051900Y-82901700D01*
X113052900Y-82898700D01*
X113053900Y-82896700D01*
X113054900Y-82893700D01*
X113056900Y-82891700D01*
X113057900Y-82889700D01*
X113059900Y-82887700D01*
X113060900Y-82885700D01*
X113062900Y-82883700D01*
X113064900Y-82881700D01*
X113066900Y-82879700D01*
X113068900Y-82877700D01*
X113070900Y-82876700D01*
X113072900Y-82874700D01*
X113074900Y-82873700D01*
X113076900Y-82871700D01*
X113079900Y-82870700D01*
X113081900Y-82869700D01*
X113084900Y-82868700D01*
X113086900Y-82868700D01*
X113089900Y-82867700D01*
X113091900Y-82867700D01*
X113094900Y-82866700D01*
X113096900Y-82866700D01*
X113099900Y-82866700D01*
X113439900Y-82866700D01*
X113442900Y-82866700D01*
X113444900Y-82866700D01*
X113447900Y-82867700D01*
X113449900Y-82867700D01*
X113452900Y-82868700D01*
X113454900Y-82868700D01*
X113457900Y-82869700D01*
X113459900Y-82870700D01*
X113462900Y-82871700D01*
X113464900Y-82873700D01*
X113466900Y-82874700D01*
X113468900Y-82876700D01*
X113470900Y-82877700D01*
X113472900Y-82879700D01*
X113474900Y-82881700D01*
X113476900Y-82883700D01*
X113478900Y-82885700D01*
X113479900Y-82887700D01*
X113481900Y-82889700D01*
X113482900Y-82891700D01*
X113484900Y-82893700D01*
X113485900Y-82896700D01*
X113486900Y-82898700D01*
X113487900Y-82901700D01*
X113487900Y-82903700D01*
X113488900Y-82906700D01*
X113488900Y-82908700D01*
X113489900Y-82911700D01*
X113489900Y-82913700D01*
X113489900Y-82916700D01*
X113489900Y-83756700D01*
X113489900Y-83759700D01*
X113489900Y-83761700D01*
X113488900Y-83764700D01*
X113488900Y-83766700D01*
X113487900Y-83769700D01*
X113487900Y-83771700D01*
X113486900Y-83774700D01*
X113485900Y-83776700D01*
X113484900Y-83779700D01*
X113482900Y-83781700D01*
X113481900Y-83783700D01*
X113479900Y-83785700D01*
X113478900Y-83787700D01*
X113476900Y-83789700D01*
X113474900Y-83791700D01*
X113472900Y-83793700D01*
X113470900Y-83795700D01*
X113468900Y-83796700D01*
X113466900Y-83798700D01*
X113464900Y-83799700D01*
X113462900Y-83801700D01*
X113459900Y-83802700D01*
X113457900Y-83803700D01*
X113454900Y-83804700D01*
X113452900Y-83804700D01*
X113449900Y-83805700D01*
X113447900Y-83805700D01*
X113444900Y-83806700D01*
X113442900Y-83806700D01*
X113439900Y-83806700D01*
X113374900Y-83806700D01*
X113371900Y-83806700D01*
X113369900Y-83806700D01*
X113366900Y-83807700D01*
X113364900Y-83807700D01*
X113361900Y-83808700D01*
X113359900Y-83808700D01*
X113356900Y-83809700D01*
X113354900Y-83810700D01*
X113351900Y-83811700D01*
X113349900Y-83813700D01*
X113347900Y-83814700D01*
X113345900Y-83816700D01*
X113343900Y-83817700D01*
X113341900Y-83819700D01*
X113339900Y-83821700D01*
X113337900Y-83823700D01*
X113335900Y-83825700D01*
X113334900Y-83827700D01*
X113332900Y-83829700D01*
X113331900Y-83831700D01*
X113329900Y-83833700D01*
X113328900Y-83836700D01*
X113327900Y-83838700D01*
X113326900Y-83841700D01*
X113326900Y-83843700D01*
X113325900Y-83846700D01*
X113325900Y-83848700D01*
X113324900Y-83851700D01*
X113324900Y-83853700D01*
X113324900Y-83856700D01*
X113324900Y-84206700D01*
X113324900Y-84209700D01*
X113324900Y-84211700D01*
X113323900Y-84214700D01*
X113323900Y-84216700D01*
X113322900Y-84219700D01*
X113322900Y-84221700D01*
X113321900Y-84224700D01*
X113320900Y-84226700D01*
X113319900Y-84229700D01*
X113317900Y-84231700D01*
X113316900Y-84233700D01*
X113314900Y-84235700D01*
X113313900Y-84237700D01*
X113311900Y-84239700D01*
X113309900Y-84241700D01*
X113307900Y-84243700D01*
X113305900Y-84245700D01*
X113303900Y-84246700D01*
X113301900Y-84248700D01*
X113299900Y-84249700D01*
X113297900Y-84251700D01*
X113294900Y-84252700D01*
X113292900Y-84253700D01*
X113289900Y-84254700D01*
X113287900Y-84254700D01*
X113284900Y-84255700D01*
X113282900Y-84255700D01*
X113279900Y-84256700D01*
X113277900Y-84256700D01*
X113274900Y-84256700D01*
X113124900Y-84256700D01*
X113121900Y-84256700D01*
X113119900Y-84256700D01*
X113116900Y-84255700D01*
X113114900Y-84255700D01*
X113111900Y-84254700D01*
X113109900Y-84254700D01*
X113106900Y-84253700D01*
X113104900Y-84252700D01*
X113101900Y-84251700D01*
X113099900Y-84249700D01*
X113097900Y-84248700D01*
X113095900Y-84246700D01*
X113093900Y-84245700D01*
X113091900Y-84243700D01*
X113089900Y-84241700D01*
X113087900Y-84239700D01*
X113085900Y-84237700D01*
X113084900Y-84235700D01*
X113082900Y-84233700D01*
X113081900Y-84231700D01*
X113079900Y-84229700D01*
X113078900Y-84226700D01*
X113077900Y-84224700D01*
X113076900Y-84221700D01*
X113076900Y-84219700D01*
X113075900Y-84216700D01*
X113075900Y-84214700D01*
X113074900Y-84211700D01*
X113074900Y-84209700D01*
X113074900Y-84206700D01*
X113074900Y-83706700D01*
X113074900Y-83703700D01*
X113074900Y-83701700D01*
X113073900Y-83698700D01*
X113073900Y-83696700D01*
X113072900Y-83693700D01*
X113072900Y-83691700D01*
X113071900Y-83688700D01*
X113070900Y-83686700D01*
X113069900Y-83683700D01*
X113067900Y-83681700D01*
X113066900Y-83679700D01*
X113064900Y-83677700D01*
X113063900Y-83675700D01*
X113061900Y-83673700D01*
X113059900Y-83671700D01*
X113057900Y-83669700D01*
X113055900Y-83667700D01*
X113053900Y-83666700D01*
X113051900Y-83664700D01*
X113049900Y-83663700D01*
X113047900Y-83661700D01*
X113044900Y-83660700D01*
X113042900Y-83659700D01*
X113039900Y-83658700D01*
X113037900Y-83658700D01*
X113034900Y-83657700D01*
X113032900Y-83657700D01*
X113029900Y-83656700D01*
X113027900Y-83656700D01*
X113024900Y-83656700D01*
X112874900Y-83656700D01*
X112871900Y-83656700D01*
X112869900Y-83656700D01*
X112866900Y-83657700D01*
X112864900Y-83657700D01*
X112861900Y-83658700D01*
X112859900Y-83658700D01*
X112856900Y-83659700D01*
X112854900Y-83660700D01*
X112851900Y-83661700D01*
X112849900Y-83663700D01*
X112847900Y-83664700D01*
X112845900Y-83666700D01*
X112843900Y-83667700D01*
X112841900Y-83669700D01*
X112839900Y-83671700D01*
X112837900Y-83673700D01*
X112835900Y-83675700D01*
X112834900Y-83677700D01*
X112832900Y-83679700D01*
X112831900Y-83681700D01*
X112829900Y-83683700D01*
X112828900Y-83686700D01*
X112827900Y-83688700D01*
X112826900Y-83691700D01*
X112826900Y-83693700D01*
X112825900Y-83696700D01*
X112825900Y-83698700D01*
X112824900Y-83701700D01*
X112824900Y-83703700D01*
X112824900Y-83706700D01*
X112824900Y-84206700D01*
X112824900Y-84209700D01*
X112824900Y-84211700D01*
X112823900Y-84214700D01*
X112823900Y-84216700D01*
X112822900Y-84219700D01*
X112822900Y-84221700D01*
X112821900Y-84224700D01*
X112820900Y-84226700D01*
X112819900Y-84229700D01*
X112817900Y-84231700D01*
X112816900Y-84233700D01*
X112814900Y-84235700D01*
X112813900Y-84237700D01*
X112811900Y-84239700D01*
X112809900Y-84241700D01*
X112807900Y-84243700D01*
X112805900Y-84245700D01*
X112803900Y-84246700D01*
X112801900Y-84248700D01*
X112799900Y-84249700D01*
X112797900Y-84251700D01*
X112794900Y-84252700D01*
X112792900Y-84253700D01*
X112789900Y-84254700D01*
X112787900Y-84254700D01*
X112784900Y-84255700D01*
X112782900Y-84255700D01*
X112779900Y-84256700D01*
X112777900Y-84256700D01*
X112774900Y-84256700D01*
X112624900Y-84256700D01*
X112621900Y-84256700D01*
X112619900Y-84256700D01*
X112616900Y-84255700D01*
X112614900Y-84255700D01*
X112611900Y-84254700D01*
X112609900Y-84254700D01*
X112606900Y-84253700D01*
X112604900Y-84252700D01*
X112601900Y-84251700D01*
X112599900Y-84249700D01*
X112597900Y-84248700D01*
X112595900Y-84246700D01*
X112593900Y-84245700D01*
X112591900Y-84243700D01*
X112589900Y-84241700D01*
X112587900Y-84239700D01*
X112585900Y-84237700D01*
X112584900Y-84235700D01*
X112582900Y-84233700D01*
X112581900Y-84231700D01*
X112579900Y-84229700D01*
X112578900Y-84226700D01*
X112577900Y-84224700D01*
X112576900Y-84221700D01*
X112576900Y-84219700D01*
X112575900Y-84216700D01*
X112575900Y-84214700D01*
X112574900Y-84211700D01*
X112574900Y-84209700D01*
X112574900Y-84206700D01*
X112574900Y-83706700D01*
X112574900Y-83703700D01*
X112574900Y-83701700D01*
X112573900Y-83698700D01*
X112573900Y-83696700D01*
X112572900Y-83693700D01*
X112572900Y-83691700D01*
X112571900Y-83688700D01*
X112570900Y-83686700D01*
X112569900Y-83683700D01*
X112567900Y-83681700D01*
X112566900Y-83679700D01*
X112564900Y-83677700D01*
X112563900Y-83675700D01*
X112561900Y-83673700D01*
X112559900Y-83671700D01*
X112557900Y-83669700D01*
X112555900Y-83667700D01*
X112553900Y-83666700D01*
X112551900Y-83664700D01*
X112549900Y-83663700D01*
X112547900Y-83661700D01*
X112544900Y-83660700D01*
X112542900Y-83659700D01*
X112539900Y-83658700D01*
X112537900Y-83658700D01*
X112534900Y-83657700D01*
X112532900Y-83657700D01*
X112529900Y-83656700D01*
X112527900Y-83656700D01*
X112524900Y-83656700D01*
X112374900Y-83656700D01*
X112371900Y-83656700D01*
X112369900Y-83656700D01*
X112366900Y-83657700D01*
X112364900Y-83657700D01*
X112361900Y-83658700D01*
X112359900Y-83658700D01*
X112356900Y-83659700D01*
X112354900Y-83660700D01*
X112351900Y-83661700D01*
X112349900Y-83663700D01*
X112347900Y-83664700D01*
X112345900Y-83666700D01*
X112343900Y-83667700D01*
X112341900Y-83669700D01*
X112339900Y-83671700D01*
X112337900Y-83673700D01*
X112335900Y-83675700D01*
X112334900Y-83677700D01*
X112332900Y-83679700D01*
X112331900Y-83681700D01*
X112329900Y-83683700D01*
X112328900Y-83686700D01*
X112327900Y-83688700D01*
X112326900Y-83691700D01*
X112326900Y-83693700D01*
X112325900Y-83696700D01*
X112325900Y-83698700D01*
X112324900Y-83701700D01*
X112324900Y-83703700D01*
X112324900Y-83706700D01*
X112324900Y-84206700D01*
X112324900Y-84209700D01*
X112324900Y-84211700D01*
X112323900Y-84214700D01*
X112323900Y-84216700D01*
X112322900Y-84219700D01*
X112322900Y-84221700D01*
X112321900Y-84224700D01*
X112320900Y-84226700D01*
X112319900Y-84229700D01*
X112317900Y-84231700D01*
X112316900Y-84233700D01*
X112314900Y-84235700D01*
X112313900Y-84237700D01*
X112311900Y-84239700D01*
X112309900Y-84241700D01*
X112307900Y-84243700D01*
X112305900Y-84245700D01*
X112303900Y-84246700D01*
X112301900Y-84248700D01*
X112299900Y-84249700D01*
X112297900Y-84251700D01*
X112294900Y-84252700D01*
X112292900Y-84253700D01*
X112289900Y-84254700D01*
X112287900Y-84254700D01*
X112284900Y-84255700D01*
X112282900Y-84255700D01*
X112279900Y-84256700D01*
X112277900Y-84256700D01*
X112274900Y-84256700D01*
X112124900Y-84256700D01*
X112121900Y-84256700D01*
X112119900Y-84256700D01*
X112116900Y-84255700D01*
X112114900Y-84255700D01*
X112111900Y-84254700D01*
X112109900Y-84254700D01*
X112106900Y-84253700D01*
X112104900Y-84252700D01*
X112101900Y-84251700D01*
X112099900Y-84249700D01*
X112097900Y-84248700D01*
X112095900Y-84246700D01*
X112093900Y-84245700D01*
X112091900Y-84243700D01*
X112089900Y-84241700D01*
X112087900Y-84239700D01*
X112085900Y-84237700D01*
X112084900Y-84235700D01*
X112082900Y-84233700D01*
X112081900Y-84231700D01*
X112079900Y-84229700D01*
X112078900Y-84226700D01*
X112077900Y-84224700D01*
X112076900Y-84221700D01*
X112076900Y-84219700D01*
X112075900Y-84216700D01*
X112075900Y-84214700D01*
X112074900Y-84211700D01*
X112074900Y-84209700D01*
X112074900Y-84206700D01*
X112074900Y-83706700D01*
X112074900Y-83703700D01*
X112074900Y-83701700D01*
X112073900Y-83698700D01*
X112073900Y-83696700D01*
X112072900Y-83693700D01*
X112072900Y-83691700D01*
X112071900Y-83688700D01*
X112070900Y-83686700D01*
X112069900Y-83683700D01*
X112067900Y-83681700D01*
X112066900Y-83679700D01*
X112064900Y-83677700D01*
X112063900Y-83675700D01*
X112061900Y-83673700D01*
X112059900Y-83671700D01*
X112057900Y-83669700D01*
X112055900Y-83667700D01*
X112053900Y-83666700D01*
X112051900Y-83664700D01*
X112049900Y-83663700D01*
X112047900Y-83661700D01*
X112044900Y-83660700D01*
X112042900Y-83659700D01*
X112039900Y-83658700D01*
X112037900Y-83658700D01*
X112034900Y-83657700D01*
X112032900Y-83657700D01*
X112029900Y-83656700D01*
X112027900Y-83656700D01*
X112024900Y-83656700D01*
X111874900Y-83656700D01*
X111871900Y-83656700D01*
X111869900Y-83656700D01*
X111866900Y-83657700D01*
X111864900Y-83657700D01*
X111861900Y-83658700D01*
X111859900Y-83658700D01*
X111856900Y-83659700D01*
X111854900Y-83660700D01*
X111851900Y-83661700D01*
X111849900Y-83663700D01*
X111847900Y-83664700D01*
X111845900Y-83666700D01*
X111843900Y-83667700D01*
X111841900Y-83669700D01*
X111839900Y-83671700D01*
X111837900Y-83673700D01*
X111835900Y-83675700D01*
X111834900Y-83677700D01*
X111832900Y-83679700D01*
X111831900Y-83681700D01*
X111829900Y-83683700D01*
X111828900Y-83686700D01*
X111827900Y-83688700D01*
X111826900Y-83691700D01*
X111826900Y-83693700D01*
X111825900Y-83696700D01*
X111825900Y-83698700D01*
X111824900Y-83701700D01*
X111824900Y-83703700D01*
X111824900Y-83706700D01*
X111824900Y-84206700D01*
X111824900Y-84209700D01*
X111824900Y-84211700D01*
X111823900Y-84214700D01*
X111823900Y-84216700D01*
X111822900Y-84219700D01*
X111822900Y-84221700D01*
X111821900Y-84224700D01*
X111820900Y-84226700D01*
X111819900Y-84229700D01*
X111817900Y-84231700D01*
X111816900Y-84233700D01*
X111814900Y-84235700D01*
X111813900Y-84237700D01*
X111811900Y-84239700D01*
X111809900Y-84241700D01*
X111807900Y-84243700D01*
X111805900Y-84245700D01*
X111803900Y-84246700D01*
X111801900Y-84248700D01*
X111799900Y-84249700D01*
X111797900Y-84251700D01*
X111794900Y-84252700D01*
X111792900Y-84253700D01*
X111789900Y-84254700D01*
X111787900Y-84254700D01*
X111784900Y-84255700D01*
X111782900Y-84255700D01*
X111779900Y-84256700D01*
X111777900Y-84256700D01*
X111774900Y-84256700D01*
X111624900Y-84256700D01*
X111621900Y-84256700D01*
X111619900Y-84256700D01*
X111616900Y-84255700D01*
X111614900Y-84255700D01*
X111611900Y-84254700D01*
X111609900Y-84254700D01*
X111606900Y-84253700D01*
X111604900Y-84252700D01*
X111601900Y-84251700D01*
X111599900Y-84249700D01*
X111597900Y-84248700D01*
X111595900Y-84246700D01*
X111593900Y-84245700D01*
X111591900Y-84243700D01*
X111589900Y-84241700D01*
X111587900Y-84239700D01*
X111585900Y-84237700D01*
X111584900Y-84235700D01*
X111582900Y-84233700D01*
X111581900Y-84231700D01*
X111579900Y-84229700D01*
X111578900Y-84226700D01*
X111577900Y-84224700D01*
X111576900Y-84221700D01*
X111576900Y-84219700D01*
X111575900Y-84216700D01*
X111575900Y-84214700D01*
X111574900Y-84211700D01*
X111574900Y-84209700D01*
X111574900Y-84206700D01*
X111574900Y-83856700D01*
X111574900Y-83853700D01*
X111574900Y-83851700D01*
X111573900Y-83848700D01*
X111573900Y-83846700D01*
X111572900Y-83843700D01*
X111572900Y-83841700D01*
X111571900Y-83838700D01*
X111570900Y-83836700D01*
X111569900Y-83833700D01*
X111567900Y-83831700D01*
X111566900Y-83829700D01*
X111564900Y-83827700D01*
X111563900Y-83825700D01*
X111561900Y-83823700D01*
X111559900Y-83821700D01*
X111557900Y-83819700D01*
X111555900Y-83817700D01*
X111553900Y-83816700D01*
X111551900Y-83814700D01*
X111549900Y-83813700D01*
X111547900Y-83811700D01*
X111544900Y-83810700D01*
X111542900Y-83809700D01*
X111539900Y-83808700D01*
X111537900Y-83808700D01*
X111534900Y-83807700D01*
X111532900Y-83807700D01*
X111529900Y-83806700D01*
X111527900Y-83806700D01*
X111524900Y-83806700D01*
X111459900Y-83806700D01*
X111456900Y-83806700D01*
X111454900Y-83806700D01*
X111451900Y-83805700D01*
X111449900Y-83805700D01*
X111446900Y-83804700D01*
X111444900Y-83804700D01*
X111441900Y-83803700D01*
X111439900Y-83802700D01*
X111436900Y-83801700D01*
X111434900Y-83799700D01*
X111432900Y-83798700D01*
X111430900Y-83796700D01*
X111428900Y-83795700D01*
X111426900Y-83793700D01*
X111424900Y-83791700D01*
X111422900Y-83789700D01*
X111420900Y-83787700D01*
X111419900Y-83785700D01*
X111417900Y-83783700D01*
X111416900Y-83781700D01*
X111414900Y-83779700D01*
X111413900Y-83776700D01*
X111412900Y-83774700D01*
X111411900Y-83771700D01*
X111411900Y-83769700D01*
X111410900Y-83766700D01*
X111410900Y-83764700D01*
X111409900Y-83761700D01*
X111409900Y-83759700D01*
X111409900Y-83756700D01*
X111409900Y-82916700D01*
X111409900Y-82913700D01*
X111409900Y-82911700D01*
X111410900Y-82908700D01*
X111410900Y-82906700D01*
X111411900Y-82903700D01*
X111411900Y-82901700D01*
X111412900Y-82898700D01*
X111413900Y-82896700D01*
X111414900Y-82893700D01*
X111416900Y-82891700D01*
X111417900Y-82889700D01*
X111419900Y-82887700D01*
X111420900Y-82885700D01*
X111422900Y-82883700D01*
X111424900Y-82881700D01*
X111426900Y-82879700D01*
X111428900Y-82877700D01*
X111430900Y-82876700D01*
X111432900Y-82874700D01*
X111434900Y-82873700D01*
X111436900Y-82871700D01*
X111439900Y-82870700D01*
X111441900Y-82869700D01*
X111444900Y-82868700D01*
X111446900Y-82868700D01*
X111449900Y-82867700D01*
X111451900Y-82867700D01*
X111454900Y-82866700D01*
X111456900Y-82866700D01*
X111459900Y-82866700D01*
X111799900Y-82866700D01*
X111802900Y-82866700D01*
X111804900Y-82866700D01*
X111807900Y-82867700D01*
G37*
%TO.C,U4*%
X117693200Y-73840000D02*
X116943200Y-73840000D01*
X116943200Y-73090000D01*
X117693200Y-73090000D01*
X117693200Y-73840000D01*
G36*
X117693200Y-73840000D02*
G01*
X116943200Y-73840000D01*
X116943200Y-73090000D01*
X117693200Y-73090000D01*
X117693200Y-73840000D01*
G37*
X117693200Y-74790000D02*
X116943200Y-74790000D01*
X116943200Y-74040000D01*
X117693200Y-74040000D01*
X117693200Y-74790000D01*
G36*
X117693200Y-74790000D02*
G01*
X116943200Y-74790000D01*
X116943200Y-74040000D01*
X117693200Y-74040000D01*
X117693200Y-74790000D01*
G37*
X118643200Y-73840000D02*
X117893200Y-73840000D01*
X117893200Y-73090000D01*
X118643200Y-73090000D01*
X118643200Y-73840000D01*
G36*
X118643200Y-73840000D02*
G01*
X117893200Y-73840000D01*
X117893200Y-73090000D01*
X118643200Y-73090000D01*
X118643200Y-73840000D01*
G37*
X118643200Y-74790000D02*
X117893200Y-74790000D01*
X117893200Y-74040000D01*
X118643200Y-74040000D01*
X118643200Y-74790000D01*
G36*
X118643200Y-74790000D02*
G01*
X117893200Y-74790000D01*
X117893200Y-74040000D01*
X118643200Y-74040000D01*
X118643200Y-74790000D01*
G37*
%TD*%
D11*
%TO.C,SW1*%
X150351602Y-85328400D03*
X150351602Y-81178400D03*
X152501600Y-85328400D03*
X152501600Y-81178400D03*
%TD*%
D12*
%TO.C,VR1*%
X112949900Y-80756700D03*
D13*
X115014900Y-82906700D03*
X115014900Y-82406700D03*
X115014900Y-81906700D03*
%TD*%
D14*
%TO.C,J1*%
X152501600Y-108508800D03*
X149191600Y-105968800D03*
%TD*%
D15*
%TO.C,C30*%
X118567200Y-77494800D03*
X118567200Y-79044800D03*
%TD*%
%TO.C,C29*%
X120040400Y-77520800D03*
X120040400Y-79070800D03*
%TD*%
D16*
%TO.C,C1*%
X147611800Y-91287600D03*
X149161800Y-91287600D03*
%TD*%
D17*
%TO.C,C2*%
X141258611Y-105952611D03*
X140579789Y-105273789D03*
%TD*%
D18*
%TO.C,C13*%
X129149789Y-109915011D03*
X129828611Y-109236189D03*
%TD*%
D19*
%TO.C,Y1*%
X141590586Y-83407848D03*
X140317794Y-84680640D03*
X139469266Y-83832112D03*
X140742058Y-82559320D03*
%TD*%
D20*
%TO.C,R37*%
X147554282Y-99373004D03*
X146833034Y-98651756D03*
%TD*%
D21*
%TO.C,R15*%
X124079658Y-84737580D03*
X124800906Y-85458828D03*
%TD*%
%TO.C,R23*%
X118796458Y-90020780D03*
X119517706Y-90742028D03*
%TD*%
D20*
%TO.C,R38*%
X148214682Y-98712604D03*
X147493434Y-97991356D03*
%TD*%
D21*
%TO.C,R21*%
X120112234Y-88694956D03*
X120833482Y-89416204D03*
%TD*%
%TO.C,R22*%
X119456858Y-89360380D03*
X120178106Y-90081628D03*
%TD*%
D22*
%TO.C,C14*%
X117034647Y-91764169D03*
X117713469Y-92442991D03*
%TD*%
D23*
%TO.C,C17*%
X148701469Y-95218569D03*
X148022647Y-95897391D03*
%TD*%
D24*
%TO.C,R29*%
X121534634Y-102776604D03*
X122255882Y-102055356D03*
%TD*%
%TO.C,R32*%
X123515834Y-104757804D03*
X124237082Y-104036556D03*
%TD*%
D21*
%TO.C,R17*%
X122093434Y-86104156D03*
X122814682Y-86825404D03*
%TD*%
D17*
%TO.C,C15*%
X140608080Y-106600002D03*
X139929258Y-105921180D03*
%TD*%
D21*
%TO.C,R18*%
X121229834Y-87018556D03*
X121951082Y-87739804D03*
%TD*%
D24*
%TO.C,R27*%
X119197834Y-100439804D03*
X119919082Y-99718556D03*
%TD*%
%TO.C,R26*%
X118283434Y-99525404D03*
X119004682Y-98804156D03*
%TD*%
D23*
%TO.C,C5*%
X138506858Y-81587980D03*
X137828036Y-82266802D03*
%TD*%
D25*
%TO.C,C3*%
X148308000Y-90068400D03*
X147348000Y-90068400D03*
%TD*%
D24*
%TO.C,R33*%
X124176234Y-105418204D03*
X124897482Y-104696956D03*
%TD*%
D26*
%TO.C,C16*%
X150342600Y-78796000D03*
X150342600Y-79756000D03*
%TD*%
D23*
%TO.C,C4*%
X143519869Y-85769769D03*
X142841047Y-86448591D03*
%TD*%
D24*
%TO.C,R28*%
X120010634Y-101201804D03*
X120731882Y-100480556D03*
%TD*%
D27*
%TO.C,U1*%
X146750419Y-96458419D03*
X146396866Y-96811972D03*
X146043312Y-97165526D03*
X145689759Y-97519079D03*
X145336205Y-97872633D03*
X144982652Y-98226186D03*
X144629099Y-98579739D03*
X144275545Y-98933293D03*
X143921992Y-99286846D03*
X143568438Y-99640400D03*
X143214885Y-99993953D03*
X142861332Y-100347506D03*
X142507778Y-100701060D03*
X142154226Y-101054613D03*
X141800671Y-101408167D03*
X141447118Y-101761720D03*
X141093565Y-102115273D03*
X140740011Y-102468827D03*
X140386458Y-102822380D03*
X140032904Y-103175934D03*
X139679351Y-103529487D03*
X139325798Y-103883040D03*
X138972244Y-104236595D03*
X138618691Y-104590147D03*
X138265137Y-104943701D03*
X137911584Y-105297254D03*
X137558031Y-105650807D03*
X137204477Y-106004361D03*
X136850924Y-106357914D03*
X136497370Y-106711468D03*
X136143817Y-107065021D03*
X135790264Y-107418574D03*
X135436710Y-107772128D03*
X135083157Y-108125681D03*
X134729603Y-108479235D03*
X134376050Y-108832788D03*
D28*
X131724400Y-108832788D03*
X131370847Y-108479235D03*
X131017293Y-108125681D03*
X130663740Y-107772128D03*
X130310186Y-107418574D03*
X129956633Y-107065021D03*
X129603080Y-106711468D03*
X129249526Y-106357914D03*
X128895973Y-106004361D03*
X128542419Y-105650807D03*
X128188866Y-105297254D03*
X127835313Y-104943701D03*
X127481759Y-104590147D03*
X127128206Y-104236595D03*
X126774652Y-103883040D03*
X126421099Y-103529487D03*
X126067546Y-103175934D03*
X125713992Y-102822380D03*
X125360439Y-102468827D03*
X125006885Y-102115273D03*
X124653332Y-101761720D03*
X124299779Y-101408167D03*
X123946224Y-101054613D03*
X123592672Y-100701060D03*
X123239118Y-100347506D03*
X122885565Y-99993953D03*
X122532012Y-99640400D03*
X122178458Y-99286846D03*
X121824905Y-98933293D03*
X121471351Y-98579739D03*
X121117798Y-98226186D03*
X120764245Y-97872633D03*
X120410691Y-97519079D03*
X120057138Y-97165526D03*
X119703584Y-96811972D03*
X119350031Y-96458419D03*
D27*
X119350031Y-93806769D03*
X119703584Y-93453216D03*
X120057138Y-93099662D03*
X120410691Y-92746109D03*
X120764245Y-92392555D03*
X121117798Y-92039002D03*
X121471351Y-91685449D03*
X121824905Y-91331895D03*
X122178458Y-90978342D03*
X122532012Y-90624788D03*
X122885565Y-90271235D03*
X123239118Y-89917682D03*
X123592672Y-89564128D03*
X123946224Y-89210575D03*
X124299779Y-88857021D03*
X124653332Y-88503468D03*
X125006885Y-88149915D03*
X125360439Y-87796361D03*
X125713992Y-87442808D03*
X126067546Y-87089254D03*
X126421099Y-86735701D03*
X126774652Y-86382148D03*
X127128206Y-86028593D03*
X127481759Y-85675041D03*
X127835313Y-85321487D03*
X128188866Y-84967934D03*
X128542419Y-84614381D03*
X128895973Y-84260827D03*
X129249526Y-83907274D03*
X129603080Y-83553720D03*
X129956633Y-83200167D03*
X130310186Y-82846614D03*
X130663740Y-82493060D03*
X131017293Y-82139507D03*
X131370847Y-81785953D03*
X131724400Y-81432400D03*
D28*
X134376050Y-81432400D03*
X134729604Y-81785954D03*
X135083157Y-82139507D03*
X135436710Y-82493060D03*
X135790264Y-82846614D03*
X136143817Y-83200167D03*
X136497371Y-83553721D03*
X136850924Y-83907274D03*
X137204477Y-84260827D03*
X137558031Y-84614381D03*
X137911584Y-84967934D03*
X138265138Y-85321488D03*
X138618691Y-85675041D03*
X138972244Y-86028593D03*
X139325798Y-86382148D03*
X139679351Y-86735701D03*
X140032906Y-87089256D03*
X140386458Y-87442808D03*
X140740011Y-87796361D03*
X141093565Y-88149915D03*
X141447118Y-88503468D03*
X141800671Y-88857021D03*
X142154226Y-89210575D03*
X142507778Y-89564128D03*
X142861332Y-89917682D03*
X143214885Y-90271235D03*
X143568438Y-90624788D03*
X143921992Y-90978342D03*
X144275545Y-91331895D03*
X144629099Y-91685449D03*
X144982652Y-92039002D03*
X145336205Y-92392555D03*
X145689759Y-92746109D03*
X146043312Y-93099662D03*
X146396866Y-93453216D03*
X146750419Y-93806769D03*
%TD*%
D29*
%TO.C,R1*%
X145578106Y-88893132D03*
X144856858Y-89614380D03*
%TD*%
D21*
%TO.C,R16*%
X122906234Y-85291356D03*
X123627482Y-86012604D03*
%TD*%
D23*
%TO.C,C7*%
X126095469Y-84093369D03*
X125416647Y-84772191D03*
%TD*%
D20*
%TO.C,R36*%
X144734224Y-102976624D03*
X144012976Y-102255376D03*
%TD*%
D17*
%TO.C,C18*%
X144052611Y-103615811D03*
X143373789Y-102936989D03*
%TD*%
D18*
%TO.C,C11*%
X124882589Y-106054211D03*
X125561411Y-105375389D03*
%TD*%
D24*
%TO.C,R30*%
X122195033Y-103437004D03*
X122916283Y-102715756D03*
%TD*%
%TO.C,R31*%
X122855434Y-104097404D03*
X123576682Y-103376156D03*
%TD*%
D18*
%TO.C,C10*%
X120895447Y-102094991D03*
X121574269Y-101416169D03*
%TD*%
D21*
%TO.C,R24*%
X118136058Y-90681180D03*
X118857306Y-91402428D03*
%TD*%
D22*
%TO.C,C9*%
X116398989Y-92421389D03*
X117077811Y-93100211D03*
%TD*%
D29*
%TO.C,R2*%
X144912683Y-88237755D03*
X144191433Y-88959005D03*
%TD*%
D30*
%TO.C,C6*%
X128247200Y-81153000D03*
X129207200Y-81153000D03*
%TD*%
D31*
%TO.C,D6*%
X152501600Y-75771550D03*
X152501600Y-74196550D03*
%TD*%
D32*
%TO.C,U2*%
X125553602Y-78333600D03*
X126353603Y-78333600D03*
X127153602Y-78333600D03*
X127953603Y-78333600D03*
X128753601Y-78333600D03*
X129553602Y-78333600D03*
X130353603Y-78333600D03*
X131153601Y-78333600D03*
X131953602Y-78333600D03*
X132753601Y-78333600D03*
X133553602Y-78333600D03*
X134353603Y-78333600D03*
X135153601Y-78333600D03*
X135953602Y-78333600D03*
X136753600Y-78333600D03*
X137553601Y-78333600D03*
X138353602Y-78333600D03*
X139153601Y-78333600D03*
X139953602Y-78333600D03*
X140753600Y-78333600D03*
X141553601Y-78333600D03*
X142353602Y-78333600D03*
X143153600Y-78333600D03*
X143953601Y-78333600D03*
X144753600Y-78333600D03*
X145553601Y-78333600D03*
X146353602Y-78333600D03*
X146353602Y-66852800D03*
X145553601Y-66852800D03*
X144753602Y-66852800D03*
X143953601Y-66852800D03*
X143153603Y-66852800D03*
X142353602Y-66852800D03*
X141553601Y-66852800D03*
X140753603Y-66852800D03*
X139953602Y-66852800D03*
X139153603Y-66852800D03*
X138353602Y-66852800D03*
X137553601Y-66852800D03*
X136753603Y-66852800D03*
X135953602Y-66852800D03*
X135153604Y-66852800D03*
X134353603Y-66852800D03*
X133553602Y-66852800D03*
X132753603Y-66852800D03*
X131953602Y-66852800D03*
X131153604Y-66852800D03*
X130353603Y-66852800D03*
X129553602Y-66852800D03*
X128753604Y-66852800D03*
X127953603Y-66852800D03*
X127153604Y-66852800D03*
X126353603Y-66852800D03*
X125553602Y-66852800D03*
%TD*%
D33*
%TO.C,U3*%
X115687974Y-108738392D03*
X116586000Y-107840367D03*
X117484026Y-106942341D03*
X118382051Y-106044315D03*
X114888944Y-102551208D03*
X113990918Y-103449233D03*
X113092892Y-104347259D03*
X112194867Y-105245285D03*
%TD*%
D34*
%TO.C,D3*%
X122783600Y-75456800D03*
X122783600Y-71456800D03*
%TD*%
D35*
%TO.C,C33*%
X114729700Y-79078300D03*
X111779700Y-79078300D03*
%TD*%
D36*
%TO.C,C35*%
X111779700Y-85783900D03*
X114729700Y-85783900D03*
%TD*%
D37*
%TO.C,J4*%
X119238400Y-68816600D03*
X118588400Y-68816600D03*
X117938400Y-68816600D03*
X117288400Y-68816600D03*
X116638400Y-68816600D03*
D38*
X121038400Y-68691600D03*
X114838400Y-68691600D03*
D39*
X121738400Y-66141600D03*
D40*
X119138400Y-66141600D03*
X116738400Y-66141600D03*
D39*
X114138400Y-66141600D03*
%TD*%
D41*
%TO.C,D4*%
X113334800Y-76522700D03*
D42*
X113334800Y-74622700D03*
%TD*%
D41*
%TO.C,D5*%
X118008400Y-81228100D03*
D42*
X118008400Y-83128100D03*
%TD*%
D43*
%TO.C,U4*%
X116543200Y-75190000D03*
D44*
X117043200Y-75490000D03*
X117543200Y-75490000D03*
X118043200Y-75490000D03*
X118543200Y-75490000D03*
D43*
X119043200Y-75190000D03*
D45*
X119343200Y-74690000D03*
X119343200Y-74190000D03*
X119343200Y-73690000D03*
X119343200Y-73190000D03*
D43*
X119043200Y-72690000D03*
D44*
X118543200Y-72390000D03*
X118043200Y-72390000D03*
X117543200Y-72390000D03*
X117043200Y-72390000D03*
D43*
X116543200Y-72690000D03*
D45*
X116243200Y-73190000D03*
X116243200Y-73690000D03*
X116243200Y-74190000D03*
X116243200Y-74690000D03*
%TD*%
M02*
