M48
; DRILL file {KiCad 9.0.4} date 2026-04-14T18:53:33-0700
; FORMAT={-:-/ absolute / metric / decimal}
; #@! TF.CreationDate,2026-04-14T18:53:33-07:00
; #@! TF.GenerationSoftware,Kicad,Pcbnew,9.0.4
; #@! TF.FileFunction,Plated,1,8,PTH
FMAT,2
METRIC
; #@! TA.AperFunction,Plated,PTH,ViaDrill
T1C0.300
; #@! TA.AperFunction,Plated,PTH,ComponentDrill
T2C2.200
%
G90
G05
T1
X110.871Y-82.906
X110.871Y-85.827
X110.896Y-83.642
X110.896Y-85.065
X110.896Y-86.538
X110.998Y-84.328
X111.023Y-96.063
X111.201Y-76.175
X111.201Y-98.501
X111.582Y-70.815
X111.658Y-95.123
X111.735Y-92.1
X111.739Y-103.942
X111.785Y-90.78
X111.785Y-93.345
X111.811Y-89.459
X111.847Y-97.332
X111.938Y-68.123
X112.116Y-74.422
X112.146Y-99.013
X112.215Y-99.667
X112.217Y-96.797
X112.624Y-95.631
X112.725Y-86.97
X112.77Y-106.455
X112.827Y-84.836
X112.878Y-85.547
X112.878Y-86.258
X113.32Y-87.998
X113.335Y-73.711
X113.815Y-87.576
X113.843Y-71.298
X114.097Y-105.359
X114.249Y-73.762
X114.465Y-87.583
X114.503Y-100.94
X114.656Y-107.696
X114.694Y-100.13
X114.757Y-97.434
X114.813Y-95.953
X114.849Y-92.393
X114.973Y-96.583
X115.011Y-104.445
X115.096Y-87.427
X115.096Y-94.082
X115.096Y-94.92
X115.233Y-73.323
X115.519Y-106.832
X115.621Y-76.505
X115.722Y-98.831
X115.875Y-103.581
X116.281Y-71.933
X116.434Y-105.918
X116.747Y-81.509
X116.75Y-82.248
X116.865Y-84.074
X117.031Y-80.251
X117.17Y-82.906
X117.5Y-77.521
X117.653Y-90.221
X117.754Y-69.952
X117.887Y-98.69
X117.919Y-97.564
X118.059Y-76.454
X118.084Y-96.514
X118.238Y-89.513
X118.302Y-93.813
X118.491Y-95.929
X118.567Y-71.12
X118.695Y-100.943
X118.898Y-88.852
X118.923Y-76.403
X119.228Y-67.666
X119.508Y-101.705
X119.558Y-88.192
X119.837Y-75.641
X120.142Y-71.171
X120.193Y-72.238
X120.244Y-107.892
X120.447Y-73.711
X120.447Y-74.676
X120.676Y-86.516
X120.792Y-103.57
X121.122Y-104.51
X121.125Y-94.653
X121.39Y-93.732
X121.794Y-88.903
X121.895Y-92.967
X121.974Y-104.545
X122.302Y-100.994
X122.631Y-110.084
X122.898Y-105.919
X123.139Y-96.52
X123.255Y-81.04
X123.572Y-84.23
X123.603Y-91.346
X123.644Y-99.32
X123.698Y-105.918
X123.8Y-95.453
X123.85Y-69.037
X123.901Y-81.28
X123.927Y-90.783
X124.029Y-94.237
X124.411Y-109.823
X124.842Y-84.23
X125.006Y-110.084
X125.095Y-94.59
X125.146Y-90.275
X125.534Y-107.906
X125.552Y-65.786
X125.552Y-77.267
X125.707Y-89.108
X125.781Y-106.556
X125.806Y-110.084
X126.299Y-84.687
X126.34Y-67.92
X126.34Y-92.253
X126.39Y-79.4
X126.492Y-101.498
X126.606Y-110.084
X126.825Y-106.634
X126.874Y-89.056
X126.967Y-69.19
X127.127Y-77.267
X127.152Y-100.99
X127.178Y-65.786
X127.188Y-88.03
X127.406Y-110.084
X127.66Y-87.325
X127.965Y-67.92
X127.965Y-79.4
X128.054Y-94.71
X128.321Y-70.104
X128.422Y-103.022
X128.981Y-103.632
X128.982Y-86.648
X129.54Y-67.92
X129.566Y-77.318
X129.617Y-90.427
X129.661Y-70.757
X129.755Y-79.983
X130.219Y-81.341
X130.353Y-79.451
X130.708Y-109.982
X131.166Y-67.92
X131.42Y-79.553
X131.589Y-84.389
X131.589Y-85.319
X131.953Y-65.786
X131.953Y-77.267
X132.08Y-90.627
X132.105Y-109.957
X132.12Y-83.544
X132.182Y-100.432
X132.232Y-80.366
X132.486Y-108.102
X132.791Y-87.63
X133.106Y-89.492
X133.187Y-103.469
X133.35Y-109.982
X133.401Y-68.58
X133.553Y-86.512
X134.341Y-77.318
X134.366Y-67.92
X134.823Y-83.82
X134.874Y-89.764
X134.976Y-84.633
X135.179Y-79.4
X135.306Y-106.226
X135.371Y-102.633
X135.433Y-68.428
X135.464Y-105.113
X135.484Y-90.526
X135.524Y-85.232
X135.941Y-77.318
X135.966Y-65.837
X135.998Y-92.1
X136.169Y-88.646
X136.522Y-86.23
X136.906Y-73.914
X136.957Y-81.534
X137.262Y-77.114
X137.312Y-109.931
X137.352Y-82.746
X137.491Y-89.767
X137.741Y-108.081
X138.1Y-90.427
X138.14Y-87.032
X138.306Y-108.646
X138.354Y-67.894
X138.379Y-74.727
X138.527Y-70.764
X138.697Y-87.62
X138.786Y-100.533
X138.812Y-83.214
X138.812Y-91.088
X138.887Y-109.322
X139.141Y-79.908
X139.154Y-67.907
X139.207Y-101.311
X139.243Y-106.528
X139.281Y-88.168
X139.37Y-105.312
X139.472Y-91.748
X139.598Y-107.34
X139.649Y-81.636
X139.878Y-88.7
X139.954Y-79.4
X139.98Y-93.069
X140.106Y-101.244
X140.208Y-108.102
X140.59Y-89.31
X140.754Y-67.906
X140.927Y-81.026
X141.122Y-109.22
X141.148Y-90.072
X141.173Y-94.437
X141.173Y-104.496
X141.554Y-67.895
X141.554Y-79.654
X141.683Y-90.799
X141.992Y-95.918
X142.052Y-106.406
X142.068Y-96.871
X142.088Y-105.512
X142.164Y-83.976
X142.233Y-87.752
X142.291Y-80.315
X142.317Y-86.973
X142.317Y-91.288
X142.426Y-85.699
X142.545Y-107.036
X142.9Y-102.108
X143.154Y-79.553
X143.154Y-81.89
X143.866Y-84.735
X143.967Y-79.959
X144.196Y-96.371
X144.526Y-70.815
X144.628Y-105.054
X144.767Y-69.512
X144.961Y-96.69
X145.219Y-100.043
X145.237Y-103.48
X145.294Y-94.15
X145.339Y-101.287
X145.466Y-87.735
X145.469Y-102.56
X145.474Y-82.55
X145.644Y-68.021
X145.898Y-100.686
X145.924Y-94.644
X146.33Y-77.267
X146.337Y-99.381
X146.355Y-91.665
X146.38Y-65.837
X146.412Y-91.017
X146.507Y-103.48
X146.86Y-99.986
X146.944Y-101.971
X148.574Y-88.762
X149.098Y-88.289
X149.192Y-104.953
X149.276Y-81.305
X149.809Y-88.849
X150.139Y-95.781
X150.266Y-96.418
X150.278Y-92.602
X150.416Y-99.104
X150.511Y-94.412
X150.567Y-91.141
X150.921Y-93.044
X151.17Y-95.652
X151.232Y-92.456
X151.282Y-102.514
X151.307Y-97.715
X151.384Y-87.782
X151.79Y-104.902
X152.502Y-73.308
X152.502Y-76.66
X152.857Y-107.29
X153.162Y-91.491
X153.162Y-94.031
X153.365Y-95.301
X153.518Y-89.713
X153.568Y-90.83
X153.568Y-92.253
X153.619Y-93.37
X153.721Y-96.418
X153.721Y-99.974
X153.756Y-97.218
X153.758Y-98.132
X153.76Y-98.963
T2
X150.745Y-68.783
M30
