%TF.GenerationSoftware,KiCad,Pcbnew,9.0.4*%
%TF.CreationDate,2026-04-14T18:53:30-07:00*%
%TF.ProjectId,stm32_system_on_module,73746d33-325f-4737-9973-74656d5f6f6e,rev?*%
%TF.SameCoordinates,Original*%
%TF.FileFunction,Legend,Bot*%
%TF.FilePolarity,Positive*%
%FSLAX46Y46*%
G04 Gerber Fmt 4.6, Leading zero omitted, Abs format (unit mm)*
G04 Created by KiCad (PCBNEW 9.0.4) date 2026-04-14 18:53:30*
%MOMM*%
%LPD*%
G01*
G04 APERTURE LIST*
%ADD10C,0.100000*%
%ADD11C,0.150000*%
%ADD12C,0.120000*%
%ADD13C,0.127000*%
%ADD14C,0.200000*%
G04 APERTURE END LIST*
D10*
X138322953Y-100066019D02*
X137703906Y-100066019D01*
X137703906Y-100066019D02*
X138037239Y-100446971D01*
X138037239Y-100446971D02*
X137894382Y-100446971D01*
X137894382Y-100446971D02*
X137799144Y-100494590D01*
X137799144Y-100494590D02*
X137751525Y-100542209D01*
X137751525Y-100542209D02*
X137703906Y-100637447D01*
X137703906Y-100637447D02*
X137703906Y-100875542D01*
X137703906Y-100875542D02*
X137751525Y-100970780D01*
X137751525Y-100970780D02*
X137799144Y-101018400D01*
X137799144Y-101018400D02*
X137894382Y-101066019D01*
X137894382Y-101066019D02*
X138180096Y-101066019D01*
X138180096Y-101066019D02*
X138275334Y-101018400D01*
X138275334Y-101018400D02*
X138322953Y-100970780D01*
X137418191Y-100066019D02*
X137084858Y-101066019D01*
X137084858Y-101066019D02*
X136751525Y-100066019D01*
X136513429Y-100066019D02*
X135894382Y-100066019D01*
X135894382Y-100066019D02*
X136227715Y-100446971D01*
X136227715Y-100446971D02*
X136084858Y-100446971D01*
X136084858Y-100446971D02*
X135989620Y-100494590D01*
X135989620Y-100494590D02*
X135942001Y-100542209D01*
X135942001Y-100542209D02*
X135894382Y-100637447D01*
X135894382Y-100637447D02*
X135894382Y-100875542D01*
X135894382Y-100875542D02*
X135942001Y-100970780D01*
X135942001Y-100970780D02*
X135989620Y-101018400D01*
X135989620Y-101018400D02*
X136084858Y-101066019D01*
X136084858Y-101066019D02*
X136370572Y-101066019D01*
X136370572Y-101066019D02*
X136465810Y-101018400D01*
X136465810Y-101018400D02*
X136513429Y-100970780D01*
X137602306Y-95033638D02*
X137697544Y-94986019D01*
X137697544Y-94986019D02*
X137840401Y-94986019D01*
X137840401Y-94986019D02*
X137983258Y-95033638D01*
X137983258Y-95033638D02*
X138078496Y-95128876D01*
X138078496Y-95128876D02*
X138126115Y-95224114D01*
X138126115Y-95224114D02*
X138173734Y-95414590D01*
X138173734Y-95414590D02*
X138173734Y-95557447D01*
X138173734Y-95557447D02*
X138126115Y-95747923D01*
X138126115Y-95747923D02*
X138078496Y-95843161D01*
X138078496Y-95843161D02*
X137983258Y-95938400D01*
X137983258Y-95938400D02*
X137840401Y-95986019D01*
X137840401Y-95986019D02*
X137745163Y-95986019D01*
X137745163Y-95986019D02*
X137602306Y-95938400D01*
X137602306Y-95938400D02*
X137554687Y-95890780D01*
X137554687Y-95890780D02*
X137554687Y-95557447D01*
X137554687Y-95557447D02*
X137745163Y-95557447D01*
X137126115Y-95986019D02*
X137126115Y-94986019D01*
X137126115Y-94986019D02*
X136554687Y-95986019D01*
X136554687Y-95986019D02*
X136554687Y-94986019D01*
X136078496Y-95986019D02*
X136078496Y-94986019D01*
X136078496Y-94986019D02*
X135840401Y-94986019D01*
X135840401Y-94986019D02*
X135697544Y-95033638D01*
X135697544Y-95033638D02*
X135602306Y-95128876D01*
X135602306Y-95128876D02*
X135554687Y-95224114D01*
X135554687Y-95224114D02*
X135507068Y-95414590D01*
X135507068Y-95414590D02*
X135507068Y-95557447D01*
X135507068Y-95557447D02*
X135554687Y-95747923D01*
X135554687Y-95747923D02*
X135602306Y-95843161D01*
X135602306Y-95843161D02*
X135697544Y-95938400D01*
X135697544Y-95938400D02*
X135840401Y-95986019D01*
X135840401Y-95986019D02*
X136078496Y-95986019D01*
X136081487Y-106711180D02*
X136129106Y-106758800D01*
X136129106Y-106758800D02*
X136271963Y-106806419D01*
X136271963Y-106806419D02*
X136367201Y-106806419D01*
X136367201Y-106806419D02*
X136510058Y-106758800D01*
X136510058Y-106758800D02*
X136605296Y-106663561D01*
X136605296Y-106663561D02*
X136652915Y-106568323D01*
X136652915Y-106568323D02*
X136700534Y-106377847D01*
X136700534Y-106377847D02*
X136700534Y-106234990D01*
X136700534Y-106234990D02*
X136652915Y-106044514D01*
X136652915Y-106044514D02*
X136605296Y-105949276D01*
X136605296Y-105949276D02*
X136510058Y-105854038D01*
X136510058Y-105854038D02*
X136367201Y-105806419D01*
X136367201Y-105806419D02*
X136271963Y-105806419D01*
X136271963Y-105806419D02*
X136129106Y-105854038D01*
X136129106Y-105854038D02*
X136081487Y-105901657D01*
X135176725Y-106806419D02*
X135652915Y-106806419D01*
X135652915Y-106806419D02*
X135652915Y-105806419D01*
X134843391Y-106806419D02*
X134843391Y-105806419D01*
X134271963Y-106806419D02*
X134700534Y-106234990D01*
X134271963Y-105806419D02*
X134843391Y-106377847D01*
X130810915Y-106781019D02*
X130810915Y-105781019D01*
X130810915Y-105781019D02*
X130572820Y-105781019D01*
X130572820Y-105781019D02*
X130429963Y-105828638D01*
X130429963Y-105828638D02*
X130334725Y-105923876D01*
X130334725Y-105923876D02*
X130287106Y-106019114D01*
X130287106Y-106019114D02*
X130239487Y-106209590D01*
X130239487Y-106209590D02*
X130239487Y-106352447D01*
X130239487Y-106352447D02*
X130287106Y-106542923D01*
X130287106Y-106542923D02*
X130334725Y-106638161D01*
X130334725Y-106638161D02*
X130429963Y-106733400D01*
X130429963Y-106733400D02*
X130572820Y-106781019D01*
X130572820Y-106781019D02*
X130810915Y-106781019D01*
X129810915Y-106781019D02*
X129810915Y-105781019D01*
X129144249Y-105781019D02*
X128953773Y-105781019D01*
X128953773Y-105781019D02*
X128858535Y-105828638D01*
X128858535Y-105828638D02*
X128763297Y-105923876D01*
X128763297Y-105923876D02*
X128715678Y-106114352D01*
X128715678Y-106114352D02*
X128715678Y-106447685D01*
X128715678Y-106447685D02*
X128763297Y-106638161D01*
X128763297Y-106638161D02*
X128858535Y-106733400D01*
X128858535Y-106733400D02*
X128953773Y-106781019D01*
X128953773Y-106781019D02*
X129144249Y-106781019D01*
X129144249Y-106781019D02*
X129239487Y-106733400D01*
X129239487Y-106733400D02*
X129334725Y-106638161D01*
X129334725Y-106638161D02*
X129382344Y-106447685D01*
X129382344Y-106447685D02*
X129382344Y-106114352D01*
X129382344Y-106114352D02*
X129334725Y-105923876D01*
X129334725Y-105923876D02*
X129239487Y-105828638D01*
X129239487Y-105828638D02*
X129144249Y-105781019D01*
D11*
X118984215Y-86117139D02*
X118984215Y-86184483D01*
X118984215Y-86184483D02*
X119051559Y-86319170D01*
X119051559Y-86319170D02*
X119118902Y-86386513D01*
X119118902Y-86386513D02*
X119253589Y-86453857D01*
X119253589Y-86453857D02*
X119388276Y-86453857D01*
X119388276Y-86453857D02*
X119489291Y-86420185D01*
X119489291Y-86420185D02*
X119657650Y-86319170D01*
X119657650Y-86319170D02*
X119758665Y-86218155D01*
X119758665Y-86218155D02*
X119859681Y-86049796D01*
X119859681Y-86049796D02*
X119893352Y-85948781D01*
X119893352Y-85948781D02*
X119893352Y-85814094D01*
X119893352Y-85814094D02*
X119826009Y-85679407D01*
X119826009Y-85679407D02*
X119758665Y-85612063D01*
X119758665Y-85612063D02*
X119623978Y-85544720D01*
X119623978Y-85544720D02*
X119556635Y-85544720D01*
X118916872Y-85376361D02*
X119017887Y-85410033D01*
X119017887Y-85410033D02*
X119085230Y-85410033D01*
X119085230Y-85410033D02*
X119186246Y-85376361D01*
X119186246Y-85376361D02*
X119219917Y-85342689D01*
X119219917Y-85342689D02*
X119253589Y-85241674D01*
X119253589Y-85241674D02*
X119253589Y-85174330D01*
X119253589Y-85174330D02*
X119219917Y-85073315D01*
X119219917Y-85073315D02*
X119085230Y-84938628D01*
X119085230Y-84938628D02*
X118984215Y-84904956D01*
X118984215Y-84904956D02*
X118916872Y-84904956D01*
X118916872Y-84904956D02*
X118815856Y-84938628D01*
X118815856Y-84938628D02*
X118782185Y-84972300D01*
X118782185Y-84972300D02*
X118748513Y-85073315D01*
X118748513Y-85073315D02*
X118748513Y-85140659D01*
X118748513Y-85140659D02*
X118782185Y-85241674D01*
X118782185Y-85241674D02*
X118916872Y-85376361D01*
X118916872Y-85376361D02*
X118950543Y-85477376D01*
X118950543Y-85477376D02*
X118950543Y-85544720D01*
X118950543Y-85544720D02*
X118916872Y-85645735D01*
X118916872Y-85645735D02*
X118782185Y-85780422D01*
X118782185Y-85780422D02*
X118681169Y-85814094D01*
X118681169Y-85814094D02*
X118613826Y-85814094D01*
X118613826Y-85814094D02*
X118512811Y-85780422D01*
X118512811Y-85780422D02*
X118378124Y-85645735D01*
X118378124Y-85645735D02*
X118344452Y-85544720D01*
X118344452Y-85544720D02*
X118344452Y-85477376D01*
X118344452Y-85477376D02*
X118378124Y-85376361D01*
X118378124Y-85376361D02*
X118512811Y-85241674D01*
X118512811Y-85241674D02*
X118613826Y-85208002D01*
X118613826Y-85208002D02*
X118681169Y-85208002D01*
X118681169Y-85208002D02*
X118782185Y-85241674D01*
X138291774Y-92221436D02*
X138190759Y-91649017D01*
X138695835Y-91817375D02*
X137988728Y-91110269D01*
X137988728Y-91110269D02*
X137719354Y-91379643D01*
X137719354Y-91379643D02*
X137685682Y-91480658D01*
X137685682Y-91480658D02*
X137685682Y-91548001D01*
X137685682Y-91548001D02*
X137719354Y-91649017D01*
X137719354Y-91649017D02*
X137820369Y-91750032D01*
X137820369Y-91750032D02*
X137921385Y-91783704D01*
X137921385Y-91783704D02*
X137988728Y-91783704D01*
X137988728Y-91783704D02*
X138089743Y-91750032D01*
X138089743Y-91750032D02*
X138359117Y-91480658D01*
X137214278Y-92356123D02*
X137685682Y-92827528D01*
X137113263Y-91918391D02*
X137786698Y-92255108D01*
X137786698Y-92255108D02*
X137348965Y-92692841D01*
X136473499Y-92625498D02*
X136406156Y-92692841D01*
X136406156Y-92692841D02*
X136372484Y-92793856D01*
X136372484Y-92793856D02*
X136372484Y-92861200D01*
X136372484Y-92861200D02*
X136406156Y-92962215D01*
X136406156Y-92962215D02*
X136507171Y-93130574D01*
X136507171Y-93130574D02*
X136675530Y-93298933D01*
X136675530Y-93298933D02*
X136843888Y-93399948D01*
X136843888Y-93399948D02*
X136944904Y-93433620D01*
X136944904Y-93433620D02*
X137012247Y-93433620D01*
X137012247Y-93433620D02*
X137113262Y-93399948D01*
X137113262Y-93399948D02*
X137180606Y-93332604D01*
X137180606Y-93332604D02*
X137214278Y-93231589D01*
X137214278Y-93231589D02*
X137214278Y-93164246D01*
X137214278Y-93164246D02*
X137180606Y-93063230D01*
X137180606Y-93063230D02*
X137079591Y-92894872D01*
X137079591Y-92894872D02*
X136911232Y-92726513D01*
X136911232Y-92726513D02*
X136742873Y-92625498D01*
X136742873Y-92625498D02*
X136641858Y-92591826D01*
X136641858Y-92591826D02*
X136574514Y-92591826D01*
X136574514Y-92591826D02*
X136473499Y-92625498D01*
X140983338Y-94893110D02*
X140882323Y-94320691D01*
X141387399Y-94489049D02*
X140680292Y-93781943D01*
X140680292Y-93781943D02*
X140410918Y-94051317D01*
X140410918Y-94051317D02*
X140377246Y-94152332D01*
X140377246Y-94152332D02*
X140377246Y-94219675D01*
X140377246Y-94219675D02*
X140410918Y-94320691D01*
X140410918Y-94320691D02*
X140511933Y-94421706D01*
X140511933Y-94421706D02*
X140612949Y-94455378D01*
X140612949Y-94455378D02*
X140680292Y-94455378D01*
X140680292Y-94455378D02*
X140781307Y-94421706D01*
X140781307Y-94421706D02*
X141050681Y-94152332D01*
X139905842Y-95027797D02*
X140377246Y-95499202D01*
X139804827Y-94590065D02*
X140478262Y-94926782D01*
X140478262Y-94926782D02*
X140040529Y-95364515D01*
X131438661Y-91154906D02*
X132011080Y-91053891D01*
X131842722Y-91558967D02*
X132549828Y-90851860D01*
X132549828Y-90851860D02*
X132280454Y-90582486D01*
X132280454Y-90582486D02*
X132179439Y-90548814D01*
X132179439Y-90548814D02*
X132112096Y-90548814D01*
X132112096Y-90548814D02*
X132011080Y-90582486D01*
X132011080Y-90582486D02*
X131910065Y-90683501D01*
X131910065Y-90683501D02*
X131876393Y-90784517D01*
X131876393Y-90784517D02*
X131876393Y-90851860D01*
X131876393Y-90851860D02*
X131910065Y-90952875D01*
X131910065Y-90952875D02*
X132179439Y-91222249D01*
X130765226Y-90481471D02*
X131169287Y-90885532D01*
X130967256Y-90683501D02*
X131674363Y-89976395D01*
X131674363Y-89976395D02*
X131640691Y-90144753D01*
X131640691Y-90144753D02*
X131640691Y-90279440D01*
X131640691Y-90279440D02*
X131674363Y-90380456D01*
X130091790Y-89808036D02*
X130495851Y-90212097D01*
X130293821Y-90010066D02*
X131000928Y-89302959D01*
X131000928Y-89302959D02*
X130967256Y-89471318D01*
X130967256Y-89471318D02*
X130967256Y-89606005D01*
X130967256Y-89606005D02*
X131000928Y-89707020D01*
X144026515Y-85444360D02*
X144074134Y-85491980D01*
X144074134Y-85491980D02*
X144216991Y-85539599D01*
X144216991Y-85539599D02*
X144312229Y-85539599D01*
X144312229Y-85539599D02*
X144455086Y-85491980D01*
X144455086Y-85491980D02*
X144550324Y-85396741D01*
X144550324Y-85396741D02*
X144597943Y-85301503D01*
X144597943Y-85301503D02*
X144645562Y-85111027D01*
X144645562Y-85111027D02*
X144645562Y-84968170D01*
X144645562Y-84968170D02*
X144597943Y-84777694D01*
X144597943Y-84777694D02*
X144550324Y-84682456D01*
X144550324Y-84682456D02*
X144455086Y-84587218D01*
X144455086Y-84587218D02*
X144312229Y-84539599D01*
X144312229Y-84539599D02*
X144216991Y-84539599D01*
X144216991Y-84539599D02*
X144074134Y-84587218D01*
X144074134Y-84587218D02*
X144026515Y-84634837D01*
X143074134Y-85539599D02*
X143645562Y-85539599D01*
X143359848Y-85539599D02*
X143359848Y-84539599D01*
X143359848Y-84539599D02*
X143455086Y-84682456D01*
X143455086Y-84682456D02*
X143550324Y-84777694D01*
X143550324Y-84777694D02*
X143645562Y-84825313D01*
X142597943Y-85539599D02*
X142407467Y-85539599D01*
X142407467Y-85539599D02*
X142312229Y-85491980D01*
X142312229Y-85491980D02*
X142264610Y-85444360D01*
X142264610Y-85444360D02*
X142169372Y-85301503D01*
X142169372Y-85301503D02*
X142121753Y-85111027D01*
X142121753Y-85111027D02*
X142121753Y-84730075D01*
X142121753Y-84730075D02*
X142169372Y-84634837D01*
X142169372Y-84634837D02*
X142216991Y-84587218D01*
X142216991Y-84587218D02*
X142312229Y-84539599D01*
X142312229Y-84539599D02*
X142502705Y-84539599D01*
X142502705Y-84539599D02*
X142597943Y-84587218D01*
X142597943Y-84587218D02*
X142645562Y-84634837D01*
X142645562Y-84634837D02*
X142693181Y-84730075D01*
X142693181Y-84730075D02*
X142693181Y-84968170D01*
X142693181Y-84968170D02*
X142645562Y-85063408D01*
X142645562Y-85063408D02*
X142597943Y-85111027D01*
X142597943Y-85111027D02*
X142502705Y-85158646D01*
X142502705Y-85158646D02*
X142312229Y-85158646D01*
X142312229Y-85158646D02*
X142216991Y-85111027D01*
X142216991Y-85111027D02*
X142169372Y-85063408D01*
X142169372Y-85063408D02*
X142121753Y-84968170D01*
X124113533Y-97047866D02*
X124685952Y-96946851D01*
X124517594Y-97451927D02*
X125224700Y-96744820D01*
X125224700Y-96744820D02*
X124955326Y-96475446D01*
X124955326Y-96475446D02*
X124854311Y-96441774D01*
X124854311Y-96441774D02*
X124786968Y-96441774D01*
X124786968Y-96441774D02*
X124685952Y-96475446D01*
X124685952Y-96475446D02*
X124584937Y-96576461D01*
X124584937Y-96576461D02*
X124551265Y-96677477D01*
X124551265Y-96677477D02*
X124551265Y-96744820D01*
X124551265Y-96744820D02*
X124584937Y-96845835D01*
X124584937Y-96845835D02*
X124854311Y-97115209D01*
X123978846Y-95970370D02*
X123507441Y-96441774D01*
X124416578Y-95869355D02*
X124079861Y-96542790D01*
X124079861Y-96542790D02*
X123642128Y-96105057D01*
X123305410Y-95296935D02*
X122834006Y-95768339D01*
X123743143Y-95195919D02*
X123406426Y-95869354D01*
X123406426Y-95869354D02*
X122968693Y-95431622D01*
X134703856Y-88544954D02*
X134602841Y-87972535D01*
X135107917Y-88140893D02*
X134400810Y-87433787D01*
X134400810Y-87433787D02*
X134131436Y-87703161D01*
X134131436Y-87703161D02*
X134097764Y-87804176D01*
X134097764Y-87804176D02*
X134097764Y-87871519D01*
X134097764Y-87871519D02*
X134131436Y-87972535D01*
X134131436Y-87972535D02*
X134232451Y-88073550D01*
X134232451Y-88073550D02*
X134333467Y-88107222D01*
X134333467Y-88107222D02*
X134400810Y-88107222D01*
X134400810Y-88107222D02*
X134501825Y-88073550D01*
X134501825Y-88073550D02*
X134771199Y-87804176D01*
X133761047Y-88073550D02*
X133289642Y-88544954D01*
X133289642Y-88544954D02*
X134299795Y-88949015D01*
X130934764Y-105233010D02*
X130934764Y-105300354D01*
X130934764Y-105300354D02*
X131002108Y-105435041D01*
X131002108Y-105435041D02*
X131069451Y-105502384D01*
X131069451Y-105502384D02*
X131204138Y-105569728D01*
X131204138Y-105569728D02*
X131338825Y-105569728D01*
X131338825Y-105569728D02*
X131439840Y-105536056D01*
X131439840Y-105536056D02*
X131608199Y-105435041D01*
X131608199Y-105435041D02*
X131709214Y-105334026D01*
X131709214Y-105334026D02*
X131810230Y-105165667D01*
X131810230Y-105165667D02*
X131843901Y-105064652D01*
X131843901Y-105064652D02*
X131843901Y-104929965D01*
X131843901Y-104929965D02*
X131776558Y-104795278D01*
X131776558Y-104795278D02*
X131709214Y-104727934D01*
X131709214Y-104727934D02*
X131574527Y-104660591D01*
X131574527Y-104660591D02*
X131507184Y-104660591D01*
X130193986Y-104626919D02*
X130598047Y-105030980D01*
X130396016Y-104828949D02*
X131103123Y-104121843D01*
X131103123Y-104121843D02*
X131069451Y-104290201D01*
X131069451Y-104290201D02*
X131069451Y-104424888D01*
X131069451Y-104424888D02*
X131103123Y-104525904D01*
X130564375Y-103717781D02*
X130564375Y-103650438D01*
X130564375Y-103650438D02*
X130530703Y-103549423D01*
X130530703Y-103549423D02*
X130362344Y-103381064D01*
X130362344Y-103381064D02*
X130261329Y-103347392D01*
X130261329Y-103347392D02*
X130193985Y-103347392D01*
X130193985Y-103347392D02*
X130092970Y-103381064D01*
X130092970Y-103381064D02*
X130025627Y-103448407D01*
X130025627Y-103448407D02*
X129958283Y-103583094D01*
X129958283Y-103583094D02*
X129958283Y-104391216D01*
X129958283Y-104391216D02*
X129520550Y-103953484D01*
X136564574Y-90494236D02*
X136463559Y-89921817D01*
X136968635Y-90090175D02*
X136261528Y-89383069D01*
X136261528Y-89383069D02*
X135992154Y-89652443D01*
X135992154Y-89652443D02*
X135958482Y-89753458D01*
X135958482Y-89753458D02*
X135958482Y-89820801D01*
X135958482Y-89820801D02*
X135992154Y-89921817D01*
X135992154Y-89921817D02*
X136093169Y-90022832D01*
X136093169Y-90022832D02*
X136194185Y-90056504D01*
X136194185Y-90056504D02*
X136261528Y-90056504D01*
X136261528Y-90056504D02*
X136362543Y-90022832D01*
X136362543Y-90022832D02*
X136631917Y-89753458D01*
X135487078Y-90628923D02*
X135958482Y-91100328D01*
X135386063Y-90191191D02*
X136059498Y-90527908D01*
X136059498Y-90527908D02*
X135621765Y-90965641D01*
X134982001Y-90797282D02*
X134914658Y-90797282D01*
X134914658Y-90797282D02*
X134813643Y-90830954D01*
X134813643Y-90830954D02*
X134645284Y-90999313D01*
X134645284Y-90999313D02*
X134611612Y-91100328D01*
X134611612Y-91100328D02*
X134611612Y-91167672D01*
X134611612Y-91167672D02*
X134645284Y-91268687D01*
X134645284Y-91268687D02*
X134712627Y-91336030D01*
X134712627Y-91336030D02*
X134847314Y-91403374D01*
X134847314Y-91403374D02*
X135655436Y-91403374D01*
X135655436Y-91403374D02*
X135217704Y-91841107D01*
X129651929Y-92980018D02*
X130224348Y-92879003D01*
X130055990Y-93384079D02*
X130763096Y-92676972D01*
X130763096Y-92676972D02*
X130493722Y-92407598D01*
X130493722Y-92407598D02*
X130392707Y-92373926D01*
X130392707Y-92373926D02*
X130325364Y-92373926D01*
X130325364Y-92373926D02*
X130224348Y-92407598D01*
X130224348Y-92407598D02*
X130123333Y-92508613D01*
X130123333Y-92508613D02*
X130089661Y-92609629D01*
X130089661Y-92609629D02*
X130089661Y-92676972D01*
X130089661Y-92676972D02*
X130123333Y-92777987D01*
X130123333Y-92777987D02*
X130392707Y-93047361D01*
X128978494Y-92306583D02*
X129382555Y-92710644D01*
X129180524Y-92508613D02*
X129887631Y-91801507D01*
X129887631Y-91801507D02*
X129853959Y-91969865D01*
X129853959Y-91969865D02*
X129853959Y-92104552D01*
X129853959Y-92104552D02*
X129887631Y-92205568D01*
X129449898Y-91363774D02*
X129012165Y-90926041D01*
X129012165Y-90926041D02*
X128978493Y-91431117D01*
X128978493Y-91431117D02*
X128877478Y-91330102D01*
X128877478Y-91330102D02*
X128776463Y-91296430D01*
X128776463Y-91296430D02*
X128709119Y-91296430D01*
X128709119Y-91296430D02*
X128608104Y-91330102D01*
X128608104Y-91330102D02*
X128439745Y-91498461D01*
X128439745Y-91498461D02*
X128406074Y-91599476D01*
X128406074Y-91599476D02*
X128406074Y-91666819D01*
X128406074Y-91666819D02*
X128439745Y-91767835D01*
X128439745Y-91767835D02*
X128641776Y-91969865D01*
X128641776Y-91969865D02*
X128742791Y-92003537D01*
X128742791Y-92003537D02*
X128810135Y-92003537D01*
X127006621Y-94149754D02*
X127579040Y-94048739D01*
X127410682Y-94553815D02*
X128117788Y-93846708D01*
X128117788Y-93846708D02*
X127848414Y-93577334D01*
X127848414Y-93577334D02*
X127747399Y-93543662D01*
X127747399Y-93543662D02*
X127680056Y-93543662D01*
X127680056Y-93543662D02*
X127579040Y-93577334D01*
X127579040Y-93577334D02*
X127478025Y-93678349D01*
X127478025Y-93678349D02*
X127444353Y-93779365D01*
X127444353Y-93779365D02*
X127444353Y-93846708D01*
X127444353Y-93846708D02*
X127478025Y-93947723D01*
X127478025Y-93947723D02*
X127747399Y-94217097D01*
X126333186Y-93476319D02*
X126737247Y-93880380D01*
X126535216Y-93678349D02*
X127242323Y-92971243D01*
X127242323Y-92971243D02*
X127208651Y-93139601D01*
X127208651Y-93139601D02*
X127208651Y-93274288D01*
X127208651Y-93274288D02*
X127242323Y-93375304D01*
X125996468Y-93139601D02*
X125861781Y-93004914D01*
X125861781Y-93004914D02*
X125828109Y-92903899D01*
X125828109Y-92903899D02*
X125828109Y-92836555D01*
X125828109Y-92836555D02*
X125861781Y-92668197D01*
X125861781Y-92668197D02*
X125962796Y-92499838D01*
X125962796Y-92499838D02*
X126232170Y-92230464D01*
X126232170Y-92230464D02*
X126333185Y-92196792D01*
X126333185Y-92196792D02*
X126400529Y-92196792D01*
X126400529Y-92196792D02*
X126501544Y-92230464D01*
X126501544Y-92230464D02*
X126636231Y-92365151D01*
X126636231Y-92365151D02*
X126669903Y-92466166D01*
X126669903Y-92466166D02*
X126669903Y-92533510D01*
X126669903Y-92533510D02*
X126636231Y-92634525D01*
X126636231Y-92634525D02*
X126467872Y-92802884D01*
X126467872Y-92802884D02*
X126366857Y-92836555D01*
X126366857Y-92836555D02*
X126299514Y-92836555D01*
X126299514Y-92836555D02*
X126198498Y-92802884D01*
X126198498Y-92802884D02*
X126063811Y-92668197D01*
X126063811Y-92668197D02*
X126030140Y-92567181D01*
X126030140Y-92567181D02*
X126030140Y-92499838D01*
X126030140Y-92499838D02*
X126063811Y-92398823D01*
X124999363Y-96076974D02*
X125571782Y-95975959D01*
X125403424Y-96481035D02*
X126110530Y-95773928D01*
X126110530Y-95773928D02*
X125841156Y-95504554D01*
X125841156Y-95504554D02*
X125740141Y-95470882D01*
X125740141Y-95470882D02*
X125672798Y-95470882D01*
X125672798Y-95470882D02*
X125571782Y-95504554D01*
X125571782Y-95504554D02*
X125470767Y-95605569D01*
X125470767Y-95605569D02*
X125437095Y-95706585D01*
X125437095Y-95706585D02*
X125437095Y-95773928D01*
X125437095Y-95773928D02*
X125470767Y-95874943D01*
X125470767Y-95874943D02*
X125740141Y-96144317D01*
X125369752Y-95167837D02*
X125369752Y-95100493D01*
X125369752Y-95100493D02*
X125336080Y-94999478D01*
X125336080Y-94999478D02*
X125167721Y-94831119D01*
X125167721Y-94831119D02*
X125066706Y-94797447D01*
X125066706Y-94797447D02*
X124999363Y-94797447D01*
X124999363Y-94797447D02*
X124898347Y-94831119D01*
X124898347Y-94831119D02*
X124831004Y-94898463D01*
X124831004Y-94898463D02*
X124763660Y-95033150D01*
X124763660Y-95033150D02*
X124763660Y-95841272D01*
X124763660Y-95841272D02*
X124325928Y-95403539D01*
X124393271Y-94056669D02*
X124729989Y-94393386D01*
X124729989Y-94393386D02*
X124426943Y-94763775D01*
X124426943Y-94763775D02*
X124426943Y-94696432D01*
X124426943Y-94696432D02*
X124393271Y-94595417D01*
X124393271Y-94595417D02*
X124224912Y-94427058D01*
X124224912Y-94427058D02*
X124123897Y-94393386D01*
X124123897Y-94393386D02*
X124056553Y-94393386D01*
X124056553Y-94393386D02*
X123955538Y-94427058D01*
X123955538Y-94427058D02*
X123787179Y-94595417D01*
X123787179Y-94595417D02*
X123753508Y-94696432D01*
X123753508Y-94696432D02*
X123753508Y-94763775D01*
X123753508Y-94763775D02*
X123787179Y-94864791D01*
X123787179Y-94864791D02*
X123955538Y-95033149D01*
X123955538Y-95033149D02*
X124056553Y-95066821D01*
X124056553Y-95066821D02*
X124123897Y-95066821D01*
X141866656Y-95758554D02*
X141765641Y-95186135D01*
X142270717Y-95354493D02*
X141563610Y-94647387D01*
X141563610Y-94647387D02*
X141294236Y-94916761D01*
X141294236Y-94916761D02*
X141260564Y-95017776D01*
X141260564Y-95017776D02*
X141260564Y-95085119D01*
X141260564Y-95085119D02*
X141294236Y-95186135D01*
X141294236Y-95186135D02*
X141395251Y-95287150D01*
X141395251Y-95287150D02*
X141496267Y-95320822D01*
X141496267Y-95320822D02*
X141563610Y-95320822D01*
X141563610Y-95320822D02*
X141664625Y-95287150D01*
X141664625Y-95287150D02*
X141933999Y-95017776D01*
X140923847Y-95287150D02*
X140486114Y-95724883D01*
X140486114Y-95724883D02*
X140991190Y-95758554D01*
X140991190Y-95758554D02*
X140890175Y-95859570D01*
X140890175Y-95859570D02*
X140856503Y-95960585D01*
X140856503Y-95960585D02*
X140856503Y-96027928D01*
X140856503Y-96027928D02*
X140890175Y-96128944D01*
X140890175Y-96128944D02*
X141058534Y-96297302D01*
X141058534Y-96297302D02*
X141159549Y-96330974D01*
X141159549Y-96330974D02*
X141226893Y-96330974D01*
X141226893Y-96330974D02*
X141327908Y-96297302D01*
X141327908Y-96297302D02*
X141529938Y-96095272D01*
X141529938Y-96095272D02*
X141563610Y-95994257D01*
X141563610Y-95994257D02*
X141563610Y-95926913D01*
X126116963Y-95060974D02*
X126689382Y-94959959D01*
X126521024Y-95465035D02*
X127228130Y-94757928D01*
X127228130Y-94757928D02*
X126958756Y-94488554D01*
X126958756Y-94488554D02*
X126857741Y-94454882D01*
X126857741Y-94454882D02*
X126790398Y-94454882D01*
X126790398Y-94454882D02*
X126689382Y-94488554D01*
X126689382Y-94488554D02*
X126588367Y-94589569D01*
X126588367Y-94589569D02*
X126554695Y-94690585D01*
X126554695Y-94690585D02*
X126554695Y-94757928D01*
X126554695Y-94757928D02*
X126588367Y-94858943D01*
X126588367Y-94858943D02*
X126857741Y-95128317D01*
X126487352Y-94151837D02*
X126487352Y-94084493D01*
X126487352Y-94084493D02*
X126453680Y-93983478D01*
X126453680Y-93983478D02*
X126285321Y-93815119D01*
X126285321Y-93815119D02*
X126184306Y-93781447D01*
X126184306Y-93781447D02*
X126116963Y-93781447D01*
X126116963Y-93781447D02*
X126015947Y-93815119D01*
X126015947Y-93815119D02*
X125948604Y-93882463D01*
X125948604Y-93882463D02*
X125881260Y-94017150D01*
X125881260Y-94017150D02*
X125881260Y-94825272D01*
X125881260Y-94825272D02*
X125443528Y-94387539D01*
X125712901Y-93242699D02*
X125645558Y-93175356D01*
X125645558Y-93175356D02*
X125544543Y-93141684D01*
X125544543Y-93141684D02*
X125477199Y-93141684D01*
X125477199Y-93141684D02*
X125376184Y-93175356D01*
X125376184Y-93175356D02*
X125207825Y-93276371D01*
X125207825Y-93276371D02*
X125039466Y-93444730D01*
X125039466Y-93444730D02*
X124938451Y-93613088D01*
X124938451Y-93613088D02*
X124904779Y-93714104D01*
X124904779Y-93714104D02*
X124904779Y-93781447D01*
X124904779Y-93781447D02*
X124938451Y-93882462D01*
X124938451Y-93882462D02*
X125005795Y-93949806D01*
X125005795Y-93949806D02*
X125106810Y-93983478D01*
X125106810Y-93983478D02*
X125174153Y-93983478D01*
X125174153Y-93983478D02*
X125275169Y-93949806D01*
X125275169Y-93949806D02*
X125443527Y-93848791D01*
X125443527Y-93848791D02*
X125611886Y-93680432D01*
X125611886Y-93680432D02*
X125712901Y-93512073D01*
X125712901Y-93512073D02*
X125746573Y-93411058D01*
X125746573Y-93411058D02*
X125746573Y-93343714D01*
X125746573Y-93343714D02*
X125712901Y-93242699D01*
X148724857Y-105458419D02*
X149058190Y-104982228D01*
X149296285Y-105458419D02*
X149296285Y-104458419D01*
X149296285Y-104458419D02*
X148915333Y-104458419D01*
X148915333Y-104458419D02*
X148820095Y-104506038D01*
X148820095Y-104506038D02*
X148772476Y-104553657D01*
X148772476Y-104553657D02*
X148724857Y-104648895D01*
X148724857Y-104648895D02*
X148724857Y-104791752D01*
X148724857Y-104791752D02*
X148772476Y-104886990D01*
X148772476Y-104886990D02*
X148820095Y-104934609D01*
X148820095Y-104934609D02*
X148915333Y-104982228D01*
X148915333Y-104982228D02*
X149296285Y-104982228D01*
X147820095Y-104458419D02*
X148296285Y-104458419D01*
X148296285Y-104458419D02*
X148343904Y-104934609D01*
X148343904Y-104934609D02*
X148296285Y-104886990D01*
X148296285Y-104886990D02*
X148201047Y-104839371D01*
X148201047Y-104839371D02*
X147962952Y-104839371D01*
X147962952Y-104839371D02*
X147867714Y-104886990D01*
X147867714Y-104886990D02*
X147820095Y-104934609D01*
X147820095Y-104934609D02*
X147772476Y-105029847D01*
X147772476Y-105029847D02*
X147772476Y-105267942D01*
X147772476Y-105267942D02*
X147820095Y-105363180D01*
X147820095Y-105363180D02*
X147867714Y-105410800D01*
X147867714Y-105410800D02*
X147962952Y-105458419D01*
X147962952Y-105458419D02*
X148201047Y-105458419D01*
X148201047Y-105458419D02*
X148296285Y-105410800D01*
X148296285Y-105410800D02*
X148343904Y-105363180D01*
X147153428Y-104458419D02*
X147058190Y-104458419D01*
X147058190Y-104458419D02*
X146962952Y-104506038D01*
X146962952Y-104506038D02*
X146915333Y-104553657D01*
X146915333Y-104553657D02*
X146867714Y-104648895D01*
X146867714Y-104648895D02*
X146820095Y-104839371D01*
X146820095Y-104839371D02*
X146820095Y-105077466D01*
X146820095Y-105077466D02*
X146867714Y-105267942D01*
X146867714Y-105267942D02*
X146915333Y-105363180D01*
X146915333Y-105363180D02*
X146962952Y-105410800D01*
X146962952Y-105410800D02*
X147058190Y-105458419D01*
X147058190Y-105458419D02*
X147153428Y-105458419D01*
X147153428Y-105458419D02*
X147248666Y-105410800D01*
X147248666Y-105410800D02*
X147296285Y-105363180D01*
X147296285Y-105363180D02*
X147343904Y-105267942D01*
X147343904Y-105267942D02*
X147391523Y-105077466D01*
X147391523Y-105077466D02*
X147391523Y-104839371D01*
X147391523Y-104839371D02*
X147343904Y-104648895D01*
X147343904Y-104648895D02*
X147296285Y-104553657D01*
X147296285Y-104553657D02*
X147248666Y-104506038D01*
X147248666Y-104506038D02*
X147153428Y-104458419D01*
X137428174Y-91357836D02*
X137327159Y-90785417D01*
X137832235Y-90953775D02*
X137125128Y-90246669D01*
X137125128Y-90246669D02*
X136855754Y-90516043D01*
X136855754Y-90516043D02*
X136822082Y-90617058D01*
X136822082Y-90617058D02*
X136822082Y-90684401D01*
X136822082Y-90684401D02*
X136855754Y-90785417D01*
X136855754Y-90785417D02*
X136956769Y-90886432D01*
X136956769Y-90886432D02*
X137057785Y-90920104D01*
X137057785Y-90920104D02*
X137125128Y-90920104D01*
X137125128Y-90920104D02*
X137226143Y-90886432D01*
X137226143Y-90886432D02*
X137495517Y-90617058D01*
X136350678Y-91492523D02*
X136822082Y-91963928D01*
X136249663Y-91054791D02*
X136923098Y-91391508D01*
X136923098Y-91391508D02*
X136485365Y-91829241D01*
X136081304Y-92704707D02*
X136485365Y-92300646D01*
X136283334Y-92502676D02*
X135576227Y-91795569D01*
X135576227Y-91795569D02*
X135744586Y-91829241D01*
X135744586Y-91829241D02*
X135879273Y-91829241D01*
X135879273Y-91829241D02*
X135980288Y-91795569D01*
X132670163Y-103417574D02*
X133242582Y-103316559D01*
X133074224Y-103821635D02*
X133781330Y-103114528D01*
X133781330Y-103114528D02*
X133511956Y-102845154D01*
X133511956Y-102845154D02*
X133410941Y-102811482D01*
X133410941Y-102811482D02*
X133343598Y-102811482D01*
X133343598Y-102811482D02*
X133242582Y-102845154D01*
X133242582Y-102845154D02*
X133141567Y-102946169D01*
X133141567Y-102946169D02*
X133107895Y-103047185D01*
X133107895Y-103047185D02*
X133107895Y-103114528D01*
X133107895Y-103114528D02*
X133141567Y-103215543D01*
X133141567Y-103215543D02*
X133410941Y-103484917D01*
X133141567Y-102474765D02*
X132703834Y-102037032D01*
X132703834Y-102037032D02*
X132670163Y-102542108D01*
X132670163Y-102542108D02*
X132569147Y-102441093D01*
X132569147Y-102441093D02*
X132468132Y-102407421D01*
X132468132Y-102407421D02*
X132400789Y-102407421D01*
X132400789Y-102407421D02*
X132299773Y-102441093D01*
X132299773Y-102441093D02*
X132131415Y-102609452D01*
X132131415Y-102609452D02*
X132097743Y-102710467D01*
X132097743Y-102710467D02*
X132097743Y-102777811D01*
X132097743Y-102777811D02*
X132131415Y-102878826D01*
X132131415Y-102878826D02*
X132333445Y-103080856D01*
X132333445Y-103080856D02*
X132434460Y-103114528D01*
X132434460Y-103114528D02*
X132501804Y-103114528D01*
X132064071Y-101397269D02*
X132400789Y-101733986D01*
X132400789Y-101733986D02*
X132097743Y-102104375D01*
X132097743Y-102104375D02*
X132097743Y-102037032D01*
X132097743Y-102037032D02*
X132064071Y-101936017D01*
X132064071Y-101936017D02*
X131895712Y-101767658D01*
X131895712Y-101767658D02*
X131794697Y-101733986D01*
X131794697Y-101733986D02*
X131727353Y-101733986D01*
X131727353Y-101733986D02*
X131626338Y-101767658D01*
X131626338Y-101767658D02*
X131457979Y-101936017D01*
X131457979Y-101936017D02*
X131424308Y-102037032D01*
X131424308Y-102037032D02*
X131424308Y-102104375D01*
X131424308Y-102104375D02*
X131457979Y-102205391D01*
X131457979Y-102205391D02*
X131626338Y-102373749D01*
X131626338Y-102373749D02*
X131727353Y-102407421D01*
X131727353Y-102407421D02*
X131794697Y-102407421D01*
X128758563Y-93892574D02*
X129330982Y-93791559D01*
X129162624Y-94296635D02*
X129869730Y-93589528D01*
X129869730Y-93589528D02*
X129600356Y-93320154D01*
X129600356Y-93320154D02*
X129499341Y-93286482D01*
X129499341Y-93286482D02*
X129431998Y-93286482D01*
X129431998Y-93286482D02*
X129330982Y-93320154D01*
X129330982Y-93320154D02*
X129229967Y-93421169D01*
X129229967Y-93421169D02*
X129196295Y-93522185D01*
X129196295Y-93522185D02*
X129196295Y-93589528D01*
X129196295Y-93589528D02*
X129229967Y-93690543D01*
X129229967Y-93690543D02*
X129499341Y-93959917D01*
X128085128Y-93219139D02*
X128489189Y-93623200D01*
X128287158Y-93421169D02*
X128994265Y-92714063D01*
X128994265Y-92714063D02*
X128960593Y-92882421D01*
X128960593Y-92882421D02*
X128960593Y-93017108D01*
X128960593Y-93017108D02*
X128994265Y-93118124D01*
X127950440Y-92141643D02*
X127479036Y-92613047D01*
X128388173Y-92040627D02*
X128051456Y-92714062D01*
X128051456Y-92714062D02*
X127613723Y-92276330D01*
X144058232Y-97101416D02*
X143957217Y-96528997D01*
X144462293Y-96697355D02*
X143755186Y-95990249D01*
X143755186Y-95990249D02*
X143485812Y-96259623D01*
X143485812Y-96259623D02*
X143452140Y-96360638D01*
X143452140Y-96360638D02*
X143452140Y-96427981D01*
X143452140Y-96427981D02*
X143485812Y-96528997D01*
X143485812Y-96528997D02*
X143586827Y-96630012D01*
X143586827Y-96630012D02*
X143687843Y-96663684D01*
X143687843Y-96663684D02*
X143755186Y-96663684D01*
X143755186Y-96663684D02*
X143856201Y-96630012D01*
X143856201Y-96630012D02*
X144125575Y-96360638D01*
X143115423Y-96630012D02*
X142677690Y-97067745D01*
X142677690Y-97067745D02*
X143182766Y-97101416D01*
X143182766Y-97101416D02*
X143081751Y-97202432D01*
X143081751Y-97202432D02*
X143048079Y-97303447D01*
X143048079Y-97303447D02*
X143048079Y-97370790D01*
X143048079Y-97370790D02*
X143081751Y-97471806D01*
X143081751Y-97471806D02*
X143250110Y-97640164D01*
X143250110Y-97640164D02*
X143351125Y-97673836D01*
X143351125Y-97673836D02*
X143418469Y-97673836D01*
X143418469Y-97673836D02*
X143519484Y-97640164D01*
X143519484Y-97640164D02*
X143721514Y-97438134D01*
X143721514Y-97438134D02*
X143755186Y-97337119D01*
X143755186Y-97337119D02*
X143755186Y-97269775D01*
X143048079Y-98111569D02*
X142913392Y-98246256D01*
X142913392Y-98246256D02*
X142812377Y-98279928D01*
X142812377Y-98279928D02*
X142745033Y-98279928D01*
X142745033Y-98279928D02*
X142576675Y-98246256D01*
X142576675Y-98246256D02*
X142408316Y-98145241D01*
X142408316Y-98145241D02*
X142138942Y-97875867D01*
X142138942Y-97875867D02*
X142105270Y-97774852D01*
X142105270Y-97774852D02*
X142105270Y-97707508D01*
X142105270Y-97707508D02*
X142138942Y-97606493D01*
X142138942Y-97606493D02*
X142273629Y-97471806D01*
X142273629Y-97471806D02*
X142374644Y-97438134D01*
X142374644Y-97438134D02*
X142441988Y-97438134D01*
X142441988Y-97438134D02*
X142543003Y-97471806D01*
X142543003Y-97471806D02*
X142711362Y-97640165D01*
X142711362Y-97640165D02*
X142745033Y-97741180D01*
X142745033Y-97741180D02*
X142745033Y-97808523D01*
X142745033Y-97808523D02*
X142711362Y-97909539D01*
X142711362Y-97909539D02*
X142576675Y-98044226D01*
X142576675Y-98044226D02*
X142475659Y-98077897D01*
X142475659Y-98077897D02*
X142408316Y-98077897D01*
X142408316Y-98077897D02*
X142307301Y-98044226D01*
X133764714Y-87633734D02*
X133663699Y-87061315D01*
X134168775Y-87229673D02*
X133461668Y-86522567D01*
X133461668Y-86522567D02*
X133192294Y-86791941D01*
X133192294Y-86791941D02*
X133158622Y-86892956D01*
X133158622Y-86892956D02*
X133158622Y-86960299D01*
X133158622Y-86960299D02*
X133192294Y-87061315D01*
X133192294Y-87061315D02*
X133293309Y-87162330D01*
X133293309Y-87162330D02*
X133394325Y-87196002D01*
X133394325Y-87196002D02*
X133461668Y-87196002D01*
X133461668Y-87196002D02*
X133562683Y-87162330D01*
X133562683Y-87162330D02*
X133832057Y-86892956D01*
X132956592Y-87633734D02*
X132990264Y-87532719D01*
X132990264Y-87532719D02*
X132990264Y-87465376D01*
X132990264Y-87465376D02*
X132956592Y-87364360D01*
X132956592Y-87364360D02*
X132922920Y-87330689D01*
X132922920Y-87330689D02*
X132821905Y-87297017D01*
X132821905Y-87297017D02*
X132754561Y-87297017D01*
X132754561Y-87297017D02*
X132653546Y-87330689D01*
X132653546Y-87330689D02*
X132518859Y-87465376D01*
X132518859Y-87465376D02*
X132485187Y-87566391D01*
X132485187Y-87566391D02*
X132485187Y-87633734D01*
X132485187Y-87633734D02*
X132518859Y-87734750D01*
X132518859Y-87734750D02*
X132552531Y-87768421D01*
X132552531Y-87768421D02*
X132653546Y-87802093D01*
X132653546Y-87802093D02*
X132720890Y-87802093D01*
X132720890Y-87802093D02*
X132821905Y-87768421D01*
X132821905Y-87768421D02*
X132956592Y-87633734D01*
X132956592Y-87633734D02*
X133057607Y-87600063D01*
X133057607Y-87600063D02*
X133124951Y-87600063D01*
X133124951Y-87600063D02*
X133225966Y-87633734D01*
X133225966Y-87633734D02*
X133360653Y-87768421D01*
X133360653Y-87768421D02*
X133394325Y-87869437D01*
X133394325Y-87869437D02*
X133394325Y-87936780D01*
X133394325Y-87936780D02*
X133360653Y-88037795D01*
X133360653Y-88037795D02*
X133225966Y-88172482D01*
X133225966Y-88172482D02*
X133124951Y-88206154D01*
X133124951Y-88206154D02*
X133057607Y-88206154D01*
X133057607Y-88206154D02*
X132956592Y-88172482D01*
X132956592Y-88172482D02*
X132821905Y-88037795D01*
X132821905Y-88037795D02*
X132788233Y-87936780D01*
X132788233Y-87936780D02*
X132788233Y-87869437D01*
X132788233Y-87869437D02*
X132821905Y-87768421D01*
X139174256Y-93116954D02*
X139073241Y-92544535D01*
X139578317Y-92712893D02*
X138871210Y-92005787D01*
X138871210Y-92005787D02*
X138601836Y-92275161D01*
X138601836Y-92275161D02*
X138568164Y-92376176D01*
X138568164Y-92376176D02*
X138568164Y-92443519D01*
X138568164Y-92443519D02*
X138601836Y-92544535D01*
X138601836Y-92544535D02*
X138702851Y-92645550D01*
X138702851Y-92645550D02*
X138803867Y-92679222D01*
X138803867Y-92679222D02*
X138871210Y-92679222D01*
X138871210Y-92679222D02*
X138972225Y-92645550D01*
X138972225Y-92645550D02*
X139241599Y-92376176D01*
X137861058Y-93015939D02*
X137995745Y-92881252D01*
X137995745Y-92881252D02*
X138096760Y-92847580D01*
X138096760Y-92847580D02*
X138164103Y-92847580D01*
X138164103Y-92847580D02*
X138332462Y-92881252D01*
X138332462Y-92881252D02*
X138500821Y-92982267D01*
X138500821Y-92982267D02*
X138770195Y-93251641D01*
X138770195Y-93251641D02*
X138803867Y-93352657D01*
X138803867Y-93352657D02*
X138803867Y-93420000D01*
X138803867Y-93420000D02*
X138770195Y-93521015D01*
X138770195Y-93521015D02*
X138635508Y-93655702D01*
X138635508Y-93655702D02*
X138534493Y-93689374D01*
X138534493Y-93689374D02*
X138467149Y-93689374D01*
X138467149Y-93689374D02*
X138366134Y-93655702D01*
X138366134Y-93655702D02*
X138197775Y-93487344D01*
X138197775Y-93487344D02*
X138164103Y-93386328D01*
X138164103Y-93386328D02*
X138164103Y-93318985D01*
X138164103Y-93318985D02*
X138197775Y-93217970D01*
X138197775Y-93217970D02*
X138332462Y-93083283D01*
X138332462Y-93083283D02*
X138433477Y-93049611D01*
X138433477Y-93049611D02*
X138500821Y-93049611D01*
X138500821Y-93049611D02*
X138601836Y-93083283D01*
X131731021Y-104335154D02*
X132303440Y-104234139D01*
X132135082Y-104739215D02*
X132842188Y-104032108D01*
X132842188Y-104032108D02*
X132572814Y-103762734D01*
X132572814Y-103762734D02*
X132471799Y-103729062D01*
X132471799Y-103729062D02*
X132404456Y-103729062D01*
X132404456Y-103729062D02*
X132303440Y-103762734D01*
X132303440Y-103762734D02*
X132202425Y-103863749D01*
X132202425Y-103863749D02*
X132168753Y-103964765D01*
X132168753Y-103964765D02*
X132168753Y-104032108D01*
X132168753Y-104032108D02*
X132202425Y-104133123D01*
X132202425Y-104133123D02*
X132471799Y-104402497D01*
X132202425Y-103392345D02*
X131764692Y-102954612D01*
X131764692Y-102954612D02*
X131731021Y-103459688D01*
X131731021Y-103459688D02*
X131630005Y-103358673D01*
X131630005Y-103358673D02*
X131528990Y-103325001D01*
X131528990Y-103325001D02*
X131461647Y-103325001D01*
X131461647Y-103325001D02*
X131360631Y-103358673D01*
X131360631Y-103358673D02*
X131192273Y-103527032D01*
X131192273Y-103527032D02*
X131158601Y-103628047D01*
X131158601Y-103628047D02*
X131158601Y-103695391D01*
X131158601Y-103695391D02*
X131192273Y-103796406D01*
X131192273Y-103796406D02*
X131394303Y-103998436D01*
X131394303Y-103998436D02*
X131495318Y-104032108D01*
X131495318Y-104032108D02*
X131562662Y-104032108D01*
X130922898Y-102584223D02*
X130451494Y-103055627D01*
X131360631Y-102483207D02*
X131023914Y-103156642D01*
X131023914Y-103156642D02*
X130586181Y-102718910D01*
X132824256Y-86714310D02*
X132723241Y-86141891D01*
X133228317Y-86310249D02*
X132521210Y-85603143D01*
X132521210Y-85603143D02*
X132251836Y-85872517D01*
X132251836Y-85872517D02*
X132218164Y-85973532D01*
X132218164Y-85973532D02*
X132218164Y-86040875D01*
X132218164Y-86040875D02*
X132251836Y-86141891D01*
X132251836Y-86141891D02*
X132352851Y-86242906D01*
X132352851Y-86242906D02*
X132453867Y-86276578D01*
X132453867Y-86276578D02*
X132521210Y-86276578D01*
X132521210Y-86276578D02*
X132622225Y-86242906D01*
X132622225Y-86242906D02*
X132891599Y-85973532D01*
X132487538Y-87051028D02*
X132352851Y-87185715D01*
X132352851Y-87185715D02*
X132251836Y-87219387D01*
X132251836Y-87219387D02*
X132184493Y-87219387D01*
X132184493Y-87219387D02*
X132016134Y-87185715D01*
X132016134Y-87185715D02*
X131847775Y-87084700D01*
X131847775Y-87084700D02*
X131578401Y-86815326D01*
X131578401Y-86815326D02*
X131544729Y-86714310D01*
X131544729Y-86714310D02*
X131544729Y-86646967D01*
X131544729Y-86646967D02*
X131578401Y-86545952D01*
X131578401Y-86545952D02*
X131713088Y-86411265D01*
X131713088Y-86411265D02*
X131814103Y-86377593D01*
X131814103Y-86377593D02*
X131881447Y-86377593D01*
X131881447Y-86377593D02*
X131982462Y-86411265D01*
X131982462Y-86411265D02*
X132150821Y-86579623D01*
X132150821Y-86579623D02*
X132184493Y-86680639D01*
X132184493Y-86680639D02*
X132184493Y-86747982D01*
X132184493Y-86747982D02*
X132150821Y-86848997D01*
X132150821Y-86848997D02*
X132016134Y-86983684D01*
X132016134Y-86983684D02*
X131915119Y-87017356D01*
X131915119Y-87017356D02*
X131847775Y-87017356D01*
X131847775Y-87017356D02*
X131746760Y-86983684D01*
X135700974Y-89630636D02*
X135599959Y-89058217D01*
X136105035Y-89226575D02*
X135397928Y-88519469D01*
X135397928Y-88519469D02*
X135128554Y-88788843D01*
X135128554Y-88788843D02*
X135094882Y-88889858D01*
X135094882Y-88889858D02*
X135094882Y-88957201D01*
X135094882Y-88957201D02*
X135128554Y-89058217D01*
X135128554Y-89058217D02*
X135229569Y-89159232D01*
X135229569Y-89159232D02*
X135330585Y-89192904D01*
X135330585Y-89192904D02*
X135397928Y-89192904D01*
X135397928Y-89192904D02*
X135498943Y-89159232D01*
X135498943Y-89159232D02*
X135768317Y-88889858D01*
X134623478Y-89765323D02*
X135094882Y-90236728D01*
X134522463Y-89327591D02*
X135195898Y-89664308D01*
X135195898Y-89664308D02*
X134758165Y-90102041D01*
X134084730Y-89832667D02*
X133646997Y-90270400D01*
X133646997Y-90270400D02*
X134152073Y-90304072D01*
X134152073Y-90304072D02*
X134051058Y-90405087D01*
X134051058Y-90405087D02*
X134017386Y-90506102D01*
X134017386Y-90506102D02*
X134017386Y-90573446D01*
X134017386Y-90573446D02*
X134051058Y-90674461D01*
X134051058Y-90674461D02*
X134219417Y-90842820D01*
X134219417Y-90842820D02*
X134320432Y-90876491D01*
X134320432Y-90876491D02*
X134387775Y-90876491D01*
X134387775Y-90876491D02*
X134488791Y-90842820D01*
X134488791Y-90842820D02*
X134690821Y-90640789D01*
X134690821Y-90640789D02*
X134724493Y-90539774D01*
X134724493Y-90539774D02*
X134724493Y-90472430D01*
X130545295Y-92067462D02*
X131117714Y-91966447D01*
X130949356Y-92471523D02*
X131656462Y-91764416D01*
X131656462Y-91764416D02*
X131387088Y-91495042D01*
X131387088Y-91495042D02*
X131286073Y-91461370D01*
X131286073Y-91461370D02*
X131218730Y-91461370D01*
X131218730Y-91461370D02*
X131117714Y-91495042D01*
X131117714Y-91495042D02*
X131016699Y-91596057D01*
X131016699Y-91596057D02*
X130983027Y-91697073D01*
X130983027Y-91697073D02*
X130983027Y-91764416D01*
X130983027Y-91764416D02*
X131016699Y-91865431D01*
X131016699Y-91865431D02*
X131286073Y-92134805D01*
X129871860Y-91394027D02*
X130275921Y-91798088D01*
X130073890Y-91596057D02*
X130780997Y-90888951D01*
X130780997Y-90888951D02*
X130747325Y-91057309D01*
X130747325Y-91057309D02*
X130747325Y-91191996D01*
X130747325Y-91191996D02*
X130780997Y-91293012D01*
X130242249Y-90484889D02*
X130242249Y-90417546D01*
X130242249Y-90417546D02*
X130208577Y-90316531D01*
X130208577Y-90316531D02*
X130040218Y-90148172D01*
X130040218Y-90148172D02*
X129939203Y-90114500D01*
X129939203Y-90114500D02*
X129871859Y-90114500D01*
X129871859Y-90114500D02*
X129770844Y-90148172D01*
X129770844Y-90148172D02*
X129703501Y-90215515D01*
X129703501Y-90215515D02*
X129636157Y-90350202D01*
X129636157Y-90350202D02*
X129636157Y-91158324D01*
X129636157Y-91158324D02*
X129198424Y-90720592D01*
X140088656Y-93980554D02*
X139987641Y-93408135D01*
X140492717Y-93576493D02*
X139785610Y-92869387D01*
X139785610Y-92869387D02*
X139516236Y-93138761D01*
X139516236Y-93138761D02*
X139482564Y-93239776D01*
X139482564Y-93239776D02*
X139482564Y-93307119D01*
X139482564Y-93307119D02*
X139516236Y-93408135D01*
X139516236Y-93408135D02*
X139617251Y-93509150D01*
X139617251Y-93509150D02*
X139718267Y-93542822D01*
X139718267Y-93542822D02*
X139785610Y-93542822D01*
X139785610Y-93542822D02*
X139886625Y-93509150D01*
X139886625Y-93509150D02*
X140155999Y-93239776D01*
X138741786Y-93913211D02*
X139078503Y-93576493D01*
X139078503Y-93576493D02*
X139448893Y-93879539D01*
X139448893Y-93879539D02*
X139381549Y-93879539D01*
X139381549Y-93879539D02*
X139280534Y-93913211D01*
X139280534Y-93913211D02*
X139112175Y-94081570D01*
X139112175Y-94081570D02*
X139078503Y-94182585D01*
X139078503Y-94182585D02*
X139078503Y-94249928D01*
X139078503Y-94249928D02*
X139112175Y-94350944D01*
X139112175Y-94350944D02*
X139280534Y-94519302D01*
X139280534Y-94519302D02*
X139381549Y-94552974D01*
X139381549Y-94552974D02*
X139448893Y-94552974D01*
X139448893Y-94552974D02*
X139549908Y-94519302D01*
X139549908Y-94519302D02*
X139718267Y-94350944D01*
X139718267Y-94350944D02*
X139751938Y-94249928D01*
X139751938Y-94249928D02*
X139751938Y-94182585D01*
X132332027Y-90242350D02*
X132904446Y-90141335D01*
X132736088Y-90646411D02*
X133443194Y-89939304D01*
X133443194Y-89939304D02*
X133173820Y-89669930D01*
X133173820Y-89669930D02*
X133072805Y-89636258D01*
X133072805Y-89636258D02*
X133005462Y-89636258D01*
X133005462Y-89636258D02*
X132904446Y-89669930D01*
X132904446Y-89669930D02*
X132803431Y-89770945D01*
X132803431Y-89770945D02*
X132769759Y-89871961D01*
X132769759Y-89871961D02*
X132769759Y-89939304D01*
X132769759Y-89939304D02*
X132803431Y-90040319D01*
X132803431Y-90040319D02*
X133072805Y-90309693D01*
X131658592Y-89568915D02*
X132062653Y-89972976D01*
X131860622Y-89770945D02*
X132567729Y-89063839D01*
X132567729Y-89063839D02*
X132534057Y-89232197D01*
X132534057Y-89232197D02*
X132534057Y-89366884D01*
X132534057Y-89366884D02*
X132567729Y-89467900D01*
X131927965Y-88424075D02*
X131860622Y-88356732D01*
X131860622Y-88356732D02*
X131759607Y-88323060D01*
X131759607Y-88323060D02*
X131692263Y-88323060D01*
X131692263Y-88323060D02*
X131591248Y-88356732D01*
X131591248Y-88356732D02*
X131422889Y-88457747D01*
X131422889Y-88457747D02*
X131254530Y-88626106D01*
X131254530Y-88626106D02*
X131153515Y-88794464D01*
X131153515Y-88794464D02*
X131119843Y-88895480D01*
X131119843Y-88895480D02*
X131119843Y-88962823D01*
X131119843Y-88962823D02*
X131153515Y-89063838D01*
X131153515Y-89063838D02*
X131220859Y-89131182D01*
X131220859Y-89131182D02*
X131321874Y-89164854D01*
X131321874Y-89164854D02*
X131389217Y-89164854D01*
X131389217Y-89164854D02*
X131490233Y-89131182D01*
X131490233Y-89131182D02*
X131658591Y-89030167D01*
X131658591Y-89030167D02*
X131826950Y-88861808D01*
X131826950Y-88861808D02*
X131927965Y-88693449D01*
X131927965Y-88693449D02*
X131961637Y-88592434D01*
X131961637Y-88592434D02*
X131961637Y-88525090D01*
X131961637Y-88525090D02*
X131927965Y-88424075D01*
X126953180Y-73017142D02*
X127000800Y-72969523D01*
X127000800Y-72969523D02*
X127048419Y-72826666D01*
X127048419Y-72826666D02*
X127048419Y-72731428D01*
X127048419Y-72731428D02*
X127000800Y-72588571D01*
X127000800Y-72588571D02*
X126905561Y-72493333D01*
X126905561Y-72493333D02*
X126810323Y-72445714D01*
X126810323Y-72445714D02*
X126619847Y-72398095D01*
X126619847Y-72398095D02*
X126476990Y-72398095D01*
X126476990Y-72398095D02*
X126286514Y-72445714D01*
X126286514Y-72445714D02*
X126191276Y-72493333D01*
X126191276Y-72493333D02*
X126096038Y-72588571D01*
X126096038Y-72588571D02*
X126048419Y-72731428D01*
X126048419Y-72731428D02*
X126048419Y-72826666D01*
X126048419Y-72826666D02*
X126096038Y-72969523D01*
X126096038Y-72969523D02*
X126143657Y-73017142D01*
X126143657Y-73398095D02*
X126096038Y-73445714D01*
X126096038Y-73445714D02*
X126048419Y-73540952D01*
X126048419Y-73540952D02*
X126048419Y-73779047D01*
X126048419Y-73779047D02*
X126096038Y-73874285D01*
X126096038Y-73874285D02*
X126143657Y-73921904D01*
X126143657Y-73921904D02*
X126238895Y-73969523D01*
X126238895Y-73969523D02*
X126334133Y-73969523D01*
X126334133Y-73969523D02*
X126476990Y-73921904D01*
X126476990Y-73921904D02*
X127048419Y-73350476D01*
X127048419Y-73350476D02*
X127048419Y-73969523D01*
X126048419Y-74588571D02*
X126048419Y-74683809D01*
X126048419Y-74683809D02*
X126096038Y-74779047D01*
X126096038Y-74779047D02*
X126143657Y-74826666D01*
X126143657Y-74826666D02*
X126238895Y-74874285D01*
X126238895Y-74874285D02*
X126429371Y-74921904D01*
X126429371Y-74921904D02*
X126667466Y-74921904D01*
X126667466Y-74921904D02*
X126857942Y-74874285D01*
X126857942Y-74874285D02*
X126953180Y-74826666D01*
X126953180Y-74826666D02*
X127000800Y-74779047D01*
X127000800Y-74779047D02*
X127048419Y-74683809D01*
X127048419Y-74683809D02*
X127048419Y-74588571D01*
X127048419Y-74588571D02*
X127000800Y-74493333D01*
X127000800Y-74493333D02*
X126953180Y-74445714D01*
X126953180Y-74445714D02*
X126857942Y-74398095D01*
X126857942Y-74398095D02*
X126667466Y-74350476D01*
X126667466Y-74350476D02*
X126429371Y-74350476D01*
X126429371Y-74350476D02*
X126238895Y-74398095D01*
X126238895Y-74398095D02*
X126143657Y-74445714D01*
X126143657Y-74445714D02*
X126096038Y-74493333D01*
X126096038Y-74493333D02*
X126048419Y-74588571D01*
X136351180Y-73017142D02*
X136398800Y-72969523D01*
X136398800Y-72969523D02*
X136446419Y-72826666D01*
X136446419Y-72826666D02*
X136446419Y-72731428D01*
X136446419Y-72731428D02*
X136398800Y-72588571D01*
X136398800Y-72588571D02*
X136303561Y-72493333D01*
X136303561Y-72493333D02*
X136208323Y-72445714D01*
X136208323Y-72445714D02*
X136017847Y-72398095D01*
X136017847Y-72398095D02*
X135874990Y-72398095D01*
X135874990Y-72398095D02*
X135684514Y-72445714D01*
X135684514Y-72445714D02*
X135589276Y-72493333D01*
X135589276Y-72493333D02*
X135494038Y-72588571D01*
X135494038Y-72588571D02*
X135446419Y-72731428D01*
X135446419Y-72731428D02*
X135446419Y-72826666D01*
X135446419Y-72826666D02*
X135494038Y-72969523D01*
X135494038Y-72969523D02*
X135541657Y-73017142D01*
X135541657Y-73398095D02*
X135494038Y-73445714D01*
X135494038Y-73445714D02*
X135446419Y-73540952D01*
X135446419Y-73540952D02*
X135446419Y-73779047D01*
X135446419Y-73779047D02*
X135494038Y-73874285D01*
X135494038Y-73874285D02*
X135541657Y-73921904D01*
X135541657Y-73921904D02*
X135636895Y-73969523D01*
X135636895Y-73969523D02*
X135732133Y-73969523D01*
X135732133Y-73969523D02*
X135874990Y-73921904D01*
X135874990Y-73921904D02*
X136446419Y-73350476D01*
X136446419Y-73350476D02*
X136446419Y-73969523D01*
X135779752Y-74826666D02*
X136446419Y-74826666D01*
X135398800Y-74588571D02*
X136113085Y-74350476D01*
X136113085Y-74350476D02*
X136113085Y-74969523D01*
X146663580Y-73017142D02*
X146711200Y-72969523D01*
X146711200Y-72969523D02*
X146758819Y-72826666D01*
X146758819Y-72826666D02*
X146758819Y-72731428D01*
X146758819Y-72731428D02*
X146711200Y-72588571D01*
X146711200Y-72588571D02*
X146615961Y-72493333D01*
X146615961Y-72493333D02*
X146520723Y-72445714D01*
X146520723Y-72445714D02*
X146330247Y-72398095D01*
X146330247Y-72398095D02*
X146187390Y-72398095D01*
X146187390Y-72398095D02*
X145996914Y-72445714D01*
X145996914Y-72445714D02*
X145901676Y-72493333D01*
X145901676Y-72493333D02*
X145806438Y-72588571D01*
X145806438Y-72588571D02*
X145758819Y-72731428D01*
X145758819Y-72731428D02*
X145758819Y-72826666D01*
X145758819Y-72826666D02*
X145806438Y-72969523D01*
X145806438Y-72969523D02*
X145854057Y-73017142D01*
X145854057Y-73398095D02*
X145806438Y-73445714D01*
X145806438Y-73445714D02*
X145758819Y-73540952D01*
X145758819Y-73540952D02*
X145758819Y-73779047D01*
X145758819Y-73779047D02*
X145806438Y-73874285D01*
X145806438Y-73874285D02*
X145854057Y-73921904D01*
X145854057Y-73921904D02*
X145949295Y-73969523D01*
X145949295Y-73969523D02*
X146044533Y-73969523D01*
X146044533Y-73969523D02*
X146187390Y-73921904D01*
X146187390Y-73921904D02*
X146758819Y-73350476D01*
X146758819Y-73350476D02*
X146758819Y-73969523D01*
X145758819Y-74874285D02*
X145758819Y-74398095D01*
X145758819Y-74398095D02*
X146235009Y-74350476D01*
X146235009Y-74350476D02*
X146187390Y-74398095D01*
X146187390Y-74398095D02*
X146139771Y-74493333D01*
X146139771Y-74493333D02*
X146139771Y-74731428D01*
X146139771Y-74731428D02*
X146187390Y-74826666D01*
X146187390Y-74826666D02*
X146235009Y-74874285D01*
X146235009Y-74874285D02*
X146330247Y-74921904D01*
X146330247Y-74921904D02*
X146568342Y-74921904D01*
X146568342Y-74921904D02*
X146663580Y-74874285D01*
X146663580Y-74874285D02*
X146711200Y-74826666D01*
X146711200Y-74826666D02*
X146758819Y-74731428D01*
X146758819Y-74731428D02*
X146758819Y-74493333D01*
X146758819Y-74493333D02*
X146711200Y-74398095D01*
X146711200Y-74398095D02*
X146663580Y-74350476D01*
X117889257Y-82496819D02*
X118222590Y-82020628D01*
X118460685Y-82496819D02*
X118460685Y-81496819D01*
X118460685Y-81496819D02*
X118079733Y-81496819D01*
X118079733Y-81496819D02*
X117984495Y-81544438D01*
X117984495Y-81544438D02*
X117936876Y-81592057D01*
X117936876Y-81592057D02*
X117889257Y-81687295D01*
X117889257Y-81687295D02*
X117889257Y-81830152D01*
X117889257Y-81830152D02*
X117936876Y-81925390D01*
X117936876Y-81925390D02*
X117984495Y-81973009D01*
X117984495Y-81973009D02*
X118079733Y-82020628D01*
X118079733Y-82020628D02*
X118460685Y-82020628D01*
X117032114Y-81830152D02*
X117032114Y-82496819D01*
X117270209Y-81449200D02*
X117508304Y-82163485D01*
X117508304Y-82163485D02*
X116889257Y-82163485D01*
X116365447Y-81925390D02*
X116460685Y-81877771D01*
X116460685Y-81877771D02*
X116508304Y-81830152D01*
X116508304Y-81830152D02*
X116555923Y-81734914D01*
X116555923Y-81734914D02*
X116555923Y-81687295D01*
X116555923Y-81687295D02*
X116508304Y-81592057D01*
X116508304Y-81592057D02*
X116460685Y-81544438D01*
X116460685Y-81544438D02*
X116365447Y-81496819D01*
X116365447Y-81496819D02*
X116174971Y-81496819D01*
X116174971Y-81496819D02*
X116079733Y-81544438D01*
X116079733Y-81544438D02*
X116032114Y-81592057D01*
X116032114Y-81592057D02*
X115984495Y-81687295D01*
X115984495Y-81687295D02*
X115984495Y-81734914D01*
X115984495Y-81734914D02*
X116032114Y-81830152D01*
X116032114Y-81830152D02*
X116079733Y-81877771D01*
X116079733Y-81877771D02*
X116174971Y-81925390D01*
X116174971Y-81925390D02*
X116365447Y-81925390D01*
X116365447Y-81925390D02*
X116460685Y-81973009D01*
X116460685Y-81973009D02*
X116508304Y-82020628D01*
X116508304Y-82020628D02*
X116555923Y-82115866D01*
X116555923Y-82115866D02*
X116555923Y-82306342D01*
X116555923Y-82306342D02*
X116508304Y-82401580D01*
X116508304Y-82401580D02*
X116460685Y-82449200D01*
X116460685Y-82449200D02*
X116365447Y-82496819D01*
X116365447Y-82496819D02*
X116174971Y-82496819D01*
X116174971Y-82496819D02*
X116079733Y-82449200D01*
X116079733Y-82449200D02*
X116032114Y-82401580D01*
X116032114Y-82401580D02*
X115984495Y-82306342D01*
X115984495Y-82306342D02*
X115984495Y-82115866D01*
X115984495Y-82115866D02*
X116032114Y-82020628D01*
X116032114Y-82020628D02*
X116079733Y-81973009D01*
X116079733Y-81973009D02*
X116174971Y-81925390D01*
X121365180Y-79417942D02*
X121412800Y-79370323D01*
X121412800Y-79370323D02*
X121460419Y-79227466D01*
X121460419Y-79227466D02*
X121460419Y-79132228D01*
X121460419Y-79132228D02*
X121412800Y-78989371D01*
X121412800Y-78989371D02*
X121317561Y-78894133D01*
X121317561Y-78894133D02*
X121222323Y-78846514D01*
X121222323Y-78846514D02*
X121031847Y-78798895D01*
X121031847Y-78798895D02*
X120888990Y-78798895D01*
X120888990Y-78798895D02*
X120698514Y-78846514D01*
X120698514Y-78846514D02*
X120603276Y-78894133D01*
X120603276Y-78894133D02*
X120508038Y-78989371D01*
X120508038Y-78989371D02*
X120460419Y-79132228D01*
X120460419Y-79132228D02*
X120460419Y-79227466D01*
X120460419Y-79227466D02*
X120508038Y-79370323D01*
X120508038Y-79370323D02*
X120555657Y-79417942D01*
X120460419Y-79751276D02*
X120460419Y-80370323D01*
X120460419Y-80370323D02*
X120841371Y-80036990D01*
X120841371Y-80036990D02*
X120841371Y-80179847D01*
X120841371Y-80179847D02*
X120888990Y-80275085D01*
X120888990Y-80275085D02*
X120936609Y-80322704D01*
X120936609Y-80322704D02*
X121031847Y-80370323D01*
X121031847Y-80370323D02*
X121269942Y-80370323D01*
X121269942Y-80370323D02*
X121365180Y-80322704D01*
X121365180Y-80322704D02*
X121412800Y-80275085D01*
X121412800Y-80275085D02*
X121460419Y-80179847D01*
X121460419Y-80179847D02*
X121460419Y-79894133D01*
X121460419Y-79894133D02*
X121412800Y-79798895D01*
X121412800Y-79798895D02*
X121365180Y-79751276D01*
X120555657Y-80751276D02*
X120508038Y-80798895D01*
X120508038Y-80798895D02*
X120460419Y-80894133D01*
X120460419Y-80894133D02*
X120460419Y-81132228D01*
X120460419Y-81132228D02*
X120508038Y-81227466D01*
X120508038Y-81227466D02*
X120555657Y-81275085D01*
X120555657Y-81275085D02*
X120650895Y-81322704D01*
X120650895Y-81322704D02*
X120746133Y-81322704D01*
X120746133Y-81322704D02*
X120888990Y-81275085D01*
X120888990Y-81275085D02*
X121460419Y-80703657D01*
X121460419Y-80703657D02*
X121460419Y-81322704D01*
X132388780Y-73017142D02*
X132436400Y-72969523D01*
X132436400Y-72969523D02*
X132484019Y-72826666D01*
X132484019Y-72826666D02*
X132484019Y-72731428D01*
X132484019Y-72731428D02*
X132436400Y-72588571D01*
X132436400Y-72588571D02*
X132341161Y-72493333D01*
X132341161Y-72493333D02*
X132245923Y-72445714D01*
X132245923Y-72445714D02*
X132055447Y-72398095D01*
X132055447Y-72398095D02*
X131912590Y-72398095D01*
X131912590Y-72398095D02*
X131722114Y-72445714D01*
X131722114Y-72445714D02*
X131626876Y-72493333D01*
X131626876Y-72493333D02*
X131531638Y-72588571D01*
X131531638Y-72588571D02*
X131484019Y-72731428D01*
X131484019Y-72731428D02*
X131484019Y-72826666D01*
X131484019Y-72826666D02*
X131531638Y-72969523D01*
X131531638Y-72969523D02*
X131579257Y-73017142D01*
X131579257Y-73398095D02*
X131531638Y-73445714D01*
X131531638Y-73445714D02*
X131484019Y-73540952D01*
X131484019Y-73540952D02*
X131484019Y-73779047D01*
X131484019Y-73779047D02*
X131531638Y-73874285D01*
X131531638Y-73874285D02*
X131579257Y-73921904D01*
X131579257Y-73921904D02*
X131674495Y-73969523D01*
X131674495Y-73969523D02*
X131769733Y-73969523D01*
X131769733Y-73969523D02*
X131912590Y-73921904D01*
X131912590Y-73921904D02*
X132484019Y-73350476D01*
X132484019Y-73350476D02*
X132484019Y-73969523D01*
X131484019Y-74302857D02*
X131484019Y-74921904D01*
X131484019Y-74921904D02*
X131864971Y-74588571D01*
X131864971Y-74588571D02*
X131864971Y-74731428D01*
X131864971Y-74731428D02*
X131912590Y-74826666D01*
X131912590Y-74826666D02*
X131960209Y-74874285D01*
X131960209Y-74874285D02*
X132055447Y-74921904D01*
X132055447Y-74921904D02*
X132293542Y-74921904D01*
X132293542Y-74921904D02*
X132388780Y-74874285D01*
X132388780Y-74874285D02*
X132436400Y-74826666D01*
X132436400Y-74826666D02*
X132484019Y-74731428D01*
X132484019Y-74731428D02*
X132484019Y-74445714D01*
X132484019Y-74445714D02*
X132436400Y-74350476D01*
X132436400Y-74350476D02*
X132388780Y-74302857D01*
X129899580Y-70832742D02*
X129947200Y-70785123D01*
X129947200Y-70785123D02*
X129994819Y-70642266D01*
X129994819Y-70642266D02*
X129994819Y-70547028D01*
X129994819Y-70547028D02*
X129947200Y-70404171D01*
X129947200Y-70404171D02*
X129851961Y-70308933D01*
X129851961Y-70308933D02*
X129756723Y-70261314D01*
X129756723Y-70261314D02*
X129566247Y-70213695D01*
X129566247Y-70213695D02*
X129423390Y-70213695D01*
X129423390Y-70213695D02*
X129232914Y-70261314D01*
X129232914Y-70261314D02*
X129137676Y-70308933D01*
X129137676Y-70308933D02*
X129042438Y-70404171D01*
X129042438Y-70404171D02*
X128994819Y-70547028D01*
X128994819Y-70547028D02*
X128994819Y-70642266D01*
X128994819Y-70642266D02*
X129042438Y-70785123D01*
X129042438Y-70785123D02*
X129090057Y-70832742D01*
X129090057Y-71213695D02*
X129042438Y-71261314D01*
X129042438Y-71261314D02*
X128994819Y-71356552D01*
X128994819Y-71356552D02*
X128994819Y-71594647D01*
X128994819Y-71594647D02*
X129042438Y-71689885D01*
X129042438Y-71689885D02*
X129090057Y-71737504D01*
X129090057Y-71737504D02*
X129185295Y-71785123D01*
X129185295Y-71785123D02*
X129280533Y-71785123D01*
X129280533Y-71785123D02*
X129423390Y-71737504D01*
X129423390Y-71737504D02*
X129994819Y-71166076D01*
X129994819Y-71166076D02*
X129994819Y-71785123D01*
X128994819Y-72118457D02*
X128994819Y-72785123D01*
X128994819Y-72785123D02*
X129994819Y-72356552D01*
X117838457Y-79861580D02*
X117886076Y-79909200D01*
X117886076Y-79909200D02*
X118028933Y-79956819D01*
X118028933Y-79956819D02*
X118124171Y-79956819D01*
X118124171Y-79956819D02*
X118267028Y-79909200D01*
X118267028Y-79909200D02*
X118362266Y-79813961D01*
X118362266Y-79813961D02*
X118409885Y-79718723D01*
X118409885Y-79718723D02*
X118457504Y-79528247D01*
X118457504Y-79528247D02*
X118457504Y-79385390D01*
X118457504Y-79385390D02*
X118409885Y-79194914D01*
X118409885Y-79194914D02*
X118362266Y-79099676D01*
X118362266Y-79099676D02*
X118267028Y-79004438D01*
X118267028Y-79004438D02*
X118124171Y-78956819D01*
X118124171Y-78956819D02*
X118028933Y-78956819D01*
X118028933Y-78956819D02*
X117886076Y-79004438D01*
X117886076Y-79004438D02*
X117838457Y-79052057D01*
X117505123Y-78956819D02*
X116886076Y-78956819D01*
X116886076Y-78956819D02*
X117219409Y-79337771D01*
X117219409Y-79337771D02*
X117076552Y-79337771D01*
X117076552Y-79337771D02*
X116981314Y-79385390D01*
X116981314Y-79385390D02*
X116933695Y-79433009D01*
X116933695Y-79433009D02*
X116886076Y-79528247D01*
X116886076Y-79528247D02*
X116886076Y-79766342D01*
X116886076Y-79766342D02*
X116933695Y-79861580D01*
X116933695Y-79861580D02*
X116981314Y-79909200D01*
X116981314Y-79909200D02*
X117076552Y-79956819D01*
X117076552Y-79956819D02*
X117362266Y-79956819D01*
X117362266Y-79956819D02*
X117457504Y-79909200D01*
X117457504Y-79909200D02*
X117505123Y-79861580D01*
X116028933Y-79290152D02*
X116028933Y-79956819D01*
X116267028Y-78909200D02*
X116505123Y-79623485D01*
X116505123Y-79623485D02*
X115886076Y-79623485D01*
X117866457Y-81226819D02*
X118199790Y-80750628D01*
X118437885Y-81226819D02*
X118437885Y-80226819D01*
X118437885Y-80226819D02*
X118056933Y-80226819D01*
X118056933Y-80226819D02*
X117961695Y-80274438D01*
X117961695Y-80274438D02*
X117914076Y-80322057D01*
X117914076Y-80322057D02*
X117866457Y-80417295D01*
X117866457Y-80417295D02*
X117866457Y-80560152D01*
X117866457Y-80560152D02*
X117914076Y-80655390D01*
X117914076Y-80655390D02*
X117961695Y-80703009D01*
X117961695Y-80703009D02*
X118056933Y-80750628D01*
X118056933Y-80750628D02*
X118437885Y-80750628D01*
X117009314Y-80560152D02*
X117009314Y-81226819D01*
X117247409Y-80179200D02*
X117485504Y-80893485D01*
X117485504Y-80893485D02*
X116866457Y-80893485D01*
X116437885Y-81226819D02*
X116247409Y-81226819D01*
X116247409Y-81226819D02*
X116152171Y-81179200D01*
X116152171Y-81179200D02*
X116104552Y-81131580D01*
X116104552Y-81131580D02*
X116009314Y-80988723D01*
X116009314Y-80988723D02*
X115961695Y-80798247D01*
X115961695Y-80798247D02*
X115961695Y-80417295D01*
X115961695Y-80417295D02*
X116009314Y-80322057D01*
X116009314Y-80322057D02*
X116056933Y-80274438D01*
X116056933Y-80274438D02*
X116152171Y-80226819D01*
X116152171Y-80226819D02*
X116342647Y-80226819D01*
X116342647Y-80226819D02*
X116437885Y-80274438D01*
X116437885Y-80274438D02*
X116485504Y-80322057D01*
X116485504Y-80322057D02*
X116533123Y-80417295D01*
X116533123Y-80417295D02*
X116533123Y-80655390D01*
X116533123Y-80655390D02*
X116485504Y-80750628D01*
X116485504Y-80750628D02*
X116437885Y-80798247D01*
X116437885Y-80798247D02*
X116342647Y-80845866D01*
X116342647Y-80845866D02*
X116152171Y-80845866D01*
X116152171Y-80845866D02*
X116056933Y-80798247D01*
X116056933Y-80798247D02*
X116009314Y-80750628D01*
X116009314Y-80750628D02*
X115961695Y-80655390D01*
X134725580Y-70934342D02*
X134773200Y-70886723D01*
X134773200Y-70886723D02*
X134820819Y-70743866D01*
X134820819Y-70743866D02*
X134820819Y-70648628D01*
X134820819Y-70648628D02*
X134773200Y-70505771D01*
X134773200Y-70505771D02*
X134677961Y-70410533D01*
X134677961Y-70410533D02*
X134582723Y-70362914D01*
X134582723Y-70362914D02*
X134392247Y-70315295D01*
X134392247Y-70315295D02*
X134249390Y-70315295D01*
X134249390Y-70315295D02*
X134058914Y-70362914D01*
X134058914Y-70362914D02*
X133963676Y-70410533D01*
X133963676Y-70410533D02*
X133868438Y-70505771D01*
X133868438Y-70505771D02*
X133820819Y-70648628D01*
X133820819Y-70648628D02*
X133820819Y-70743866D01*
X133820819Y-70743866D02*
X133868438Y-70886723D01*
X133868438Y-70886723D02*
X133916057Y-70934342D01*
X133916057Y-71315295D02*
X133868438Y-71362914D01*
X133868438Y-71362914D02*
X133820819Y-71458152D01*
X133820819Y-71458152D02*
X133820819Y-71696247D01*
X133820819Y-71696247D02*
X133868438Y-71791485D01*
X133868438Y-71791485D02*
X133916057Y-71839104D01*
X133916057Y-71839104D02*
X134011295Y-71886723D01*
X134011295Y-71886723D02*
X134106533Y-71886723D01*
X134106533Y-71886723D02*
X134249390Y-71839104D01*
X134249390Y-71839104D02*
X134820819Y-71267676D01*
X134820819Y-71267676D02*
X134820819Y-71886723D01*
X133820819Y-72743866D02*
X133820819Y-72553390D01*
X133820819Y-72553390D02*
X133868438Y-72458152D01*
X133868438Y-72458152D02*
X133916057Y-72410533D01*
X133916057Y-72410533D02*
X134058914Y-72315295D01*
X134058914Y-72315295D02*
X134249390Y-72267676D01*
X134249390Y-72267676D02*
X134630342Y-72267676D01*
X134630342Y-72267676D02*
X134725580Y-72315295D01*
X134725580Y-72315295D02*
X134773200Y-72362914D01*
X134773200Y-72362914D02*
X134820819Y-72458152D01*
X134820819Y-72458152D02*
X134820819Y-72648628D01*
X134820819Y-72648628D02*
X134773200Y-72743866D01*
X134773200Y-72743866D02*
X134725580Y-72791485D01*
X134725580Y-72791485D02*
X134630342Y-72839104D01*
X134630342Y-72839104D02*
X134392247Y-72839104D01*
X134392247Y-72839104D02*
X134297009Y-72791485D01*
X134297009Y-72791485D02*
X134249390Y-72743866D01*
X134249390Y-72743866D02*
X134201771Y-72648628D01*
X134201771Y-72648628D02*
X134201771Y-72458152D01*
X134201771Y-72458152D02*
X134249390Y-72362914D01*
X134249390Y-72362914D02*
X134297009Y-72315295D01*
X134297009Y-72315295D02*
X134392247Y-72267676D01*
X118651257Y-76250019D02*
X118984590Y-75773828D01*
X119222685Y-76250019D02*
X119222685Y-75250019D01*
X119222685Y-75250019D02*
X118841733Y-75250019D01*
X118841733Y-75250019D02*
X118746495Y-75297638D01*
X118746495Y-75297638D02*
X118698876Y-75345257D01*
X118698876Y-75345257D02*
X118651257Y-75440495D01*
X118651257Y-75440495D02*
X118651257Y-75583352D01*
X118651257Y-75583352D02*
X118698876Y-75678590D01*
X118698876Y-75678590D02*
X118746495Y-75726209D01*
X118746495Y-75726209D02*
X118841733Y-75773828D01*
X118841733Y-75773828D02*
X119222685Y-75773828D01*
X117794114Y-75583352D02*
X117794114Y-76250019D01*
X118032209Y-75202400D02*
X118270304Y-75916685D01*
X118270304Y-75916685D02*
X117651257Y-75916685D01*
X116841733Y-75250019D02*
X117032209Y-75250019D01*
X117032209Y-75250019D02*
X117127447Y-75297638D01*
X117127447Y-75297638D02*
X117175066Y-75345257D01*
X117175066Y-75345257D02*
X117270304Y-75488114D01*
X117270304Y-75488114D02*
X117317923Y-75678590D01*
X117317923Y-75678590D02*
X117317923Y-76059542D01*
X117317923Y-76059542D02*
X117270304Y-76154780D01*
X117270304Y-76154780D02*
X117222685Y-76202400D01*
X117222685Y-76202400D02*
X117127447Y-76250019D01*
X117127447Y-76250019D02*
X116936971Y-76250019D01*
X116936971Y-76250019D02*
X116841733Y-76202400D01*
X116841733Y-76202400D02*
X116794114Y-76154780D01*
X116794114Y-76154780D02*
X116746495Y-76059542D01*
X116746495Y-76059542D02*
X116746495Y-75821447D01*
X116746495Y-75821447D02*
X116794114Y-75726209D01*
X116794114Y-75726209D02*
X116841733Y-75678590D01*
X116841733Y-75678590D02*
X116936971Y-75630971D01*
X116936971Y-75630971D02*
X117127447Y-75630971D01*
X117127447Y-75630971D02*
X117222685Y-75678590D01*
X117222685Y-75678590D02*
X117270304Y-75726209D01*
X117270304Y-75726209D02*
X117317923Y-75821447D01*
X113438174Y-105068404D02*
X113438174Y-105135748D01*
X113438174Y-105135748D02*
X113505518Y-105270435D01*
X113505518Y-105270435D02*
X113572861Y-105337778D01*
X113572861Y-105337778D02*
X113707548Y-105405122D01*
X113707548Y-105405122D02*
X113842235Y-105405122D01*
X113842235Y-105405122D02*
X113943250Y-105371450D01*
X113943250Y-105371450D02*
X114111609Y-105270435D01*
X114111609Y-105270435D02*
X114212624Y-105169420D01*
X114212624Y-105169420D02*
X114313640Y-105001061D01*
X114313640Y-105001061D02*
X114347311Y-104900046D01*
X114347311Y-104900046D02*
X114347311Y-104765359D01*
X114347311Y-104765359D02*
X114279968Y-104630672D01*
X114279968Y-104630672D02*
X114212624Y-104563328D01*
X114212624Y-104563328D02*
X114077937Y-104495985D01*
X114077937Y-104495985D02*
X114010594Y-104495985D01*
X113741220Y-104226611D02*
X113741220Y-104159267D01*
X113741220Y-104159267D02*
X113707548Y-104058252D01*
X113707548Y-104058252D02*
X113539189Y-103889893D01*
X113539189Y-103889893D02*
X113438174Y-103856221D01*
X113438174Y-103856221D02*
X113370831Y-103856221D01*
X113370831Y-103856221D02*
X113269815Y-103889893D01*
X113269815Y-103889893D02*
X113202472Y-103957237D01*
X113202472Y-103957237D02*
X113135128Y-104091924D01*
X113135128Y-104091924D02*
X113135128Y-104900046D01*
X113135128Y-104900046D02*
X112697396Y-104462313D01*
X112697395Y-103654191D02*
X112798411Y-103687862D01*
X112798411Y-103687862D02*
X112865754Y-103687862D01*
X112865754Y-103687862D02*
X112966769Y-103654191D01*
X112966769Y-103654191D02*
X113000441Y-103620519D01*
X113000441Y-103620519D02*
X113034113Y-103519504D01*
X113034113Y-103519504D02*
X113034113Y-103452160D01*
X113034113Y-103452160D02*
X113000441Y-103351145D01*
X113000441Y-103351145D02*
X112865754Y-103216458D01*
X112865754Y-103216458D02*
X112764739Y-103182786D01*
X112764739Y-103182786D02*
X112697395Y-103182786D01*
X112697395Y-103182786D02*
X112596380Y-103216458D01*
X112596380Y-103216458D02*
X112562708Y-103250130D01*
X112562708Y-103250130D02*
X112529037Y-103351145D01*
X112529037Y-103351145D02*
X112529037Y-103418488D01*
X112529037Y-103418488D02*
X112562708Y-103519504D01*
X112562708Y-103519504D02*
X112697395Y-103654191D01*
X112697395Y-103654191D02*
X112731067Y-103755206D01*
X112731067Y-103755206D02*
X112731067Y-103822549D01*
X112731067Y-103822549D02*
X112697395Y-103923565D01*
X112697395Y-103923565D02*
X112562708Y-104058252D01*
X112562708Y-104058252D02*
X112461693Y-104091923D01*
X112461693Y-104091923D02*
X112394350Y-104091923D01*
X112394350Y-104091923D02*
X112293334Y-104058252D01*
X112293334Y-104058252D02*
X112158647Y-103923565D01*
X112158647Y-103923565D02*
X112124976Y-103822549D01*
X112124976Y-103822549D02*
X112124976Y-103755206D01*
X112124976Y-103755206D02*
X112158647Y-103654191D01*
X112158647Y-103654191D02*
X112293334Y-103519504D01*
X112293334Y-103519504D02*
X112394350Y-103485832D01*
X112394350Y-103485832D02*
X112461693Y-103485832D01*
X112461693Y-103485832D02*
X112562708Y-103519504D01*
X128273980Y-73017142D02*
X128321600Y-72969523D01*
X128321600Y-72969523D02*
X128369219Y-72826666D01*
X128369219Y-72826666D02*
X128369219Y-72731428D01*
X128369219Y-72731428D02*
X128321600Y-72588571D01*
X128321600Y-72588571D02*
X128226361Y-72493333D01*
X128226361Y-72493333D02*
X128131123Y-72445714D01*
X128131123Y-72445714D02*
X127940647Y-72398095D01*
X127940647Y-72398095D02*
X127797790Y-72398095D01*
X127797790Y-72398095D02*
X127607314Y-72445714D01*
X127607314Y-72445714D02*
X127512076Y-72493333D01*
X127512076Y-72493333D02*
X127416838Y-72588571D01*
X127416838Y-72588571D02*
X127369219Y-72731428D01*
X127369219Y-72731428D02*
X127369219Y-72826666D01*
X127369219Y-72826666D02*
X127416838Y-72969523D01*
X127416838Y-72969523D02*
X127464457Y-73017142D01*
X127464457Y-73398095D02*
X127416838Y-73445714D01*
X127416838Y-73445714D02*
X127369219Y-73540952D01*
X127369219Y-73540952D02*
X127369219Y-73779047D01*
X127369219Y-73779047D02*
X127416838Y-73874285D01*
X127416838Y-73874285D02*
X127464457Y-73921904D01*
X127464457Y-73921904D02*
X127559695Y-73969523D01*
X127559695Y-73969523D02*
X127654933Y-73969523D01*
X127654933Y-73969523D02*
X127797790Y-73921904D01*
X127797790Y-73921904D02*
X128369219Y-73350476D01*
X128369219Y-73350476D02*
X128369219Y-73969523D01*
X127464457Y-74350476D02*
X127416838Y-74398095D01*
X127416838Y-74398095D02*
X127369219Y-74493333D01*
X127369219Y-74493333D02*
X127369219Y-74731428D01*
X127369219Y-74731428D02*
X127416838Y-74826666D01*
X127416838Y-74826666D02*
X127464457Y-74874285D01*
X127464457Y-74874285D02*
X127559695Y-74921904D01*
X127559695Y-74921904D02*
X127654933Y-74921904D01*
X127654933Y-74921904D02*
X127797790Y-74874285D01*
X127797790Y-74874285D02*
X128369219Y-74302857D01*
X128369219Y-74302857D02*
X128369219Y-74921904D01*
X147486019Y-94561066D02*
X148200304Y-94561066D01*
X148200304Y-94561066D02*
X148343161Y-94513447D01*
X148343161Y-94513447D02*
X148438400Y-94418209D01*
X148438400Y-94418209D02*
X148486019Y-94275352D01*
X148486019Y-94275352D02*
X148486019Y-94180114D01*
X147581257Y-94989638D02*
X147533638Y-95037257D01*
X147533638Y-95037257D02*
X147486019Y-95132495D01*
X147486019Y-95132495D02*
X147486019Y-95370590D01*
X147486019Y-95370590D02*
X147533638Y-95465828D01*
X147533638Y-95465828D02*
X147581257Y-95513447D01*
X147581257Y-95513447D02*
X147676495Y-95561066D01*
X147676495Y-95561066D02*
X147771733Y-95561066D01*
X147771733Y-95561066D02*
X147914590Y-95513447D01*
X147914590Y-95513447D02*
X148486019Y-94942019D01*
X148486019Y-94942019D02*
X148486019Y-95561066D01*
X120095180Y-79440742D02*
X120142800Y-79393123D01*
X120142800Y-79393123D02*
X120190419Y-79250266D01*
X120190419Y-79250266D02*
X120190419Y-79155028D01*
X120190419Y-79155028D02*
X120142800Y-79012171D01*
X120142800Y-79012171D02*
X120047561Y-78916933D01*
X120047561Y-78916933D02*
X119952323Y-78869314D01*
X119952323Y-78869314D02*
X119761847Y-78821695D01*
X119761847Y-78821695D02*
X119618990Y-78821695D01*
X119618990Y-78821695D02*
X119428514Y-78869314D01*
X119428514Y-78869314D02*
X119333276Y-78916933D01*
X119333276Y-78916933D02*
X119238038Y-79012171D01*
X119238038Y-79012171D02*
X119190419Y-79155028D01*
X119190419Y-79155028D02*
X119190419Y-79250266D01*
X119190419Y-79250266D02*
X119238038Y-79393123D01*
X119238038Y-79393123D02*
X119285657Y-79440742D01*
X119190419Y-79774076D02*
X119190419Y-80393123D01*
X119190419Y-80393123D02*
X119571371Y-80059790D01*
X119571371Y-80059790D02*
X119571371Y-80202647D01*
X119571371Y-80202647D02*
X119618990Y-80297885D01*
X119618990Y-80297885D02*
X119666609Y-80345504D01*
X119666609Y-80345504D02*
X119761847Y-80393123D01*
X119761847Y-80393123D02*
X119999942Y-80393123D01*
X119999942Y-80393123D02*
X120095180Y-80345504D01*
X120095180Y-80345504D02*
X120142800Y-80297885D01*
X120142800Y-80297885D02*
X120190419Y-80202647D01*
X120190419Y-80202647D02*
X120190419Y-79916933D01*
X120190419Y-79916933D02*
X120142800Y-79821695D01*
X120142800Y-79821695D02*
X120095180Y-79774076D01*
X120190419Y-81345504D02*
X120190419Y-80774076D01*
X120190419Y-81059790D02*
X119190419Y-81059790D01*
X119190419Y-81059790D02*
X119333276Y-80964552D01*
X119333276Y-80964552D02*
X119428514Y-80869314D01*
X119428514Y-80869314D02*
X119476133Y-80774076D01*
X121032494Y-69106419D02*
X121032494Y-68106419D01*
X121032494Y-68106419D02*
X120794399Y-68106419D01*
X120794399Y-68106419D02*
X120651542Y-68154038D01*
X120651542Y-68154038D02*
X120556304Y-68249276D01*
X120556304Y-68249276D02*
X120508685Y-68344514D01*
X120508685Y-68344514D02*
X120461066Y-68534990D01*
X120461066Y-68534990D02*
X120461066Y-68677847D01*
X120461066Y-68677847D02*
X120508685Y-68868323D01*
X120508685Y-68868323D02*
X120556304Y-68963561D01*
X120556304Y-68963561D02*
X120651542Y-69058800D01*
X120651542Y-69058800D02*
X120794399Y-69106419D01*
X120794399Y-69106419D02*
X121032494Y-69106419D01*
X120080113Y-68201657D02*
X120032494Y-68154038D01*
X120032494Y-68154038D02*
X119937256Y-68106419D01*
X119937256Y-68106419D02*
X119699161Y-68106419D01*
X119699161Y-68106419D02*
X119603923Y-68154038D01*
X119603923Y-68154038D02*
X119556304Y-68201657D01*
X119556304Y-68201657D02*
X119508685Y-68296895D01*
X119508685Y-68296895D02*
X119508685Y-68392133D01*
X119508685Y-68392133D02*
X119556304Y-68534990D01*
X119556304Y-68534990D02*
X120127732Y-69106419D01*
X120127732Y-69106419D02*
X119508685Y-69106419D01*
X111976819Y-94561066D02*
X112691104Y-94561066D01*
X112691104Y-94561066D02*
X112833961Y-94513447D01*
X112833961Y-94513447D02*
X112929200Y-94418209D01*
X112929200Y-94418209D02*
X112976819Y-94275352D01*
X112976819Y-94275352D02*
X112976819Y-94180114D01*
X111976819Y-94942019D02*
X111976819Y-95561066D01*
X111976819Y-95561066D02*
X112357771Y-95227733D01*
X112357771Y-95227733D02*
X112357771Y-95370590D01*
X112357771Y-95370590D02*
X112405390Y-95465828D01*
X112405390Y-95465828D02*
X112453009Y-95513447D01*
X112453009Y-95513447D02*
X112548247Y-95561066D01*
X112548247Y-95561066D02*
X112786342Y-95561066D01*
X112786342Y-95561066D02*
X112881580Y-95513447D01*
X112881580Y-95513447D02*
X112929200Y-95465828D01*
X112929200Y-95465828D02*
X112976819Y-95370590D01*
X112976819Y-95370590D02*
X112976819Y-95084876D01*
X112976819Y-95084876D02*
X112929200Y-94989638D01*
X112929200Y-94989638D02*
X112881580Y-94942019D01*
X122461257Y-72995619D02*
X122794590Y-72519428D01*
X123032685Y-72995619D02*
X123032685Y-71995619D01*
X123032685Y-71995619D02*
X122651733Y-71995619D01*
X122651733Y-71995619D02*
X122556495Y-72043238D01*
X122556495Y-72043238D02*
X122508876Y-72090857D01*
X122508876Y-72090857D02*
X122461257Y-72186095D01*
X122461257Y-72186095D02*
X122461257Y-72328952D01*
X122461257Y-72328952D02*
X122508876Y-72424190D01*
X122508876Y-72424190D02*
X122556495Y-72471809D01*
X122556495Y-72471809D02*
X122651733Y-72519428D01*
X122651733Y-72519428D02*
X123032685Y-72519428D01*
X121604114Y-72328952D02*
X121604114Y-72995619D01*
X121842209Y-71948000D02*
X122080304Y-72662285D01*
X122080304Y-72662285D02*
X121461257Y-72662285D01*
X120604114Y-71995619D02*
X121080304Y-71995619D01*
X121080304Y-71995619D02*
X121127923Y-72471809D01*
X121127923Y-72471809D02*
X121080304Y-72424190D01*
X121080304Y-72424190D02*
X120985066Y-72376571D01*
X120985066Y-72376571D02*
X120746971Y-72376571D01*
X120746971Y-72376571D02*
X120651733Y-72424190D01*
X120651733Y-72424190D02*
X120604114Y-72471809D01*
X120604114Y-72471809D02*
X120556495Y-72567047D01*
X120556495Y-72567047D02*
X120556495Y-72805142D01*
X120556495Y-72805142D02*
X120604114Y-72900380D01*
X120604114Y-72900380D02*
X120651733Y-72948000D01*
X120651733Y-72948000D02*
X120746971Y-72995619D01*
X120746971Y-72995619D02*
X120985066Y-72995619D01*
X120985066Y-72995619D02*
X121080304Y-72948000D01*
X121080304Y-72948000D02*
X121127923Y-72900380D01*
X151737219Y-77487542D02*
X151261028Y-77154209D01*
X151737219Y-76916114D02*
X150737219Y-76916114D01*
X150737219Y-76916114D02*
X150737219Y-77297066D01*
X150737219Y-77297066D02*
X150784838Y-77392304D01*
X150784838Y-77392304D02*
X150832457Y-77439923D01*
X150832457Y-77439923D02*
X150927695Y-77487542D01*
X150927695Y-77487542D02*
X151070552Y-77487542D01*
X151070552Y-77487542D02*
X151165790Y-77439923D01*
X151165790Y-77439923D02*
X151213409Y-77392304D01*
X151213409Y-77392304D02*
X151261028Y-77297066D01*
X151261028Y-77297066D02*
X151261028Y-76916114D01*
X150737219Y-78392304D02*
X150737219Y-77916114D01*
X150737219Y-77916114D02*
X151213409Y-77868495D01*
X151213409Y-77868495D02*
X151165790Y-77916114D01*
X151165790Y-77916114D02*
X151118171Y-78011352D01*
X151118171Y-78011352D02*
X151118171Y-78249447D01*
X151118171Y-78249447D02*
X151165790Y-78344685D01*
X151165790Y-78344685D02*
X151213409Y-78392304D01*
X151213409Y-78392304D02*
X151308647Y-78439923D01*
X151308647Y-78439923D02*
X151546742Y-78439923D01*
X151546742Y-78439923D02*
X151641980Y-78392304D01*
X151641980Y-78392304D02*
X151689600Y-78344685D01*
X151689600Y-78344685D02*
X151737219Y-78249447D01*
X151737219Y-78249447D02*
X151737219Y-78011352D01*
X151737219Y-78011352D02*
X151689600Y-77916114D01*
X151689600Y-77916114D02*
X151641980Y-77868495D01*
X151737219Y-79392304D02*
X151737219Y-78820876D01*
X151737219Y-79106590D02*
X150737219Y-79106590D01*
X150737219Y-79106590D02*
X150880076Y-79011352D01*
X150880076Y-79011352D02*
X150975314Y-78916114D01*
X150975314Y-78916114D02*
X151022933Y-78820876D01*
X118651257Y-72944819D02*
X118984590Y-72468628D01*
X119222685Y-72944819D02*
X119222685Y-71944819D01*
X119222685Y-71944819D02*
X118841733Y-71944819D01*
X118841733Y-71944819D02*
X118746495Y-71992438D01*
X118746495Y-71992438D02*
X118698876Y-72040057D01*
X118698876Y-72040057D02*
X118651257Y-72135295D01*
X118651257Y-72135295D02*
X118651257Y-72278152D01*
X118651257Y-72278152D02*
X118698876Y-72373390D01*
X118698876Y-72373390D02*
X118746495Y-72421009D01*
X118746495Y-72421009D02*
X118841733Y-72468628D01*
X118841733Y-72468628D02*
X119222685Y-72468628D01*
X117794114Y-72278152D02*
X117794114Y-72944819D01*
X118032209Y-71897200D02*
X118270304Y-72611485D01*
X118270304Y-72611485D02*
X117651257Y-72611485D01*
X117365542Y-71944819D02*
X116698876Y-71944819D01*
X116698876Y-71944819D02*
X117127447Y-72944819D01*
X125632380Y-73017142D02*
X125680000Y-72969523D01*
X125680000Y-72969523D02*
X125727619Y-72826666D01*
X125727619Y-72826666D02*
X125727619Y-72731428D01*
X125727619Y-72731428D02*
X125680000Y-72588571D01*
X125680000Y-72588571D02*
X125584761Y-72493333D01*
X125584761Y-72493333D02*
X125489523Y-72445714D01*
X125489523Y-72445714D02*
X125299047Y-72398095D01*
X125299047Y-72398095D02*
X125156190Y-72398095D01*
X125156190Y-72398095D02*
X124965714Y-72445714D01*
X124965714Y-72445714D02*
X124870476Y-72493333D01*
X124870476Y-72493333D02*
X124775238Y-72588571D01*
X124775238Y-72588571D02*
X124727619Y-72731428D01*
X124727619Y-72731428D02*
X124727619Y-72826666D01*
X124727619Y-72826666D02*
X124775238Y-72969523D01*
X124775238Y-72969523D02*
X124822857Y-73017142D01*
X124822857Y-73398095D02*
X124775238Y-73445714D01*
X124775238Y-73445714D02*
X124727619Y-73540952D01*
X124727619Y-73540952D02*
X124727619Y-73779047D01*
X124727619Y-73779047D02*
X124775238Y-73874285D01*
X124775238Y-73874285D02*
X124822857Y-73921904D01*
X124822857Y-73921904D02*
X124918095Y-73969523D01*
X124918095Y-73969523D02*
X125013333Y-73969523D01*
X125013333Y-73969523D02*
X125156190Y-73921904D01*
X125156190Y-73921904D02*
X125727619Y-73350476D01*
X125727619Y-73350476D02*
X125727619Y-73969523D01*
X125727619Y-74921904D02*
X125727619Y-74350476D01*
X125727619Y-74636190D02*
X124727619Y-74636190D01*
X124727619Y-74636190D02*
X124870476Y-74540952D01*
X124870476Y-74540952D02*
X124965714Y-74445714D01*
X124965714Y-74445714D02*
X125013333Y-74350476D01*
X116765294Y-71706419D02*
X116765294Y-70706419D01*
X116765294Y-70706419D02*
X116527199Y-70706419D01*
X116527199Y-70706419D02*
X116384342Y-70754038D01*
X116384342Y-70754038D02*
X116289104Y-70849276D01*
X116289104Y-70849276D02*
X116241485Y-70944514D01*
X116241485Y-70944514D02*
X116193866Y-71134990D01*
X116193866Y-71134990D02*
X116193866Y-71277847D01*
X116193866Y-71277847D02*
X116241485Y-71468323D01*
X116241485Y-71468323D02*
X116289104Y-71563561D01*
X116289104Y-71563561D02*
X116384342Y-71658800D01*
X116384342Y-71658800D02*
X116527199Y-71706419D01*
X116527199Y-71706419D02*
X116765294Y-71706419D01*
X115241485Y-71706419D02*
X115812913Y-71706419D01*
X115527199Y-71706419D02*
X115527199Y-70706419D01*
X115527199Y-70706419D02*
X115622437Y-70849276D01*
X115622437Y-70849276D02*
X115717675Y-70944514D01*
X115717675Y-70944514D02*
X115812913Y-70992133D01*
D12*
%TO.C,TP1*%
X131502000Y-108483400D02*
G75*
G02*
X129102000Y-108483400I-1200000J0D01*
G01*
X129102000Y-108483400D02*
G75*
G02*
X131502000Y-108483400I1200000J0D01*
G01*
%TO.C,TP4*%
X137953600Y-97713800D02*
G75*
G02*
X135553600Y-97713800I-1200000J0D01*
G01*
X135553600Y-97713800D02*
G75*
G02*
X137953600Y-97713800I1200000J0D01*
G01*
%TO.C,TP3*%
X135362800Y-100380800D02*
G75*
G02*
X132962800Y-100380800I-1200000J0D01*
G01*
X132962800Y-100380800D02*
G75*
G02*
X135362800Y-100380800I1200000J0D01*
G01*
%TO.C,TP2*%
X136582000Y-108483400D02*
G75*
G02*
X134182000Y-108483400I-1200000J0D01*
G01*
X134182000Y-108483400D02*
G75*
G02*
X136582000Y-108483400I1200000J0D01*
G01*
%TO.C,C8*%
X120751751Y-88370390D02*
X120599248Y-88217887D01*
X121260868Y-87861273D02*
X121108365Y-87708770D01*
%TO.C,R40*%
X138849774Y-89191263D02*
X138632493Y-89408544D01*
X139387175Y-89728664D02*
X139169894Y-89945945D01*
%TO.C,R4*%
X140683598Y-91827839D02*
X140466317Y-92045120D01*
X141220999Y-92365240D02*
X141003718Y-92582521D01*
%TO.C,R11*%
X129031293Y-89058216D02*
X129248574Y-89275497D01*
X129568694Y-88520815D02*
X129785975Y-88738096D01*
%TO.C,C19*%
X143275822Y-83564780D02*
X143491494Y-83564780D01*
X143275822Y-84284780D02*
X143491494Y-84284780D01*
%TO.C,R44*%
X121876029Y-94755352D02*
X122093310Y-94972633D01*
X122413430Y-94217951D02*
X122630711Y-94435232D01*
%TO.C,R7*%
X135400398Y-86544639D02*
X135183117Y-86761920D01*
X135937799Y-87082040D02*
X135720518Y-87299321D01*
%TO.C,C12*%
X132994448Y-107114473D02*
X133146951Y-106961970D01*
X133503565Y-107623590D02*
X133656068Y-107471087D01*
%TO.C,R42*%
X137533998Y-87865439D02*
X137316717Y-88082720D01*
X138071399Y-88402840D02*
X137854118Y-88620121D01*
%TO.C,R13*%
X127710493Y-90379016D02*
X127927774Y-90596297D01*
X128247894Y-89841615D02*
X128465175Y-90058896D01*
%TO.C,R19*%
X125073917Y-91552440D02*
X125291198Y-91769721D01*
X125611318Y-91015039D02*
X125828599Y-91232320D01*
%TO.C,R25*%
X122792941Y-93487864D02*
X123010222Y-93705145D01*
X123330342Y-92950463D02*
X123547623Y-93167744D01*
%TO.C,R3*%
X141349022Y-92483215D02*
X141131741Y-92700496D01*
X141886423Y-93020616D02*
X141669142Y-93237897D01*
%TO.C,R20*%
X124418541Y-92217864D02*
X124635822Y-92435145D01*
X124955942Y-91680463D02*
X125173223Y-91897744D01*
%TO.C,R50*%
X150417559Y-104572800D02*
X150724841Y-104572800D01*
X150417559Y-105332800D02*
X150724841Y-105332800D01*
%TO.C,R41*%
X138194398Y-88525839D02*
X137977117Y-88743120D01*
X138731799Y-89063240D02*
X138514518Y-89280521D01*
%TO.C,R35*%
X134333598Y-104469721D02*
X134116317Y-104252440D01*
X134870999Y-103932320D02*
X134653718Y-103715039D01*
%TO.C,R14*%
X127587494Y-90502015D02*
X127804775Y-90719296D01*
X127050093Y-91039416D02*
X127267374Y-91256697D01*
%TO.C,R39*%
X144899998Y-95129839D02*
X144682717Y-95347120D01*
X145437399Y-95667240D02*
X145220118Y-95884521D01*
%TO.C,R8*%
X134536798Y-85681039D02*
X134319517Y-85898320D01*
X135074199Y-86218440D02*
X134856918Y-86435721D01*
%TO.C,R6*%
X139510174Y-89851663D02*
X139292893Y-90068944D01*
X140047575Y-90389064D02*
X139830294Y-90606345D01*
%TO.C,R34*%
X133673198Y-105130121D02*
X133455917Y-104912840D01*
X134210599Y-104592720D02*
X133993318Y-104375439D01*
%TO.C,R9*%
X133469998Y-84766639D02*
X133252717Y-84983920D01*
X134007399Y-85304040D02*
X133790118Y-85521321D01*
%TO.C,R43*%
X136873598Y-87205039D02*
X136656317Y-87422320D01*
X137410999Y-87742440D02*
X137193718Y-87959721D01*
%TO.C,R12*%
X128370893Y-89718616D02*
X128588174Y-89935897D01*
X128908294Y-89181215D02*
X129125575Y-89398496D01*
%TO.C,R5*%
X140165550Y-90517087D02*
X139948269Y-90734368D01*
X140702951Y-91054488D02*
X140485670Y-91271769D01*
%TO.C,R10*%
X129696717Y-88402840D02*
X129913998Y-88620121D01*
X130234118Y-87865439D02*
X130451399Y-88082720D01*
%TO.C,C20*%
X126852000Y-76127436D02*
X126852000Y-75911764D01*
X126132000Y-76127436D02*
X126132000Y-75911764D01*
%TO.C,C24*%
X136351600Y-76206236D02*
X136351600Y-75990564D01*
X135631600Y-76206236D02*
X135631600Y-75990564D01*
%TO.C,C25*%
X146664000Y-76155436D02*
X146664000Y-75939764D01*
X145944000Y-76155436D02*
X145944000Y-75939764D01*
%TO.C,R48*%
X114961641Y-81357200D02*
X114654359Y-81357200D01*
X114961641Y-82117200D02*
X114654359Y-82117200D01*
%TO.C,C32*%
X120442400Y-77638964D02*
X120442400Y-77854636D01*
X121162400Y-77638964D02*
X121162400Y-77854636D01*
%TO.C,C23*%
X132338400Y-76155436D02*
X132338400Y-75939764D01*
X131618400Y-76155436D02*
X131618400Y-75939764D01*
%TO.C,C27*%
X129180000Y-69030964D02*
X129180000Y-69246636D01*
X129900000Y-69030964D02*
X129900000Y-69246636D01*
%TO.C,C34*%
X114893036Y-80166800D02*
X114677364Y-80166800D01*
X114893036Y-79446800D02*
X114677364Y-79446800D01*
%TO.C,R49*%
X114938841Y-80392000D02*
X114631559Y-80392000D01*
X114938841Y-81152000D02*
X114631559Y-81152000D01*
%TO.C,C26*%
X134006000Y-69081764D02*
X134006000Y-69297436D01*
X134726000Y-69081764D02*
X134726000Y-69297436D01*
%TO.C,R46*%
X117854759Y-74245200D02*
X118162041Y-74245200D01*
X117854759Y-75005200D02*
X118162041Y-75005200D01*
%TO.C,C28*%
X112598810Y-105079293D02*
X112446307Y-104926790D01*
X112089693Y-105588410D02*
X111937190Y-105435907D01*
%TO.C,C22*%
X127198800Y-76155436D02*
X127198800Y-75939764D01*
X127918800Y-76155436D02*
X127918800Y-75939764D01*
D13*
%TO.C,J2*%
X149819633Y-89153386D02*
X151669633Y-89153386D01*
X151669633Y-100673386D02*
X149819633Y-100673386D01*
D14*
X148544633Y-99713386D02*
G75*
G02*
X148344633Y-99713386I-100000J0D01*
G01*
X148344633Y-99713386D02*
G75*
G02*
X148544633Y-99713386I100000J0D01*
G01*
D12*
%TO.C,C31*%
X120197200Y-77638964D02*
X120197200Y-77854636D01*
X119477200Y-77638964D02*
X119477200Y-77854636D01*
%TO.C,D2*%
X119594400Y-69351600D02*
X121554400Y-69351600D01*
X119594400Y-70551600D02*
X121554400Y-70551600D01*
X121554400Y-69351600D02*
X121554400Y-70551600D01*
D13*
%TO.C,J3*%
X114259633Y-89153386D02*
X116109633Y-89153386D01*
X116109633Y-100673386D02*
X114259633Y-100673386D01*
D14*
X112984633Y-99713386D02*
G75*
G02*
X112784633Y-99713386I-100000J0D01*
G01*
X112784633Y-99713386D02*
G75*
G02*
X112984633Y-99713386I100000J0D01*
G01*
D12*
%TO.C,R45*%
X121972041Y-73330800D02*
X121664759Y-73330800D01*
X121972041Y-74090800D02*
X121664759Y-74090800D01*
%TO.C,R51*%
X152121600Y-77976759D02*
X152121600Y-78284041D01*
X152881600Y-77976759D02*
X152881600Y-78284041D01*
%TO.C,R47*%
X118162041Y-73280000D02*
X117854759Y-73280000D01*
X118162041Y-74040000D02*
X117854759Y-74040000D01*
%TO.C,C21*%
X125192401Y-76132636D02*
X125192401Y-75916964D01*
X125912401Y-76132636D02*
X125912401Y-75916964D01*
%TO.C,D1*%
X114767200Y-70551600D02*
X114767200Y-69351600D01*
X116727200Y-69351600D02*
X114767200Y-69351600D01*
X116727200Y-70551600D02*
X114767200Y-70551600D01*
%TD*%
M02*
