%TF.GenerationSoftware,KiCad,Pcbnew,9.0.4*%
%TF.CreationDate,2026-04-14T18:53:30-07:00*%
%TF.ProjectId,stm32_system_on_module,73746d33-325f-4737-9973-74656d5f6f6e,rev?*%
%TF.SameCoordinates,Original*%
%TF.FileFunction,Copper,L3,Inr*%
%TF.FilePolarity,Positive*%
%FSLAX46Y46*%
G04 Gerber Fmt 4.6, Leading zero omitted, Abs format (unit mm)*
G04 Created by KiCad (PCBNEW 9.0.4) date 2026-04-14 18:53:30*
%MOMM*%
%LPD*%
G01*
G04 APERTURE LIST*
%TA.AperFunction,ComponentPad*%
%ADD10C,4.400000*%
%TD*%
%TA.AperFunction,ViaPad*%
%ADD11C,0.450000*%
%TD*%
%TA.AperFunction,ViaPad*%
%ADD12C,0.600000*%
%TD*%
%TA.AperFunction,Conductor*%
%ADD13C,0.177800*%
%TD*%
%TA.AperFunction,Conductor*%
%ADD14C,0.254000*%
%TD*%
%TA.AperFunction,Conductor*%
%ADD15C,0.200000*%
%TD*%
G04 APERTURE END LIST*
D10*
%TO.N,GND*%
%TO.C,H1*%
X150744633Y-68783200D03*
%TD*%
D11*
%TO.N,+3V3*%
X132181600Y-100431600D03*
%TO.N,/MCU/SWD.CLK*%
X133350000Y-109982000D03*
%TO.N,/MCU/SWD.DIO*%
X132105400Y-109956600D03*
%TO.N,Net-(VR1-EN)*%
X116749732Y-82248132D03*
%TO.N,LINE*%
X117031050Y-80250750D03*
%TO.N,+3V3*%
X116746800Y-81508600D03*
%TO.N,PB.0*%
X128053658Y-94709660D03*
%TO.N,PB.1*%
X115095800Y-94081600D03*
%TO.N,GND*%
X115722400Y-98831400D03*
D12*
X111201200Y-76174600D03*
X111937800Y-68122800D03*
X113842800Y-71297800D03*
X111582200Y-70815200D03*
%TO.N,/MCU/NRST*%
X149275800Y-81305400D03*
%TO.N,VBUS*%
X117170200Y-82905600D03*
X111785400Y-93345000D03*
X111734600Y-92100400D03*
X111785400Y-90779600D03*
X111810800Y-89458800D03*
%TO.N,GND*%
X116865400Y-84074000D03*
D11*
%TO.N,PB.11*%
X115095800Y-94919800D03*
D12*
%TO.N,GND*%
X111023400Y-96062800D03*
X112623600Y-95631000D03*
X111658400Y-95123000D03*
D11*
%TO.N,PA.7*%
X113319646Y-87997576D03*
%TO.N,PA.6*%
X113814808Y-87576484D03*
%TO.N,PA.5*%
X114464781Y-87582744D03*
%TO.N,PB.2*%
X125095000Y-94589600D03*
%TO.N,GND*%
X111738785Y-103942191D03*
%TO.N,PC.1*%
X150566788Y-91141244D03*
X142068305Y-96871146D03*
%TO.N,PF.7*%
X142426458Y-85699212D03*
%TO.N,PC.15*%
X151384000Y-87782400D03*
%TO.N,PE.6*%
X146354800Y-91664900D03*
%TO.N,PC.14*%
X149098000Y-88289400D03*
%TO.N,PC.13*%
X148573922Y-88762451D03*
%TO.N,PC.7*%
X125780800Y-106556380D03*
%TO.N,PC.8*%
X126825073Y-106634326D03*
%TO.N,PA.12*%
X112217200Y-96797321D03*
%TO.N,PA.11*%
X111847337Y-97331834D03*
%TO.N,PA.10*%
X111201200Y-98501200D03*
%TO.N,PA.9*%
X112145769Y-99013038D03*
%TO.N,PA.8*%
X112214779Y-99667179D03*
%TO.N,UART.TX*%
X115232918Y-73322918D03*
X117918825Y-97563589D03*
%TO.N,GND*%
X114849399Y-92392876D03*
X149809200Y-88849200D03*
%TO.N,PE.4*%
X150920900Y-93044137D03*
D12*
%TO.N,FMC.A4*%
X145643600Y-68021200D03*
%TO.N,Net-(D6-K)*%
X152501600Y-76660450D03*
D11*
%TO.N,PE.5*%
X150278019Y-92602500D03*
%TO.N,PE.3*%
X150510566Y-94411800D03*
%TO.N,PC.9*%
X122631200Y-110083600D03*
%TO.N,PA.8*%
X125533823Y-107906223D03*
%TO.N,PA.9*%
X124411005Y-109822800D03*
%TO.N,GND*%
X128422400Y-103022400D03*
%TO.N,PA.10*%
X125006391Y-110083600D03*
%TO.N,PA.11*%
X125806394Y-110083600D03*
%TO.N,PA.12*%
X126606397Y-110083600D03*
%TO.N,GND*%
X127406400Y-110083600D03*
X120243600Y-107892400D03*
X153162000Y-91490800D03*
X153162000Y-94030800D03*
X153619200Y-93370400D03*
X153568400Y-92252800D03*
X153568400Y-90830400D03*
X153517600Y-89712800D03*
X151790400Y-104902000D03*
%TO.N,PC.10*%
X153720800Y-99974400D03*
%TO.N,PC.11*%
X153760346Y-98962763D03*
%TO.N,PC.12*%
X151307093Y-97714507D03*
%TO.N,PD.2*%
X153758357Y-98131920D03*
%TO.N,PD.3*%
X153756170Y-97217617D03*
%TO.N,PD.4*%
X153720800Y-96418400D03*
%TO.N,PD.5*%
X153365200Y-95300800D03*
%TO.N,PG.9*%
X150266400Y-96418400D03*
%TO.N,PD.7*%
X151169604Y-95651712D03*
%TO.N,PD.6*%
X151231600Y-92456000D03*
%TO.N,PA.15*%
X137312400Y-109931200D03*
%TO.N,PC.10*%
X138887200Y-109321600D03*
%TO.N,PC.11*%
X138306377Y-108646198D03*
%TO.N,PC.12*%
X137740689Y-108080511D03*
%TO.N,PD.2*%
X141122400Y-109220000D03*
%TO.N,PD.3*%
X140208000Y-108102400D03*
%TO.N,PD.4*%
X139598400Y-107340400D03*
%TO.N,PD.5*%
X139242800Y-106527600D03*
%TO.N,PD.6*%
X138785600Y-100533200D03*
%TO.N,PD.7*%
X139207384Y-101310584D03*
%TO.N,PG.9*%
X140106400Y-101244400D03*
%TO.N,PG.10*%
X141173200Y-104495600D03*
%TO.N,PG.11*%
X142087600Y-105511600D03*
X150416300Y-99103702D03*
%TO.N,PG.12*%
X142051778Y-106405573D03*
%TO.N,PG.13*%
X142544800Y-107035600D03*
%TO.N,GND*%
X146507200Y-103479600D03*
%TO.N,PG.14*%
X144627600Y-105054400D03*
%TO.N,PB.3*%
X145468665Y-102559669D03*
%TO.N,GND*%
X141992305Y-95917540D03*
%TO.N,PB.4*%
X146944048Y-101970770D03*
%TO.N,PG.3*%
X126492000Y-101498400D03*
%TO.N,PG.2*%
X127152400Y-100990400D03*
X114693826Y-100129792D03*
%TO.N,PD.13*%
X123799600Y-95453200D03*
X121124600Y-94652539D03*
%TO.N,PD.12*%
X114757200Y-97434400D03*
%TO.N,PB.5*%
X145338800Y-101286600D03*
%TO.N,PB.6*%
X145897600Y-100685600D03*
%TO.N,PB.7*%
X145219335Y-100043065D03*
%TO.N,PB.8*%
X144961161Y-96690105D03*
%TO.N,PB.9*%
X146337400Y-99380618D03*
X150138924Y-95781020D03*
%TO.N,PD.11*%
X114812611Y-95953475D03*
X123139200Y-96520000D03*
%TO.N,PB.13*%
X118083757Y-96514100D03*
%TO.N,PB.12*%
X118490800Y-95928725D03*
D12*
%TO.N,UART.RX*%
X115620800Y-76504800D03*
D11*
X114972983Y-96583383D03*
D12*
%TO.N,GND*%
X117500400Y-77520800D03*
X120192800Y-72237600D03*
%TO.N,+5V*%
X112115600Y-74422000D03*
X113334800Y-73710800D03*
%TO.N,+3V3*%
X112725200Y-86969600D03*
X112877600Y-86258400D03*
X112877600Y-85547200D03*
X112826800Y-84836000D03*
X110896400Y-86537800D03*
X110871000Y-85826600D03*
X110896400Y-85064600D03*
X110998000Y-84328000D03*
X110896400Y-83642200D03*
X110871000Y-82905600D03*
D11*
%TO.N,GND*%
X130708400Y-109982000D03*
%TO.N,/MCU/BOOT*%
X149191600Y-104952800D03*
%TO.N,+3V3*%
X152857200Y-107289600D03*
%TO.N,FMC.D7*%
X135998102Y-92100400D03*
%TO.N,+3V3*%
X142900400Y-102108000D03*
%TO.N,FMC.BA0*%
X140926601Y-81026000D03*
%TO.N,+3V3*%
X112770100Y-106455337D03*
%TO.N,FMC.D6*%
X126339600Y-92252800D03*
%TO.N,FMC.SDNWE*%
X132791200Y-87630000D03*
%TO.N,FMC.A10*%
X142290800Y-80314800D03*
%TO.N,FMC.SDNRAS*%
X139141200Y-79908400D03*
%TO.N,FMC.SDCLK*%
X123698000Y-105918000D03*
%TO.N,+3V3*%
X145294407Y-94149568D03*
X139370458Y-105311580D03*
X132486400Y-108102400D03*
X128981200Y-103632000D03*
%TO.N,GND*%
X123643634Y-99319673D03*
%TO.N,+3V3*%
X122301658Y-100993580D03*
X118301696Y-93812907D03*
D12*
%TO.N,FMC.A3*%
X143865600Y-84734780D03*
D11*
%TO.N,FMC.A2*%
X143154400Y-81889600D03*
%TO.N,FMC.A1*%
X143967200Y-79959200D03*
%TO.N,FMC.A0*%
X143154400Y-79552800D03*
%TO.N,FMC.BA1*%
X141553601Y-79654400D03*
%TO.N,FMC.SDNE0*%
X139954000Y-79400400D03*
%TO.N,FMC.SDNCAS*%
X139649200Y-81635600D03*
%TO.N,FMC.SDNWE*%
X136956800Y-81534000D03*
D12*
%TO.N,FMC.NBL0*%
X137261600Y-77114400D03*
D11*
%TO.N,FMC.D7*%
X135178800Y-79400400D03*
%TO.N,FMC.D6*%
X131589399Y-84389089D03*
%TO.N,FMC.D5*%
X132232400Y-80365600D03*
%TO.N,FMC.D4*%
X131419600Y-79552800D03*
%TO.N,FMC.D3*%
X130352800Y-79451200D03*
%TO.N,FMC.D2*%
X129754870Y-79982693D03*
%TO.N,FMC.D1*%
X127965200Y-79400400D03*
%TO.N,FMC.D0*%
X126390400Y-79400400D03*
D12*
%TO.N,FMC.A5*%
X144767203Y-69511800D03*
%TO.N,FMC.A6*%
X144526000Y-70815200D03*
%TO.N,FMC.A7*%
X138379200Y-74726800D03*
%TO.N,FMC.A8*%
X136906000Y-73914000D03*
%TO.N,FMC.A9*%
X141553601Y-67894799D03*
%TO.N,FMC.A11*%
X140753603Y-67906403D03*
%TO.N,FMC.SDCKE0*%
X139153603Y-67907197D03*
%TO.N,FMC.SDCLK*%
X138353602Y-67894002D03*
%TO.N,FMC.NBL1*%
X138526603Y-70764400D03*
%TO.N,FMC.D8*%
X135432800Y-68427600D03*
%TO.N,FMC.D9*%
X133400800Y-68580000D03*
%TO.N,FMC.D10*%
X129660889Y-70756616D03*
%TO.N,FMC.D11*%
X131165600Y-67919600D03*
%TO.N,FMC.D12*%
X128320800Y-70104000D03*
%TO.N,FMC.D13*%
X126966600Y-69189600D03*
%TO.N,FMC.D14*%
X127965200Y-67919600D03*
%TO.N,FMC.D15*%
X126339600Y-67919600D03*
%TO.N,+3V3*%
X135940800Y-77317600D03*
D11*
%TO.N,FMC.SDNRAS*%
X131589400Y-85318600D03*
%TO.N,FMC.A6*%
X135483600Y-90525600D03*
%TO.N,FMC.A7*%
X129616858Y-90427180D03*
%TO.N,FMC.A8*%
X132080000Y-90627200D03*
%TO.N,FMC.A9*%
X133105844Y-89491756D03*
%TO.N,FMC.D12*%
X124028858Y-94237180D03*
%TO.N,FMC.SDNCAS*%
X145237200Y-103479600D03*
%TO.N,FMC.NBL0*%
X146859820Y-99986491D03*
%TO.N,FMC.NBL1*%
X151282400Y-102514400D03*
%TO.N,FMC.A2*%
X141173200Y-94437200D03*
%TO.N,FMC.A3*%
X139980058Y-93068780D03*
%TO.N,FMC.A4*%
X139472058Y-91747980D03*
%TO.N,FMC.A5*%
X138811658Y-91087580D03*
%TO.N,FMC.SDNE0*%
X133553200Y-86512400D03*
%TO.N,FMC.A1*%
X145466458Y-87734780D03*
%TO.N,FMC.A0*%
X145473800Y-82550000D03*
%TO.N,FMC.D3*%
X135371102Y-102633024D03*
%TO.N,FMC.D2*%
X133186819Y-103468819D03*
%TO.N,FMC.BA1*%
X122897998Y-105919000D03*
%TO.N,FMC.BA0*%
X121974125Y-104544624D03*
%TO.N,FMC.D11*%
X117652800Y-90220800D03*
%TO.N,FMC.D10*%
X118237658Y-89512780D03*
%TO.N,FMC.D9*%
X118898058Y-88852380D03*
%TO.N,FMC.D8*%
X119558458Y-88191980D03*
%TO.N,FMC.D5*%
X120676058Y-86515580D03*
%TO.N,FMC.D4*%
X123254644Y-81039844D03*
%TO.N,FMC.A11*%
X123901200Y-81280000D03*
%TO.N,FMC.A10*%
X123571658Y-84229580D03*
%TO.N,FMC.D1*%
X121121818Y-104510218D03*
%TO.N,FMC.D0*%
X120791619Y-103570419D03*
%TO.N,FMC.D15*%
X119507658Y-101704780D03*
%TO.N,FMC.D14*%
X118694858Y-100942780D03*
%TO.N,FMC.D13*%
X117886551Y-98689589D03*
%TO.N,Net-(U1E-PE15)*%
X121895258Y-92967180D03*
%TO.N,GND*%
X123927258Y-90782780D03*
%TO.N,+3V3*%
X121793658Y-88903180D03*
%TO.N,GND*%
X126298529Y-84686780D03*
%TO.N,+3V3*%
X124841658Y-84229580D03*
X130219112Y-81341326D03*
%TO.N,Net-(U1E-PE10)*%
X123602786Y-91346004D03*
%TO.N,Net-(U1E-PE9)*%
X125146458Y-90274780D03*
D12*
%TO.N,+3V3*%
X129540000Y-67919600D03*
X131953201Y-77266800D03*
D11*
X146412400Y-91017458D03*
X142164458Y-83975580D03*
D12*
X125552401Y-77266800D03*
D11*
X142316858Y-86972780D03*
D12*
X152501600Y-73307650D03*
X119837200Y-75641200D03*
D11*
X137351617Y-82745611D03*
D12*
X134366000Y-67919600D03*
X127127201Y-77266800D03*
X146329601Y-77266800D03*
D11*
%TO.N,Net-(U1C-PC2)*%
X135523619Y-85231619D03*
D12*
%TO.N,GND*%
X125552401Y-65786000D03*
X127178001Y-65786000D03*
X135966401Y-65836800D03*
X146380401Y-65836800D03*
D11*
X134823200Y-83820000D03*
D12*
X129565601Y-77317600D03*
D11*
X142233485Y-87752459D03*
D12*
X131953201Y-65786000D03*
D11*
X132120354Y-83544292D03*
X138811658Y-83213580D03*
D12*
X134340801Y-77317600D03*
X116281200Y-71932800D03*
D11*
%TO.N,Net-(U1F-PF2)*%
X142316858Y-91287600D03*
%TO.N,Net-(U1D-PD1)*%
X135463882Y-105113404D03*
%TO.N,Net-(U1E-PE2)*%
X145923658Y-94643580D03*
%TO.N,Net-(U1F-PF13)*%
X127187967Y-88030071D03*
%TO.N,Net-(U1F-PF8)*%
X139280528Y-88168487D03*
%TO.N,Net-(U1D-PD0)*%
X135306458Y-106225980D03*
%TO.N,Net-(U1F-PF10)*%
X138140198Y-87032483D03*
D12*
%TO.N,Net-(U1F-PF6)*%
X139878458Y-88699980D03*
D11*
%TO.N,Net-(U1F-PF14)*%
X126873658Y-89055580D03*
%TO.N,Net-(U1F-PF4)*%
X141148458Y-90071580D03*
%TO.N,Net-(U1B-PB10)*%
X121389770Y-93731692D03*
%TO.N,Net-(U1F-PF11)*%
X128981658Y-86648262D03*
%TO.N,Net-(U1F-PF3)*%
X141683012Y-90799498D03*
%TO.N,Net-(U1F-PF15)*%
X125707311Y-89108472D03*
%TO.N,Net-(U1F-PF5)*%
X140589658Y-89309580D03*
%TO.N,Net-(U1F-PF12)*%
X127660400Y-87325200D03*
%TO.N,Net-(U1C-PC3)*%
X134975600Y-84632800D03*
%TO.N,Net-(U1C-PC0)*%
X136521910Y-86229910D03*
%TO.N,Net-(U1F-PF9)*%
X138697346Y-87620468D03*
%TO.N,/MCU/NRST*%
X134874000Y-89763600D03*
%TO.N,QSPI.IO1*%
X115519200Y-106832400D03*
%TO.N,QSPI.IO3*%
X138100458Y-90427180D03*
X114096800Y-105359200D03*
%TO.N,QSPI.IO2*%
X116433600Y-105918000D03*
X144196458Y-96370780D03*
%TO.N,QSPI.NCS*%
X114655600Y-107696000D03*
%TO.N,QSPI.CLK*%
X115011200Y-104444800D03*
X136169058Y-88646000D03*
%TO.N,QSPI.IO0*%
X137490858Y-89766780D03*
X115874800Y-103581200D03*
D12*
%TO.N,Net-(U4-VBUS)*%
X120446800Y-74676000D03*
%TO.N,Net-(U4-~{RST})*%
X120446800Y-73710800D03*
%TO.N,/Input/USB.D+*%
X117754400Y-69951600D03*
X118059200Y-76454000D03*
%TO.N,/Input/USB.D-*%
X118567200Y-71120000D03*
X118922800Y-76403200D03*
%TO.N,+5V*%
X114249200Y-73761600D03*
X123850400Y-69037200D03*
X119227600Y-67665600D03*
X120142000Y-71170800D03*
D11*
%TO.N,PG.3*%
X114503200Y-100939600D03*
%TO.N,PA.4*%
X115095800Y-87426800D03*
%TD*%
D13*
%TO.N,PD.11*%
X121462800Y-98196400D02*
X123139200Y-96520000D01*
X121462800Y-100838000D02*
X121462800Y-98196400D01*
X119583200Y-102717600D02*
X121462800Y-100838000D01*
X117832904Y-102717600D02*
X119583200Y-102717600D01*
X115262084Y-100146780D02*
X117832904Y-102717600D01*
X115262084Y-99974337D02*
X115262084Y-100146780D01*
X115112800Y-99825053D02*
X115262084Y-99974337D01*
X114198400Y-98907600D02*
X115112800Y-99822000D01*
X114198400Y-96631200D02*
X114198400Y-98907600D01*
X114812611Y-95953475D02*
X114812611Y-96016989D01*
X114812611Y-96016989D02*
X114198400Y-96631200D01*
X115112800Y-99822000D02*
X115112800Y-99825053D01*
D14*
%TO.N,FMC.A11*%
X124155200Y-80416400D02*
X126238000Y-78333600D01*
X129920127Y-78333600D02*
X130720664Y-77533063D01*
X124155200Y-81026000D02*
X124155200Y-80416400D01*
X123901200Y-81280000D02*
X124155200Y-81026000D01*
X126238000Y-78333600D02*
X129920127Y-78333600D01*
D13*
%TO.N,PC.1*%
X150645023Y-91141244D02*
X150566788Y-91141244D01*
X151746500Y-92242721D02*
X150645023Y-91141244D01*
X151746500Y-95988121D02*
X151746500Y-92242721D01*
X152224400Y-99358579D02*
X150774400Y-97908579D01*
X152224400Y-103271896D02*
X152224400Y-99358579D01*
X151785896Y-103710400D02*
X152224400Y-103271896D01*
X149650579Y-103710400D02*
X151785896Y-103710400D01*
X142811325Y-96871146D02*
X149650579Y-103710400D01*
X150774400Y-97908579D02*
X150774400Y-96960221D01*
X150774400Y-96960221D02*
X151746500Y-95988121D01*
X142068305Y-96871146D02*
X142811325Y-96871146D01*
%TO.N,PC.12*%
X137764902Y-108056298D02*
X137740689Y-108080511D01*
X138993498Y-108056298D02*
X137764902Y-108056298D01*
X139629500Y-108692300D02*
X138993498Y-108056298D01*
X140452345Y-108692300D02*
X139629500Y-108692300D01*
X140635845Y-108508800D02*
X140452345Y-108692300D01*
X142007445Y-108508800D02*
X140635845Y-108508800D01*
X146427045Y-104089200D02*
X142007445Y-108508800D01*
X152603200Y-103428800D02*
X151942800Y-104089200D01*
X151308507Y-97714507D02*
X152603200Y-99009200D01*
X151307093Y-97714507D02*
X151308507Y-97714507D01*
X151942800Y-104089200D02*
X146427045Y-104089200D01*
X152603200Y-99009200D02*
X152603200Y-103428800D01*
D15*
%TO.N,UART.RX*%
X115081199Y-96500801D02*
X115620800Y-95961200D01*
X115081199Y-96691599D02*
X115081199Y-96500801D01*
X114972983Y-96583383D02*
X115081199Y-96691599D01*
X115620800Y-95961200D02*
X115620800Y-76504800D01*
D13*
%TO.N,PG.2*%
X127152400Y-103297845D02*
X127152400Y-100990400D01*
X121341500Y-106507900D02*
X123942345Y-106507900D01*
X120539052Y-105959452D02*
X120793052Y-105959452D01*
X114767216Y-100187616D02*
X120539052Y-105959452D01*
X120793052Y-105959452D02*
X121341500Y-106507900D01*
X123942345Y-106507900D02*
X127152400Y-103297845D01*
X114693826Y-100129792D02*
X114751650Y-100187616D01*
X114751650Y-100187616D02*
X114767216Y-100187616D01*
D14*
%TO.N,FMC.NBL1*%
X148082000Y-92456000D02*
X148082000Y-89041723D01*
X149148800Y-93522800D02*
X148082000Y-92456000D01*
X151282400Y-102514400D02*
X149148800Y-100380800D01*
X149148800Y-100380800D02*
X149148800Y-93522800D01*
D13*
%TO.N,PA.8*%
X112159500Y-99722458D02*
X112214779Y-99667179D01*
X112159500Y-100340079D02*
X112159500Y-99722458D01*
X116223500Y-103066300D02*
X114885721Y-103066300D01*
X114885721Y-103066300D02*
X112159500Y-100340079D01*
X125229246Y-108210800D02*
X121368000Y-108210800D01*
X125533823Y-107906223D02*
X125229246Y-108210800D01*
X121368000Y-108210800D02*
X116223500Y-103066300D01*
D15*
%TO.N,UART.TX*%
X116221800Y-74311800D02*
X115232918Y-73322918D01*
X116221800Y-97222600D02*
X116221800Y-74311800D01*
X116562789Y-97563589D02*
X116221800Y-97222600D01*
X117918825Y-97563589D02*
X116562789Y-97563589D01*
D13*
%TO.N,PC.10*%
X147716745Y-109809900D02*
X139375500Y-109809900D01*
X139375500Y-109809900D02*
X138887200Y-109321600D01*
X153720800Y-99974400D02*
X153720800Y-103805845D01*
X153720800Y-103805845D02*
X147716745Y-109809900D01*
D14*
%TO.N,FMC.NBL0*%
X146964400Y-99900722D02*
X146964400Y-98941440D01*
X146859820Y-99986491D02*
X146878631Y-99986491D01*
X146878631Y-99986491D02*
X146964400Y-99900722D01*
%TO.N,FMC.NBL1*%
X148082000Y-88314723D02*
X148209000Y-88314723D01*
X147828000Y-88787723D02*
X147828000Y-88441723D01*
X148082000Y-80319797D02*
X138526603Y-70764400D01*
X148336000Y-88187723D02*
X148336000Y-87841723D01*
X148082000Y-87241723D02*
X148082000Y-87062479D01*
X148082000Y-87062479D02*
X148082000Y-80319797D01*
X147955000Y-88314723D02*
X148082000Y-88314723D01*
X148082000Y-87587723D02*
X148082000Y-87241723D01*
X147828000Y-88441723D02*
G75*
G02*
X147955000Y-88314700I127000J23D01*
G01*
X147955000Y-88914723D02*
G75*
G02*
X147827977Y-88787723I0J127023D01*
G01*
X148082000Y-89041723D02*
G75*
G03*
X147955000Y-88914700I-127000J23D01*
G01*
X148336000Y-87841723D02*
G75*
G03*
X148209000Y-87714700I-127000J23D01*
G01*
X148209000Y-87714723D02*
G75*
G02*
X148081977Y-87587723I0J127023D01*
G01*
X148209000Y-88314723D02*
G75*
G03*
X148336023Y-88187723I0J127023D01*
G01*
%TO.N,FMC.BA0*%
X122459014Y-104544624D02*
X122994458Y-104009180D01*
X121974125Y-104544624D02*
X122459014Y-104544624D01*
X122994458Y-104009180D02*
X122994458Y-103622763D01*
%TO.N,FMC.BA1*%
X122897998Y-105426440D02*
X124250458Y-104073980D01*
X122897998Y-105919000D02*
X122897998Y-105426440D01*
%TO.N,FMC.SDNRAS*%
X132664200Y-84447405D02*
X132664200Y-84201000D01*
X132336200Y-84775405D02*
X132664200Y-84447405D01*
X132336200Y-85087800D02*
X132336200Y-84775405D01*
X132105400Y-85318600D02*
X132336200Y-85087800D01*
X131589400Y-85318600D02*
X132105400Y-85318600D01*
%TO.N,QSPI.CLK*%
X120166527Y-108762800D02*
X115848527Y-104444800D01*
X126102532Y-108762800D02*
X120166527Y-108762800D01*
X130048000Y-96849327D02*
X130048000Y-104817332D01*
X115848527Y-104444800D02*
X115011200Y-104444800D01*
X136169058Y-90728269D02*
X130048000Y-96849327D01*
X130048000Y-104817332D02*
X126102532Y-108762800D01*
X136169058Y-88646000D02*
X136169058Y-90728269D01*
%TO.N,QSPI.IO3*%
X138100458Y-97408342D02*
X138100458Y-90427180D01*
X118898273Y-109270800D02*
X126238000Y-109270800D01*
X114986673Y-105359200D02*
X118898273Y-109270800D01*
X126238000Y-109270800D02*
X138100458Y-97408342D01*
X114096800Y-105359200D02*
X114986673Y-105359200D01*
%TO.N,FMC.SDNRAS*%
X138772800Y-79908400D02*
X139141200Y-79908400D01*
X137138400Y-80090000D02*
X137138400Y-80776800D01*
X137774000Y-79108400D02*
X137864800Y-79108400D01*
X137592400Y-79908400D02*
X137592400Y-79290000D01*
X138046400Y-80090000D02*
X138046400Y-80676800D01*
X138046400Y-79908400D02*
X138046400Y-80090000D01*
X138500400Y-80676800D02*
X138500400Y-80090000D01*
X137320000Y-80958400D02*
X137410800Y-80958400D01*
X136943612Y-79921587D02*
X136956800Y-79908400D01*
X138682000Y-79908400D02*
X138772800Y-79908400D01*
X136555552Y-81016753D02*
X136619757Y-80952547D01*
X136201999Y-80920021D02*
X136298731Y-81016753D01*
X135515258Y-81349944D02*
X135588797Y-81276404D01*
X133020582Y-83587796D02*
X132641008Y-83208222D01*
X134946743Y-81423483D02*
X135020284Y-81349943D01*
X134246143Y-81603088D02*
X134625718Y-81982663D01*
X134304690Y-82303689D02*
X133925116Y-81924115D01*
X138046400Y-79290000D02*
X138046400Y-79908400D01*
X134240486Y-82624717D02*
X134304689Y-82560512D01*
X137592400Y-80776800D02*
X137592400Y-80090000D01*
X132641008Y-82951400D02*
X132705213Y-82887196D01*
X136619757Y-80695726D02*
X136523024Y-80598993D01*
X133604089Y-82245142D02*
X133983664Y-82624717D01*
X133598432Y-83266770D02*
X133662635Y-83202565D01*
X132962035Y-82887195D02*
X133341610Y-83266770D01*
X134946743Y-81918458D02*
X134946743Y-81918457D01*
X132664200Y-84201000D02*
X133020581Y-83844618D01*
X134304689Y-82560512D02*
X134304689Y-82560511D01*
X136523024Y-80342172D02*
X136587230Y-80277968D01*
X136587230Y-80277968D02*
X136943612Y-79921587D01*
X137592400Y-80090000D02*
X137592400Y-79908400D01*
X138228000Y-80858400D02*
X138318800Y-80858400D01*
X135588797Y-81276404D02*
X135945178Y-80920021D01*
X134882540Y-81982663D02*
X134946743Y-81918458D01*
X133283062Y-82309347D02*
X133347267Y-82245143D01*
X133925116Y-81667293D02*
X133989321Y-81603089D01*
X133662636Y-82945743D02*
X133283062Y-82566169D01*
X133925116Y-81924115D02*
G75*
G02*
X133925112Y-81667289I128384J128415D01*
G01*
X135267770Y-81349944D02*
G75*
G03*
X135515258Y-81349944I123744J123746D01*
G01*
X134946744Y-81670969D02*
G75*
G02*
X134946717Y-81423458I123756J123769D01*
G01*
X137864800Y-79108400D02*
G75*
G02*
X138046400Y-79290000I0J-181600D01*
G01*
X137138400Y-80776800D02*
G75*
G03*
X137320000Y-80958400I181600J0D01*
G01*
X133020581Y-83844618D02*
G75*
G03*
X133020589Y-83587789I-128381J128418D01*
G01*
X136298731Y-81016753D02*
G75*
G03*
X136555552Y-81016754I128411J128412D01*
G01*
X133662635Y-83202565D02*
G75*
G03*
X133662590Y-82945789I-128435J128365D01*
G01*
X138318800Y-80858400D02*
G75*
G03*
X138500400Y-80676800I0J181600D01*
G01*
X136956800Y-79908400D02*
G75*
G02*
X137138400Y-80090000I0J-181600D01*
G01*
X135945178Y-80920021D02*
G75*
G02*
X136201999Y-80920020I128411J-128412D01*
G01*
X137592400Y-79290000D02*
G75*
G02*
X137774000Y-79108400I181600J0D01*
G01*
X132641008Y-83208222D02*
G75*
G02*
X132640997Y-82951389I128392J128422D01*
G01*
X134625718Y-81982663D02*
G75*
G03*
X134882540Y-81982663I128411J128406D01*
G01*
X138046400Y-80676800D02*
G75*
G03*
X138228000Y-80858400I181600J0D01*
G01*
X133347267Y-82245143D02*
G75*
G02*
X133604110Y-82245120I128433J-128457D01*
G01*
X133341610Y-83266770D02*
G75*
G03*
X133598432Y-83266770I128411J128406D01*
G01*
X132705213Y-82887196D02*
G75*
G02*
X132962010Y-82887219I128387J-128404D01*
G01*
X133283062Y-82566169D02*
G75*
G02*
X133283104Y-82309389I128438J128369D01*
G01*
X136523024Y-80598993D02*
G75*
G02*
X136523041Y-80342190I128376J128393D01*
G01*
X135020284Y-81349943D02*
G75*
G02*
X135267744Y-81349970I123716J-123757D01*
G01*
X134304689Y-82560511D02*
G75*
G03*
X134304690Y-82303689I-128389J128411D01*
G01*
X133989321Y-81603089D02*
G75*
G02*
X134246110Y-81603120I128379J-128411D01*
G01*
X138500400Y-80090000D02*
G75*
G02*
X138682000Y-79908400I181600J0D01*
G01*
X137410800Y-80958400D02*
G75*
G03*
X137592400Y-80776800I0J181600D01*
G01*
X134946743Y-81918457D02*
G75*
G03*
X134946757Y-81670957I-123743J123757D01*
G01*
X133983664Y-82624717D02*
G75*
G03*
X134240486Y-82624717I128411J128406D01*
G01*
X136619757Y-80952547D02*
G75*
G03*
X136619794Y-80695690I-128457J128447D01*
G01*
%TO.N,FMC.D10*%
X118270200Y-85691800D02*
X118270200Y-89480238D01*
X121056400Y-82905600D02*
X118270200Y-85691800D01*
X118270200Y-89480238D02*
X118237658Y-89512780D01*
X121056400Y-79400400D02*
X121056400Y-82905600D01*
X129660889Y-70795911D02*
X121056400Y-79400400D01*
X129660889Y-70756616D02*
X129660889Y-70795911D01*
%TO.N,FMC.D9*%
X131068859Y-70572530D02*
X130984007Y-70487678D01*
X133378864Y-68601936D02*
X133400800Y-68580000D01*
X131917388Y-70063413D02*
X131917388Y-70063412D01*
X133282104Y-69900777D02*
X133366956Y-69815924D01*
X132511360Y-69469444D02*
X132511358Y-69469442D01*
X130984007Y-70148266D02*
X131068859Y-70063415D01*
X127959268Y-73310332D02*
X129946400Y-71323200D01*
X132256801Y-69214885D02*
X132341654Y-69299738D01*
X132681063Y-69639147D02*
X132942693Y-69900777D01*
X133366956Y-69476512D02*
X133105326Y-69214882D01*
X131917389Y-69724000D02*
X131832537Y-69639148D01*
X131408271Y-70063415D02*
X131493124Y-70148268D01*
X131832536Y-70148268D02*
X131917388Y-70063413D01*
X132511358Y-69469442D02*
X132681063Y-69639147D01*
X131832537Y-69299736D02*
X131917389Y-69214885D01*
X130657600Y-71323200D02*
X131068858Y-70911942D01*
X133105326Y-68875471D02*
X133190180Y-68790619D01*
X133190180Y-68790619D02*
X133378864Y-68601936D01*
X132341654Y-69299738D02*
X132511360Y-69469444D01*
X129946400Y-71323200D02*
X130657600Y-71323200D01*
X133105326Y-69214882D02*
G75*
G02*
X133105349Y-68875495I169674J169682D01*
G01*
X131917389Y-69214885D02*
G75*
G02*
X132256801Y-69214885I169706J-169701D01*
G01*
X132942693Y-69900777D02*
G75*
G03*
X133282104Y-69900778I169706J169707D01*
G01*
X131917388Y-70063412D02*
G75*
G03*
X131917395Y-69723994I-169688J169712D01*
G01*
X131832537Y-69639148D02*
G75*
G02*
X131832495Y-69299694I169663J169748D01*
G01*
X130984007Y-70487678D02*
G75*
G02*
X130984035Y-70148294I169693J169678D01*
G01*
X131068859Y-70063415D02*
G75*
G02*
X131408271Y-70063415I169706J-169701D01*
G01*
X133366956Y-69815924D02*
G75*
G03*
X133366974Y-69476494I-169656J169724D01*
G01*
X131493124Y-70148268D02*
G75*
G03*
X131832536Y-70148268I169706J169708D01*
G01*
X131068858Y-70911942D02*
G75*
G03*
X131068895Y-70572494I-169658J169742D01*
G01*
X125454112Y-75815485D02*
X125518317Y-75751282D01*
X127444476Y-73825123D02*
X127959268Y-73310332D01*
X123206927Y-78319494D02*
X123657212Y-78769779D01*
X123271980Y-79411832D02*
X123336185Y-79347626D01*
X124234211Y-77035388D02*
X124234212Y-77035388D01*
X126417192Y-75109229D02*
X126867477Y-75559514D01*
X124812058Y-76457539D02*
X124876264Y-76393335D01*
X121666000Y-83159600D02*
X121666000Y-81330800D01*
X126738217Y-74531380D02*
X126802423Y-74467176D01*
X123914033Y-78769779D02*
X123978238Y-78705573D01*
X127830556Y-74596434D02*
X127380270Y-74146148D01*
X121666000Y-80422800D02*
X121666000Y-79918800D01*
X127059245Y-74467176D02*
X127509530Y-74917461D01*
X122564874Y-78961547D02*
X123015159Y-79411832D01*
X121984400Y-80695200D02*
X121847600Y-80695200D01*
X126096164Y-75173433D02*
X126160370Y-75109229D01*
X126160370Y-75109229D02*
X126160371Y-75109229D01*
X121666000Y-80513600D02*
X121666000Y-80422800D01*
X123527952Y-77741645D02*
X123592158Y-77677441D01*
X125133086Y-76393335D02*
X125300528Y-76560777D01*
X126482245Y-76201567D02*
X126546450Y-76137361D01*
X124620291Y-77806699D02*
X124170005Y-77356413D01*
X125621555Y-76239750D02*
X125454112Y-76072307D01*
X127188503Y-75238487D02*
X126738217Y-74788201D01*
X127380270Y-73889327D02*
X127444476Y-73825123D01*
X125775139Y-75751282D02*
X126225424Y-76201567D01*
X122166000Y-80967600D02*
X122166000Y-80876800D01*
X127766351Y-74917461D02*
X127830556Y-74853255D01*
X124491033Y-77035388D02*
X124587765Y-77132120D01*
X121847600Y-81149200D02*
X121984400Y-81149200D01*
X122950105Y-78319494D02*
X122950106Y-78319494D01*
X118898058Y-88852380D02*
X118898058Y-85927542D01*
X123978238Y-78448752D02*
X123527952Y-77998466D01*
X122629927Y-80053885D02*
X122694132Y-79989679D01*
X124908791Y-76811093D02*
X124812058Y-76714360D01*
X125518317Y-75751282D02*
X125518318Y-75751282D01*
X123848980Y-77677441D02*
X124299265Y-78127726D01*
X121922821Y-79603600D02*
X122373106Y-80053885D01*
X121666000Y-79918800D02*
X121666000Y-79603600D01*
X126802423Y-74467176D02*
X126802424Y-74467176D01*
X124170005Y-77099592D02*
X124234211Y-77035388D01*
X122243846Y-79025751D02*
X122308052Y-78961547D01*
X125557350Y-76560777D02*
X125621555Y-76496571D01*
X124556086Y-78127726D02*
X124620291Y-78063520D01*
X122694132Y-79732858D02*
X122243846Y-79282572D01*
X127124298Y-75559514D02*
X127188503Y-75495308D01*
X123336185Y-79090805D02*
X122885899Y-78640519D01*
X122308052Y-78961547D02*
X122308053Y-78961547D01*
X123592158Y-77677441D02*
X123592159Y-77677441D01*
X126546450Y-75880540D02*
X126096164Y-75430254D01*
X124844586Y-77132120D02*
X124908791Y-77067914D01*
X124876264Y-76393335D02*
X124876265Y-76393335D01*
X122885899Y-78383698D02*
X122950105Y-78319494D01*
X118898058Y-85927542D02*
X121666000Y-83159600D01*
X122885899Y-78640519D02*
G75*
G02*
X122885890Y-78383689I128401J128419D01*
G01*
X124620291Y-78063520D02*
G75*
G03*
X124620301Y-77806689I-128391J128420D01*
G01*
X127509530Y-74917461D02*
G75*
G03*
X127766351Y-74917462I128411J128412D01*
G01*
X126738217Y-74788201D02*
G75*
G02*
X126738226Y-74531390I128383J128401D01*
G01*
X125454112Y-76072307D02*
G75*
G02*
X125454116Y-75815489I128388J128407D01*
G01*
X126867477Y-75559514D02*
G75*
G03*
X127124298Y-75559515I128411J128412D01*
G01*
X124812058Y-76714360D02*
G75*
G02*
X124812008Y-76457490I128442J128460D01*
G01*
X126802424Y-74467176D02*
G75*
G02*
X127059245Y-74467175I128411J-128412D01*
G01*
X124299265Y-78127726D02*
G75*
G03*
X124556086Y-78127727I128411J128412D01*
G01*
X126225424Y-76201567D02*
G75*
G03*
X126482245Y-76201568I128411J128412D01*
G01*
X125300528Y-76560777D02*
G75*
G03*
X125557350Y-76560777I128411J128410D01*
G01*
X123527952Y-77998466D02*
G75*
G02*
X123527996Y-77741689I128448J128366D01*
G01*
X126160371Y-75109229D02*
G75*
G02*
X126417192Y-75109228I128411J-128412D01*
G01*
X123336185Y-79347626D02*
G75*
G03*
X123336201Y-79090789I-128385J128426D01*
G01*
X125621555Y-76496571D02*
G75*
G03*
X125621516Y-76239789I-128455J128371D01*
G01*
X124908791Y-77067914D02*
G75*
G03*
X124908795Y-76811089I-128391J128414D01*
G01*
X124234212Y-77035388D02*
G75*
G02*
X124491033Y-77035387I128411J-128412D01*
G01*
X124170005Y-77356413D02*
G75*
G02*
X124170002Y-77099589I128395J128413D01*
G01*
X124587765Y-77132120D02*
G75*
G03*
X124844586Y-77132121I128411J128412D01*
G01*
X123978238Y-78705573D02*
G75*
G03*
X123978201Y-78448789I-128438J128373D01*
G01*
X127380270Y-74146148D02*
G75*
G02*
X127380232Y-73889290I128430J128448D01*
G01*
X123592159Y-77677441D02*
G75*
G02*
X123848980Y-77677440I128411J-128412D01*
G01*
X122243846Y-79282572D02*
G75*
G02*
X122243884Y-79025789I128454J128372D01*
G01*
X126546450Y-76137361D02*
G75*
G03*
X126546401Y-75880589I-128450J128361D01*
G01*
X127188503Y-75495308D02*
G75*
G03*
X127188501Y-75238490I-128403J128408D01*
G01*
X125518318Y-75751282D02*
G75*
G02*
X125775139Y-75751281I128411J-128412D01*
G01*
X122694132Y-79989679D02*
G75*
G03*
X122694101Y-79732889I-128432J128379D01*
G01*
X123657212Y-78769779D02*
G75*
G03*
X123914033Y-78769780I128411J128412D01*
G01*
X123015159Y-79411832D02*
G75*
G03*
X123271980Y-79411833I128411J128412D01*
G01*
X126096164Y-75430254D02*
G75*
G02*
X126096120Y-75173390I128436J128454D01*
G01*
X122950106Y-78319494D02*
G75*
G02*
X123206927Y-78319493I128411J-128412D01*
G01*
X122308053Y-78961547D02*
G75*
G02*
X122564874Y-78961546I128411J-128412D01*
G01*
X121666000Y-81330800D02*
G75*
G02*
X121847600Y-81149200I181600J0D01*
G01*
X127830556Y-74853255D02*
G75*
G03*
X127830601Y-74596390I-128456J128455D01*
G01*
X121666000Y-79603600D02*
G75*
G02*
X121922821Y-79603599I128411J-128412D01*
G01*
X121847600Y-80695200D02*
G75*
G02*
X121666000Y-80513600I0J181600D01*
G01*
X122373106Y-80053885D02*
G75*
G03*
X122629927Y-80053886I128411J128412D01*
G01*
X124876265Y-76393335D02*
G75*
G02*
X125133086Y-76393334I128411J-128412D01*
G01*
X122166000Y-80876800D02*
G75*
G03*
X121984400Y-80695200I-181600J0D01*
G01*
X121984400Y-81149200D02*
G75*
G03*
X122166000Y-80967600I0J181600D01*
G01*
%TO.N,FMC.D8*%
X128384280Y-75121594D02*
X128738806Y-75121594D01*
X126499201Y-77361199D02*
X126499201Y-77006673D01*
X122994517Y-80411844D02*
X123448556Y-80411844D01*
X126499201Y-77006673D02*
X128384280Y-75121594D01*
X123448556Y-80411844D02*
X126499201Y-77361199D01*
X122626644Y-80779717D02*
X122994517Y-80411844D01*
X122123200Y-81737200D02*
X122626644Y-81233756D01*
X122626644Y-81233756D02*
X122626644Y-80779717D01*
X122123200Y-83616800D02*
X122123200Y-81737200D01*
X119558458Y-88191980D02*
X119558458Y-86181542D01*
X119558458Y-86181542D02*
X122123200Y-83616800D01*
%TO.N,FMC.D4*%
X123596400Y-82092800D02*
X124496547Y-82092800D01*
X123254644Y-81751044D02*
X123596400Y-82092800D01*
X123254644Y-81039844D02*
X123254644Y-81751044D01*
X131739600Y-81264800D02*
X131739600Y-81130800D01*
X129672147Y-82274400D02*
X129672147Y-82281200D01*
X129853747Y-82462800D02*
X129944547Y-82462800D01*
X129672147Y-81911200D02*
X129672147Y-82274400D01*
X129399747Y-81522800D02*
X129490547Y-81522800D01*
X131238000Y-80970800D02*
X130831200Y-80970800D01*
X131419600Y-80970800D02*
X131238000Y-80970800D01*
X130398547Y-82092800D02*
X130911600Y-82092800D01*
X128491747Y-79872800D02*
X128582547Y-79872800D01*
X128310147Y-81911200D02*
X128310147Y-80054400D01*
X125767747Y-79872800D02*
X125858547Y-79872800D01*
X131579600Y-80970800D02*
X131419600Y-80970800D01*
X131419600Y-79733944D02*
X131419600Y-79552800D01*
X125313747Y-82092800D02*
X125404547Y-82092800D01*
X128945747Y-82092800D02*
X129036547Y-82092800D01*
X127129747Y-82092800D02*
X127220547Y-82092800D01*
X131419600Y-80244400D02*
X131419600Y-79733944D01*
X131267981Y-81736418D02*
X131419600Y-81584800D01*
X130911600Y-82092800D02*
X131267981Y-81736418D01*
X130649600Y-80789200D02*
X130649600Y-80698400D01*
X127583747Y-80022800D02*
X127674547Y-80022800D01*
X124678147Y-81911200D02*
X124678147Y-81454400D01*
X127856147Y-80204400D02*
X127856147Y-81911200D01*
X124859747Y-81272800D02*
X124950547Y-81272800D01*
X130126147Y-82281200D02*
X130126147Y-82274400D01*
X127402147Y-81911200D02*
X127402147Y-80204400D01*
X126675747Y-80022800D02*
X126766547Y-80022800D01*
X129672147Y-81704400D02*
X129672147Y-81911200D01*
X126948147Y-80204400D02*
X126948147Y-81911200D01*
X128764147Y-80054400D02*
X128764147Y-81911200D01*
X131419600Y-80335200D02*
X131419600Y-80244400D01*
X126040147Y-80054400D02*
X126040147Y-81911200D01*
X130307747Y-82092800D02*
X130398547Y-82092800D01*
X128037747Y-82092800D02*
X128128547Y-82092800D01*
X126494147Y-81911200D02*
X126494147Y-80204400D01*
X125586147Y-81911200D02*
X125586147Y-80054400D01*
X130831200Y-80516800D02*
X131238000Y-80516800D01*
X125132147Y-81454400D02*
X125132147Y-81911200D01*
X126221747Y-82092800D02*
X126312547Y-82092800D01*
X129218147Y-81911200D02*
X129218147Y-81704400D01*
X125404547Y-82092800D02*
G75*
G03*
X125586100Y-81911200I-47J181600D01*
G01*
X127402147Y-80204400D02*
G75*
G02*
X127583747Y-80022847I181553J0D01*
G01*
X128310147Y-80054400D02*
G75*
G02*
X128491747Y-79872847I181553J0D01*
G01*
X126948147Y-81911200D02*
G75*
G03*
X127129747Y-82092753I181553J0D01*
G01*
X130126147Y-82274400D02*
G75*
G02*
X130307747Y-82092847I181553J0D01*
G01*
X125858547Y-79872800D02*
G75*
G02*
X126040100Y-80054400I-47J-181600D01*
G01*
X124950547Y-81272800D02*
G75*
G02*
X125132100Y-81454400I-47J-181600D01*
G01*
X129672147Y-82281200D02*
G75*
G03*
X129853747Y-82462753I181553J0D01*
G01*
X126766547Y-80022800D02*
G75*
G02*
X126948100Y-80204400I-47J-181600D01*
G01*
X129490547Y-81522800D02*
G75*
G02*
X129672100Y-81704400I-47J-181600D01*
G01*
X127220547Y-82092800D02*
G75*
G03*
X127402100Y-81911200I-47J181600D01*
G01*
X127856147Y-81911200D02*
G75*
G03*
X128037747Y-82092753I181553J0D01*
G01*
X130649600Y-80698400D02*
G75*
G02*
X130831200Y-80516800I181600J0D01*
G01*
X131579600Y-81424800D02*
G75*
G03*
X131739600Y-81264800I0J160000D01*
G01*
X126040147Y-81911200D02*
G75*
G03*
X126221747Y-82092753I181553J0D01*
G01*
X125586147Y-80054400D02*
G75*
G02*
X125767747Y-79872847I181553J0D01*
G01*
X130831200Y-80970800D02*
G75*
G02*
X130649600Y-80789200I0J181600D01*
G01*
X131739600Y-81130800D02*
G75*
G03*
X131579600Y-80970800I-160000J0D01*
G01*
X126494147Y-80204400D02*
G75*
G02*
X126675747Y-80022847I181553J0D01*
G01*
X131419600Y-81584800D02*
G75*
G02*
X131579600Y-81424800I160000J0D01*
G01*
X129944547Y-82462800D02*
G75*
G03*
X130126100Y-82281200I-47J181600D01*
G01*
X129218147Y-81704400D02*
G75*
G02*
X129399747Y-81522847I181553J0D01*
G01*
X124496547Y-82092800D02*
G75*
G03*
X124678100Y-81911200I-47J181600D01*
G01*
X124678147Y-81454400D02*
G75*
G02*
X124859747Y-81272847I181553J0D01*
G01*
X128764147Y-81911200D02*
G75*
G03*
X128945747Y-82092753I181553J0D01*
G01*
X125132147Y-81911200D02*
G75*
G03*
X125313747Y-82092753I181553J0D01*
G01*
X128582547Y-79872800D02*
G75*
G02*
X128764100Y-80054400I-47J-181600D01*
G01*
X126312547Y-82092800D02*
G75*
G03*
X126494100Y-81911200I-47J181600D01*
G01*
X131238000Y-80516800D02*
G75*
G03*
X131419600Y-80335200I0J181600D01*
G01*
X129036547Y-82092800D02*
G75*
G03*
X129218100Y-81911200I-47J181600D01*
G01*
X128128547Y-82092800D02*
G75*
G03*
X128310100Y-81911200I-47J181600D01*
G01*
X127674547Y-80022800D02*
G75*
G02*
X127856100Y-80204400I-47J-181600D01*
G01*
%TO.N,FMC.D5*%
X129738400Y-83566000D02*
X130505200Y-83566000D01*
X125418400Y-82576000D02*
X125538400Y-82576000D01*
X130647209Y-83423991D02*
X132232400Y-81838800D01*
X129618400Y-83566000D02*
X129738400Y-83566000D01*
X128778400Y-83326000D02*
X128778400Y-82816000D01*
X125778400Y-83326000D02*
X125778400Y-83566000D01*
X128778400Y-83566000D02*
X128778400Y-83326000D01*
X127578400Y-84766000D02*
X127578400Y-83566000D01*
X125778400Y-83566000D02*
X125778400Y-83816000D01*
X126378400Y-83566000D02*
X126378400Y-82816000D01*
X124218400Y-82576000D02*
X124338400Y-82576000D01*
X128778400Y-84766000D02*
X128778400Y-83566000D01*
X127578400Y-83566000D02*
X127578400Y-82816000D01*
X129378400Y-82816000D02*
X129378400Y-83326000D01*
X126978400Y-83566000D02*
X126978400Y-84766000D01*
X130505200Y-83566000D02*
X130647209Y-83423991D01*
X132232400Y-81838800D02*
X132232400Y-80365600D01*
X126978400Y-82816000D02*
X126978400Y-83566000D01*
X129018400Y-82576000D02*
X129138400Y-82576000D01*
X127818400Y-82576000D02*
X127938400Y-82576000D01*
X128178400Y-82816000D02*
X128178400Y-83566000D01*
X122433632Y-84220764D02*
X122518487Y-84135912D01*
X121585103Y-85069293D02*
X121669958Y-84984441D01*
X125178400Y-83326000D02*
X125178400Y-82816000D01*
X123088400Y-83566000D02*
X123738400Y-83566000D01*
X120676058Y-86515580D02*
X120676058Y-85978342D01*
X122518487Y-84135912D02*
X123088400Y-83566000D01*
X123978400Y-83326000D02*
X123978400Y-82816000D01*
X124668090Y-86794633D02*
X122433632Y-84560175D01*
X120676058Y-85978342D02*
X120821430Y-85832970D01*
X128178400Y-83566000D02*
X128178400Y-84766000D01*
X125778400Y-82816000D02*
X125778400Y-83326000D01*
X123734709Y-88067427D02*
X123819561Y-87982574D01*
X124578400Y-82816000D02*
X124578400Y-83326000D01*
X126018400Y-84056000D02*
X126138400Y-84056000D01*
X126618400Y-82576000D02*
X126738400Y-82576000D01*
X123819561Y-87643162D02*
X121585103Y-85408704D01*
X124583238Y-87218898D02*
X124668090Y-87134045D01*
X121160841Y-85832970D02*
X123395298Y-88067427D01*
X122009370Y-84984441D02*
X124243827Y-87218898D01*
X121669958Y-84984441D02*
X121669959Y-84984441D01*
X126378400Y-83816000D02*
X126378400Y-83566000D01*
X128418400Y-85006000D02*
X128538400Y-85006000D01*
X124818400Y-83566000D02*
X124938400Y-83566000D01*
X127218400Y-85006000D02*
X127338400Y-85006000D01*
X124938400Y-83566000D02*
G75*
G03*
X125178400Y-83326000I0J240000D01*
G01*
X129378400Y-83326000D02*
G75*
G03*
X129618400Y-83566000I240000J0D01*
G01*
X122433632Y-84560175D02*
G75*
G02*
X122433662Y-84220795I169668J169675D01*
G01*
X123395298Y-88067427D02*
G75*
G03*
X123734709Y-88067428I169706J169707D01*
G01*
X125538400Y-82576000D02*
G75*
G02*
X125778400Y-82816000I0J-240000D01*
G01*
X120821430Y-85832970D02*
G75*
G02*
X121160841Y-85832970I169705J-169707D01*
G01*
X125178400Y-82816000D02*
G75*
G02*
X125418400Y-82576000I240000J0D01*
G01*
X123978400Y-82816000D02*
G75*
G02*
X124218400Y-82576000I240000J0D01*
G01*
X124668090Y-87134045D02*
G75*
G03*
X124668129Y-86794594I-169690J169745D01*
G01*
X124578400Y-83326000D02*
G75*
G03*
X124818400Y-83566000I240000J0D01*
G01*
X126738400Y-82576000D02*
G75*
G02*
X126978400Y-82816000I0J-240000D01*
G01*
X128778400Y-82816000D02*
G75*
G02*
X129018400Y-82576000I240000J0D01*
G01*
X127938400Y-82576000D02*
G75*
G02*
X128178400Y-82816000I0J-240000D01*
G01*
X123819561Y-87982574D02*
G75*
G03*
X123819529Y-87643194I-169661J169674D01*
G01*
X125778400Y-83816000D02*
G75*
G03*
X126018400Y-84056000I240000J0D01*
G01*
X124243827Y-87218898D02*
G75*
G03*
X124583238Y-87218899I169706J169707D01*
G01*
X126138400Y-84056000D02*
G75*
G03*
X126378400Y-83816000I0J240000D01*
G01*
X124338400Y-82576000D02*
G75*
G02*
X124578400Y-82816000I0J-240000D01*
G01*
X121585103Y-85408704D02*
G75*
G02*
X121585104Y-85069295I169697J169704D01*
G01*
X129138400Y-82576000D02*
G75*
G02*
X129378400Y-82816000I0J-240000D01*
G01*
X127338400Y-85006000D02*
G75*
G03*
X127578400Y-84766000I0J240000D01*
G01*
X127578400Y-82816000D02*
G75*
G02*
X127818400Y-82576000I240000J0D01*
G01*
X126978400Y-84766000D02*
G75*
G03*
X127218400Y-85006000I240000J0D01*
G01*
X123738400Y-83566000D02*
G75*
G03*
X123978400Y-83326000I0J240000D01*
G01*
X128538400Y-85006000D02*
G75*
G03*
X128778400Y-84766000I0J240000D01*
G01*
X126378400Y-82816000D02*
G75*
G02*
X126618400Y-82576000I240000J0D01*
G01*
X121669959Y-84984441D02*
G75*
G02*
X122009370Y-84984440I169706J-169707D01*
G01*
X128178400Y-84766000D02*
G75*
G03*
X128418400Y-85006000I240000J0D01*
G01*
%TO.N,FMC.D11*%
X126894936Y-72037864D02*
X128200800Y-70732000D01*
X126516639Y-72416157D02*
X126601493Y-72331306D01*
X128948800Y-70364127D02*
X128948800Y-69984000D01*
X126601493Y-72331306D02*
X126894936Y-72037864D01*
X126615634Y-72854564D02*
X126516639Y-72755569D01*
X125922673Y-73010131D02*
X125922671Y-73010129D01*
X126092376Y-73179834D02*
X126191371Y-73278829D01*
X125158997Y-72246455D02*
X125922673Y-73010131D01*
X124734733Y-72331306D02*
X124819585Y-72246455D01*
X126530782Y-73278829D02*
X126615634Y-73193976D01*
X128948800Y-69984000D02*
X131013200Y-67919600D01*
X128200800Y-70732000D02*
X128580927Y-70732000D01*
X120446800Y-78486000D02*
X121086060Y-77846740D01*
X131013200Y-67919600D02*
X131165600Y-67919600D01*
X123377089Y-75555715D02*
X123377087Y-75555713D01*
X122507347Y-75195088D02*
X122592199Y-75110237D01*
X122952823Y-75979977D02*
X122507346Y-75534500D01*
X124225615Y-74707185D02*
X124494315Y-74975885D01*
X123886205Y-73179834D02*
X123971057Y-73094983D01*
X121086061Y-77507328D02*
X120810290Y-77231557D01*
X122528561Y-76404243D02*
X122528559Y-76404241D01*
X120446800Y-82871732D02*
X120446800Y-78486000D01*
X121658819Y-76043616D02*
X121743671Y-75958765D01*
X117652800Y-90220800D02*
X117609658Y-90177658D01*
X125498407Y-73434393D02*
X124734732Y-72670718D01*
X117609658Y-85708874D02*
X120446800Y-82871732D01*
X122083083Y-75958765D02*
X122528561Y-76404243D01*
X121680031Y-77252769D02*
X121948731Y-77521469D01*
X122931611Y-75110237D02*
X123377089Y-75555715D01*
X122952821Y-75979975D02*
X122952823Y-75979977D01*
X125498405Y-73434391D02*
X125498407Y-73434393D01*
X121510327Y-77083066D02*
X121680033Y-77252772D01*
X117609658Y-90177658D02*
X117609658Y-85708874D01*
X123355875Y-74346560D02*
X123440727Y-74261709D01*
X120810289Y-76892147D02*
X120895143Y-76807294D01*
X125767106Y-73703092D02*
X125498405Y-73434391D01*
X124833726Y-74975885D02*
X124918578Y-74891032D01*
X125682254Y-74127357D02*
X125767106Y-74042504D01*
X125074143Y-73858657D02*
X125342843Y-74127357D01*
X121234555Y-76807294D02*
X121510327Y-77083066D01*
X128580927Y-70732000D02*
X128948800Y-70364127D01*
X125074145Y-73858659D02*
X125074143Y-73858657D01*
X124225617Y-74707187D02*
X124225615Y-74707185D01*
X124310469Y-73094983D02*
X125074145Y-73858659D01*
X124649879Y-74282921D02*
X123886204Y-73519246D01*
X123780139Y-74261709D02*
X124225617Y-74707187D01*
X123801351Y-75131449D02*
X123355874Y-74685972D01*
X122104293Y-76828503D02*
X122104295Y-76828505D01*
X121680033Y-77252772D02*
X121680031Y-77252769D01*
X124070050Y-75400148D02*
X123801349Y-75131447D01*
X122288142Y-77521469D02*
X122372994Y-77436616D01*
X123221522Y-76248676D02*
X122952821Y-75979975D01*
X122104295Y-76828505D02*
X121658818Y-76383028D01*
X122528559Y-76404241D02*
X122797259Y-76672941D01*
X123985198Y-75824413D02*
X124070050Y-75739560D01*
X123136670Y-76672941D02*
X123221522Y-76588088D01*
X123801349Y-75131447D02*
X123801351Y-75131449D01*
X124649877Y-74282919D02*
X124649879Y-74282921D01*
X125922671Y-73010129D02*
X126092376Y-73179834D01*
X124918578Y-74551620D02*
X124649877Y-74282919D01*
X123377087Y-75555713D02*
X123645787Y-75824413D01*
X122372994Y-77097204D02*
X122104293Y-76828503D01*
X126191371Y-73278829D02*
G75*
G03*
X126530782Y-73278830I169706J169707D01*
G01*
X124918578Y-74891032D02*
G75*
G03*
X124918604Y-74551594I-169678J169732D01*
G01*
X126516639Y-72755569D02*
G75*
G02*
X126516676Y-72416194I169661J169669D01*
G01*
X125767106Y-74042504D02*
G75*
G03*
X125767104Y-73703094I-169706J169704D01*
G01*
X124734732Y-72670718D02*
G75*
G02*
X124734720Y-72331293I169668J169718D01*
G01*
X123440727Y-74261709D02*
G75*
G02*
X123780139Y-74261709I169706J-169701D01*
G01*
X123971057Y-73094983D02*
G75*
G02*
X124310469Y-73094983I169706J-169701D01*
G01*
X126615634Y-73193976D02*
G75*
G03*
X126615604Y-72854594I-169734J169676D01*
G01*
X125342843Y-74127357D02*
G75*
G03*
X125682254Y-74127358I169706J169707D01*
G01*
X123886204Y-73519246D02*
G75*
G02*
X123886164Y-73179794I169696J169746D01*
G01*
X124819585Y-72246455D02*
G75*
G02*
X125158997Y-72246455I169706J-169701D01*
G01*
X121743671Y-75958765D02*
G75*
G02*
X122083083Y-75958765I169706J-169701D01*
G01*
X120810290Y-77231557D02*
G75*
G02*
X120810337Y-76892196I169710J169657D01*
G01*
X122797259Y-76672941D02*
G75*
G03*
X123136670Y-76672942I169706J169707D01*
G01*
X124070050Y-75739560D02*
G75*
G03*
X124070004Y-75400194I-169750J169660D01*
G01*
X123645787Y-75824413D02*
G75*
G03*
X123985198Y-75824413I169705J169707D01*
G01*
X122507346Y-75534500D02*
G75*
G02*
X122507352Y-75195093I169754J169700D01*
G01*
X122592199Y-75110237D02*
G75*
G02*
X122931611Y-75110237I169706J-169701D01*
G01*
X123221522Y-76588088D02*
G75*
G03*
X123221504Y-76248694I-169722J169688D01*
G01*
X123355874Y-74685972D02*
G75*
G02*
X123355908Y-74346593I169726J169672D01*
G01*
X121086060Y-77846740D02*
G75*
G03*
X121086095Y-77507294I-169660J169740D01*
G01*
X122372994Y-77436616D02*
G75*
G03*
X122373004Y-77097194I-169694J169716D01*
G01*
X121948731Y-77521469D02*
G75*
G03*
X122288142Y-77521470I169706J169707D01*
G01*
X121658818Y-76383028D02*
G75*
G02*
X121658796Y-76043593I169682J169728D01*
G01*
X120895143Y-76807294D02*
G75*
G02*
X121234555Y-76807294I169706J-169708D01*
G01*
X124494315Y-74975885D02*
G75*
G03*
X124833726Y-74975886I169706J169707D01*
G01*
%TO.N,FMC.D15*%
X126339600Y-68529200D02*
X126339600Y-67919600D01*
X119989600Y-77012800D02*
X123240800Y-73761600D01*
X123240800Y-71628000D02*
X126339600Y-68529200D01*
X119989600Y-82180734D02*
X119989600Y-77012800D01*
X117024800Y-85145534D02*
X119989600Y-82180734D01*
X117024800Y-90862800D02*
X117024800Y-85145534D01*
X123240800Y-73761600D02*
X123240800Y-71628000D01*
X119507658Y-93345658D02*
X117024800Y-90862800D01*
X119507658Y-97282000D02*
X119507658Y-93345658D01*
%TO.N,FMC.D8*%
X129332777Y-74527623D02*
X129870178Y-75065024D01*
X130605569Y-73254831D02*
X130068168Y-72717430D01*
X131454095Y-72406301D02*
X131454097Y-72406303D01*
X132726889Y-71133511D02*
X132896594Y-71303216D01*
X130294441Y-74640759D02*
X129757039Y-74103357D01*
X133603701Y-71670912D02*
X133688553Y-71586059D01*
X129643905Y-73141695D02*
X130181307Y-73679097D01*
X131871291Y-70787028D02*
X131956143Y-70702177D01*
X132840025Y-72095175D02*
X132302623Y-71557773D01*
X129163073Y-74357920D02*
X129332779Y-74527626D01*
X129332779Y-74527626D02*
X129332777Y-74527623D01*
X128371111Y-74075077D02*
X128455965Y-73990224D01*
X131878361Y-71982039D02*
X132415762Y-72519440D01*
X130492433Y-72293167D02*
X131029835Y-72830569D01*
X131991497Y-72943703D02*
X131454095Y-72406301D01*
X133604000Y-70256400D02*
X135432800Y-68427600D01*
X130605567Y-73254829D02*
X130605569Y-73254831D01*
X129219641Y-73226546D02*
X129304493Y-73141695D01*
X129757039Y-74103357D02*
X129757041Y-74103359D01*
X131447027Y-71550705D02*
X131878363Y-71982041D01*
X128738807Y-74782182D02*
X128371112Y-74414487D01*
X132755173Y-72519440D02*
X132840025Y-72434587D01*
X133320857Y-70539540D02*
X133405711Y-70454688D01*
X133688553Y-71246647D02*
X133320857Y-70878951D01*
X131029833Y-72830567D02*
X131567234Y-73367968D01*
X131058117Y-74216496D02*
X131142969Y-74131643D01*
X131029835Y-72830569D02*
X131029833Y-72830567D01*
X131142969Y-73792231D02*
X130605567Y-73254829D01*
X131878363Y-71982041D02*
X131878361Y-71982039D01*
X130181305Y-73679095D02*
X130718706Y-74216496D01*
X132302625Y-71557775D02*
X131871290Y-71126440D01*
X133405711Y-70454688D02*
X133604000Y-70256400D01*
X131454097Y-72406303D02*
X131022762Y-71974968D01*
X129757041Y-74103359D02*
X129219640Y-73565958D01*
X132726891Y-71133513D02*
X132726889Y-71133511D01*
X132302623Y-71557773D02*
X132302625Y-71557775D01*
X128795377Y-73990224D02*
X129163073Y-74357920D01*
X130068169Y-72378018D02*
X130153021Y-72293167D01*
X131906645Y-73367968D02*
X131991497Y-73283115D01*
X132896594Y-71303216D02*
X133264290Y-71670912D01*
X131022763Y-71635556D02*
X131107615Y-71550705D01*
X130209589Y-75065024D02*
X130294441Y-74980171D01*
X132295555Y-70702177D02*
X132726891Y-71133513D01*
X130181307Y-73679097D02*
X130181305Y-73679095D01*
X133264290Y-71670912D02*
G75*
G03*
X133603701Y-71670913I169706J169707D01*
G01*
X133688553Y-71586059D02*
G75*
G03*
X133688506Y-71246694I-169753J169659D01*
G01*
X128738806Y-75121594D02*
G75*
G03*
X128738795Y-74782195I-169706J169694D01*
G01*
X131142969Y-74131643D02*
G75*
G03*
X131143006Y-73792194I-169669J169743D01*
G01*
X132840025Y-72434587D02*
G75*
G03*
X132840006Y-72095194I-169725J169687D01*
G01*
X129219640Y-73565958D02*
G75*
G02*
X129219688Y-73226594I169660J169658D01*
G01*
X132415762Y-72519440D02*
G75*
G03*
X132755173Y-72519441I169706J169707D01*
G01*
X130294441Y-74980171D02*
G75*
G03*
X130294406Y-74640794I-169741J169671D01*
G01*
X131107615Y-71550705D02*
G75*
G02*
X131447027Y-71550705I169706J-169701D01*
G01*
X130068168Y-72717430D02*
G75*
G02*
X130068144Y-72377994I169732J169730D01*
G01*
X133320857Y-70878951D02*
G75*
G02*
X133320811Y-70539495I169743J169751D01*
G01*
X131567234Y-73367968D02*
G75*
G03*
X131906645Y-73367969I169706J169707D01*
G01*
X128455965Y-73990224D02*
G75*
G02*
X128795377Y-73990224I169706J-169708D01*
G01*
X131991497Y-73283115D02*
G75*
G03*
X131991506Y-72943694I-169697J169715D01*
G01*
X128371112Y-74414487D02*
G75*
G02*
X128371129Y-74075096I169688J169687D01*
G01*
X131871290Y-71126440D02*
G75*
G02*
X131871256Y-70786994I169710J169740D01*
G01*
X129304493Y-73141695D02*
G75*
G02*
X129643905Y-73141695I169706J-169701D01*
G01*
X129870178Y-75065024D02*
G75*
G03*
X130209589Y-75065025I169706J169707D01*
G01*
X130718706Y-74216496D02*
G75*
G03*
X131058117Y-74216497I169706J169707D01*
G01*
X130153021Y-72293167D02*
G75*
G02*
X130492433Y-72293167I169706J-169701D01*
G01*
X131022762Y-71974968D02*
G75*
G02*
X131022800Y-71635593I169738J169668D01*
G01*
X131956143Y-70702177D02*
G75*
G02*
X132295555Y-70702177I169706J-169701D01*
G01*
%TO.N,FMC.D15*%
X120507658Y-98335769D02*
X120507658Y-98215769D01*
X120507658Y-99535769D02*
X120507658Y-99415769D01*
X119747658Y-98575769D02*
X120267658Y-98575769D01*
X120267658Y-99175769D02*
X119507658Y-99175769D01*
X118947658Y-98575769D02*
X119507658Y-98575769D01*
X119507658Y-97735769D02*
X119507658Y-97615769D01*
X119507658Y-99775769D02*
X120267658Y-99775769D01*
X119507658Y-99175769D02*
X118947658Y-99175769D01*
X118707658Y-98935769D02*
X118707658Y-98815769D01*
X119047658Y-99775769D02*
X119267658Y-99775769D01*
X120267658Y-97975769D02*
X119747658Y-97975769D01*
X118807658Y-100135769D02*
X118807658Y-100015769D01*
X119507658Y-97615769D02*
X119507658Y-97282000D01*
X119267658Y-100375769D02*
X119047658Y-100375769D01*
X119507658Y-98575769D02*
X119747658Y-98575769D01*
X119507658Y-101704780D02*
X119507658Y-100615769D01*
X119267658Y-99775769D02*
X119507658Y-99775769D01*
X120507658Y-99415769D02*
G75*
G03*
X120267658Y-99175842I-239958J-31D01*
G01*
X118807658Y-100015769D02*
G75*
G02*
X119047658Y-99775758I240042J-31D01*
G01*
X119047658Y-100375769D02*
G75*
G02*
X118807731Y-100135769I42J239969D01*
G01*
X119507658Y-100615769D02*
G75*
G03*
X119267658Y-100375842I-239958J-31D01*
G01*
X119747658Y-97975769D02*
G75*
G02*
X119507731Y-97735769I42J239969D01*
G01*
X120507658Y-98215769D02*
G75*
G03*
X120267658Y-97975842I-239958J-31D01*
G01*
X118947658Y-99175769D02*
G75*
G02*
X118707731Y-98935769I42J239969D01*
G01*
X118707658Y-98815769D02*
G75*
G02*
X118947658Y-98575758I240042J-31D01*
G01*
X120267658Y-99775769D02*
G75*
G03*
X120507669Y-99535769I42J239969D01*
G01*
X120267658Y-98575769D02*
G75*
G03*
X120507669Y-98335769I42J239969D01*
G01*
%TO.N,FMC.BA0*%
X124896576Y-96812897D02*
X125349124Y-97265445D01*
X124472310Y-97237159D02*
X124472312Y-97237161D01*
X122994458Y-101342763D02*
X122994458Y-101222763D01*
X124896578Y-96812899D02*
X124896576Y-96812897D01*
X124019765Y-96445201D02*
X124104617Y-96360350D01*
X122994458Y-102542763D02*
X122994458Y-102422763D01*
X124840007Y-98113973D02*
X124924859Y-98029120D01*
X122994458Y-98715015D02*
X123454077Y-98255395D01*
X134536673Y-87172800D02*
X136465732Y-87172800D01*
X140926601Y-82711931D02*
X140926601Y-81026000D01*
X124472312Y-97237161D02*
X124019764Y-96784613D01*
X122754458Y-103382763D02*
X122354458Y-103382763D01*
X122754458Y-100332763D02*
X122354458Y-100332763D01*
X124444029Y-96360350D02*
X124896578Y-96812899D01*
X124868293Y-95596673D02*
X124953145Y-95511822D01*
X122114458Y-100092763D02*
X122114458Y-99972763D01*
X122354458Y-99732763D02*
X122754458Y-99732763D01*
X125292557Y-95511822D02*
X125575400Y-95794665D01*
X122114458Y-103142763D02*
X122114458Y-103022763D01*
X125914812Y-95794664D02*
X125999664Y-95709810D01*
X125320838Y-96388631D02*
X125320840Y-96388633D01*
X123171235Y-97293731D02*
X123256089Y-97208878D01*
X123595501Y-97208878D02*
X123878344Y-97491721D01*
X124048050Y-97661427D02*
X124048048Y-97661425D01*
X122994458Y-99492763D02*
X122994458Y-99372763D01*
X122314458Y-101942763D02*
X122314458Y-101822763D01*
X122994458Y-101222763D02*
X122994458Y-100572763D01*
X123878344Y-97491721D02*
X124048050Y-97661427D01*
X122754458Y-102182763D02*
X122554458Y-102182763D01*
X126463753Y-95245720D02*
X134536673Y-87172800D01*
X125999664Y-95709810D02*
X126463753Y-95245720D01*
X122354458Y-102782763D02*
X122754458Y-102782763D01*
X124924859Y-97689708D02*
X124472310Y-97237159D01*
X124048048Y-97661425D02*
X124500596Y-98113973D01*
X123454078Y-97915983D02*
X123171236Y-97633141D01*
X125320840Y-96388633D02*
X125151135Y-96218928D01*
X122994458Y-99372763D02*
X122994458Y-98715015D01*
X122554458Y-101582763D02*
X122754458Y-101582763D01*
X125773387Y-96841180D02*
X125320838Y-96388631D01*
X136465732Y-87172800D02*
X140926601Y-82711931D01*
X125688535Y-97265445D02*
X125773387Y-97180592D01*
X125151135Y-96218928D02*
X124868292Y-95936085D01*
X124924859Y-98029120D02*
G75*
G03*
X124924873Y-97689694I-169659J169720D01*
G01*
X125349124Y-97265445D02*
G75*
G03*
X125688535Y-97265446I169706J169707D01*
G01*
X124500596Y-98113973D02*
G75*
G03*
X124840007Y-98113973I169705J169707D01*
G01*
X123256089Y-97208878D02*
G75*
G02*
X123595501Y-97208878I169706J-169708D01*
G01*
X125773387Y-97180592D02*
G75*
G03*
X125773373Y-96841194I-169687J169692D01*
G01*
X124019764Y-96784613D02*
G75*
G02*
X124019757Y-96445194I169736J169713D01*
G01*
X124104617Y-96360350D02*
G75*
G02*
X124444029Y-96360350I169706J-169701D01*
G01*
X125575400Y-95794665D02*
G75*
G03*
X125914806Y-95794658I169700J169665D01*
G01*
X124953145Y-95511822D02*
G75*
G02*
X125292557Y-95511822I169706J-169701D01*
G01*
X123454077Y-98255395D02*
G75*
G03*
X123454067Y-97915995I-169677J169695D01*
G01*
X122754458Y-102782763D02*
G75*
G03*
X122994463Y-102542763I42J239963D01*
G01*
X122554458Y-102182763D02*
G75*
G02*
X122314537Y-101942763I42J239963D01*
G01*
X122114458Y-103022763D02*
G75*
G02*
X122354458Y-102782758I240042J-37D01*
G01*
X122354458Y-103382763D02*
G75*
G02*
X122114537Y-103142763I42J239963D01*
G01*
X122994458Y-102422763D02*
G75*
G03*
X122754458Y-102182842I-239958J-37D01*
G01*
X124868292Y-95936085D02*
G75*
G02*
X124868313Y-95596694I169708J169685D01*
G01*
X123171236Y-97633141D02*
G75*
G02*
X123171199Y-97293695I169664J169741D01*
G01*
X122754458Y-99732763D02*
G75*
G03*
X122994463Y-99492763I42J239963D01*
G01*
X122114458Y-99972763D02*
G75*
G02*
X122354458Y-99732758I240042J-37D01*
G01*
X122754458Y-101582763D02*
G75*
G03*
X122994463Y-101342763I42J239963D01*
G01*
X122354458Y-100332763D02*
G75*
G02*
X122114537Y-100092763I42J239963D01*
G01*
X122314458Y-101822763D02*
G75*
G02*
X122554458Y-101582758I240042J-37D01*
G01*
X122994458Y-103622763D02*
G75*
G03*
X122754458Y-103382842I-239958J-37D01*
G01*
X122994458Y-100572763D02*
G75*
G03*
X122754458Y-100332842I-239958J-37D01*
G01*
%TO.N,FMC.BA1*%
X124250458Y-99993980D02*
X124250458Y-99873980D01*
X125010458Y-100833980D02*
X124250458Y-100833980D01*
X124250458Y-100833980D02*
X124010458Y-100833980D01*
X124250458Y-99873980D02*
X124250458Y-99477453D01*
X123690458Y-100233980D02*
X124010458Y-100233980D01*
X123690458Y-101433980D02*
X124250458Y-101433980D01*
X123690458Y-102633980D02*
X124250458Y-102633980D01*
X125049488Y-99017833D02*
X125417183Y-99385528D01*
X124250458Y-103233980D02*
X123690458Y-103233980D01*
X125473750Y-98254156D02*
X125558605Y-98169304D01*
X124010458Y-100833980D02*
X123690458Y-100833980D01*
X125558605Y-98169304D02*
X125935556Y-97792355D01*
X124250458Y-101433980D02*
X125010458Y-101433980D01*
X125250458Y-103593980D02*
X125250458Y-103473980D01*
X141553601Y-82728399D02*
X141553601Y-79654400D01*
X125250458Y-101193980D02*
X125250458Y-101073980D01*
X125010458Y-102033980D02*
X124250458Y-102033980D01*
X125935556Y-97792355D02*
X135909931Y-87817980D01*
X125841446Y-98961263D02*
X125473750Y-98593567D01*
X135909931Y-87817980D02*
X136464020Y-87817980D01*
X123450458Y-102993980D02*
X123450458Y-102873980D01*
X125756594Y-99385528D02*
X125841446Y-99300675D01*
X123450458Y-100593980D02*
X123450458Y-100473980D01*
X123450458Y-101793980D02*
X123450458Y-101673980D01*
X124490458Y-103833980D02*
X125010458Y-103833980D01*
X124250458Y-102633980D02*
X125010458Y-102633980D01*
X125250458Y-102393980D02*
X125250458Y-102273980D01*
X136464020Y-87817980D02*
X141553601Y-82728399D01*
X124250458Y-99477453D02*
X124710077Y-99017833D01*
X124490458Y-103233980D02*
X124250458Y-103233980D01*
X124250458Y-102033980D02*
X123690458Y-102033980D01*
X125010458Y-103233980D02*
X124490458Y-103233980D01*
X125473750Y-98593567D02*
G75*
G02*
X125473788Y-98254194I169750J169667D01*
G01*
X124010458Y-100233980D02*
G75*
G03*
X124250480Y-99993980I42J239980D01*
G01*
X123450458Y-100473980D02*
G75*
G02*
X123690458Y-100233958I240042J-20D01*
G01*
X124710077Y-99017833D02*
G75*
G02*
X125049488Y-99017832I169706J-169707D01*
G01*
X125841446Y-99300675D02*
G75*
G03*
X125841415Y-98961294I-169746J169675D01*
G01*
X125417183Y-99385528D02*
G75*
G03*
X125756594Y-99385528I169705J169707D01*
G01*
X124250458Y-104073980D02*
G75*
G02*
X124490458Y-103833958I240042J-20D01*
G01*
X123690458Y-100833980D02*
G75*
G02*
X123450520Y-100593980I42J239980D01*
G01*
X125250458Y-101073980D02*
G75*
G03*
X125010458Y-100834042I-239958J-20D01*
G01*
X125010458Y-101433980D02*
G75*
G03*
X125250480Y-101193980I42J239980D01*
G01*
X125250458Y-102273980D02*
G75*
G03*
X125010458Y-102034042I-239958J-20D01*
G01*
X123690458Y-102033980D02*
G75*
G02*
X123450520Y-101793980I42J239980D01*
G01*
X123690458Y-103233980D02*
G75*
G02*
X123450520Y-102993980I42J239980D01*
G01*
X123450458Y-102873980D02*
G75*
G02*
X123690458Y-102633958I240042J-20D01*
G01*
X123450458Y-101673980D02*
G75*
G02*
X123690458Y-101433958I240042J-20D01*
G01*
X125010458Y-102633980D02*
G75*
G03*
X125250480Y-102393980I42J239980D01*
G01*
X125250458Y-103473980D02*
G75*
G03*
X125010458Y-103234042I-239958J-20D01*
G01*
X125010458Y-103833980D02*
G75*
G03*
X125250480Y-103593980I42J239980D01*
G01*
%TO.N,FMC.A11*%
X133011697Y-75242033D02*
X133011696Y-75242031D01*
X132919774Y-73962167D02*
X133004628Y-73877314D01*
X132495509Y-74725845D02*
X133011697Y-75242033D01*
X134284490Y-73969234D02*
X134284492Y-73969235D01*
X134708759Y-73544971D02*
X134708758Y-73544969D01*
X132587430Y-75666297D02*
X132071243Y-75150110D01*
X132587428Y-75666296D02*
X132587430Y-75666297D01*
X132071243Y-74810698D02*
X132156097Y-74725845D01*
X132163166Y-76090564D02*
X132163165Y-76090562D01*
X131569195Y-76345121D02*
X131222713Y-75998639D01*
X132163165Y-76090562D02*
X132679352Y-76606749D01*
X130720665Y-77193651D02*
X130374183Y-76847169D01*
X133103616Y-76182484D02*
X132587428Y-75666296D01*
X134192571Y-73028783D02*
X134708759Y-73544971D01*
X133018764Y-76606749D02*
X133103616Y-76521896D01*
X131569194Y-76684534D02*
X131569194Y-76684533D01*
X130798448Y-76422906D02*
X131144931Y-76769389D01*
X133435959Y-74817765D02*
X133435961Y-74817766D01*
X131484341Y-76769390D02*
X131569194Y-76684534D01*
X135564357Y-74061156D02*
X135649209Y-73976303D01*
X131646978Y-75574376D02*
X131993461Y-75920859D01*
X131993461Y-75920859D02*
X132163166Y-76090564D01*
X131222712Y-75659229D02*
X131307566Y-75574376D01*
X130374182Y-76507759D02*
X130459036Y-76422906D01*
X134800678Y-74485422D02*
X134284490Y-73969234D01*
X133011696Y-75242031D02*
X133527883Y-75758218D01*
X135133023Y-73120704D02*
X134616836Y-72604517D01*
X134715826Y-74909687D02*
X134800678Y-74824834D01*
X134708758Y-73544969D02*
X135224945Y-74061156D01*
X134616836Y-72265105D02*
X134701690Y-72180252D01*
X133860227Y-74393500D02*
X134376414Y-74909687D01*
X136412888Y-73212625D02*
X136497740Y-73127772D01*
X140347324Y-67906403D02*
X140753603Y-67906403D01*
X136649454Y-71604273D02*
X140347324Y-67906403D01*
X136497740Y-72788360D02*
X136151257Y-72441877D01*
X133867295Y-75758218D02*
X133952147Y-75673365D01*
X135726994Y-72866143D02*
X136073476Y-73212625D01*
X135557289Y-72696438D02*
X135726994Y-72866143D01*
X135557290Y-72696440D02*
X135557289Y-72696438D01*
X135133021Y-73120703D02*
X135133023Y-73120704D01*
X133768305Y-73113636D02*
X133853159Y-73028783D01*
X133952147Y-75333953D02*
X133435959Y-74817765D01*
X133435961Y-74817766D02*
X132919774Y-74301579D01*
X134284492Y-73969235D02*
X133768305Y-73453048D01*
X133860228Y-74393502D02*
X133860227Y-74393500D01*
X136236111Y-72017615D02*
X136649454Y-71604273D01*
X135041102Y-72180252D02*
X135557290Y-72696440D01*
X136151257Y-72102466D02*
X136236111Y-72017615D01*
X135649209Y-73636891D02*
X135133021Y-73120703D01*
X133344040Y-73877314D02*
X133860228Y-74393502D01*
X136151257Y-72441877D02*
G75*
G02*
X136151285Y-72102494I169743J169677D01*
G01*
X136073476Y-73212625D02*
G75*
G03*
X136412888Y-73212625I169706J169704D01*
G01*
X134616836Y-72604517D02*
G75*
G02*
X134616825Y-72265094I169664J169717D01*
G01*
X134701690Y-72180252D02*
G75*
G02*
X135041102Y-72180252I169706J-169708D01*
G01*
X136497740Y-73127772D02*
G75*
G03*
X136497706Y-72788394I-169740J169672D01*
G01*
X130720664Y-77533063D02*
G75*
G03*
X130720622Y-77193695I-169664J169663D01*
G01*
X132156097Y-74725845D02*
G75*
G02*
X132495509Y-74725845I169706J-169708D01*
G01*
X132679352Y-76606749D02*
G75*
G03*
X133018764Y-76606749I169706J169704D01*
G01*
X132071243Y-75150110D02*
G75*
G02*
X132071239Y-74810694I169757J169710D01*
G01*
X133103616Y-76521896D02*
G75*
G03*
X133103606Y-76182494I-169716J169696D01*
G01*
X131569194Y-76684533D02*
G75*
G03*
X131569222Y-76345095I-169694J169733D01*
G01*
X130374183Y-76847169D02*
G75*
G02*
X130374218Y-76507796I169717J169669D01*
G01*
X131307566Y-75574376D02*
G75*
G02*
X131646978Y-75574376I169706J-169708D01*
G01*
X131144931Y-76769389D02*
G75*
G03*
X131484304Y-76769354I169669J169689D01*
G01*
X134800678Y-74824834D02*
G75*
G03*
X134800706Y-74485394I-169678J169734D01*
G01*
X130459036Y-76422906D02*
G75*
G02*
X130798448Y-76422906I169706J-169708D01*
G01*
X131222713Y-75998639D02*
G75*
G02*
X131222678Y-75659195I169687J169739D01*
G01*
X135649209Y-73976303D02*
G75*
G03*
X135649206Y-73636894I-169709J169703D01*
G01*
X135224945Y-74061156D02*
G75*
G03*
X135564357Y-74061156I169706J169704D01*
G01*
X133853159Y-73028783D02*
G75*
G02*
X134192571Y-73028783I169706J-169708D01*
G01*
X133768305Y-73453048D02*
G75*
G02*
X133768263Y-73113594I169695J169748D01*
G01*
X134376414Y-74909687D02*
G75*
G03*
X134715826Y-74909687I169706J169704D01*
G01*
X133527883Y-75758218D02*
G75*
G03*
X133867295Y-75758218I169706J169704D01*
G01*
X133004628Y-73877314D02*
G75*
G02*
X133344040Y-73877314I169706J-169708D01*
G01*
X132919774Y-74301579D02*
G75*
G02*
X132919801Y-73962194I169726J169679D01*
G01*
X133952147Y-75673365D02*
G75*
G03*
X133952106Y-75333994I-169747J169665D01*
G01*
%TO.N,FMC.A2*%
X144780000Y-86396400D02*
X144780000Y-86305600D01*
X144961600Y-90360000D02*
X146328400Y-90360000D01*
X145428400Y-85670000D02*
X144961600Y-85670000D01*
X143759502Y-84022054D02*
X143695296Y-83957848D01*
X145710000Y-91994400D02*
X145710000Y-91903600D01*
X145428400Y-84762000D02*
X144961600Y-84762000D01*
X144961600Y-84762000D02*
X144780000Y-84762000D01*
X144780000Y-87717600D02*
X144780000Y-87213600D01*
X144753693Y-82385807D02*
X144689487Y-82321601D01*
X144374302Y-93217300D02*
X144438508Y-93153093D01*
X144961600Y-87032000D02*
X145428400Y-87032000D01*
X144615000Y-91268000D02*
X144780000Y-91268000D01*
X144780000Y-88816400D02*
X144780000Y-88725600D01*
X143789400Y-82524600D02*
X143154400Y-81889600D01*
X144961600Y-85216000D02*
X145428400Y-85216000D01*
X145160000Y-91086400D02*
X145160000Y-90995600D01*
X144961600Y-91268000D02*
X144978400Y-91268000D01*
X144598400Y-92176000D02*
X144780000Y-92176000D01*
X143695295Y-83701026D02*
X144202150Y-83194172D01*
X143881122Y-82616323D02*
X143816918Y-82552118D01*
X144202150Y-83194172D02*
X144458971Y-82937350D01*
X144500000Y-84622000D02*
X144500000Y-84448000D01*
X144780000Y-85488400D02*
X144780000Y-85397600D01*
X144780000Y-90632400D02*
X144780000Y-90541600D01*
X144780000Y-91722000D02*
X144615000Y-91722000D01*
X144780000Y-88725600D02*
X144780000Y-87717600D01*
X144780000Y-84762000D02*
X144640000Y-84762000D01*
X144780000Y-83994000D02*
X144780000Y-83515200D01*
X144780000Y-91268000D02*
X144961600Y-91268000D01*
X144961600Y-86124000D02*
X145428400Y-86124000D01*
X144598400Y-92630000D02*
X144331600Y-92630000D01*
X146510000Y-90178400D02*
X146510000Y-90087600D01*
X143816918Y-82552118D02*
X143789400Y-82524600D01*
X145428400Y-86578000D02*
X144961600Y-86578000D01*
X145610000Y-85034400D02*
X145610000Y-84943600D01*
X144150000Y-92448400D02*
X144150000Y-92357600D01*
X145610000Y-86850400D02*
X145610000Y-86759600D01*
X145610000Y-85942400D02*
X145610000Y-85851600D01*
X146328400Y-88998000D02*
X144961600Y-88998000D01*
X146510000Y-89270400D02*
X146510000Y-89179600D01*
X144961600Y-89452000D02*
X146328400Y-89452000D01*
X144523178Y-83515200D02*
X144016322Y-84022053D01*
X144450000Y-91557000D02*
X144450000Y-91433000D01*
X144978400Y-90814000D02*
X144961600Y-90814000D01*
X145528400Y-91722000D02*
X144780000Y-91722000D01*
X144331600Y-92176000D02*
X144598400Y-92176000D01*
X144438508Y-93153093D02*
X144780000Y-92811600D01*
X142520000Y-93888800D02*
X142520000Y-94255600D01*
X145273740Y-95400845D02*
X145337945Y-95336639D01*
X142247600Y-93707200D02*
X142338400Y-93707200D01*
X144780000Y-89724400D02*
X144780000Y-89633600D01*
X143475428Y-93859354D02*
X143603839Y-93987765D01*
X144458971Y-82937350D02*
X144753693Y-82642628D01*
X146328400Y-89906000D02*
X144961600Y-89906000D01*
X144780000Y-84168000D02*
X144780000Y-83994000D01*
X143893470Y-92993287D02*
X144117482Y-93217299D01*
X143572443Y-93057492D02*
X143636648Y-92993288D01*
X143796454Y-93538326D02*
X143572442Y-93314314D01*
X143924864Y-93666736D02*
X143796454Y-93538326D01*
X145337945Y-95079818D02*
X143924862Y-93666735D01*
X144780000Y-92176000D02*
X145528400Y-92176000D01*
X144432666Y-82321601D02*
X144137943Y-82616323D01*
X143924862Y-93666735D02*
X143924864Y-93666736D01*
X143603837Y-93987763D02*
X145016919Y-95400845D01*
X143603839Y-93987765D02*
X143603837Y-93987763D01*
X142701600Y-94437200D02*
X142792400Y-94437200D01*
X142792400Y-94437200D02*
X143154400Y-94437200D01*
X142895034Y-93664192D02*
X142959241Y-93599986D01*
X143216061Y-93599987D02*
X143475428Y-93859354D01*
X141173200Y-94437200D02*
X141884400Y-94437200D01*
X142066000Y-94255600D02*
X142066000Y-93888800D01*
X143154401Y-94180378D02*
X142895035Y-93921012D01*
X144961600Y-85670000D02*
G75*
G02*
X144780000Y-85488400I0J181600D01*
G01*
X144780000Y-87213600D02*
G75*
G02*
X144961600Y-87032000I181600J0D01*
G01*
X144780000Y-85397600D02*
G75*
G02*
X144961600Y-85216000I181600J0D01*
G01*
X144753693Y-82642628D02*
G75*
G03*
X144753711Y-82385789I-128393J128428D01*
G01*
X144640000Y-84308000D02*
G75*
G03*
X144780000Y-84168000I0J140000D01*
G01*
X145428400Y-87032000D02*
G75*
G03*
X145610000Y-86850400I0J181600D01*
G01*
X144640000Y-84762000D02*
G75*
G02*
X144500000Y-84622000I0J140000D01*
G01*
X145428400Y-86124000D02*
G75*
G03*
X145610000Y-85942400I0J181600D01*
G01*
X145610000Y-85851600D02*
G75*
G03*
X145428400Y-85670000I-181600J0D01*
G01*
X143695296Y-83957848D02*
G75*
G02*
X143695258Y-83700990I128404J128448D01*
G01*
X144689487Y-82321601D02*
G75*
G03*
X144432667Y-82321601I-128410J-128408D01*
G01*
X144780000Y-83515200D02*
G75*
G03*
X144523178Y-83515200I-128411J-128406D01*
G01*
X143154400Y-94437200D02*
G75*
G03*
X143154390Y-94180390I-128400J128400D01*
G01*
X144150000Y-92357600D02*
G75*
G02*
X144331600Y-92176000I181600J0D01*
G01*
X145710000Y-91903600D02*
G75*
G03*
X145528400Y-91722000I-181600J0D01*
G01*
X144780000Y-92811600D02*
G75*
G03*
X144598400Y-92630000I-181600J0D01*
G01*
X144961600Y-88998000D02*
G75*
G02*
X144780000Y-88816400I0J181600D01*
G01*
X146510000Y-89179600D02*
G75*
G03*
X146328400Y-88998000I-181600J0D01*
G01*
X143572442Y-93314314D02*
G75*
G02*
X143572439Y-93057489I128458J128414D01*
G01*
X145428400Y-85216000D02*
G75*
G03*
X145610000Y-85034400I0J181600D01*
G01*
X144961600Y-89906000D02*
G75*
G02*
X144780000Y-89724400I0J181600D01*
G01*
X146328400Y-89452000D02*
G75*
G03*
X146510000Y-89270400I0J181600D01*
G01*
X145528400Y-92176000D02*
G75*
G03*
X145710000Y-91994400I0J181600D01*
G01*
X144117482Y-93217299D02*
G75*
G03*
X144374310Y-93217308I128418J128399D01*
G01*
X145610000Y-86759600D02*
G75*
G03*
X145428400Y-86578000I-181600J0D01*
G01*
X143636648Y-92993288D02*
G75*
G02*
X143893510Y-92993246I128452J-128412D01*
G01*
X145337945Y-95336639D02*
G75*
G03*
X145337974Y-95079790I-128445J128439D01*
G01*
X142520000Y-94255600D02*
G75*
G03*
X142701600Y-94437200I181600J0D01*
G01*
X142959241Y-93599986D02*
G75*
G02*
X143216110Y-93599937I128459J-128414D01*
G01*
X144780000Y-89633600D02*
G75*
G02*
X144961600Y-89452000I181600J0D01*
G01*
X146510000Y-90087600D02*
G75*
G03*
X146328400Y-89906000I-181600J0D01*
G01*
X144961600Y-86578000D02*
G75*
G02*
X144780000Y-86396400I0J181600D01*
G01*
X144961600Y-90814000D02*
G75*
G02*
X144780000Y-90632400I0J181600D01*
G01*
X145160000Y-90995600D02*
G75*
G03*
X144978400Y-90814000I-181600J0D01*
G01*
X144780000Y-86305600D02*
G75*
G02*
X144961600Y-86124000I181600J0D01*
G01*
X144978400Y-91268000D02*
G75*
G03*
X145160000Y-91086400I0J181600D01*
G01*
X144450000Y-91433000D02*
G75*
G02*
X144615000Y-91268000I165000J0D01*
G01*
X142895035Y-93921012D02*
G75*
G02*
X142895032Y-93664190I128365J128412D01*
G01*
X144615000Y-91722000D02*
G75*
G02*
X144450000Y-91557000I0J165000D01*
G01*
X144331600Y-92630000D02*
G75*
G02*
X144150000Y-92448400I0J181600D01*
G01*
X144780000Y-90541600D02*
G75*
G02*
X144961600Y-90360000I181600J0D01*
G01*
X145610000Y-84943600D02*
G75*
G03*
X145428400Y-84762000I-181600J0D01*
G01*
X144137943Y-82616323D02*
G75*
G02*
X143881123Y-82616323I-128410J128408D01*
G01*
X144016322Y-84022053D02*
G75*
G02*
X143759491Y-84022066I-128422J128453D01*
G01*
X141884400Y-94437200D02*
G75*
G03*
X142066000Y-94255600I0J181600D01*
G01*
X145016919Y-95400845D02*
G75*
G03*
X145273740Y-95400846I128411J128412D01*
G01*
X146328400Y-90360000D02*
G75*
G03*
X146510000Y-90178400I0J181600D01*
G01*
X142338400Y-93707200D02*
G75*
G02*
X142520000Y-93888800I0J-181600D01*
G01*
X144500000Y-84448000D02*
G75*
G02*
X144640000Y-84308000I140000J0D01*
G01*
X142066000Y-93888800D02*
G75*
G02*
X142247600Y-93707200I181600J0D01*
G01*
%TO.N,FMC.NBL0*%
X146120400Y-93395440D02*
G75*
G02*
X145884360Y-93159440I0J236040D01*
G01*
X147358400Y-92805440D02*
G75*
G03*
X147594440Y-92569440I0J236040D01*
G01*
X145884400Y-93041440D02*
G75*
G02*
X146120400Y-92805400I236000J40D01*
G01*
X147594400Y-92451440D02*
G75*
G03*
X147358400Y-92215400I-236000J40D01*
G01*
X147844400Y-95991440D02*
G75*
G03*
X147608400Y-95755400I-236000J40D01*
G01*
X146120400Y-96935440D02*
G75*
G02*
X145884360Y-96699440I0J236040D01*
G01*
X146964400Y-98941440D02*
G75*
G02*
X147200400Y-98705400I236000J40D01*
G01*
X145884400Y-97761440D02*
G75*
G02*
X146120400Y-97525400I236000J40D01*
G01*
X147608400Y-96345440D02*
G75*
G03*
X147844440Y-96109440I0J236040D01*
G01*
X146749400Y-94575440D02*
G75*
G02*
X146534360Y-94360440I0J215040D01*
G01*
X146534400Y-94200440D02*
G75*
G02*
X146749400Y-93985400I215000J40D01*
G01*
X146370400Y-95755440D02*
G75*
G02*
X146134360Y-95519440I0J236040D01*
G01*
X145884400Y-96581440D02*
G75*
G02*
X146120400Y-96345400I236000J40D01*
G01*
X147758400Y-98705440D02*
G75*
G03*
X147994440Y-98469440I0J236040D01*
G01*
X147844400Y-93631440D02*
G75*
G03*
X147608400Y-93395400I-236000J40D01*
G01*
X147608400Y-95165440D02*
G75*
G03*
X147844440Y-94929440I0J236040D01*
G01*
X147994400Y-98351440D02*
G75*
G03*
X147758400Y-98115400I-236000J40D01*
G01*
X147608400Y-93985440D02*
G75*
G03*
X147844440Y-93749440I0J236040D01*
G01*
X147200400Y-92215440D02*
G75*
G02*
X146964360Y-91979440I0J236040D01*
G01*
X146134400Y-95401440D02*
G75*
G02*
X146370400Y-95165400I236000J40D01*
G01*
X146120400Y-98115440D02*
G75*
G02*
X145884360Y-97879440I0J236040D01*
G01*
X146964400Y-97171440D02*
G75*
G03*
X146728400Y-96935400I-236000J40D01*
G01*
X147844400Y-94811440D02*
G75*
G03*
X147608400Y-94575400I-236000J40D01*
G01*
X146728400Y-97525440D02*
G75*
G03*
X146964440Y-97289440I0J236040D01*
G01*
X146749400Y-93985440D02*
X146964400Y-93985440D01*
X146964400Y-96345440D02*
X147608400Y-96345440D01*
X146120400Y-97525440D02*
X146728400Y-97525440D01*
X146964400Y-80721200D02*
X143357600Y-77114400D01*
X146964400Y-95165440D02*
X147608400Y-95165440D01*
X146728400Y-98115440D02*
X146120400Y-98115440D01*
X143357600Y-77114400D02*
X137261600Y-77114400D01*
X146964400Y-91861440D02*
X146964400Y-91440000D01*
X147994400Y-98469440D02*
X147994400Y-98351440D01*
X145884400Y-97879440D02*
X145884400Y-97761440D01*
X147358400Y-92215440D02*
X147200400Y-92215440D01*
X147844400Y-93749440D02*
X147844400Y-93631440D01*
X146964400Y-97289440D02*
X146964400Y-97171440D01*
X147758400Y-98115440D02*
X147200400Y-98115440D01*
X146120400Y-96345440D02*
X146728400Y-96345440D01*
X145884400Y-96699440D02*
X145884400Y-96581440D01*
X147200400Y-92805440D02*
X147358400Y-92805440D01*
X146728400Y-96345440D02*
X146964400Y-96345440D01*
X147844400Y-96109440D02*
X147844400Y-95991440D01*
X147594400Y-92569440D02*
X147594400Y-92451440D01*
X146964400Y-93395440D02*
X146120400Y-93395440D01*
X146964400Y-92805440D02*
X147200400Y-92805440D01*
X146370400Y-95165440D02*
X146964400Y-95165440D01*
X147200400Y-98115440D02*
X146728400Y-98115440D01*
X147608400Y-94575440D02*
X146964400Y-94575440D01*
X146964400Y-93985440D02*
X147608400Y-93985440D01*
X147608400Y-93395440D02*
X146964400Y-93395440D01*
X146964400Y-95755440D02*
X146370400Y-95755440D01*
X146120400Y-92805440D02*
X146964400Y-92805440D01*
X145884400Y-93159440D02*
X145884400Y-93041440D01*
X146964400Y-91979440D02*
X146964400Y-91861440D01*
X146534400Y-94360440D02*
X146534400Y-94200440D01*
X146964400Y-91440000D02*
X146964400Y-80721200D01*
X146728400Y-96935440D02*
X146120400Y-96935440D01*
X147200400Y-98705440D02*
X147758400Y-98705440D01*
X146134400Y-95519440D02*
X146134400Y-95401440D01*
X146964400Y-94575440D02*
X146749400Y-94575440D01*
X147844400Y-94929440D02*
X147844400Y-94811440D01*
X147608400Y-95755440D02*
X146964400Y-95755440D01*
%TO.N,FMC.A3*%
X142951179Y-92202021D02*
X143219879Y-92470721D01*
X143884562Y-91268642D02*
X143962343Y-91190858D01*
X141628887Y-93213187D02*
X141232908Y-92817208D01*
X144221200Y-85090380D02*
X143865600Y-84734780D01*
X144221200Y-85932000D02*
X144221200Y-85090380D01*
X143441200Y-86262000D02*
X144001200Y-86262000D01*
X144221200Y-87142000D02*
X144221200Y-87032000D01*
X142173362Y-92979843D02*
X142173360Y-92979840D01*
X144001200Y-86812000D02*
X143441200Y-86812000D01*
X141621818Y-92428299D02*
X142017798Y-92824279D01*
X144221200Y-89342000D02*
X144221200Y-89232000D01*
X144001200Y-90112000D02*
X143441200Y-90112000D01*
X143421200Y-87692000D02*
X143421200Y-87582000D01*
X143036034Y-91197929D02*
X143113815Y-91120149D01*
X143531006Y-92470721D02*
X143608787Y-92392939D01*
X142173360Y-92979840D02*
X142371349Y-93177829D01*
X144221200Y-88242000D02*
X144221200Y-88132000D01*
X144221200Y-90932000D02*
X144221200Y-90332000D01*
X143340088Y-91813112D02*
X143184525Y-91657549D01*
X143340086Y-91813111D02*
X143340088Y-91813112D01*
X143221200Y-89892000D02*
X143221200Y-89782000D01*
X143221200Y-88792000D02*
X143221200Y-88682000D01*
X142562269Y-92590931D02*
X142328924Y-92357586D01*
X143441200Y-89562000D02*
X144001200Y-89562000D01*
X142328925Y-92046458D02*
X142406706Y-91968678D01*
X144001200Y-87912000D02*
X143641200Y-87912000D01*
X140535678Y-93624400D02*
X141528800Y-93624400D01*
X143424943Y-91120148D02*
X143573436Y-91268641D01*
X144221200Y-86042000D02*
X144221200Y-85932000D01*
X142562267Y-92590930D02*
X142562269Y-92590931D01*
X143962343Y-91190858D02*
X144221200Y-90932000D01*
X142951180Y-92202023D02*
X142951179Y-92202021D01*
X142682476Y-93177829D02*
X142760257Y-93100047D01*
X142017798Y-92824279D02*
X142173362Y-92979843D01*
X139980058Y-93068780D02*
X140535678Y-93624400D01*
X141232909Y-92506080D02*
X141310690Y-92428300D01*
X144001200Y-89012000D02*
X143441200Y-89012000D01*
X143641200Y-87362000D02*
X144001200Y-87362000D01*
X143184525Y-91657549D02*
X143036033Y-91509057D01*
X141528800Y-93624400D02*
X141628887Y-93524313D01*
X143608787Y-92081812D02*
X143340086Y-91813111D01*
X142760257Y-92788920D02*
X142562267Y-92590930D01*
X143221200Y-86592000D02*
X143221200Y-86482000D01*
X143441200Y-88462000D02*
X144001200Y-88462000D01*
X142717834Y-91968677D02*
X142951180Y-92202023D01*
X144001200Y-87362000D02*
G75*
G03*
X144221200Y-87142000I0J220000D01*
G01*
X144001200Y-88462000D02*
G75*
G03*
X144221200Y-88242000I0J220000D01*
G01*
X143421200Y-87582000D02*
G75*
G02*
X143641200Y-87362000I220000J0D01*
G01*
X143641200Y-87912000D02*
G75*
G02*
X143421200Y-87692000I0J220000D01*
G01*
X143221200Y-86482000D02*
G75*
G02*
X143441200Y-86262000I220000J0D01*
G01*
X144221200Y-87032000D02*
G75*
G03*
X144001200Y-86812000I-220000J0D01*
G01*
X143221200Y-88682000D02*
G75*
G02*
X143441200Y-88462000I220000J0D01*
G01*
X143441200Y-89012000D02*
G75*
G02*
X143221200Y-88792000I0J220000D01*
G01*
X143221200Y-89782000D02*
G75*
G02*
X143441200Y-89562000I220000J0D01*
G01*
X144221200Y-89232000D02*
G75*
G03*
X144001200Y-89012000I-220000J0D01*
G01*
X144001200Y-89562000D02*
G75*
G03*
X144221200Y-89342000I0J220000D01*
G01*
X143441200Y-90112000D02*
G75*
G02*
X143221200Y-89892000I0J220000D01*
G01*
X141232908Y-92817208D02*
G75*
G02*
X141232864Y-92506036I155592J155608D01*
G01*
X144221200Y-90332000D02*
G75*
G03*
X144001200Y-90112000I-220000J0D01*
G01*
X143113815Y-91120149D02*
G75*
G02*
X143424964Y-91120127I155585J-155551D01*
G01*
X143036033Y-91509057D02*
G75*
G02*
X143036040Y-91197936I155567J155557D01*
G01*
X143219879Y-92470721D02*
G75*
G03*
X143531006Y-92470722I155564J155565D01*
G01*
X142406706Y-91968678D02*
G75*
G02*
X142717864Y-91968647I155594J-155522D01*
G01*
X142371349Y-93177829D02*
G75*
G03*
X142682476Y-93177830I155564J155565D01*
G01*
X141628887Y-93524313D02*
G75*
G03*
X141628837Y-93213237I-155587J155513D01*
G01*
X141310690Y-92428300D02*
G75*
G02*
X141621863Y-92428253I155610J-155600D01*
G01*
X143608787Y-92392939D02*
G75*
G03*
X143608763Y-92081836I-155587J155539D01*
G01*
X143441200Y-86812000D02*
G75*
G02*
X143221200Y-86592000I0J220000D01*
G01*
X142328924Y-92357586D02*
G75*
G02*
X142328902Y-92046436I155576J155586D01*
G01*
X143573436Y-91268641D02*
G75*
G03*
X143884563Y-91268643I155564J155541D01*
G01*
X144221200Y-88132000D02*
G75*
G03*
X144001200Y-87912000I-220000J0D01*
G01*
X142760257Y-93100047D02*
G75*
G03*
X142760241Y-92788937I-155557J155547D01*
G01*
X144001200Y-86262000D02*
G75*
G03*
X144221200Y-86042000I0J220000D01*
G01*
%TO.N,FMC.D6*%
X130302000Y-85676488D02*
X130302000Y-88290400D01*
X131589399Y-84389089D02*
X130302000Y-85676488D01*
X130302000Y-88290400D02*
X126339600Y-92252800D01*
%TO.N,FMC.SDNE0*%
X139954000Y-79983727D02*
X139954000Y-79400400D01*
X136340858Y-85401142D02*
X138134464Y-83607536D01*
X138134464Y-83607536D02*
X138134464Y-81803263D01*
X138134464Y-81803263D02*
X139954000Y-79983727D01*
X135229600Y-86512400D02*
X135970020Y-85771980D01*
X136340858Y-85404107D02*
X136340858Y-85401142D01*
X133553200Y-86512400D02*
X135229600Y-86512400D01*
X135970020Y-85771980D02*
X135972985Y-85771980D01*
X135972985Y-85771980D02*
X136340858Y-85404107D01*
%TO.N,FMC.SDNWE*%
X136221073Y-81534000D02*
X136956800Y-81534000D01*
X132791200Y-84963873D02*
X136221073Y-81534000D01*
X132791200Y-87630000D02*
X132791200Y-84963873D01*
%TO.N,FMC.A10*%
X142341600Y-80264000D02*
X142290800Y-80314800D01*
X135280400Y-80841200D02*
X137534000Y-78587600D01*
X134042800Y-80841200D02*
X135280400Y-80841200D01*
X137534000Y-78587600D02*
X141884400Y-78587600D01*
X129387600Y-85496400D02*
X134042800Y-80841200D01*
X141884400Y-78587600D02*
X142341600Y-79044800D01*
X124838478Y-85496400D02*
X129387600Y-85496400D01*
X142341600Y-79044800D02*
X142341600Y-80264000D01*
X123571658Y-84229580D02*
X124838478Y-85496400D01*
%TO.N,FMC.A0*%
X143154400Y-80111600D02*
X143154400Y-79552800D01*
X144839458Y-81796658D02*
X143154400Y-80111600D01*
X144839458Y-81814058D02*
X144839458Y-81796658D01*
X145473800Y-82448400D02*
X144839458Y-81814058D01*
X145473800Y-82550000D02*
X145473800Y-82448400D01*
%TO.N,FMC.A1*%
X146100800Y-81940400D02*
X146100800Y-87100438D01*
X146100800Y-87100438D02*
X145466458Y-87734780D01*
X144119600Y-79959200D02*
X146100800Y-81940400D01*
X143967200Y-79959200D02*
X144119600Y-79959200D01*
%TO.N,FMC.SDNE0*%
X139954000Y-79400400D02*
X139878673Y-79400400D01*
%TD*%
M02*
