%TF.GenerationSoftware,KiCad,Pcbnew,9.0.4*%
%TF.CreationDate,2026-04-14T18:53:30-07:00*%
%TF.ProjectId,stm32_system_on_module,73746d33-325f-4737-9973-74656d5f6f6e,rev?*%
%TF.SameCoordinates,Original*%
%TF.FileFunction,Copper,L6,Inr*%
%TF.FilePolarity,Positive*%
%FSLAX46Y46*%
G04 Gerber Fmt 4.6, Leading zero omitted, Abs format (unit mm)*
G04 Created by KiCad (PCBNEW 9.0.4) date 2026-04-14 18:53:30*
%MOMM*%
%LPD*%
G01*
G04 APERTURE LIST*
%TA.AperFunction,ComponentPad*%
%ADD10C,4.400000*%
%TD*%
%TA.AperFunction,ViaPad*%
%ADD11C,0.450000*%
%TD*%
%TA.AperFunction,ViaPad*%
%ADD12C,0.600000*%
%TD*%
%TA.AperFunction,Conductor*%
%ADD13C,0.254000*%
%TD*%
%TA.AperFunction,Conductor*%
%ADD14C,0.177800*%
%TD*%
%TA.AperFunction,Conductor*%
%ADD15C,0.200000*%
%TD*%
G04 APERTURE END LIST*
D10*
%TO.N,GND*%
%TO.C,H1*%
X150744633Y-68783200D03*
%TD*%
D11*
%TO.N,+3V3*%
X132181600Y-100431600D03*
%TO.N,/MCU/SWD.CLK*%
X133350000Y-109982000D03*
%TO.N,/MCU/SWD.DIO*%
X132105400Y-109956600D03*
%TO.N,Net-(VR1-EN)*%
X116749732Y-82248132D03*
%TO.N,LINE*%
X117031050Y-80250750D03*
%TO.N,+3V3*%
X116746800Y-81508600D03*
%TO.N,PB.0*%
X128053658Y-94709660D03*
%TO.N,PB.1*%
X115095800Y-94081600D03*
%TO.N,GND*%
X115722400Y-98831400D03*
D12*
X111201200Y-76174600D03*
X111937800Y-68122800D03*
X113842800Y-71297800D03*
X111582200Y-70815200D03*
%TO.N,/MCU/NRST*%
X149275800Y-81305400D03*
%TO.N,VBUS*%
X117170200Y-82905600D03*
X111785400Y-93345000D03*
X111734600Y-92100400D03*
X111785400Y-90779600D03*
X111810800Y-89458800D03*
%TO.N,GND*%
X116865400Y-84074000D03*
D11*
%TO.N,PB.11*%
X115095800Y-94919800D03*
D12*
%TO.N,GND*%
X111023400Y-96062800D03*
X112623600Y-95631000D03*
X111658400Y-95123000D03*
D11*
%TO.N,PA.7*%
X113319646Y-87997576D03*
%TO.N,PA.6*%
X113814808Y-87576484D03*
%TO.N,PA.5*%
X114464781Y-87582744D03*
%TO.N,PB.2*%
X125095000Y-94589600D03*
%TO.N,GND*%
X111738785Y-103942191D03*
%TO.N,PC.1*%
X150566788Y-91141244D03*
X142068305Y-96871146D03*
%TO.N,PF.7*%
X142426458Y-85699212D03*
%TO.N,PC.15*%
X151384000Y-87782400D03*
%TO.N,PE.6*%
X146354800Y-91664900D03*
%TO.N,PC.14*%
X149098000Y-88289400D03*
%TO.N,PC.13*%
X148573922Y-88762451D03*
%TO.N,PC.7*%
X125780800Y-106556380D03*
%TO.N,PC.8*%
X126825073Y-106634326D03*
%TO.N,PA.12*%
X112217200Y-96797321D03*
%TO.N,PA.11*%
X111847337Y-97331834D03*
%TO.N,PA.10*%
X111201200Y-98501200D03*
%TO.N,PA.9*%
X112145769Y-99013038D03*
%TO.N,PA.8*%
X112214779Y-99667179D03*
%TO.N,UART.TX*%
X115232918Y-73322918D03*
X117918825Y-97563589D03*
%TO.N,GND*%
X114849399Y-92392876D03*
X149809200Y-88849200D03*
%TO.N,PE.4*%
X150920900Y-93044137D03*
D12*
%TO.N,FMC.A4*%
X145643600Y-68021200D03*
%TO.N,Net-(D6-K)*%
X152501600Y-76660450D03*
D11*
%TO.N,PE.5*%
X150278019Y-92602500D03*
%TO.N,PE.3*%
X150510566Y-94411800D03*
%TO.N,PC.9*%
X122631200Y-110083600D03*
%TO.N,PA.8*%
X125533823Y-107906223D03*
%TO.N,PA.9*%
X124411005Y-109822800D03*
%TO.N,GND*%
X128422400Y-103022400D03*
%TO.N,PA.10*%
X125006391Y-110083600D03*
%TO.N,PA.11*%
X125806394Y-110083600D03*
%TO.N,PA.12*%
X126606397Y-110083600D03*
%TO.N,GND*%
X127406400Y-110083600D03*
X120243600Y-107892400D03*
X153162000Y-91490800D03*
X153162000Y-94030800D03*
X153619200Y-93370400D03*
X153568400Y-92252800D03*
X153568400Y-90830400D03*
X153517600Y-89712800D03*
X151790400Y-104902000D03*
%TO.N,PC.10*%
X153720800Y-99974400D03*
%TO.N,PC.11*%
X153760346Y-98962763D03*
%TO.N,PC.12*%
X151307093Y-97714507D03*
%TO.N,PD.2*%
X153758357Y-98131920D03*
%TO.N,PD.3*%
X153756170Y-97217617D03*
%TO.N,PD.4*%
X153720800Y-96418400D03*
%TO.N,PD.5*%
X153365200Y-95300800D03*
%TO.N,PG.9*%
X150266400Y-96418400D03*
%TO.N,PD.7*%
X151169604Y-95651712D03*
%TO.N,PD.6*%
X151231600Y-92456000D03*
%TO.N,PA.15*%
X137312400Y-109931200D03*
%TO.N,PC.10*%
X138887200Y-109321600D03*
%TO.N,PC.11*%
X138306377Y-108646198D03*
%TO.N,PC.12*%
X137740689Y-108080511D03*
%TO.N,PD.2*%
X141122400Y-109220000D03*
%TO.N,PD.3*%
X140208000Y-108102400D03*
%TO.N,PD.4*%
X139598400Y-107340400D03*
%TO.N,PD.5*%
X139242800Y-106527600D03*
%TO.N,PD.6*%
X138785600Y-100533200D03*
%TO.N,PD.7*%
X139207384Y-101310584D03*
%TO.N,PG.9*%
X140106400Y-101244400D03*
%TO.N,PG.10*%
X141173200Y-104495600D03*
%TO.N,PG.11*%
X142087600Y-105511600D03*
X150416300Y-99103702D03*
%TO.N,PG.12*%
X142051778Y-106405573D03*
%TO.N,PG.13*%
X142544800Y-107035600D03*
%TO.N,GND*%
X146507200Y-103479600D03*
%TO.N,PG.14*%
X144627600Y-105054400D03*
%TO.N,PB.3*%
X145468665Y-102559669D03*
%TO.N,GND*%
X141992305Y-95917540D03*
%TO.N,PB.4*%
X146944048Y-101970770D03*
%TO.N,PG.3*%
X126492000Y-101498400D03*
%TO.N,PG.2*%
X127152400Y-100990400D03*
X114693826Y-100129792D03*
%TO.N,PD.13*%
X123799600Y-95453200D03*
X121124600Y-94652539D03*
%TO.N,PD.12*%
X114757200Y-97434400D03*
%TO.N,PB.5*%
X145338800Y-101286600D03*
%TO.N,PB.6*%
X145897600Y-100685600D03*
%TO.N,PB.7*%
X145219335Y-100043065D03*
%TO.N,PB.8*%
X144961161Y-96690105D03*
%TO.N,PB.9*%
X146337400Y-99380618D03*
X150138924Y-95781020D03*
%TO.N,PD.11*%
X114812611Y-95953475D03*
X123139200Y-96520000D03*
%TO.N,PB.13*%
X118083757Y-96514100D03*
%TO.N,PB.12*%
X118490800Y-95928725D03*
D12*
%TO.N,UART.RX*%
X115620800Y-76504800D03*
D11*
X114972983Y-96583383D03*
D12*
%TO.N,GND*%
X117500400Y-77520800D03*
X120192800Y-72237600D03*
%TO.N,+5V*%
X112115600Y-74422000D03*
X113334800Y-73710800D03*
%TO.N,+3V3*%
X112725200Y-86969600D03*
X112877600Y-86258400D03*
X112877600Y-85547200D03*
X112826800Y-84836000D03*
X110896400Y-86537800D03*
X110871000Y-85826600D03*
X110896400Y-85064600D03*
X110998000Y-84328000D03*
X110896400Y-83642200D03*
X110871000Y-82905600D03*
D11*
%TO.N,GND*%
X130708400Y-109982000D03*
%TO.N,/MCU/BOOT*%
X149191600Y-104952800D03*
%TO.N,+3V3*%
X152857200Y-107289600D03*
%TO.N,FMC.D7*%
X135998102Y-92100400D03*
%TO.N,+3V3*%
X142900400Y-102108000D03*
%TO.N,FMC.BA0*%
X140926601Y-81026000D03*
%TO.N,+3V3*%
X112770100Y-106455337D03*
%TO.N,FMC.D6*%
X126339600Y-92252800D03*
%TO.N,FMC.SDNWE*%
X132791200Y-87630000D03*
%TO.N,FMC.A10*%
X142290800Y-80314800D03*
%TO.N,FMC.SDNRAS*%
X139141200Y-79908400D03*
%TO.N,FMC.SDCLK*%
X123698000Y-105918000D03*
%TO.N,+3V3*%
X145294407Y-94149568D03*
X139370458Y-105311580D03*
X132486400Y-108102400D03*
X128981200Y-103632000D03*
%TO.N,GND*%
X123643634Y-99319673D03*
%TO.N,+3V3*%
X122301658Y-100993580D03*
X118301696Y-93812907D03*
D12*
%TO.N,FMC.A3*%
X143865600Y-84734780D03*
D11*
%TO.N,FMC.A2*%
X143154400Y-81889600D03*
%TO.N,FMC.A1*%
X143967200Y-79959200D03*
%TO.N,FMC.A0*%
X143154400Y-79552800D03*
%TO.N,FMC.BA1*%
X141553601Y-79654400D03*
%TO.N,FMC.SDNE0*%
X139954000Y-79400400D03*
%TO.N,FMC.SDNCAS*%
X139649200Y-81635600D03*
%TO.N,FMC.SDNWE*%
X136956800Y-81534000D03*
D12*
%TO.N,FMC.NBL0*%
X137261600Y-77114400D03*
D11*
%TO.N,FMC.D7*%
X135178800Y-79400400D03*
%TO.N,FMC.D6*%
X131589399Y-84389089D03*
%TO.N,FMC.D5*%
X132232400Y-80365600D03*
%TO.N,FMC.D4*%
X131419600Y-79552800D03*
%TO.N,FMC.D3*%
X130352800Y-79451200D03*
%TO.N,FMC.D2*%
X129754870Y-79982693D03*
%TO.N,FMC.D1*%
X127965200Y-79400400D03*
%TO.N,FMC.D0*%
X126390400Y-79400400D03*
D12*
%TO.N,FMC.A5*%
X144767203Y-69511800D03*
%TO.N,FMC.A6*%
X144526000Y-70815200D03*
%TO.N,FMC.A7*%
X138379200Y-74726800D03*
%TO.N,FMC.A8*%
X136906000Y-73914000D03*
%TO.N,FMC.A9*%
X141553601Y-67894799D03*
%TO.N,FMC.A11*%
X140753603Y-67906403D03*
%TO.N,FMC.SDCKE0*%
X139153603Y-67907197D03*
%TO.N,FMC.SDCLK*%
X138353602Y-67894002D03*
%TO.N,FMC.NBL1*%
X138526603Y-70764400D03*
%TO.N,FMC.D8*%
X135432800Y-68427600D03*
%TO.N,FMC.D9*%
X133400800Y-68580000D03*
%TO.N,FMC.D10*%
X129660889Y-70756616D03*
%TO.N,FMC.D11*%
X131165600Y-67919600D03*
%TO.N,FMC.D12*%
X128320800Y-70104000D03*
%TO.N,FMC.D13*%
X126966600Y-69189600D03*
%TO.N,FMC.D14*%
X127965200Y-67919600D03*
%TO.N,FMC.D15*%
X126339600Y-67919600D03*
%TO.N,+3V3*%
X135940800Y-77317600D03*
D11*
%TO.N,FMC.SDNRAS*%
X131589400Y-85318600D03*
%TO.N,FMC.A6*%
X135483600Y-90525600D03*
%TO.N,FMC.A7*%
X129616858Y-90427180D03*
%TO.N,FMC.A8*%
X132080000Y-90627200D03*
%TO.N,FMC.A9*%
X133105844Y-89491756D03*
%TO.N,FMC.D12*%
X124028858Y-94237180D03*
%TO.N,FMC.SDNCAS*%
X145237200Y-103479600D03*
%TO.N,FMC.NBL0*%
X146859820Y-99986491D03*
%TO.N,FMC.NBL1*%
X151282400Y-102514400D03*
%TO.N,FMC.A2*%
X141173200Y-94437200D03*
%TO.N,FMC.A3*%
X139980058Y-93068780D03*
%TO.N,FMC.A4*%
X139472058Y-91747980D03*
%TO.N,FMC.A5*%
X138811658Y-91087580D03*
%TO.N,FMC.SDNE0*%
X133553200Y-86512400D03*
%TO.N,FMC.A1*%
X145466458Y-87734780D03*
%TO.N,FMC.A0*%
X145473800Y-82550000D03*
%TO.N,FMC.D3*%
X135371102Y-102633024D03*
%TO.N,FMC.D2*%
X133186819Y-103468819D03*
%TO.N,FMC.BA1*%
X122897998Y-105919000D03*
%TO.N,FMC.BA0*%
X121974125Y-104544624D03*
%TO.N,FMC.D11*%
X117652800Y-90220800D03*
%TO.N,FMC.D10*%
X118237658Y-89512780D03*
%TO.N,FMC.D9*%
X118898058Y-88852380D03*
%TO.N,FMC.D8*%
X119558458Y-88191980D03*
%TO.N,FMC.D5*%
X120676058Y-86515580D03*
%TO.N,FMC.D4*%
X123254644Y-81039844D03*
%TO.N,FMC.A11*%
X123901200Y-81280000D03*
%TO.N,FMC.A10*%
X123571658Y-84229580D03*
%TO.N,FMC.D1*%
X121121818Y-104510218D03*
%TO.N,FMC.D0*%
X120791619Y-103570419D03*
%TO.N,FMC.D15*%
X119507658Y-101704780D03*
%TO.N,FMC.D14*%
X118694858Y-100942780D03*
%TO.N,FMC.D13*%
X117886551Y-98689589D03*
%TO.N,Net-(U1E-PE15)*%
X121895258Y-92967180D03*
%TO.N,GND*%
X123927258Y-90782780D03*
%TO.N,+3V3*%
X121793658Y-88903180D03*
%TO.N,GND*%
X126298529Y-84686780D03*
%TO.N,+3V3*%
X124841658Y-84229580D03*
X130219112Y-81341326D03*
%TO.N,Net-(U1E-PE10)*%
X123602786Y-91346004D03*
%TO.N,Net-(U1E-PE9)*%
X125146458Y-90274780D03*
D12*
%TO.N,+3V3*%
X129540000Y-67919600D03*
X131953201Y-77266800D03*
D11*
X146412400Y-91017458D03*
X142164458Y-83975580D03*
D12*
X125552401Y-77266800D03*
D11*
X142316858Y-86972780D03*
D12*
X152501600Y-73307650D03*
X119837200Y-75641200D03*
D11*
X137351617Y-82745611D03*
D12*
X134366000Y-67919600D03*
X127127201Y-77266800D03*
X146329601Y-77266800D03*
D11*
%TO.N,Net-(U1C-PC2)*%
X135523619Y-85231619D03*
D12*
%TO.N,GND*%
X125552401Y-65786000D03*
X127178001Y-65786000D03*
X135966401Y-65836800D03*
X146380401Y-65836800D03*
D11*
X134823200Y-83820000D03*
D12*
X129565601Y-77317600D03*
D11*
X142233485Y-87752459D03*
D12*
X131953201Y-65786000D03*
D11*
X132120354Y-83544292D03*
X138811658Y-83213580D03*
D12*
X134340801Y-77317600D03*
X116281200Y-71932800D03*
D11*
%TO.N,Net-(U1F-PF2)*%
X142316858Y-91287600D03*
%TO.N,Net-(U1D-PD1)*%
X135463882Y-105113404D03*
%TO.N,Net-(U1E-PE2)*%
X145923658Y-94643580D03*
%TO.N,Net-(U1F-PF13)*%
X127187967Y-88030071D03*
%TO.N,Net-(U1F-PF8)*%
X139280528Y-88168487D03*
%TO.N,Net-(U1D-PD0)*%
X135306458Y-106225980D03*
%TO.N,Net-(U1F-PF10)*%
X138140198Y-87032483D03*
D12*
%TO.N,Net-(U1F-PF6)*%
X139878458Y-88699980D03*
D11*
%TO.N,Net-(U1F-PF14)*%
X126873658Y-89055580D03*
%TO.N,Net-(U1F-PF4)*%
X141148458Y-90071580D03*
%TO.N,Net-(U1B-PB10)*%
X121389770Y-93731692D03*
%TO.N,Net-(U1F-PF11)*%
X128981658Y-86648262D03*
%TO.N,Net-(U1F-PF3)*%
X141683012Y-90799498D03*
%TO.N,Net-(U1F-PF15)*%
X125707311Y-89108472D03*
%TO.N,Net-(U1F-PF5)*%
X140589658Y-89309580D03*
%TO.N,Net-(U1F-PF12)*%
X127660400Y-87325200D03*
%TO.N,Net-(U1C-PC3)*%
X134975600Y-84632800D03*
%TO.N,Net-(U1C-PC0)*%
X136521910Y-86229910D03*
%TO.N,Net-(U1F-PF9)*%
X138697346Y-87620468D03*
%TO.N,/MCU/NRST*%
X134874000Y-89763600D03*
%TO.N,QSPI.IO1*%
X115519200Y-106832400D03*
%TO.N,QSPI.IO3*%
X138100458Y-90427180D03*
X114096800Y-105359200D03*
%TO.N,QSPI.IO2*%
X116433600Y-105918000D03*
X144196458Y-96370780D03*
%TO.N,QSPI.NCS*%
X114655600Y-107696000D03*
%TO.N,QSPI.CLK*%
X115011200Y-104444800D03*
X136169058Y-88646000D03*
%TO.N,QSPI.IO0*%
X137490858Y-89766780D03*
X115874800Y-103581200D03*
D12*
%TO.N,Net-(U4-VBUS)*%
X120446800Y-74676000D03*
%TO.N,Net-(U4-~{RST})*%
X120446800Y-73710800D03*
%TO.N,/Input/USB.D+*%
X117754400Y-69951600D03*
X118059200Y-76454000D03*
%TO.N,/Input/USB.D-*%
X118567200Y-71120000D03*
X118922800Y-76403200D03*
%TO.N,+5V*%
X114249200Y-73761600D03*
X123850400Y-69037200D03*
X119227600Y-67665600D03*
X120142000Y-71170800D03*
D11*
%TO.N,PG.3*%
X114503200Y-100939600D03*
%TO.N,PA.4*%
X115095800Y-87426800D03*
%TD*%
D13*
%TO.N,FMC.D2*%
X130606800Y-87836595D02*
X130606800Y-94302417D01*
X130532800Y-87762595D02*
X130606800Y-87836595D01*
X129489200Y-81838800D02*
X130532800Y-82882400D01*
X129844800Y-80518000D02*
X129489200Y-80873600D01*
X129489200Y-80873600D02*
X129489200Y-81838800D01*
X129844800Y-80072623D02*
X129844800Y-80518000D01*
X129754870Y-79982693D02*
X129844800Y-80072623D01*
X130532800Y-82882400D02*
X130532800Y-87762595D01*
%TO.N,FMC.D3*%
X130987800Y-87574127D02*
X130987800Y-80086200D01*
X131061800Y-93469800D02*
X131061800Y-87648127D01*
X131061800Y-87648127D02*
X130987800Y-87574127D01*
X130987800Y-80086200D02*
X130352800Y-79451200D01*
X131817729Y-94225729D02*
X131061800Y-93469800D01*
%TO.N,FMC.A6*%
X138938000Y-80670400D02*
X140157200Y-80670400D01*
X138183658Y-81424742D02*
X138938000Y-80670400D01*
X138183658Y-83561307D02*
X138183658Y-81424742D01*
X140157200Y-80670400D02*
X140766800Y-80060800D01*
X135542058Y-86202907D02*
X138183658Y-83561307D01*
X140766800Y-78333600D02*
X140973066Y-78127334D01*
X135542058Y-90467142D02*
X135542058Y-86202907D01*
X140766800Y-80060800D02*
X140766800Y-78333600D01*
X135483600Y-90525600D02*
X135542058Y-90467142D01*
D14*
%TO.N,PG.9*%
X150653824Y-96030976D02*
X150266400Y-96418400D01*
X150653824Y-95561224D02*
X150653824Y-96030976D01*
X144680579Y-95158480D02*
X150251080Y-95158480D01*
X150251080Y-95158480D02*
X150653824Y-95561224D01*
X143052800Y-98298000D02*
X143052800Y-96786259D01*
X140106400Y-101244400D02*
X143052800Y-98298000D01*
X143052800Y-96786259D02*
X144680579Y-95158480D01*
%TO.N,PD.5*%
X144560074Y-101958669D02*
X139991143Y-106527600D01*
X145589731Y-101958669D02*
X144560074Y-101958669D01*
X139991143Y-106527600D02*
X139242800Y-106527600D01*
X146405600Y-101142800D02*
X145589731Y-101958669D01*
X152730200Y-95300800D02*
X146888200Y-101142800D01*
X146888200Y-101142800D02*
X146405600Y-101142800D01*
X153365200Y-95300800D02*
X152730200Y-95300800D01*
%TO.N,PA.9*%
X124156905Y-109568700D02*
X124411005Y-109822800D01*
X114547100Y-109568700D02*
X124156905Y-109568700D01*
X112255200Y-106235600D02*
X112255200Y-107276800D01*
X112801400Y-105689400D02*
X112255200Y-106235600D01*
X111699879Y-99880458D02*
X112801400Y-100981979D01*
X111699879Y-99453900D02*
X111699879Y-99880458D01*
X112255200Y-107276800D02*
X114547100Y-109568700D01*
X112140741Y-99013038D02*
X111699879Y-99453900D01*
X112801400Y-100981979D02*
X112801400Y-105689400D01*
X112145769Y-99013038D02*
X112140741Y-99013038D01*
%TO.N,PA.10*%
X125006391Y-109690007D02*
X125006391Y-110083600D01*
X124506284Y-109189900D02*
X125006391Y-109690007D01*
X114727100Y-109189900D02*
X124506284Y-109189900D01*
X113919000Y-108381800D02*
X114727100Y-109189900D01*
X113919000Y-106682304D02*
X113919000Y-108381800D01*
X113189300Y-99168500D02*
X113189300Y-105952604D01*
X112522000Y-98501200D02*
X113189300Y-99168500D01*
X111932490Y-98498138D02*
X112359048Y-98498138D01*
X112359048Y-98498138D02*
X112362110Y-98501200D01*
X111929428Y-98501200D02*
X111932490Y-98498138D01*
X112362110Y-98501200D02*
X112522000Y-98501200D01*
X113189300Y-105952604D02*
X113919000Y-106682304D01*
X111201200Y-98501200D02*
X111929428Y-98501200D01*
%TO.N,PG.3*%
X122631200Y-105359200D02*
X126492000Y-101498400D01*
X119004368Y-105359200D02*
X122631200Y-105359200D01*
X114584768Y-100939600D02*
X119004368Y-105359200D01*
X114503200Y-100939600D02*
X114584768Y-100939600D01*
%TO.N,PD.6*%
X140614400Y-95199200D02*
X138785600Y-97028000D01*
X138785600Y-97028000D02*
X138785600Y-100533200D01*
X145184026Y-92890000D02*
X142874826Y-95199200D01*
X149555200Y-92049600D02*
X148714800Y-92890000D01*
X150825200Y-92049600D02*
X149555200Y-92049600D01*
X151231600Y-92456000D02*
X150825200Y-92049600D01*
X148714800Y-92890000D02*
X145184026Y-92890000D01*
X142874826Y-95199200D02*
X140614400Y-95199200D01*
%TO.N,PD.7*%
X142582205Y-96027525D02*
X142582205Y-97935763D01*
X142582205Y-97935763D02*
X139207384Y-101310584D01*
X145340930Y-93268800D02*
X142582205Y-96027525D01*
X151180800Y-94030800D02*
X150418800Y-93268800D01*
X151091346Y-95581863D02*
X151091346Y-95441054D01*
X151091346Y-95441054D02*
X151180800Y-95351600D01*
X150418800Y-93268800D02*
X145340930Y-93268800D01*
X151125820Y-95607928D02*
X151117411Y-95607928D01*
X151117411Y-95607928D02*
X151091346Y-95581863D01*
X151169604Y-95651712D02*
X151125820Y-95607928D01*
X151180800Y-95351600D02*
X151180800Y-94030800D01*
%TO.N,PB.9*%
X149047200Y-97891600D02*
X147828000Y-99110800D01*
X149047200Y-96875600D02*
X149047200Y-97891600D01*
X146607218Y-99110800D02*
X146337400Y-99380618D01*
X150138924Y-95783876D02*
X149047200Y-96875600D01*
X150138924Y-95781020D02*
X150138924Y-95783876D01*
X147828000Y-99110800D02*
X146607218Y-99110800D01*
%TO.N,PA.12*%
X113946900Y-104244100D02*
X113946900Y-98300500D01*
X112443721Y-96797321D02*
X112217200Y-96797321D01*
X124955097Y-108432300D02*
X118135100Y-108432300D01*
X118135100Y-108432300D02*
X113946900Y-104244100D01*
X126606397Y-110083600D02*
X124955097Y-108432300D01*
X113946900Y-98300500D02*
X112443721Y-96797321D01*
%TO.N,PA.11*%
X124663188Y-108811100D02*
X125806394Y-109954306D01*
X113568100Y-105795700D02*
X116583500Y-108811100D01*
X125806394Y-109954306D02*
X125806394Y-110083600D01*
X113568100Y-98480500D02*
X113568100Y-105795700D01*
X111867950Y-97311221D02*
X112398821Y-97311221D01*
X116583500Y-108811100D02*
X124663188Y-108811100D01*
X111847337Y-97331834D02*
X111867950Y-97311221D01*
X112398821Y-97311221D02*
X113568100Y-98480500D01*
%TO.N,PC.11*%
X139714353Y-108646198D02*
X138306377Y-108646198D01*
X152298400Y-102680245D02*
X145168745Y-109809900D01*
X152298400Y-100424709D02*
X152298400Y-102680245D01*
X145168745Y-109809900D02*
X140878055Y-109809900D01*
X140878055Y-109809900D02*
X139714353Y-108646198D01*
X153760346Y-98962763D02*
X152298400Y-100424709D01*
%TO.N,PD.2*%
X143208157Y-109220000D02*
X141122400Y-109220000D01*
X151887600Y-100540557D02*
X143208157Y-109220000D01*
X151887600Y-100002677D02*
X151887600Y-100540557D01*
X153758357Y-98131920D02*
X151887600Y-100002677D01*
%TO.N,PD.3*%
X143790053Y-108102400D02*
X140208000Y-108102400D01*
X153756170Y-97297430D02*
X151508800Y-99544800D01*
X151508800Y-99544800D02*
X151508800Y-100383653D01*
X151508800Y-100383653D02*
X143790053Y-108102400D01*
X153756170Y-97217617D02*
X153756170Y-97297430D01*
%TO.N,PD.4*%
X143731249Y-107625500D02*
X141661500Y-107625500D01*
X151130000Y-100226749D02*
X143731249Y-107625500D01*
X151130000Y-99009200D02*
X151130000Y-100226749D01*
X141661500Y-107625500D02*
X141376400Y-107340400D01*
X141376400Y-107340400D02*
X139598400Y-107340400D01*
X153720800Y-96418400D02*
X151130000Y-99009200D01*
%TO.N,PG.11*%
X143256000Y-104343200D02*
X142087600Y-105511600D01*
X146477845Y-104343200D02*
X143256000Y-104343200D01*
X150723600Y-99463111D02*
X150723600Y-100097445D01*
X150723600Y-100097445D02*
X146477845Y-104343200D01*
X150467100Y-99206611D02*
X150723600Y-99463111D01*
X150467100Y-99153086D02*
X150467100Y-99206611D01*
X150416300Y-99103702D02*
X150417716Y-99103702D01*
X150417716Y-99103702D02*
X150467100Y-99153086D01*
D15*
%TO.N,PD.13*%
X122998939Y-94652539D02*
X123799600Y-95453200D01*
X121124600Y-94652539D02*
X122998939Y-94652539D01*
D13*
%TO.N,FMC.D13*%
X117886551Y-98804687D02*
X117882058Y-98809180D01*
X117886551Y-98689589D02*
X117886551Y-98804687D01*
X117886551Y-98407273D02*
X116230400Y-96751122D01*
X117886551Y-98689589D02*
X117886551Y-98407273D01*
X116230400Y-96751122D02*
X116230400Y-94746418D01*
%TO.N,QSPI.IO2*%
X144196458Y-98170342D02*
X144196458Y-96370780D01*
X126546558Y-107190400D02*
X126546558Y-107340400D01*
X116433600Y-105918000D02*
X117856000Y-107340400D01*
X126546558Y-107340400D02*
X126546558Y-107580400D01*
X126096558Y-107040400D02*
X126396558Y-107040400D01*
X128346558Y-108100400D02*
X128346558Y-107580400D01*
X127746558Y-107580400D02*
X127746558Y-108100400D01*
X126546558Y-107580400D02*
X126546558Y-108100400D01*
X127986558Y-108340400D02*
X128106558Y-108340400D01*
X126786558Y-108340400D02*
X126906558Y-108340400D01*
X127146558Y-108100400D02*
X127146558Y-107580400D01*
X128706558Y-107340400D02*
X128787141Y-107340400D01*
X128787141Y-107340400D02*
X135026400Y-107340400D01*
X117856000Y-107340400D02*
X125796558Y-107340400D01*
X135026400Y-107340400D02*
X144196458Y-98170342D01*
X128586558Y-107340400D02*
X128706558Y-107340400D01*
X127386558Y-107340400D02*
X127506558Y-107340400D01*
X125796558Y-107340400D02*
G75*
G03*
X125946600Y-107190400I42J150000D01*
G01*
X128106558Y-108340400D02*
G75*
G03*
X128346600Y-108100400I42J240000D01*
G01*
X126546558Y-108100400D02*
G75*
G03*
X126786558Y-108340442I240042J0D01*
G01*
X127146558Y-107580400D02*
G75*
G02*
X127386558Y-107340358I240042J0D01*
G01*
X128346558Y-107580400D02*
G75*
G02*
X128586558Y-107340358I240042J0D01*
G01*
X126906558Y-108340400D02*
G75*
G03*
X127146600Y-108100400I42J240000D01*
G01*
X126396558Y-107040400D02*
G75*
G02*
X126546600Y-107190400I42J-150000D01*
G01*
X127506558Y-107340400D02*
G75*
G02*
X127746600Y-107580400I42J-240000D01*
G01*
X125946558Y-107190400D02*
G75*
G02*
X126096558Y-107040358I150042J0D01*
G01*
X127746558Y-108100400D02*
G75*
G03*
X127986558Y-108340442I240042J0D01*
G01*
%TO.N,QSPI.IO0*%
X129282740Y-106004380D02*
X129414740Y-106004380D01*
X128622740Y-105364380D02*
X128754740Y-105364380D01*
X119075200Y-106781600D02*
X124614600Y-106781600D01*
X132958820Y-106004380D02*
X137472458Y-101490742D01*
X129715253Y-106004380D02*
X132958820Y-106004380D01*
X128358740Y-105740380D02*
X128358740Y-105628380D01*
X124614600Y-106781600D02*
X125391820Y-106004380D01*
X115874800Y-103581200D02*
X119075200Y-106781600D01*
X129414740Y-106004380D02*
X129715253Y-106004380D01*
X137472458Y-89785180D02*
X137490858Y-89766780D01*
X125391820Y-106004380D02*
X128094740Y-106004380D01*
X137472458Y-101490742D02*
X137472458Y-89785180D01*
X129018740Y-105628380D02*
X129018740Y-105740380D01*
X128358740Y-105628380D02*
G75*
G02*
X128622740Y-105364440I263960J-20D01*
G01*
X129018740Y-105740380D02*
G75*
G03*
X129282740Y-106004360I263960J-20D01*
G01*
X128754740Y-105364380D02*
G75*
G02*
X129018720Y-105628380I-40J-264020D01*
G01*
X128094740Y-106004380D02*
G75*
G03*
X128358680Y-105740380I-40J263980D01*
G01*
%TO.N,FMC.D12*%
X128320800Y-70104000D02*
X127912200Y-70512600D01*
X129282200Y-73096540D02*
X128152200Y-73096540D01*
X128532200Y-76696540D02*
X128152200Y-76696540D01*
X127018400Y-78263728D02*
X127018400Y-85681200D01*
X129522200Y-73936540D02*
X129522200Y-74056540D01*
X122682000Y-92890322D02*
X124028858Y-94237180D01*
X122682000Y-90017600D02*
X122682000Y-92890322D01*
X129282200Y-71896540D02*
X128152200Y-71896540D01*
X129282200Y-74296540D02*
X128152200Y-74296540D01*
X127912200Y-72136540D02*
X127912200Y-72256540D01*
X127870191Y-77411937D02*
X127018400Y-78263728D01*
X129522200Y-72736540D02*
X129522200Y-72856540D01*
X128152200Y-71296540D02*
X129282200Y-71296540D01*
X127912200Y-76096540D02*
X128152200Y-76096540D01*
X127092200Y-76096540D02*
X127912200Y-76096540D01*
X127912200Y-75496540D02*
X127092200Y-75496540D01*
X127912200Y-77056540D02*
X127912200Y-77369928D01*
X128152200Y-76096540D02*
X128532200Y-76096540D01*
X126852200Y-75736540D02*
X126852200Y-75856540D01*
X127018400Y-85681200D02*
X122682000Y-90017600D01*
X127912200Y-73336540D02*
X127912200Y-73456540D01*
X129522200Y-71536540D02*
X129522200Y-71656540D01*
X127912200Y-74536540D02*
X127912200Y-74656540D01*
X129282200Y-75496540D02*
X128152200Y-75496540D01*
X128152200Y-75496540D02*
X127912200Y-75496540D01*
X128152200Y-72496540D02*
X129282200Y-72496540D01*
X127912200Y-70512600D02*
X127912200Y-71056540D01*
X127912200Y-76936540D02*
X127912200Y-77056540D01*
X129522200Y-75136540D02*
X129522200Y-75256540D01*
X128772200Y-76336540D02*
X128772200Y-76456540D01*
X128152200Y-74896540D02*
X129282200Y-74896540D01*
X128152200Y-73696540D02*
X129282200Y-73696540D01*
X127912200Y-77369928D02*
X127870191Y-77411937D01*
X129282200Y-74896540D02*
G75*
G02*
X129522160Y-75136540I0J-239960D01*
G01*
X129522200Y-75256540D02*
G75*
G02*
X129282200Y-75496500I-240000J40D01*
G01*
X128152200Y-71896540D02*
G75*
G03*
X127912240Y-72136540I0J-239960D01*
G01*
X127912200Y-74656540D02*
G75*
G03*
X128152200Y-74896500I240000J40D01*
G01*
X128152200Y-76696540D02*
G75*
G03*
X127912240Y-76936540I0J-239960D01*
G01*
X127092200Y-75496540D02*
G75*
G03*
X126852240Y-75736540I0J-239960D01*
G01*
X127912200Y-72256540D02*
G75*
G03*
X128152200Y-72496500I240000J40D01*
G01*
X129282200Y-73696540D02*
G75*
G02*
X129522160Y-73936540I0J-239960D01*
G01*
X128772200Y-76456540D02*
G75*
G02*
X128532200Y-76696500I-240000J40D01*
G01*
X128532200Y-76096540D02*
G75*
G02*
X128772160Y-76336540I0J-239960D01*
G01*
X129282200Y-72496540D02*
G75*
G02*
X129522160Y-72736540I0J-239960D01*
G01*
X126852200Y-75856540D02*
G75*
G03*
X127092200Y-76096500I240000J40D01*
G01*
X129522200Y-72856540D02*
G75*
G02*
X129282200Y-73096500I-240000J40D01*
G01*
X127912200Y-71056540D02*
G75*
G03*
X128152200Y-71296500I240000J40D01*
G01*
X128152200Y-74296540D02*
G75*
G03*
X127912240Y-74536540I0J-239960D01*
G01*
X129522200Y-74056540D02*
G75*
G02*
X129282200Y-74296500I-240000J40D01*
G01*
X129522200Y-71656540D02*
G75*
G02*
X129282200Y-71896500I-240000J40D01*
G01*
X129282200Y-71296540D02*
G75*
G02*
X129522160Y-71536540I0J-239960D01*
G01*
X127912200Y-73456540D02*
G75*
G03*
X128152200Y-73696500I240000J40D01*
G01*
X128152200Y-73096540D02*
G75*
G03*
X127912240Y-73336540I0J-239960D01*
G01*
%TO.N,FMC.A7*%
X133376514Y-73336871D02*
X133291661Y-73421723D01*
X132980535Y-75147065D02*
X133517937Y-75684467D01*
X133093673Y-76108731D02*
X132556272Y-75571330D01*
X134225043Y-72488342D02*
X134140190Y-72573194D01*
X129988658Y-90055380D02*
X129616858Y-90427180D01*
X134366464Y-75175351D02*
X134281613Y-75260203D01*
X129034200Y-82027267D02*
X129988658Y-82981726D01*
X133291661Y-73761135D02*
X133659356Y-74128830D01*
X132132006Y-75995592D02*
X132132007Y-75995593D01*
X132980534Y-75147064D02*
X132980535Y-75147065D01*
X129034200Y-79862995D02*
X129034200Y-82027267D01*
X134932150Y-72856038D02*
X134564454Y-72488342D01*
X137007600Y-72694800D02*
X135432800Y-72694800D01*
X132132007Y-75995593D02*
X132273429Y-76137015D01*
X133829063Y-74298537D02*
X134366465Y-74835939D01*
X131594605Y-75458191D02*
X132132006Y-75995592D01*
X133659356Y-74128830D02*
X133829063Y-74298537D01*
X134507885Y-73619712D02*
X134423033Y-73704566D01*
X131424900Y-76702701D02*
X131095491Y-77032109D01*
X132273428Y-76419859D02*
X132132008Y-76561280D01*
X132527986Y-74185399D02*
X132443133Y-74270251D01*
X133942201Y-75260203D02*
X133404800Y-74722802D01*
X132556271Y-75571329D02*
X132018869Y-75033927D01*
X131679458Y-75033927D02*
X131594605Y-75118779D01*
X138379200Y-74066400D02*
X137007600Y-72694800D01*
X133517936Y-76023879D02*
X133433085Y-76108731D01*
X133404800Y-74722802D02*
X133404799Y-74722801D01*
X134083621Y-73704567D02*
X133715925Y-73336871D01*
X134423033Y-73704566D02*
X134423033Y-73704567D01*
X135432800Y-72694800D02*
X135271562Y-72856038D01*
X129048200Y-79079400D02*
X129048200Y-79848994D01*
X129988658Y-82981726D02*
X129988658Y-90055380D01*
X132556272Y-75571330D02*
X132556271Y-75571329D01*
X134140190Y-72912606D02*
X134507885Y-73280301D01*
X133404799Y-74722801D02*
X132867397Y-74185399D01*
X131566322Y-76561281D02*
X131424900Y-76702701D01*
X132443133Y-74609663D02*
X132980534Y-75147064D01*
X138379200Y-74726800D02*
X138379200Y-74066400D01*
X131095491Y-77032109D02*
X129048200Y-79079400D01*
X129048200Y-79848994D02*
X129034200Y-79862995D01*
X134366465Y-74835939D02*
G75*
G02*
X134366420Y-75175306I-169665J-169661D01*
G01*
X132867397Y-74185399D02*
G75*
G03*
X132527987Y-74185399I-169705J-169703D01*
G01*
X133715925Y-73336871D02*
G75*
G03*
X133376515Y-73336871I-169705J-169703D01*
G01*
X132273429Y-76137015D02*
G75*
G02*
X132273392Y-76419822I-141429J-141385D01*
G01*
X134140190Y-72573194D02*
G75*
G03*
X134140190Y-72912606I169710J-169706D01*
G01*
X134564454Y-72488342D02*
G75*
G03*
X134225044Y-72488342I-169705J-169703D01*
G01*
X133517937Y-75684467D02*
G75*
G02*
X133517964Y-76023906I-169737J-169733D01*
G01*
X133433085Y-76108731D02*
G75*
G02*
X133093673Y-76108731I-169706J169701D01*
G01*
X132443133Y-74270251D02*
G75*
G03*
X132443090Y-74609706I169667J-169749D01*
G01*
X132132008Y-76561280D02*
G75*
G02*
X131849179Y-76561267I-141408J141380D01*
G01*
X134507885Y-73280301D02*
G75*
G02*
X134507879Y-73619705I-169685J-169699D01*
G01*
X131594605Y-75118779D02*
G75*
G03*
X131594590Y-75458206I169695J-169721D01*
G01*
X131849164Y-76561281D02*
G75*
G03*
X131566322Y-76561281I-141421J-141419D01*
G01*
X132018869Y-75033927D02*
G75*
G03*
X131679459Y-75033927I-169705J-169703D01*
G01*
X135271562Y-72856038D02*
G75*
G02*
X134932150Y-72856038I-169706J169704D01*
G01*
X134281613Y-75260203D02*
G75*
G02*
X133942201Y-75260203I-169706J169701D01*
G01*
X134423033Y-73704567D02*
G75*
G02*
X134083621Y-73704567I-169706J169704D01*
G01*
X133291661Y-73421723D02*
G75*
G03*
X133291690Y-73761106I169739J-169677D01*
G01*
%TO.N,FMC.A6*%
X142868112Y-77646501D02*
X142952964Y-77561648D01*
X142302428Y-75723172D02*
X142839830Y-76260574D01*
X142839830Y-76260574D02*
X142839828Y-76260572D01*
X142839828Y-76260572D02*
X143377229Y-76797973D01*
X142415564Y-76684836D02*
X141878163Y-76147435D01*
X144526000Y-74574400D02*
X144526000Y-73965357D01*
X141029636Y-76656551D02*
X141114488Y-76571700D01*
X142415562Y-76684834D02*
X142415564Y-76684836D01*
X141991302Y-77109102D02*
X141991300Y-77109100D01*
X143264090Y-75836306D02*
X143264092Y-75836308D01*
X141453900Y-76571700D02*
X141991302Y-77109102D01*
X143716640Y-76797973D02*
X143801492Y-76713120D01*
X143094387Y-75666603D02*
X142726691Y-75298907D01*
X143942916Y-75157485D02*
X144526000Y-74574400D01*
X141312477Y-78127334D02*
X141680172Y-78495029D01*
X141567033Y-77533362D02*
X141567036Y-77533364D01*
X142019583Y-78495029D02*
X142104435Y-78410176D01*
X144526000Y-73965357D02*
X144526000Y-70815200D01*
X141878164Y-75808023D02*
X141963016Y-75723172D01*
X142104435Y-78070764D02*
X141736739Y-77703068D01*
X143264092Y-75836308D02*
X143094387Y-75666603D01*
X141991300Y-77109100D02*
X142528701Y-77646501D01*
X143801492Y-76373708D02*
X143264090Y-75836306D01*
X143150956Y-74874644D02*
X143518652Y-75242340D01*
X141567036Y-77533364D02*
X141029635Y-76995963D01*
X141736739Y-77703068D02*
X141567033Y-77533362D01*
X142726692Y-74959495D02*
X142811544Y-74874644D01*
X142952964Y-77222236D02*
X142415562Y-76684834D01*
X143858064Y-75242339D02*
X143942916Y-75157485D01*
X141029635Y-76995963D02*
G75*
G02*
X141029678Y-76656594I169665J169663D01*
G01*
X143518652Y-75242340D02*
G75*
G03*
X143858106Y-75242382I169748J169740D01*
G01*
X142726691Y-75298907D02*
G75*
G02*
X142726690Y-74959494I169709J169707D01*
G01*
X143377229Y-76797973D02*
G75*
G03*
X143716640Y-76797974I169706J169707D01*
G01*
X142104435Y-78410176D02*
G75*
G03*
X142104405Y-78070794I-169735J169676D01*
G01*
X142952964Y-77561648D02*
G75*
G03*
X142953006Y-77222194I-169664J169748D01*
G01*
X143801492Y-76713120D02*
G75*
G03*
X143801506Y-76373694I-169692J169720D01*
G01*
X141114488Y-76571700D02*
G75*
G02*
X141453900Y-76571700I169706J-169701D01*
G01*
X142528701Y-77646501D02*
G75*
G03*
X142868112Y-77646502I169706J169707D01*
G01*
X141878163Y-76147435D02*
G75*
G02*
X141878134Y-75807994I169737J169735D01*
G01*
X140973066Y-78127334D02*
G75*
G02*
X141312477Y-78127333I169706J-169707D01*
G01*
X141680172Y-78495029D02*
G75*
G03*
X142019583Y-78495030I169706J169707D01*
G01*
X142811544Y-74874644D02*
G75*
G02*
X143150956Y-74874644I169706J-169701D01*
G01*
X141963016Y-75723172D02*
G75*
G02*
X142302428Y-75723172I169706J-169701D01*
G01*
%TO.N,FMC.D0*%
X121257600Y-95279539D02*
X120737600Y-95279539D01*
X121497600Y-95639539D02*
X121497600Y-95519539D01*
X121533531Y-88275180D02*
X121822002Y-88275180D01*
X119937600Y-95879539D02*
X120497600Y-95879539D01*
X121822002Y-88275180D02*
X126390400Y-83706782D01*
X120497600Y-94919539D02*
X120497600Y-94568181D01*
X121165658Y-88643053D02*
X121533531Y-88275180D01*
X121257600Y-96479539D02*
X120497600Y-96479539D01*
X121165658Y-88931524D02*
X121165658Y-88643053D01*
X119697600Y-96239539D02*
X119697600Y-96119539D01*
X120497600Y-97679539D02*
X119937600Y-97679539D01*
X121257600Y-97679539D02*
X120497600Y-97679539D01*
X120497600Y-89599582D02*
X121165658Y-88931524D01*
X120497600Y-94568181D02*
X120497600Y-89599582D01*
X120497600Y-103276400D02*
X120497600Y-102679539D01*
X120791619Y-103570419D02*
X120497600Y-103276400D01*
X120497600Y-96479539D02*
X119937600Y-96479539D01*
X119697600Y-99839539D02*
X119697600Y-99719539D01*
X119937600Y-99479539D02*
X120497600Y-99479539D01*
X119937600Y-97079539D02*
X120497600Y-97079539D01*
X121257600Y-101279539D02*
X120497600Y-101279539D01*
X120497600Y-95879539D02*
X120737600Y-95879539D01*
X120497600Y-100679539D02*
X121257600Y-100679539D01*
X120497600Y-95039539D02*
X120497600Y-94919539D01*
X119697600Y-97439539D02*
X119697600Y-97319539D01*
X121497600Y-100439539D02*
X121497600Y-100319539D01*
X120737600Y-95879539D02*
X121257600Y-95879539D01*
X121497600Y-98039539D02*
X121497600Y-97919539D01*
X121257600Y-98879539D02*
X120497600Y-98879539D01*
X120497600Y-98279539D02*
X121257600Y-98279539D01*
X120497600Y-100079539D02*
X119937600Y-100079539D01*
X121257600Y-100079539D02*
X120497600Y-100079539D01*
X126390400Y-83706782D02*
X126390400Y-79400400D01*
X119697600Y-98639539D02*
X119697600Y-98519539D01*
X120497600Y-98879539D02*
X119937600Y-98879539D01*
X121497600Y-96839539D02*
X121497600Y-96719539D01*
X120497600Y-97079539D02*
X121257600Y-97079539D01*
X121497600Y-99239539D02*
X121497600Y-99119539D01*
X120497600Y-99479539D02*
X121257600Y-99479539D01*
X120087600Y-100679539D02*
X120497600Y-100679539D01*
X120297600Y-101879539D02*
X120497600Y-101879539D01*
X119847600Y-101039539D02*
X119847600Y-100919539D01*
X120497600Y-101279539D02*
X120087600Y-101279539D01*
X119937600Y-98279539D02*
X120497600Y-98279539D01*
X121497600Y-101639539D02*
X121497600Y-101519539D01*
X120497600Y-101879539D02*
X121257600Y-101879539D01*
X120097600Y-102279539D02*
X120097600Y-102079539D01*
X119697600Y-97319539D02*
G75*
G02*
X119937600Y-97079500I240000J39D01*
G01*
X119847600Y-100919539D02*
G75*
G02*
X120087600Y-100679500I240000J39D01*
G01*
X121497600Y-96719539D02*
G75*
G03*
X121257600Y-96479500I-240000J39D01*
G01*
X120097600Y-102079539D02*
G75*
G02*
X120297600Y-101879500I200000J39D01*
G01*
X121497600Y-100319539D02*
G75*
G03*
X121257600Y-100079500I-240000J39D01*
G01*
X119937600Y-96479539D02*
G75*
G02*
X119697561Y-96239539I0J240039D01*
G01*
X121257600Y-98279539D02*
G75*
G03*
X121497639Y-98039539I0J240039D01*
G01*
X121497600Y-95519539D02*
G75*
G03*
X121257600Y-95279500I-240000J39D01*
G01*
X121257600Y-101879539D02*
G75*
G03*
X121497639Y-101639539I0J240039D01*
G01*
X121497600Y-97919539D02*
G75*
G03*
X121257600Y-97679500I-240000J39D01*
G01*
X121257600Y-95879539D02*
G75*
G03*
X121497639Y-95639539I0J240039D01*
G01*
X119937600Y-97679539D02*
G75*
G02*
X119697561Y-97439539I0J240039D01*
G01*
X121257600Y-100679539D02*
G75*
G03*
X121497639Y-100439539I0J240039D01*
G01*
X120497600Y-102679539D02*
G75*
G03*
X120297600Y-102479500I-200000J39D01*
G01*
X121257600Y-97079539D02*
G75*
G03*
X121497639Y-96839539I0J240039D01*
G01*
X121257600Y-99479539D02*
G75*
G03*
X121497639Y-99239539I0J240039D01*
G01*
X120087600Y-101279539D02*
G75*
G02*
X119847561Y-101039539I0J240039D01*
G01*
X120297600Y-102479539D02*
G75*
G02*
X120097561Y-102279539I0J200039D01*
G01*
X121497600Y-101519539D02*
G75*
G03*
X121257600Y-101279500I-240000J39D01*
G01*
X119937600Y-100079539D02*
G75*
G02*
X119697561Y-99839539I0J240039D01*
G01*
X121497600Y-99119539D02*
G75*
G03*
X121257600Y-98879500I-240000J39D01*
G01*
X119697600Y-96119539D02*
G75*
G02*
X119937600Y-95879500I240000J39D01*
G01*
X119697600Y-98519539D02*
G75*
G02*
X119937600Y-98279500I240000J39D01*
G01*
X119937600Y-98879539D02*
G75*
G02*
X119697561Y-98639539I0J240039D01*
G01*
X120737600Y-95279539D02*
G75*
G02*
X120497561Y-95039539I0J240039D01*
G01*
X119697600Y-99719539D02*
G75*
G02*
X119937600Y-99479500I240000J39D01*
G01*
%TO.N,FMC.D14*%
X119755600Y-94442965D02*
X119499600Y-94442965D01*
X118499600Y-91042965D02*
X119227600Y-91042965D01*
X119499600Y-90362965D02*
X119227600Y-90362965D01*
X120027600Y-94034965D02*
X120027600Y-94170965D01*
X119227600Y-100410038D02*
X118694858Y-100942780D01*
X118227600Y-90634965D02*
X118227600Y-90770965D01*
X120027600Y-92674965D02*
X120027600Y-92810965D01*
X127457200Y-69786936D02*
X127457200Y-74371200D01*
X127965200Y-67919600D02*
X127965200Y-69278936D01*
X119227600Y-90362965D02*
X118499600Y-90362965D01*
X127457200Y-74371200D02*
X124924401Y-76903999D01*
X119499600Y-93762965D02*
X119755600Y-93762965D01*
X119227600Y-93354965D02*
X119227600Y-93490965D01*
X119227600Y-92402965D02*
X119499600Y-92402965D01*
X119227600Y-95148400D02*
X119227600Y-100410038D01*
X119227600Y-91042965D02*
X119755600Y-91042965D01*
X122529600Y-86108965D02*
X119227600Y-89410965D01*
X118499600Y-92402965D02*
X119227600Y-92402965D01*
X118227600Y-91994965D02*
X118227600Y-92130965D01*
X119755600Y-91722965D02*
X119227600Y-91722965D01*
X124924401Y-81679199D02*
X122529600Y-84074000D01*
X119755600Y-90362965D02*
X119499600Y-90362965D01*
X120027600Y-89954965D02*
X120027600Y-90090965D01*
X124924401Y-76903999D02*
X124924401Y-81679199D01*
X119499600Y-89682965D02*
X119755600Y-89682965D01*
X119227600Y-94850965D02*
X119227600Y-95148400D01*
X119755600Y-93082965D02*
X119499600Y-93082965D01*
X119227600Y-94714965D02*
X119227600Y-94850965D01*
X127965200Y-69278936D02*
X127457200Y-69786936D01*
X119499600Y-92402965D02*
X119755600Y-92402965D01*
X122529600Y-84074000D02*
X122529600Y-86108965D01*
X120027600Y-91314965D02*
X120027600Y-91450965D01*
X119227600Y-91722965D02*
X118499600Y-91722965D01*
X120027600Y-90090965D02*
G75*
G02*
X119755600Y-90363000I-272000J-35D01*
G01*
X119755600Y-93762965D02*
G75*
G02*
X120027635Y-94034965I0J-272035D01*
G01*
X118499600Y-91722965D02*
G75*
G03*
X118227565Y-91994965I0J-272035D01*
G01*
X120027600Y-91450965D02*
G75*
G02*
X119755600Y-91723000I-272000J-35D01*
G01*
X120027600Y-94170965D02*
G75*
G02*
X119755600Y-94443000I-272000J-35D01*
G01*
X118227600Y-90770965D02*
G75*
G03*
X118499600Y-91043000I272000J-35D01*
G01*
X119499600Y-94442965D02*
G75*
G03*
X119227565Y-94714965I0J-272035D01*
G01*
X118227600Y-92130965D02*
G75*
G03*
X118499600Y-92403000I272000J-35D01*
G01*
X120027600Y-92810965D02*
G75*
G02*
X119755600Y-93083000I-272000J-35D01*
G01*
X118499600Y-90362965D02*
G75*
G03*
X118227565Y-90634965I0J-272035D01*
G01*
X119227600Y-93490965D02*
G75*
G03*
X119499600Y-93763000I272000J-35D01*
G01*
X119755600Y-92402965D02*
G75*
G02*
X120027635Y-92674965I0J-272035D01*
G01*
X119499600Y-93082965D02*
G75*
G03*
X119227565Y-93354965I0J-272035D01*
G01*
X119755600Y-91042965D02*
G75*
G02*
X120027635Y-91314965I0J-272035D01*
G01*
X119755600Y-89682965D02*
G75*
G02*
X120027635Y-89954965I0J-272035D01*
G01*
X119227600Y-89410965D02*
G75*
G03*
X119499600Y-89683000I272000J-35D01*
G01*
%TO.N,FMC.D13*%
X115600400Y-93120054D02*
X116230400Y-93120054D01*
X117100400Y-93360054D02*
X117100400Y-93480054D01*
X116860400Y-92520054D02*
X116230400Y-92520054D01*
X116230400Y-94080054D02*
X116230400Y-94746418D01*
X116470400Y-93120054D02*
X116860400Y-93120054D01*
X116230400Y-93120054D02*
X116470400Y-93120054D01*
X116230400Y-92520054D02*
X115600400Y-92520054D01*
X116860400Y-93720054D02*
X116470400Y-93720054D01*
X116230400Y-91920054D02*
X116860400Y-91920054D01*
X115360400Y-92760054D02*
X115360400Y-92880054D01*
X115600400Y-91920054D02*
X116230400Y-91920054D01*
X117100400Y-90960054D02*
X117100400Y-91080054D01*
X116230400Y-93960054D02*
X116230400Y-94080054D01*
X121158000Y-79908400D02*
X121158000Y-84429600D01*
X126949200Y-69207000D02*
X126949200Y-74117200D01*
X115360400Y-91560054D02*
X115360400Y-91680054D01*
X116230400Y-91320054D02*
X115600400Y-91320054D01*
X116470400Y-91320054D02*
X116230400Y-91320054D01*
X126949200Y-74117200D02*
X121158000Y-79908400D01*
X116230400Y-89357200D02*
X116230400Y-90480054D01*
X116860400Y-91320054D02*
X116470400Y-91320054D01*
X126966600Y-69189600D02*
X126949200Y-69207000D01*
X117100400Y-92160054D02*
X117100400Y-92280054D01*
X116470400Y-90720054D02*
X116860400Y-90720054D01*
X121158000Y-84429600D02*
X116230400Y-89357200D01*
X117100400Y-93480054D02*
G75*
G02*
X116860400Y-93720100I-240000J-46D01*
G01*
X117100400Y-91080054D02*
G75*
G02*
X116860400Y-91320100I-240000J-46D01*
G01*
X117100400Y-92280054D02*
G75*
G02*
X116860400Y-92520100I-240000J-46D01*
G01*
X115360400Y-91680054D02*
G75*
G03*
X115600400Y-91920100I240000J-46D01*
G01*
X115600400Y-92520054D02*
G75*
G03*
X115360354Y-92760054I0J-240046D01*
G01*
X116860400Y-93120054D02*
G75*
G02*
X117100446Y-93360054I0J-240046D01*
G01*
X115360400Y-92880054D02*
G75*
G03*
X115600400Y-93120100I240000J-46D01*
G01*
X116860400Y-91920054D02*
G75*
G02*
X117100446Y-92160054I0J-240046D01*
G01*
X116860400Y-90720054D02*
G75*
G02*
X117100446Y-90960054I0J-240046D01*
G01*
X115600400Y-91320054D02*
G75*
G03*
X115360354Y-91560054I0J-240046D01*
G01*
X116470400Y-93720054D02*
G75*
G03*
X116230354Y-93960054I0J-240046D01*
G01*
X116230400Y-90480054D02*
G75*
G03*
X116470400Y-90720100I240000J-46D01*
G01*
%TO.N,FMC.A5*%
X145748458Y-86292127D02*
X145748458Y-86176127D01*
X145018458Y-88264127D02*
X144838458Y-88264127D01*
X144591580Y-89901004D02*
X144838458Y-89654127D01*
X144845800Y-82810127D02*
X144845800Y-82289873D01*
X145198458Y-88664127D02*
X145198458Y-88444127D01*
X145154000Y-69898597D02*
X144767203Y-69511800D01*
X145154000Y-81432400D02*
X145154000Y-69898597D01*
X144606458Y-86524127D02*
X144838458Y-86524127D01*
X142978458Y-86872127D02*
X142978458Y-86756127D01*
X144845800Y-82289873D02*
X145154000Y-81981673D01*
X144838458Y-82817469D02*
X144845800Y-82810127D01*
X145154000Y-81981673D02*
X145154000Y-81432400D01*
X144838458Y-88264127D02*
X144606458Y-88264127D01*
X144838458Y-85132127D02*
X144838458Y-85016127D01*
X144838458Y-83856127D02*
X144838458Y-82817469D01*
X144528458Y-84706127D02*
X144528458Y-84436127D01*
X143660458Y-87684127D02*
X144606458Y-87684127D01*
X144838458Y-85944127D02*
X144606458Y-85944127D01*
X144606458Y-85944127D02*
X143210458Y-85944127D01*
X144838458Y-84126127D02*
X144838458Y-83856127D01*
X142978458Y-85712127D02*
X142978458Y-85596127D01*
X143389499Y-91541492D02*
X143580417Y-91350573D01*
X143470816Y-91021769D02*
X142319647Y-89870600D01*
X143470815Y-91021768D02*
X143470816Y-91021769D01*
X144209742Y-90721248D02*
X144400660Y-90530329D01*
X144838458Y-86524127D02*
X145516458Y-86524127D01*
X144838458Y-87452127D02*
X144838458Y-87336127D01*
X140007980Y-91087580D02*
X140836000Y-91915600D01*
X142576985Y-91915600D02*
X142951093Y-91541492D01*
X143428458Y-88032127D02*
X143428458Y-87916127D01*
X143880938Y-90611647D02*
X143990539Y-90721248D01*
X143880939Y-90611648D02*
X143880938Y-90611647D01*
X142319647Y-89542502D02*
X142401673Y-89460477D01*
X143210458Y-86524127D02*
X144606458Y-86524127D01*
X140836000Y-91915600D02*
X142576985Y-91915600D01*
X142729769Y-89460478D02*
X143880939Y-90611648D01*
X138811658Y-91087580D02*
X140007980Y-91087580D01*
X144838458Y-89654127D02*
X144838458Y-89024127D01*
X144606458Y-88264127D02*
X143660458Y-88264127D01*
X145516458Y-85944127D02*
X144838458Y-85944127D01*
X143580417Y-91131370D02*
X143470815Y-91021768D01*
X144606458Y-87104127D02*
X143210458Y-87104127D01*
X143210458Y-85364127D02*
X144606458Y-85364127D01*
X144400660Y-90091922D02*
X144591580Y-89901004D01*
X144606458Y-85364127D02*
G75*
G03*
X144838527Y-85132127I42J232027D01*
G01*
X142978458Y-85596127D02*
G75*
G02*
X143210458Y-85364058I232042J27D01*
G01*
X145516458Y-86524127D02*
G75*
G03*
X145748527Y-86292127I42J232027D01*
G01*
X143210458Y-87104127D02*
G75*
G02*
X142978473Y-86872127I42J232027D01*
G01*
X144838458Y-85016127D02*
G75*
G03*
X144683458Y-84861142I-154958J27D01*
G01*
X144683458Y-84281127D02*
G75*
G03*
X144838527Y-84126127I42J155027D01*
G01*
X142978458Y-86756127D02*
G75*
G02*
X143210458Y-86524058I232042J27D01*
G01*
X144528458Y-84436127D02*
G75*
G02*
X144683458Y-84281058I155042J27D01*
G01*
X144683458Y-84861127D02*
G75*
G02*
X144528473Y-84706127I42J155027D01*
G01*
X143660458Y-88264127D02*
G75*
G02*
X143428473Y-88032127I42J232027D01*
G01*
X143990539Y-90721248D02*
G75*
G03*
X144209742Y-90721249I109602J109603D01*
G01*
X143170296Y-91541492D02*
G75*
G03*
X143389499Y-91541492I109601J109603D01*
G01*
X142319647Y-89870600D02*
G75*
G02*
X142319696Y-89542551I164053J164000D01*
G01*
X144838458Y-87336127D02*
G75*
G03*
X144606458Y-87104142I-231958J27D01*
G01*
X144606458Y-87684127D02*
G75*
G03*
X144838527Y-87452127I42J232027D01*
G01*
X143428458Y-87916127D02*
G75*
G02*
X143660458Y-87684058I232042J27D01*
G01*
X145198458Y-88444127D02*
G75*
G03*
X145018458Y-88264142I-179958J27D01*
G01*
X145018458Y-88844127D02*
G75*
G03*
X145198527Y-88664127I42J180027D01*
G01*
X144838458Y-89024127D02*
G75*
G02*
X145018458Y-88844058I180042J27D01*
G01*
X142401673Y-89460477D02*
G75*
G02*
X142729748Y-89460498I164027J-164023D01*
G01*
X144400660Y-90530329D02*
G75*
G03*
X144400688Y-90311098I-109560J109629D01*
G01*
X143210458Y-85944127D02*
G75*
G02*
X142978473Y-85712127I42J232027D01*
G01*
X144400660Y-90311126D02*
G75*
G02*
X144400636Y-90091898I109640J109626D01*
G01*
X143580417Y-91350573D02*
G75*
G03*
X143580389Y-91131398I-109617J109573D01*
G01*
X142951093Y-91541492D02*
G75*
G02*
X143170296Y-91541492I109601J-109603D01*
G01*
X145748458Y-86176127D02*
G75*
G03*
X145516458Y-85944142I-231958J27D01*
G01*
%TO.N,FMC.A4*%
X146341800Y-85972125D02*
G75*
G02*
X146101775Y-85732125I0J240025D01*
G01*
X146341800Y-88372125D02*
G75*
G02*
X146101775Y-88132125I0J240025D01*
G01*
X146101800Y-85612125D02*
G75*
G02*
X146341800Y-85372100I240000J25D01*
G01*
X147651800Y-86212125D02*
G75*
G03*
X147411800Y-85972100I-240000J25D01*
G01*
X147411800Y-87772125D02*
G75*
G03*
X147651825Y-87532125I0J240025D01*
G01*
X146101800Y-88012125D02*
G75*
G02*
X146341800Y-87772100I240000J25D01*
G01*
X147651800Y-85012125D02*
G75*
G03*
X147411800Y-84772100I-240000J25D01*
G01*
X147651800Y-83812125D02*
G75*
G03*
X147411800Y-83572100I-240000J25D01*
G01*
X146101800Y-89212125D02*
G75*
G02*
X146341800Y-88972100I240000J25D01*
G01*
X146341800Y-83572125D02*
G75*
G02*
X146101775Y-83332125I0J240025D01*
G01*
X147411800Y-88972125D02*
G75*
G03*
X147651825Y-88732125I0J240025D01*
G01*
X145301800Y-84412125D02*
G75*
G02*
X145541800Y-84172100I240000J25D01*
G01*
X147651800Y-87412125D02*
G75*
G03*
X147411800Y-87172100I-240000J25D01*
G01*
X146341800Y-87172125D02*
G75*
G02*
X146101775Y-86932125I0J240025D01*
G01*
X147411800Y-86572125D02*
G75*
G03*
X147651825Y-86332125I0J240025D01*
G01*
X147651800Y-88612125D02*
G75*
G03*
X147411800Y-88372100I-240000J25D01*
G01*
X145541800Y-84772125D02*
G75*
G02*
X145301775Y-84532125I0J240025D01*
G01*
X147411800Y-84172125D02*
G75*
G03*
X147651825Y-83932125I0J240025D01*
G01*
X147411800Y-85372125D02*
G75*
G03*
X147651825Y-85132125I0J240025D01*
G01*
X146101800Y-86812125D02*
G75*
G02*
X146341800Y-86572100I240000J25D01*
G01*
X147411800Y-84772125D02*
X146341800Y-84772125D01*
X147651800Y-85132125D02*
X147651800Y-85012125D01*
X146341800Y-88972125D02*
X147411800Y-88972125D01*
X146341800Y-86572125D02*
X147411800Y-86572125D01*
X147651800Y-87532125D02*
X147651800Y-87412125D01*
X146341800Y-84772125D02*
X146101800Y-84772125D01*
X140458605Y-92659200D02*
X142951200Y-92659200D01*
X147651800Y-88732125D02*
X147651800Y-88612125D01*
X145301800Y-84532125D02*
X145301800Y-84412125D01*
X147651800Y-86332125D02*
X147651800Y-86212125D01*
X146101800Y-88132125D02*
X146101800Y-88012125D01*
X146101800Y-82600800D02*
X146101800Y-82289873D01*
X147411800Y-85972125D02*
X146341800Y-85972125D01*
X145643600Y-81831673D02*
X145643600Y-68021200D01*
X146101800Y-82289873D02*
X145643600Y-81831673D01*
X142951200Y-92659200D02*
X146101800Y-89508600D01*
X146101800Y-84172125D02*
X146341800Y-84172125D01*
X147411800Y-88372125D02*
X146341800Y-88372125D01*
X146101800Y-85732125D02*
X146101800Y-85612125D01*
X146101800Y-83212125D02*
X146101800Y-82600800D01*
X147651800Y-83932125D02*
X147651800Y-83812125D01*
X146101800Y-89508600D02*
X146101800Y-89212125D01*
X146341800Y-84172125D02*
X147411800Y-84172125D01*
X139472058Y-91747980D02*
X139547385Y-91747980D01*
X146101800Y-84772125D02*
X145541800Y-84772125D01*
X146341800Y-85372125D02*
X147411800Y-85372125D01*
X139547385Y-91747980D02*
X140458605Y-92659200D01*
X145541800Y-84172125D02*
X146101800Y-84172125D01*
X147411800Y-83572125D02*
X146341800Y-83572125D01*
X147411800Y-87172125D02*
X146341800Y-87172125D01*
X146341800Y-87772125D02*
X147411800Y-87772125D01*
X146101800Y-83332125D02*
X146101800Y-83212125D01*
X146101800Y-86932125D02*
X146101800Y-86812125D01*
%TO.N,FMC.D3*%
X136451102Y-101576363D02*
X136451102Y-101456363D01*
X135371102Y-100616363D02*
X136211102Y-100616363D01*
X133468977Y-95876978D02*
X133468977Y-95876977D01*
X133638679Y-94519329D02*
X133553826Y-94434476D01*
X135371102Y-102633024D02*
X135371102Y-102056363D01*
X132365887Y-94773887D02*
X131817729Y-94225729D01*
X135611102Y-101816363D02*
X136211102Y-101816363D01*
X133893243Y-96301243D02*
X134487212Y-95707273D01*
X134911481Y-96131541D02*
X134487216Y-96555805D01*
X135371102Y-98576363D02*
X135371102Y-98456363D01*
X134911482Y-96980070D02*
X135335746Y-96555805D01*
X134291102Y-99776363D02*
X134291102Y-99656363D01*
X133214414Y-94434476D02*
X132790149Y-94858740D01*
X134531102Y-100616363D02*
X135371102Y-100616363D01*
X134317510Y-96725510D02*
X133723539Y-97319478D01*
X136451102Y-100376363D02*
X136451102Y-100256363D01*
X134291102Y-100976363D02*
X134291102Y-100856363D01*
X134531102Y-99416363D02*
X135371102Y-99416363D01*
X135371102Y-100016363D02*
X134531102Y-100016363D01*
X133384129Y-97319479D02*
X133299276Y-97234626D01*
X133044711Y-95452710D02*
X133044710Y-95452710D01*
X135611102Y-101216363D02*
X135371102Y-101216363D01*
X133299276Y-96895214D02*
X133893244Y-96301243D01*
X136211102Y-100016363D02*
X135371102Y-100016363D01*
X135371102Y-101216363D02*
X134531102Y-101216363D01*
X135371102Y-98456363D02*
X135371102Y-97779102D01*
X136211102Y-101216363D02*
X135611102Y-101216363D01*
X134487216Y-96555805D02*
X134317510Y-96725510D01*
X136451102Y-99176363D02*
X136451102Y-99056363D01*
X134487212Y-95367862D02*
X134402359Y-95283009D01*
X135335746Y-96216394D02*
X135250893Y-96131541D01*
X135371102Y-97779102D02*
X134911482Y-97319482D01*
X133214415Y-95283004D02*
X133638679Y-94858740D01*
X132450743Y-96046681D02*
X133044711Y-95452710D01*
X135371102Y-99416363D02*
X135611102Y-99416363D01*
X132535596Y-96470946D02*
X132450743Y-96386093D01*
X133044710Y-95452710D02*
X133214415Y-95283004D01*
X134062947Y-95283009D02*
X133468977Y-95876978D01*
X133893244Y-96301243D02*
X133893243Y-96301243D01*
X133468977Y-95876977D02*
X132875006Y-96470945D01*
X132450738Y-94858740D02*
X132365887Y-94773887D01*
X135611102Y-99416363D02*
X136211102Y-99416363D01*
X136211102Y-98816363D02*
X135611102Y-98816363D01*
X135335746Y-96555805D02*
G75*
G03*
X135335746Y-96216394I-169746J169705D01*
G01*
X134531102Y-100016363D02*
G75*
G02*
X134291137Y-99776363I-2J239963D01*
G01*
X132790149Y-94858740D02*
G75*
G02*
X132450737Y-94858741I-169706J169703D01*
G01*
X133638679Y-94858740D02*
G75*
G03*
X133638714Y-94519294I-169679J169740D01*
G01*
X132875006Y-96470945D02*
G75*
G02*
X132535596Y-96470946I-169706J169745D01*
G01*
X135250893Y-96131541D02*
G75*
G03*
X134911481Y-96131541I-169706J-169704D01*
G01*
X134402359Y-95283009D02*
G75*
G03*
X134062947Y-95283009I-169706J-169704D01*
G01*
X133723539Y-97319478D02*
G75*
G02*
X133384095Y-97319513I-169739J169678D01*
G01*
X134291102Y-99656363D02*
G75*
G02*
X134531102Y-99416402I239998J-37D01*
G01*
X133553826Y-94434476D02*
G75*
G03*
X133214414Y-94434476I-169706J-169704D01*
G01*
X134487212Y-95707273D02*
G75*
G03*
X134487180Y-95367895I-169712J169673D01*
G01*
X136451102Y-100256363D02*
G75*
G03*
X136211102Y-100016398I-240002J-37D01*
G01*
X133299276Y-97234626D02*
G75*
G02*
X133299256Y-96895194I169724J169726D01*
G01*
X134531102Y-101216363D02*
G75*
G02*
X134291137Y-100976363I-2J239963D01*
G01*
X136451102Y-99056363D02*
G75*
G03*
X136211102Y-98816398I-240002J-37D01*
G01*
X134911482Y-97319482D02*
G75*
G02*
X134911506Y-96980094I169718J169682D01*
G01*
X135611102Y-98816363D02*
G75*
G02*
X135371137Y-98576363I-2J239963D01*
G01*
X134291102Y-100856363D02*
G75*
G02*
X134531102Y-100616402I239998J-37D01*
G01*
X136211102Y-101816363D02*
G75*
G03*
X136451063Y-101576363I-2J239963D01*
G01*
X136211102Y-99416363D02*
G75*
G03*
X136451063Y-99176363I-2J239963D01*
G01*
X132450743Y-96386093D02*
G75*
G02*
X132450756Y-96046694I169657J169693D01*
G01*
X136451102Y-101456363D02*
G75*
G03*
X136211102Y-101216398I-240002J-37D01*
G01*
X135371102Y-102056363D02*
G75*
G02*
X135611102Y-101816402I239998J-37D01*
G01*
X136211102Y-100616363D02*
G75*
G03*
X136451063Y-100376363I-2J239963D01*
G01*
%TO.N,FMC.D2*%
X131336800Y-97598800D02*
X130606800Y-97598800D01*
X131336800Y-95198800D02*
X130846800Y-95198800D01*
X130846800Y-95798800D02*
X131336800Y-95798800D01*
X131336800Y-96398800D02*
X130606800Y-96398800D01*
X130606800Y-94958800D02*
X130606800Y-94838800D01*
X131576800Y-97958800D02*
X131576800Y-97838800D01*
X130606800Y-94838800D02*
X130606800Y-94302417D01*
X129876800Y-95798800D02*
X130606800Y-95798800D01*
X130606800Y-96398800D02*
X129876800Y-96398800D01*
X131576800Y-96758800D02*
X131576800Y-96638800D01*
X131576800Y-95558800D02*
X131576800Y-95438800D01*
X130770573Y-102424360D02*
X130685720Y-102339507D01*
X131626174Y-101908174D02*
X131456467Y-102077878D01*
X130606800Y-96998800D02*
X131336800Y-96998800D01*
X132050440Y-102332440D02*
X132566627Y-101816252D01*
X131880735Y-102502146D02*
X132050440Y-102332440D01*
X130606800Y-95798800D02*
X130846800Y-95798800D01*
X130606800Y-100888800D02*
X130606800Y-100238800D01*
X130606800Y-98198800D02*
X131336800Y-98198800D01*
X130606800Y-97598800D02*
X129876800Y-97598800D01*
X129876800Y-98198800D02*
X130606800Y-98198800D01*
X130947351Y-101229351D02*
X130606800Y-100888800D01*
X129636800Y-98558800D02*
X129636800Y-98438800D01*
X130606800Y-98798800D02*
X129876800Y-98798800D01*
X131336800Y-98798800D02*
X130606800Y-98798800D01*
X131576800Y-99158800D02*
X131576800Y-99038800D01*
X130606800Y-99398800D02*
X131336800Y-99398800D01*
X129876800Y-99398800D02*
X130366800Y-99398800D01*
X131619107Y-103272895D02*
X131534254Y-103188042D01*
X130366800Y-99398800D02*
X130606800Y-99398800D01*
X131032202Y-101314201D02*
X130947351Y-101229351D01*
X131456467Y-102077878D02*
X131109985Y-102424360D01*
X132305001Y-102926413D02*
X131958517Y-103272894D01*
X131534254Y-102848630D02*
X131880735Y-102502146D01*
X133186819Y-103468819D02*
X132644413Y-102926413D01*
X129876800Y-96998800D02*
X130606800Y-96998800D01*
X132566627Y-101476840D02*
X132481774Y-101391987D01*
X129636800Y-99758800D02*
X129636800Y-99638800D01*
X130685720Y-102000095D02*
X131032203Y-101653613D01*
X130366800Y-99998800D02*
X129876800Y-99998800D01*
X132142362Y-101391987D02*
X131626174Y-101908174D01*
X129636800Y-96158800D02*
X129636800Y-96038800D01*
X129636800Y-97358800D02*
X129636800Y-97238800D01*
X132644413Y-102926413D02*
G75*
G03*
X132305001Y-102926413I-169706J-169701D01*
G01*
X131336800Y-96998800D02*
G75*
G03*
X131576800Y-96758800I0J240000D01*
G01*
X130846800Y-95198800D02*
G75*
G02*
X130606800Y-94958800I0J240000D01*
G01*
X132481774Y-101391987D02*
G75*
G03*
X132142362Y-101391987I-169706J-169704D01*
G01*
X129636800Y-96038800D02*
G75*
G02*
X129876800Y-95798800I240000J0D01*
G01*
X129876800Y-96398800D02*
G75*
G02*
X129636800Y-96158800I0J240000D01*
G01*
X131576800Y-97838800D02*
G75*
G03*
X131336800Y-97598800I-240000J0D01*
G01*
X129876800Y-98798800D02*
G75*
G02*
X129636800Y-98558800I0J240000D01*
G01*
X131534254Y-103188042D02*
G75*
G02*
X131534218Y-102848594I169746J169742D01*
G01*
X131576800Y-95438800D02*
G75*
G03*
X131336800Y-95198800I-240000J0D01*
G01*
X129636800Y-99638800D02*
G75*
G02*
X129876800Y-99398800I240000J0D01*
G01*
X129636800Y-97238800D02*
G75*
G02*
X129876800Y-96998800I240000J0D01*
G01*
X130606800Y-100238800D02*
G75*
G03*
X130366800Y-99998800I-240000J0D01*
G01*
X130685720Y-102339507D02*
G75*
G02*
X130685719Y-102000094I169680J169707D01*
G01*
X131958517Y-103272894D02*
G75*
G02*
X131619095Y-103272907I-169717J169694D01*
G01*
X132566627Y-101816252D02*
G75*
G03*
X132566673Y-101476794I-169727J169752D01*
G01*
X129876800Y-97598800D02*
G75*
G02*
X129636800Y-97358800I0J240000D01*
G01*
X129636800Y-98438800D02*
G75*
G02*
X129876800Y-98198800I240000J0D01*
G01*
X131336800Y-99398800D02*
G75*
G03*
X131576800Y-99158800I0J240000D01*
G01*
X129876800Y-99998800D02*
G75*
G02*
X129636800Y-99758800I0J240000D01*
G01*
X131109985Y-102424360D02*
G75*
G02*
X130770573Y-102424360I-169706J169701D01*
G01*
X131336800Y-98198800D02*
G75*
G03*
X131576800Y-97958800I0J240000D01*
G01*
X131576800Y-99038800D02*
G75*
G03*
X131336800Y-98798800I-240000J0D01*
G01*
X131576800Y-96638800D02*
G75*
G03*
X131336800Y-96398800I-240000J0D01*
G01*
X131336800Y-95798800D02*
G75*
G03*
X131576800Y-95558800I0J240000D01*
G01*
X131032203Y-101653613D02*
G75*
G03*
X131032210Y-101314193I-169703J169713D01*
G01*
%TO.N,FMC.D1*%
X128720858Y-87168107D02*
X127965200Y-86412449D01*
X127311473Y-98320562D02*
X127501658Y-98130378D01*
X126741658Y-96640378D02*
X127261658Y-96640378D01*
X124087067Y-101544969D02*
X124624468Y-102082370D01*
X123549667Y-101007570D02*
X123917363Y-101375266D01*
X123493097Y-101799528D02*
X123125402Y-101431833D01*
X126632651Y-98999385D02*
X126802356Y-99169090D01*
X125670987Y-98546836D02*
X125755839Y-98461985D01*
X127501658Y-89315707D02*
X128720858Y-88096507D01*
X127501658Y-96280378D02*
X127501658Y-96052210D01*
X127501658Y-98130378D02*
X127501658Y-97480378D01*
X125048731Y-101658105D02*
X124511329Y-101120703D01*
X124087069Y-101544972D02*
X124087067Y-101544969D01*
X124935597Y-100696443D02*
X124935595Y-100696441D01*
X126745787Y-99961049D02*
X126208385Y-99423647D01*
X123917363Y-101375266D02*
X124087069Y-101544972D01*
X125246723Y-99310513D02*
X125784125Y-99847915D01*
X127501658Y-96400378D02*
X127501658Y-96280378D01*
X126095251Y-98461985D02*
X126632653Y-98999387D01*
X127501658Y-96052210D02*
X127501658Y-89315707D01*
X127226619Y-98405414D02*
X127311473Y-98320562D01*
X127594315Y-99112521D02*
X127226619Y-98744825D01*
X125784123Y-99847913D02*
X126321524Y-100385314D01*
X124398195Y-100159041D02*
X124935597Y-100696443D01*
X123973931Y-100243892D02*
X124058783Y-100159041D01*
X125784125Y-99847915D02*
X125784123Y-99847913D01*
X127261658Y-97240378D02*
X126741658Y-97240378D01*
X124963879Y-102082370D02*
X125048731Y-101997517D01*
X126802356Y-99169090D02*
X127170052Y-99536786D01*
X125897259Y-100809577D02*
X125359857Y-100272175D01*
X126660935Y-100385314D02*
X126745787Y-100300461D01*
X121121818Y-104510218D02*
X123493096Y-102138940D01*
X125812407Y-101233842D02*
X125897259Y-101148989D01*
X124935595Y-100696441D02*
X125472996Y-101233842D01*
X127509463Y-99536786D02*
X127594315Y-99451933D01*
X125359857Y-100272175D02*
X125359859Y-100272177D01*
X126208385Y-99423647D02*
X126208387Y-99423649D01*
X126208387Y-99423649D02*
X125670986Y-98886248D01*
X123125401Y-101092423D02*
X123210255Y-101007570D01*
X124822459Y-99395364D02*
X124907311Y-99310513D01*
X124511331Y-101120705D02*
X123973930Y-100583304D01*
X126632653Y-98999387D02*
X126632651Y-98999385D01*
X124511329Y-101120703D02*
X124511331Y-101120705D01*
X125359859Y-100272177D02*
X124822458Y-99734776D01*
X127965200Y-86412449D02*
X127965200Y-79400400D01*
X128720858Y-88096507D02*
X128720858Y-87168107D01*
X126501658Y-97000378D02*
X126501658Y-96880378D01*
X123210255Y-101007570D02*
G75*
G02*
X123549667Y-101007570I169706J-169708D01*
G01*
X125472996Y-101233842D02*
G75*
G03*
X125812407Y-101233843I169706J169707D01*
G01*
X126501658Y-96880378D02*
G75*
G02*
X126741658Y-96640358I240042J-22D01*
G01*
X127170052Y-99536786D02*
G75*
G03*
X127509463Y-99536787I169706J169707D01*
G01*
X125670986Y-98886248D02*
G75*
G02*
X125670944Y-98546794I169714J169748D01*
G01*
X126321524Y-100385314D02*
G75*
G03*
X126660935Y-100385315I169706J169707D01*
G01*
X127501658Y-97480378D02*
G75*
G03*
X127261658Y-97240442I-239958J-22D01*
G01*
X125755839Y-98461985D02*
G75*
G02*
X126095251Y-98461985I169706J-169701D01*
G01*
X123125402Y-101431833D02*
G75*
G02*
X123125373Y-101092396I169698J169733D01*
G01*
X127261658Y-96640378D02*
G75*
G03*
X127501678Y-96400378I42J239978D01*
G01*
X126741658Y-97240378D02*
G75*
G02*
X126501722Y-97000378I42J239978D01*
G01*
X124058783Y-100159041D02*
G75*
G02*
X124398195Y-100159041I169706J-169701D01*
G01*
X127594315Y-99451933D02*
G75*
G03*
X127594342Y-99112494I-169715J169733D01*
G01*
X126745787Y-100300461D02*
G75*
G03*
X126745742Y-99961094I-169687J169661D01*
G01*
X123493096Y-102138940D02*
G75*
G03*
X123493131Y-101799495I-169696J169740D01*
G01*
X127226619Y-98744825D02*
G75*
G02*
X127226599Y-98405394I169681J169725D01*
G01*
X124624468Y-102082370D02*
G75*
G03*
X124963879Y-102082371I169706J169707D01*
G01*
X124907311Y-99310513D02*
G75*
G02*
X125246723Y-99310513I169706J-169701D01*
G01*
X124822458Y-99734776D02*
G75*
G02*
X124822488Y-99395393I169742J169676D01*
G01*
X123973930Y-100583304D02*
G75*
G02*
X123973933Y-100243894I169670J169704D01*
G01*
X125897259Y-101148989D02*
G75*
G03*
X125897242Y-100809594I-169659J169689D01*
G01*
X125048731Y-101997517D02*
G75*
G03*
X125048742Y-101658094I-169731J169717D01*
G01*
%TO.N,FMC.D7*%
X131948124Y-92466479D02*
G75*
G03*
X131948108Y-92805906I169676J-169721D01*
G01*
X134111870Y-91490670D02*
X134196724Y-91575524D01*
X133779530Y-89786544D02*
G75*
G02*
X134118942Y-89786544I169706J-169708D01*
G01*
X133517902Y-90896702D02*
X133348196Y-91066407D01*
X132923932Y-90302732D02*
G75*
G03*
X133263306Y-90302695I169668J169732D01*
G01*
X134203794Y-90210808D02*
X133687607Y-90726996D01*
X131948124Y-92805890D02*
X132032976Y-92890742D01*
X132032976Y-92890742D02*
G75*
G03*
X132372388Y-92890742I169706J169704D01*
G01*
X134203794Y-89871396D02*
G75*
G02*
X134203792Y-90210806I-169694J-169704D01*
G01*
X133772459Y-91490670D02*
G75*
G02*
X134111870Y-91490669I169706J-169707D01*
G01*
X133517901Y-90896702D02*
X133517902Y-90896702D01*
X134721600Y-92100400D02*
X135998102Y-92100400D01*
X133348196Y-91066407D02*
X131948124Y-92466479D01*
X134196724Y-91575524D02*
X134721600Y-92100400D01*
X133687607Y-90726996D02*
X133517901Y-90896702D01*
X133263344Y-90302733D02*
X133779530Y-89786544D01*
X132372388Y-92890742D02*
X133772459Y-91490670D01*
X134118942Y-89786544D02*
X134203794Y-89871396D01*
%TO.N,FMC.A8*%
X134913381Y-78786589D02*
X134849177Y-78850794D01*
X133255922Y-77771183D02*
X133191716Y-77835388D01*
X136822693Y-75819382D02*
X136040068Y-75036757D01*
X136040068Y-75036757D02*
X135783244Y-74779934D01*
X134779152Y-74032663D02*
X134714946Y-74096868D01*
X133250600Y-82753200D02*
X133250600Y-84545527D01*
X133250600Y-84545527D02*
X131708200Y-86087927D01*
X131780600Y-81534000D02*
X131780600Y-81624800D01*
X133069000Y-81352400D02*
X131962200Y-81352400D01*
X133250600Y-81080000D02*
X133250600Y-81170800D01*
X133589110Y-79516891D02*
X133250600Y-79855400D01*
X134423780Y-78682220D02*
X133512743Y-77771183D01*
X137143719Y-75755176D02*
X137079515Y-75819381D01*
X135229600Y-77319000D02*
X135229600Y-77503000D01*
X133012200Y-80898400D02*
X133069000Y-80898400D01*
X133069000Y-80444400D02*
X133012200Y-80444400D01*
X134056367Y-79598916D02*
X133910138Y-79452687D01*
X135668000Y-76730000D02*
X135411200Y-76730000D01*
X135783244Y-74779934D02*
X135035973Y-74032663D01*
X134714946Y-74353689D02*
X135462216Y-75100959D01*
X134959600Y-76865000D02*
X134959600Y-77049000D01*
X135229600Y-75590400D02*
X135229600Y-76094400D01*
X136906000Y-73914000D02*
X136361094Y-74458906D01*
X135462216Y-75357780D02*
X135398012Y-75421987D01*
X134231164Y-79131658D02*
X134377394Y-79277888D01*
X131708200Y-90255400D02*
X132080000Y-90627200D01*
X134377393Y-79534710D02*
X134313189Y-79598915D01*
X131708200Y-86087927D02*
X131708200Y-90255400D01*
X133250600Y-82078800D02*
X133250600Y-82753200D01*
X133250600Y-80444400D02*
X133069000Y-80444400D01*
X131962200Y-81806400D02*
X133069000Y-81806400D01*
X134873218Y-78489603D02*
X134913382Y-78529767D01*
X133250600Y-81988000D02*
X133250600Y-82078800D01*
X133653318Y-79452686D02*
X133589110Y-79516891D01*
X135411200Y-76730000D02*
X135229600Y-76730000D01*
X132830600Y-80626000D02*
X132830600Y-80716800D01*
X133385600Y-80444400D02*
X133250600Y-80444400D01*
X133520600Y-80125400D02*
X133520600Y-80309400D01*
X134102752Y-79003245D02*
X134231164Y-79131658D01*
X134552192Y-78810632D02*
X134423780Y-78682220D01*
X134592355Y-78850795D02*
X134552192Y-78810632D01*
X135229600Y-77876400D02*
X134873218Y-78232781D01*
X135229600Y-77503000D02*
X135229600Y-77876400D01*
X135229600Y-76730000D02*
X135094600Y-76730000D01*
X135849600Y-76457600D02*
X135849600Y-76548400D01*
X133191716Y-78092209D02*
X134102752Y-79003245D01*
X135398012Y-75421987D02*
X135229600Y-75590400D01*
X136361094Y-74715728D02*
X137143720Y-75498354D01*
X135411200Y-76276000D02*
X135668000Y-76276000D01*
X133069000Y-80898400D02*
G75*
G02*
X133250600Y-81080000I0J-181600D01*
G01*
X133250600Y-81170800D02*
G75*
G02*
X133069000Y-81352400I-181600J0D01*
G01*
X132830600Y-80716800D02*
G75*
G03*
X133012200Y-80898400I181600J0D01*
G01*
X131780600Y-81624800D02*
G75*
G03*
X131962200Y-81806400I181600J0D01*
G01*
X133069000Y-81806400D02*
G75*
G02*
X133250600Y-81988000I0J-181600D01*
G01*
X131962200Y-81352400D02*
G75*
G03*
X131780600Y-81534000I0J-181600D01*
G01*
X134849177Y-78850794D02*
G75*
G02*
X134592390Y-78850761I-128377J128394D01*
G01*
X136361094Y-74458906D02*
G75*
G03*
X136361111Y-74715711I128406J-128394D01*
G01*
X134913382Y-78529767D02*
G75*
G02*
X134913404Y-78786612I-128382J-128433D01*
G01*
X135094600Y-77184000D02*
G75*
G02*
X135229600Y-77319000I0J-135000D01*
G01*
X134873218Y-78232781D02*
G75*
G03*
X134873210Y-78489611I128382J-128419D01*
G01*
X135668000Y-76276000D02*
G75*
G02*
X135849600Y-76457600I0J-181600D01*
G01*
X135229600Y-76094400D02*
G75*
G03*
X135411200Y-76276000I181600J0D01*
G01*
X133191716Y-77835388D02*
G75*
G03*
X133191714Y-78092211I128384J-128412D01*
G01*
X135035973Y-74032663D02*
G75*
G03*
X134779153Y-74032663I-128410J-128408D01*
G01*
X137079515Y-75819381D02*
G75*
G02*
X136822689Y-75819386I-128415J128381D01*
G01*
X134377394Y-79277888D02*
G75*
G02*
X134377394Y-79534712I-128394J-128412D01*
G01*
X134714946Y-74096868D02*
G75*
G03*
X134714924Y-74353710I128454J-128432D01*
G01*
X133250600Y-79855400D02*
G75*
G03*
X133385600Y-79990400I135000J0D01*
G01*
X133385600Y-79990400D02*
G75*
G02*
X133520600Y-80125400I0J-135000D01*
G01*
X135094600Y-76730000D02*
G75*
G03*
X134959600Y-76865000I0J-135000D01*
G01*
X135462216Y-75100959D02*
G75*
G02*
X135462247Y-75357810I-128416J-128441D01*
G01*
X134959600Y-77049000D02*
G75*
G03*
X135094600Y-77184000I135000J0D01*
G01*
X134313189Y-79598915D02*
G75*
G02*
X134056390Y-79598894I-128389J128415D01*
G01*
X133012200Y-80444400D02*
G75*
G03*
X132830600Y-80626000I0J-181600D01*
G01*
X133512743Y-77771183D02*
G75*
G03*
X133255923Y-77771183I-128410J-128408D01*
G01*
X137143720Y-75498354D02*
G75*
G02*
X137143755Y-75755211I-128420J-128446D01*
G01*
X133520600Y-80309400D02*
G75*
G02*
X133385600Y-80444400I-135000J0D01*
G01*
X133910138Y-79452687D02*
G75*
G03*
X133653291Y-79452658I-128438J-128413D01*
G01*
X135849600Y-76548400D02*
G75*
G02*
X135668000Y-76730000I-181600J0D01*
G01*
%TO.N,FMC.A9*%
X139051791Y-76415540D02*
X139051789Y-76415538D01*
X139900319Y-75567012D02*
X139900317Y-75567010D01*
X139476053Y-75991274D02*
X138903297Y-75418518D01*
X139051789Y-76415538D02*
X139624545Y-76988294D01*
X142363601Y-72423726D02*
X141793601Y-72423726D01*
X139963956Y-76988294D02*
X140048808Y-76903441D01*
X140812484Y-76139766D02*
X140897336Y-76054913D01*
X141793601Y-73023726D02*
X142363601Y-73023726D01*
X140324581Y-75142746D02*
X140154876Y-74973041D01*
X140176090Y-74145727D02*
X140579141Y-74548778D01*
X141003405Y-74463923D02*
X141553601Y-73913726D01*
X138903298Y-75079106D02*
X138988150Y-74994255D01*
X141553601Y-72183726D02*
X141553601Y-72063726D01*
X141553601Y-71882000D02*
X141553601Y-67894799D01*
X140897336Y-75715501D02*
X140324579Y-75142744D01*
X139900317Y-75567010D02*
X140473073Y-76139766D01*
X140048808Y-76564029D02*
X139476051Y-75991272D01*
X140154876Y-74973041D02*
X139751825Y-74569990D01*
X134715473Y-85260800D02*
X134195200Y-84740527D01*
X140324579Y-75142744D02*
X140324581Y-75142746D01*
X139327562Y-74994255D02*
X139900319Y-75567012D01*
X138627523Y-76839800D02*
X138627525Y-76839802D01*
X140918553Y-74548778D02*
X141003405Y-74463923D01*
X139115428Y-77836822D02*
X139200280Y-77751969D01*
X139200280Y-77412557D02*
X138797229Y-77009506D01*
X138372966Y-77433772D02*
X138776016Y-77836822D01*
X134195200Y-81272127D02*
X138033555Y-77433772D01*
X141553601Y-73913726D02*
X141553601Y-73263726D01*
X139476051Y-75991272D02*
X139476053Y-75991274D01*
X138797229Y-77009506D02*
X138627523Y-76839800D01*
X134715473Y-87737727D02*
X134715473Y-85260800D01*
X142603601Y-72783726D02*
X142603601Y-72663726D01*
X133105844Y-89347356D02*
X134715473Y-87737727D01*
X133105844Y-89491756D02*
X133105844Y-89347356D01*
X141553601Y-72063726D02*
X141553601Y-71882000D01*
X139751826Y-74230578D02*
X139836678Y-74145727D01*
X138054770Y-75927634D02*
X138139622Y-75842783D01*
X134195200Y-84740527D02*
X134195200Y-81272127D01*
X138627525Y-76839802D02*
X138054769Y-76267046D01*
X138479034Y-75842783D02*
X139051791Y-76415540D01*
X142363601Y-73023726D02*
G75*
G03*
X142603626Y-72783726I-1J240026D01*
G01*
X139836678Y-74145727D02*
G75*
G02*
X140176090Y-74145727I169706J-169701D01*
G01*
X139200280Y-77751969D02*
G75*
G03*
X139200243Y-77412594I-169680J169669D01*
G01*
X139751825Y-74569990D02*
G75*
G02*
X139751841Y-74230594I169675J169690D01*
G01*
X142603601Y-72663726D02*
G75*
G03*
X142363601Y-72423699I-240001J26D01*
G01*
X138988150Y-74994255D02*
G75*
G02*
X139327562Y-74994255I169706J-169701D01*
G01*
X141793601Y-72423726D02*
G75*
G02*
X141553574Y-72183726I-1J240026D01*
G01*
X140048808Y-76903441D02*
G75*
G03*
X140048843Y-76563994I-169708J169741D01*
G01*
X140897336Y-76054913D02*
G75*
G03*
X140897343Y-75715494I-169736J169713D01*
G01*
X140579141Y-74548778D02*
G75*
G03*
X140918553Y-74548778I169706J169708D01*
G01*
X141553601Y-73263726D02*
G75*
G02*
X141793601Y-73023701I239999J26D01*
G01*
X138776016Y-77836822D02*
G75*
G03*
X139115428Y-77836822I169706J169704D01*
G01*
X138903297Y-75418518D02*
G75*
G02*
X138903285Y-75079094I169703J169718D01*
G01*
X140473073Y-76139766D02*
G75*
G03*
X140812484Y-76139767I169706J169707D01*
G01*
X138054769Y-76267046D02*
G75*
G02*
X138054729Y-75927594I169731J169746D01*
G01*
X139624545Y-76988294D02*
G75*
G03*
X139963956Y-76988295I169706J169707D01*
G01*
X138033555Y-77433772D02*
G75*
G02*
X138372966Y-77433771I169706J-169707D01*
G01*
X138139622Y-75842783D02*
G75*
G02*
X138479034Y-75842783I169706J-169701D01*
G01*
%TO.N,FMC.SDCLK*%
X128879600Y-100736400D02*
X123698000Y-105918000D01*
X128879600Y-90276311D02*
X128879600Y-100736400D01*
X129533658Y-89622253D02*
X128879600Y-90276311D01*
X129533658Y-86204653D02*
X129533658Y-89622253D01*
X128574800Y-79678927D02*
X128574800Y-85245795D01*
X128574800Y-85245795D02*
X129533658Y-86204653D01*
X128593200Y-79660527D02*
X128574800Y-79678927D01*
X129305474Y-76689600D02*
X128593200Y-77401874D01*
X128593200Y-77401874D02*
X128593200Y-79660527D01*
X129305474Y-76688526D02*
X129305474Y-76689600D01*
X138353602Y-67894002D02*
X138099998Y-67894002D01*
X138099998Y-67894002D02*
X129305474Y-76688526D01*
%TO.N,FMC.D7*%
X132163200Y-86886400D02*
X132163200Y-89542000D01*
X133705600Y-80873600D02*
X133705600Y-85344000D01*
X133705600Y-85344000D02*
X132163200Y-86886400D01*
X135178800Y-79400400D02*
X133705600Y-80873600D01*
X132163200Y-89542000D02*
X132923932Y-90302732D01*
%TD*%
M02*
